<?xml version="1.0" encoding="utf-8"?>
<!-- Generator: Adobe Illustrator 26.0.1, SVG Export Plug-In . SVG Version: 6.00 Build 0)  -->
<svg version="1.1" id="Layer_2_00000178194116083931400940000017298817352082253236_"
	 xmlns="http://www.w3.org/2000/svg" xmlns:xlink="http://www.w3.org/1999/xlink" x="0px" y="0px" viewBox="0 0 700 700"
	 style="enable-background:new 0 0 700 700;" xml:space="preserve">
<style type="text/css">
	.st0{opacity:0.4;fill:#008080;enable-background:new    ;}
	.st1{opacity:0.22;fill:#008080;enable-background:new    ;}
	.st2{fill:#FFFFFF;}
	.st3{fill:#008080;}
	.st4{opacity:0.7;fill:#008080;enable-background:new    ;}
	.st5{fill:#99B9FF;}
	.st6{opacity:0.82;}
	.st7{clip-path:url(#SVGID_00000003783536797576133840000018250834716428423070_);enable-background:new    ;}
	.st8{clip-path:url(#SVGID_00000110462564531358580070000002980335823986143628_);}
	.st9{clip-path:url(#SVGID_00000063630371328816913830000006340431010585972868_);}
	.st10{clip-path:url(#SVGID_00000178922614139174030460000000919108554812710785_);fill:#008080;}
	.st11{opacity:0.44;}
	.st12{opacity:0.27;enable-background:new    ;}
	.st13{opacity:0.3;enable-background:new    ;}
</style>
<g>
	<path class="st0" d="M8,571.4c20.5,49.9,68.6,73.6,99.2,88.7c120.9,59.5,304.5,52.5,436.8-56c30.9-25.4,183.4-158.4,147.9-338.5
		C660.5,106.2,502.6,13.9,369.7,1.5C259.5-8.6,115.7,31.6,64.9,128.7c-31.9,61.1,6.4,80.5-19.7,218.9C22.5,467.4-17.1,510.3,8,571.4
		z"/>
	<g>
		<g>
			<g>
				<g>
					<path class="st1" d="M463.4,377.8l-132,0.8c-0.8,0-1.1,0.8-1.1,1.5v112.3c0,10.7-75,38.7-75.8,37.2l-0.1,11.9
						c0,2.2,1.9,4.2,4.4,4.2h1.6l0,0H371c5.1,0,10.2-1.1,14.9-3.1l60.9-25.6c10.9-4.6,17.9-14.5,17.9-25.3V379.3
						C464.8,378.5,464.2,377.8,463.4,377.8z"/>
					<g>
						<path class="st2" d="M316.8,372.1v112.3c0,11.1-7.1,21.1-18.4,25.9l-41,17.5c-2.7,1.1-1.7,4.7,1.2,4.7h112.8
							c5.1,0,10.1-1,14.7-3l45.5-19.2c11.3-4.8,18.5-14.9,18.5-26V372.1c0-0.5-0.4-0.8-0.9-0.8H317.8
							C317.3,371.2,316.8,371.5,316.8,372.1z"/>
						<path d="M371.4,533.9H258.6c-1.9,0-3.6-1.2-4-3.1c-0.3-1.7,0.6-3.4,2.2-4.1l41-17.5c10.7-4.6,17.5-14.3,17.5-24.8V372.1
							c0-1.1,1-2.1,2.2-2.1h131.4c1.2,0,2.2,0.9,2.2,2.1v112.4c0,11.6-7.5,22.2-19.3,27.1l-45.5,19.2
							C381.9,532.8,376.6,533.9,371.4,533.9z M318.1,372.5v111.9c0,11.5-7.4,22.1-19.1,27.1l-41,17.5c-0.9,0.4-0.8,1-0.8,1.3
							c0.1,0.5,0.5,1,1.5,1h112.8c4.9,0,9.8-1,14.2-2.9l45.5-19.2c10.7-4.5,17.8-14.3,17.8-24.9v-112H318.1z M449.2,372.5
							L449.2,372.5L449.2,372.5z"/>
					</g>
				</g>
				<g>
					<path class="st3" d="M70,436.4l569.1,1.3c5,0,9.9-3.8,10.6-8.7l46.2-356.2c1.1-8.7-5.6-17.2-14.2-17l-562.5,3L70,436.4z"/>
					<path class="st2" d="M659.5,57.9c9.8,0,18.7,9.9,17.3,19.7l-44.9,350.5c-0.6,5-5.9,9.2-10.9,9.2l-559.1-0.9c-6,0-10-5-9.2-10.9
						L99.3,68.4c0.6-5,3.9-10.5,8.9-10.5L659.5,57.9L659.5,57.9z"/>
					<path d="M621,437.8L208.2,437c-0.7,0-1.2-0.6-1.2-1.2c0-0.7,0.6-1.2,1.2-1.2l0,0l412.8,0.7c4.5,0,9.1-3.9,9.7-8.1l44.9-350.5
						c0.5-4.3-1-8.8-4.2-12.4c-3.3-3.7-7.5-5.8-11.9-5.8H108.1c-4,0-7,4.8-7.7,9.4L54,424.9c-0.3,2.7,0.3,5.1,1.9,6.8
						c1.4,1.6,3.6,2.7,6,2.7l34,0.1c0.7,0,1.2,0.6,1.2,1.2c0,0.7-0.6,1.2-1.2,1.2l0,0l-34-0.1c-3.2,0-5.9-1.2-8-3.5
						c-2-2.3-3-5.5-2.6-8.9L97.9,67.4c0.7-5.6,4.5-11.6,10.1-11.6h551.4c5.1,0,10.1,2.4,13.9,6.6c3.7,4.2,5.4,9.5,4.8,14.4
						l-44.9,350.5C632.4,433,626.8,437.8,621,437.8z"/>
					<path class="st4" d="M643.2,72.3c9,0,17.1,9.2,16,18.1l-41.3,322.5c-0.6,4.6-5.5,8.4-10,8.4l-528.2-0.8c-5.5,0-9.2-4.6-8.5-10
						L114,81.9c0.6-4.6,3.6-9.7,8.2-9.7h521V72.3z"/>
				</g>
			</g>
		</g>
		<g>
			<g>
				<polygon class="st2" points="587.6,116.8 373,116.8 374.4,106.1 589.1,106.1 				"/>
				<polygon class="st3" points="633.9,134.6 415.2,134.6 416.6,123.8 635.5,123.8 				"/>
				<polygon class="st2" points="605.2,152.3 492.1,152.3 493.6,141.6 606.7,141.6 				"/>
				<polygon class="st2" points="568.6,258.8 353.9,258.8 355.3,248 570,248 				"/>
				<polygon class="st3" points="614.9,276.6 396.1,276.6 397.6,265.7 616.4,265.7 				"/>
				<polygon class="st3" points="612.5,294.3 473.1,294.3 474.5,283.5 614,283.5 				"/>
				<polygon class="st3" points="520.8,311.3 390.6,311.3 392.2,300.5 522.2,300.5 				"/>
				<polygon class="st3" points="580.5,170.1 365.8,170.1 367.3,159.3 581.9,159.3 				"/>
				<polygon class="st3" points="626.8,187.8 408.1,187.8 409.5,177.1 628.2,177.1 				"/>
				<polygon class="st2" points="569.3,223.3 482.6,223.3 484.1,212.5 570.8,212.5 				"/>
				<polygon class="st3" points="592.8,241.1 506.1,241.1 507.5,230.2 594.3,230.2 				"/>
				<polygon class="st3" points="624.5,205.6 485,205.6 486.4,194.8 625.9,194.8 				"/>
				<polygon class="st2" points="559.1,329.8 344.3,329.8 345.7,319 560.5,319 				"/>
				<polygon class="st3" points="598.3,347.6 386.6,347.6 388.1,336.8 599.8,336.8 				"/>
				<polygon class="st3" points="602.9,365.3 463.6,365.3 465,354.5 604.5,354.5 				"/>
				<polygon class="st2" points="551.8,383.1 337.2,383.1 338.6,372.3 553.3,372.3 				"/>
				<polygon class="st3" points="598.2,400.8 379.4,400.8 380.9,390 599.7,390 				"/>
			</g>
			<g>
				<polygon class="st3" points="338.4,240.9 317.5,240.9 318.9,230.4 339.8,230.4 				"/>
				<polygon class="st3" points="355.8,116.8 334.1,116.8 335.5,106.1 357.3,106.1 				"/>
				<polygon class="st3" points="358.1,100.5 336.2,100.5 337.7,89.8 359.5,89.8 				"/>
				<polygon class="st3" points="353.3,134.6 331.7,134.6 333.1,123.8 354.7,123.8 				"/>
				<polygon class="st3" points="350.2,152.3 329.6,152.3 331.1,141.6 351.7,141.6 				"/>
				<polygon class="st3" points="347.9,170.1 327,170.1 328.5,159.3 349.3,159.3 				"/>
				<polygon class="st3" points="345.4,187.8 324.5,187.8 325.9,177.1 346.9,177.1 				"/>
				<polygon class="st3" points="341.2,222.6 320.5,222.6 322,211.8 342.7,211.8 				"/>
				<polygon class="st3" points="343.1,204.8 323.3,204.8 324.7,194.1 344.6,194.1 				"/>
				<polygon class="st3" points="331.1,294.7 310.2,294.7 311.7,284.4 332.6,284.4 				"/>
				<polygon class="st3" points="334,276.5 313.3,276.5 314.7,265.7 335.4,265.7 				"/>
				<polygon class="st3" points="335.8,258.7 316,258.7 317.5,248 337.4,248 				"/>
				<polygon class="st3" points="317.1,399.7 296.2,399.7 297.5,389.4 318.4,389.4 				"/>
				<polygon class="st3" points="328.8,311.3 308.3,311.3 309.7,300.4 330.2,300.4 				"/>
				<polygon class="st3" points="326.6,329 305.6,329 307.1,318.2 328,318.2 				"/>
				<polygon class="st3" points="324,346.7 303.2,346.7 304.6,335.9 325.5,335.9 				"/>
				<polygon class="st3" points="319.9,381.4 299.2,381.4 300.6,370.7 321.4,370.7 				"/>
				<polygon class="st3" points="321.8,363.7 302,363.7 303.4,353 323.2,353 				"/>
			</g>
			<g>
				<polygon class="st3" points="245,98.1 141.6,98.1 143,87.8 246.4,87.8 				"/>
				<polygon class="st2" points="263.2,116.1 154.2,116.1 155.7,105.4 264.6,105.4 				"/>
				<polygon class="st2" points="291.7,133.8 164.8,133.8 166.2,123.1 293.1,123.1 				"/>
				<polygon class="st2" points="307.9,151.6 202,151.6 203.4,140.9 309.3,140.9 				"/>
				<polygon class="st3" points="206.3,240.1 122.5,240.1 123.9,229.8 207.7,229.8 				"/>
				<polygon class="st2" points="207.6,258.1 146.4,258.1 147.8,247.3 209,247.3 				"/>
				<polygon class="st2" points="229.5,275.8 170.9,275.8 172.3,265 231,265 				"/>
				<polygon class="st2" points="268.3,293.6 194.1,293.6 195.6,282.8 269.7,282.8 				"/>
				<polygon class="st3" points="208.2,169.3 133.4,169.3 134.9,158.6 209.7,158.6 				"/>
				<polygon class="st2" points="301.3,187.1 185.7,187.1 187.1,176.4 302.7,176.4 				"/>
				<polygon class="st3" points="204.4,204.8 129.6,204.8 131,194 205.9,194 				"/>
				<polygon class="st2" points="297.5,222.6 181.8,222.6 183.2,211.8 298.9,211.8 				"/>
				<polygon class="st3" points="206.1,311.1 113,311.1 114.4,300.7 207.5,300.7 				"/>
				<polygon class="st2" points="266.4,329.1 114.4,329.1 115.8,318.3 267.8,318.3 				"/>
				<polygon class="st2" points="265.9,346.9 178.5,346.9 180.1,336 267.3,336 				"/>
				<polygon class="st3" points="229.2,382.4 128.7,382.4 130.2,371.5 230.7,371.5 				"/>
				<polygon class="st2" points="283.3,363.2 199.5,363.2 201,352.4 284.7,352.4 				"/>
				<polygon class="st2" points="246.5,400.1 167.3,400.1 168.7,389.3 247.9,389.3 				"/>
			</g>
		</g>
	</g>
	<g>
		<g>
			<g>
				<g>
					<polygon class="st2" points="666.8,636.9 664.7,657 651.2,658.5 651.2,634.8 					"/>
					<path d="M651.2,659.9c-0.3,0-0.6-0.1-0.8-0.3c-0.3-0.2-0.4-0.6-0.4-0.9v-23.9c0-0.4,0.2-0.7,0.4-0.9c0.3-0.2,0.6-0.3,1-0.3
						l15.6,2.1c0.7,0.1,1.1,0.7,1.1,1.4l-2.1,20.1c-0.1,0.6-0.5,1-1.1,1.1l-13.5,1.6C651.3,659.9,651.3,659.9,651.2,659.9z
						 M652.4,636.2v21l11.1-1.3l1.8-17.9L652.4,636.2z"/>
				</g>
				<g>
					<g>
						<path class="st3" d="M649,693.6c5.6,0.8,14.9,1.5,25.7,0c3.6-0.5,5.9-4,5-7.4c-2.3-9.8-6.5-28.3-13.6-36.8l-1.7,4.7l-2.4-4.4
							c-0.3-0.6-0.9-1-1.6-1.1l-5.3-0.7c-1.1-0.1-2.1,0.6-2.3,1.7l-0.8,4.1l-3.3-5.3l-1.4,19.8c-0.3,4.3-0.9,8.5-1.9,12.5l-1.4,6.2
							C643.5,690.1,645.8,693.1,649,693.6z"/>
						<path d="M661.8,695.8c-5.2,0-9.6-0.4-13-0.9l0,0c-4-0.5-6.7-4.3-6.2-8.3v-0.1l1.4-6.2c0.9-4.1,1.5-8.3,1.8-12.3l1.4-19.8
							c0-0.5,0.4-1,0.9-1.1c0.5-0.1,1.1,0.1,1.3,0.6l1.5,2.6l0.2-0.9c0.4-1.7,2-3,3.8-2.7l5.3,0.7c1.1,0.1,2,0.8,2.6,1.7l1.1,2
							l0.8-2.1c0.2-0.4,0.5-0.7,1-0.8c0.4-0.1,0.9,0.1,1.2,0.4c6.7,8.3,10.8,25.1,13.3,35.3l0.5,2.1c0.5,2,0.1,4.2-1,5.9
							c-1.1,1.7-3,2.9-5,3.2C670.3,695.5,665.8,695.8,661.8,695.8z M645.2,687c-0.3,2.6,1.5,5,4.1,5.3l0,0c5.7,0.8,14.8,1.4,25.3,0
							c1.3-0.2,2.6-0.9,3.3-2c0.7-1.1,1-2.6,0.7-3.9l-0.5-2.1c-2.2-9.2-5.8-24.1-11.4-32.4l-0.9,2.4c-0.2,0.5-0.6,0.8-1.1,0.8
							c-0.5,0-0.9-0.2-1.2-0.6l-2.4-4.4c-0.1-0.2-0.4-0.4-0.6-0.4l-5.3-0.7c-0.4-0.1-0.9,0.2-1,0.7l-0.8,4.1c-0.1,0.5-0.5,0.9-1,1
							c-0.5,0.1-1-0.1-1.3-0.6l-1.2-1.9l-1.1,15.8c-0.3,4.3-0.9,8.6-1.9,12.8L645.2,687z"/>
					</g>
					<path d="M661.4,689.7c-6.9,0-11.2-1.5-11.4-1.6c-0.6-0.2-1-0.9-0.7-1.6c0.2-0.6,0.9-1,1.6-0.7c0.1,0,9,3.1,21.9,0.1
						c0.7-0.2,1.3,0.3,1.5,0.9c0.2,0.7-0.3,1.3-0.9,1.5C668.8,689.4,664.8,689.7,661.4,689.7z"/>
					<path d="M667.9,674.3L667.9,674.3l-12.7-0.4c-0.7,0-1.2-0.6-1.2-1.3c0-0.7,0.6-1.2,1.3-1.2l12.7,0.4c0.7,0,1.2,0.6,1.2,1.3
						C669.1,673.7,668.6,674.3,667.9,674.3z"/>
				</g>
			</g>
			<g>
				<g>
					<polygon class="st2" points="603.5,626.2 601.5,655.5 585.3,655.5 584.5,626.2 					"/>
					<path d="M601.5,656.8h-16.2c-0.7,0-1.2-0.5-1.2-1.2l-0.7-29.4c0-0.3,0.1-0.7,0.3-0.9c0.2-0.2,0.6-0.4,0.9-0.4h19.1
						c0.3,0,0.7,0.1,0.9,0.4c0.2,0.3,0.4,0.6,0.3,0.9l-2,29.4C602.7,656.3,602.2,656.8,601.5,656.8z M586.5,654.2h13.9l1.8-26.8
						h-16.4L586.5,654.2z"/>
				</g>
				<g>
					<g>
						<path class="st3" d="M605.8,672.1c0,2.8-1.8,5.2-4.5,5.8c-9.4,2.1-30.4,7-36.4,8c-7.8,1.1-17.3-1.2-21.5-5.8
							c-4.1-4.6,9.2-15.5,15.5-19.5c9.4-5.9,18.5-17.6,22.2-18.2c3.8-0.5,10.8,10.5,10.8,10.5l11.5-4.9
							C603.5,648,605.6,658,605.8,672.1z"/>
						<path d="M560.8,687.4c-7.2,0-14.8-2.6-18.4-6.5c-0.9-1-1.2-2.2-1-3.7c0.9-6.4,12.8-15.2,16.8-17.8c4.6-2.9,9.1-7.1,13-10.9
							c4.8-4.5,7.5-7.1,9.7-7.4c3.9-0.5,9.3,6.8,11.5,10.2l10.6-4.5c0.3-0.1,0.7-0.1,1.1,0c0.3,0.2,0.6,0.5,0.6,0.8
							c0,0.1,2,10.2,2.2,24.3l0,0c0,3.4-2.2,6.3-5.5,7c-9,2.1-30.4,7-36.5,8C563.7,687.3,562.2,687.4,560.8,687.4z M581.4,643.6
							h-0.1c-1.5,0.2-5,3.6-8.4,6.7c-4,3.9-8.6,8.2-13.4,11.2c-6.2,3.9-15.1,11.6-15.7,16c-0.1,0.9,0.2,1.3,0.4,1.6
							c3.7,4.1,12.9,6.5,20.4,5.4c6-0.9,27.3-5.8,36.3-8c2.1-0.5,3.6-2.4,3.6-4.6l0,0c-0.2-10.6-1.3-19-1.9-22.2l-10.1,4.3
							c-0.6,0.2-1.2,0-1.5-0.5C587.8,648.7,583.3,643.6,581.4,643.6z"/>
					</g>
					<path d="M560.9,680.3c-5.2,0-9.8-0.8-13.2-3.1c-0.6-0.4-0.7-1.1-0.4-1.7c0.4-0.6,1.1-0.7,1.7-0.4c11.8,7.8,43.9-3.9,50.1-6.2
						c0.6-0.2,1.4,0.1,1.6,0.7c0.2,0.6-0.1,1.4-0.7,1.6C593.4,673.7,575.1,680.3,560.9,680.3z"/>
					<path d="M579,664.2c-0.3,0-0.6-0.1-0.9-0.4l-6.7-6.6c-0.5-0.5-0.5-1.3,0-1.7c0.5-0.5,1.3-0.5,1.7,0l6.7,6.6
						c0.5,0.5,0.5,1.3,0,1.7C579.6,664.1,579.3,664.2,579,664.2z"/>
				</g>
			</g>
			<g>
				<path class="st3" d="M671.4,434.9c0,0,5,91.7,7.7,123.3c2.7,31.6-6.1,82.5-6.1,82.5l-25.1-1.3c0,0-1.7-61.9-3.6-79.1
					c0,0-10.6-23.3-13.8-44.1c-3.2-20.8-13.9-53.6-13.9-53.6s-8.7,163.8-9.5,176.7c0,0-19.7,0.9-26.7-3.6c0,0-12.4-59.7-10.7-92.2
					c1.8-32.5-0.2-113.2-0.2-113.2L671.4,434.9z"/>
				<path class="st2" d="M656.5,561.7h-7.7c-0.7,0-1.2-0.6-1.2-1.2s0.6-1.2,1.2-1.2h7.7c0.7,0,1.2,0.6,1.2,1.2
					S657.2,561.7,656.5,561.7z"/>
				<path class="st2" d="M594.3,609.4c-0.7,0-1.2-0.5-1.2-1.2c-0.3-14.6-17-42.1-17.1-42.4c-0.4-0.6-0.2-1.3,0.4-1.7
					c0.6-0.4,1.3-0.2,1.7,0.4c0.7,1.1,17.2,28.4,17.5,43.7C595.5,608.7,595,609.4,594.3,609.4L594.3,609.4z"/>
			</g>
		</g>
		<g>
			<g>
				<path class="st2" d="M554.1,289.8c-1.4-0.1-13,19.7-18.4,29.2c-1.5,2.7-5,3.6-7.7,1.9l-42.4-26.2c-3.5-2.1-6.4-5-8.7-8.5
					c-3.6-5.4-5.6-10.9-10.4-14.8c-3.9-3.2-7.8-6.6-9-7.5c-0.7-0.6-4.2,1.8-1.5,6.1c0.8,1.3,3.8,4,4.6,5.2c1.3,1.9,1.3,4.5-0.1,6.3
					c-1.5,1.9-2.8,5.1-1.1,9.5c2.6,6.4,8.3,8.1,11.5,8.5c1.6,0.2,3.2,1,4.2,2.2l39.2,45c6.1,6.9,16.2,8.6,24.2,3.8
					c12.8-7.8,29.2-23.5,41-43.4L554.1,289.8z"/>
				<path d="M528.5,354.6c-5.7,0-11.2-2.3-15.2-6.9l-39.2-45c-0.9-1-2.1-1.6-3.4-1.8c-3.5-0.4-9.8-2.1-12.5-9.2
					c-1.9-5-0.4-8.6,1.2-10.7c1.1-1.4,1.1-3.4,0.1-4.9c-0.3-0.5-1.1-1.3-1.9-2.1c-1.1-1.1-2.1-2.2-2.7-3.1c-2-3.4-1-6,0.4-7.3
					c1-0.9,2.1-1.1,3-0.5c0.5,0.4,1.4,1.2,2.8,2.3c1.7,1.5,4,3.4,6.2,5.2c3.6,2.9,5.6,6.5,7.9,10.4c0.9,1.5,1.8,3.2,2.9,4.7
					c2.1,3.3,5,6,8.3,8.1l42.5,26.2c1,0.6,2.1,0.8,3.3,0.5c1.1-0.3,2-1,2.7-2c17.2-30,18.5-29.9,19.6-29.9c0.2,0,0.4,0.1,0.6,0.2
					l25.3,17.4c0.5,0.4,0.7,1.1,0.4,1.6c-12.8,21.4-29.8,36.6-41.4,43.8C535.7,353.7,532.1,354.6,528.5,354.6z M457.1,265.3
					c-0.2,0.1-0.5,0.4-0.7,0.9c-0.4,0.9-0.2,2,0.6,3.4c0.3,0.6,1.4,1.6,2.3,2.7c0.9,0.9,1.7,1.8,2.2,2.6c1.6,2.4,1.5,5.6-0.2,7.9
					c-1.8,2.3-2.1,5.1-0.9,8.3c2.3,5.8,7.5,7.3,10.5,7.7c1.9,0.2,3.8,1.1,5,2.7l39.2,45c5.7,6.5,15.2,8,22.5,3.5
					c11.2-6.8,27.5-21.4,40-41.9l-23.6-16.3c-1.7,2-7,10.2-17.3,28.3c-0.9,1.6-2.4,2.8-4.2,3.2c-1.7,0.4-3.7,0.2-5.2-0.8l-42.5-26.2
					c-3.7-2.2-6.7-5.3-9.1-8.8c-1-1.6-2-3.3-2.9-4.8c-2.1-3.7-4.1-7.1-7.2-9.7c-2.2-1.8-4.6-3.8-6.2-5.2
					C458.5,266.5,457.7,265.7,457.1,265.3z"/>
			</g>
			<path d="M700,326.8c0,0,2.9-52.2-36.6-66.9c-30.6-11.3-69.7-6.4-81.9-2.2c-30.1,10.4-45,50.3-45,50.3l35.3,5
				c0,0-10.6,114.5-6,140c0,0,28.5,3.4,40.5-1.4c12-4.8,51.7-11.4,70.6-2.8l-3.5-122.4L700,326.8z"/>
			<path class="st2" d="M650.8,424.6c-0.1,0-0.1,0-0.2,0c-46.3-8.3-59.9-40.8-60.1-41.1c-0.3-0.6,0.1-1.4,0.7-1.6
				c0.6-0.3,1.4,0.1,1.6,0.7c0.1,0.3,13.3,31.5,58.2,39.6c0.7,0.1,1.1,0.8,1,1.4C651.9,424.2,651.3,424.6,650.8,424.6z"/>
			<g>
				<polygon class="st3" points="566.5,368.8 624.4,368.8 606.2,303.7 548.4,303.7 				"/>
				<path d="M624.4,370.1h-57.8c-0.6,0-1-0.4-1.2-0.9l-18.2-65.1c-0.1-0.4,0-0.8,0.2-1.1s0.6-0.5,1-0.5h57.8c0.6,0,1,0.4,1.2,0.9
					l18.2,65.1c0.1,0.4,0,0.8-0.2,1.1C625.1,369.9,624.8,370.1,624.4,370.1z M567.4,367.6h55.3L605.3,305H550L567.4,367.6z"/>
			</g>
			<g>
				<path class="st2" d="M693.1,326.8l-25.4-1.1c0,0-0.2,21.5-2.4,21.9c-8.2,1.3-25.3,1.4-36.4,0.1c-3.9-0.5-6.9-3.5-7.7-7.3
					c-0.5-3-2.1-6.3-6.1-8.8c-3.9-2.3-0.1,5.1-3.7,10c-1.9,2.6-8.1,1.4-16.4-0.5c-8.4-1.9-10.5,7-1.1,12.4
					c10.2,5.9,16.6,5.2,19.8,5.9c6.4,1.3,63.5,10.4,72.2,5.5C692.6,361.1,693.1,326.8,693.1,326.8z"/>
				<path d="M674.8,367.6c-20.5,0-58.3-6.3-61.5-6.9c-0.6-0.1-1.4-0.2-2.3-0.3c-3.6-0.4-9.6-1-17.9-5.7c-6.1-3.6-7.5-8.5-6.3-11.5
					c1.1-2.9,4.5-4.2,8.4-3.3c5.7,1.3,13.5,3.2,15.1,1c1.5-2,1.5-4.8,1.5-6.8c0-1.8,0-3.2,1.1-3.9c1.1-0.6,2.2,0.1,2.8,0.4
					c3.6,2.2,5.9,5.6,6.7,9.7c0.6,3.4,3.3,5.9,6.6,6.3c10.7,1.3,27.5,1.3,35.8,0c1-1.8,1.6-12,1.7-20.8c0-0.3,0.1-0.7,0.4-0.9
					c0.2-0.2,0.6-0.4,0.9-0.3l25.4,1.1c0.7,0,1.2,0.6,1.2,1.3c0,3.6-0.7,35.3-8,39.2C684.4,367.2,680.3,367.6,674.8,367.6z
					 M592.6,342c-1.7,0-3.1,0.7-3.6,1.9c-0.8,2.1,0.7,5.7,5.3,8.5c7.8,4.5,13.2,5.1,16.8,5.4c1,0.1,1.9,0.2,2.7,0.3
					c9.3,1.9,63.4,10.1,71.4,5.7c4.4-2.3,6.3-22.8,6.6-35.8l-23-1c-0.3,21.3-2.6,21.7-3.6,21.8c-8.4,1.4-25.6,1.4-36.8,0.1
					c-4.4-0.5-8-3.9-8.8-8.4c-0.6-3.5-2.6-6.1-5.5-8c0,0.4,0,0.9,0,1.2c0,2.2,0,5.6-1.9,8.4c-2.4,3.3-8.6,2.1-17.8,0
					C593.9,342.1,593.2,342,592.6,342z"/>
			</g>
		</g>
		<g>
			<g>
				<g>
					<path class="st2" d="M605.5,258.5c0,0,6.6-4.1,6.5-6.4l1.8-12.1c0-1.1-0.7-2.1-1.7-2.4l-7.8-2.7c-1-0.3-1.6-1.3-1.5-2.3
						l0.6-9.7l-3.1-2.8c-0.2-0.2-0.3-0.6-0.1-0.8l4.8-5.9c1.5-2.2,3.2-7.5,4.5-7.1c0,0,27.4-3.2,28.9,10.7c0.2,2-0.4,4-1.5,5.6
						l-2.4,3.5c-2.4,3.5-3.8,7.7-3.3,11.9c0.1,0.9,1.2,6.5,2,10.3c0.4,2.1,1.6,4,3.4,5.3c2.1,1.6,4.8,3.8,4.3,3.9
						c0,0-3.1,2.2-7.9,4.2c-8.6,3.5-18.3,2.7-26.1-2.1L605.5,258.5z"/>
					<path d="M622.1,264.8c-5.5,0-11-1.5-15.9-4.5l-1.3-0.8c-0.4-0.2-0.6-0.6-0.6-1.1c0-0.4,0.2-0.8,0.6-1.1
						c3.1-1.9,5.9-4.5,5.9-5.3c0-0.1,0-0.1,0-0.2l1.8-12c0-0.5-0.4-1-0.8-1.2l-7.8-2.7c-1.5-0.5-2.6-2-2.4-3.7l0.6-9.1l-2.6-2.3
						c-0.7-0.7-0.8-1.8-0.2-2.6l4.8-5.8c0.5-0.7,1.1-1.9,1.6-3.2c1.2-2.7,2.2-4.8,3.9-4.5c2-0.2,18.4-1.7,26,4.5
						c2.3,1.9,3.7,4.4,4,7.3c0.2,2.2-0.4,4.6-1.8,6.5l-2.4,3.5c-2.3,3.4-3.5,7.2-3.1,11c0,0.3,0.3,1.8,1.9,10.1
						c0.4,1.8,1.4,3.5,2.9,4.6c5.1,3.9,5,4.3,4.9,5.1c-0.1,0.3-0.3,0.6-0.5,0.8l0,0c-0.1,0.1-3.3,2.3-8.2,4.4
						C629.8,264.1,625.9,264.8,622.1,264.8z M607.8,258.5c7.5,4.4,16.6,5.1,24.6,1.8c3-1.2,5.2-2.6,6.4-3.4
						c-0.6-0.5-1.5-1.3-3.3-2.7c-1.9-1.5-3.3-3.7-3.8-6c-1.2-6.2-1.9-9.7-2-10.4c-0.4-4.4,0.8-8.9,3.6-12.8l2.4-3.5
						c1-1.4,1.5-3.2,1.3-4.8c-0.2-2.2-1.2-4.1-3.1-5.6c-7.2-5.8-24.2-4-24.4-4l0,0c-0.4,0.5-1.1,2-1.6,3.1c-0.6,1.3-1.2,2.7-1.9,3.6
						c0,0,0,0-0.1,0.1l-4.4,5.4l2.6,2.2c0.3,0.3,0.4,0.6,0.4,1l-0.6,9.7c0,0.5,0.3,0.9,0.7,1.1l7.8,2.7c1.5,0.5,2.6,2,2.6,3.7
						c0,0.1,0,0.1,0,0.2l-1.8,12C613.2,254.3,610.2,256.9,607.8,258.5z"/>
				</g>
				<path d="M608.6,185.1c6.2-0.3-1.6,6.1,21.5-0.5c9.3-2.7,4.5,8.2,6.9,7.5c8.9-2.6,8.6-2.4,12.9-1.2c2.9,0.8,4.7,6.1,4.1,10.1
					c-0.7,5.2-6.6,13.6-11.9,22.3c-2.8,4.6-7.5,5-13.4-1.8c-0.6-0.7,2.6-5,0.9-6.8c-4.3-4.8-6.2,2.4-9.7,0.2
					c-3.4-2.1-4.7-3.5-8.3-6.7c-4.3-3.9-11.4,2.1-13.9-6.6C596.5,196.8,600.1,185.5,608.6,185.1z"/>
			</g>
		</g>
	</g>
	<g>
		<g>
			<g>
				<g>
					<g>
						<path class="st2" d="M403.6,665.2c0,0,1.9,0,3.8-1.3c5.7-4.1,17.5-13.1,25.6-11.9c13.6,1.8,15.1,13,15.1,13s11.4-0.4,11.2,7.1
							c-0.2,5.8-3.5,13.3-12.8,17.3c-12.5,5.5-25.2,9.8-39.1,0.7c-2.7-1.7-5.9-2.6-9.1-2.2c-7.9,0.8-124.3,3.3-124.3,3.3
							c-26.6,0-51-14.8-63.5-38.4l-24.5-46.8l28.2-78.6l44.1,102.4C279.7,658.8,401.3,665.7,403.6,665.2z"/>
						<path d="M424.4,696.6c-5.7,0-11.5-1.5-17.6-5.5c-2.4-1.6-5.4-2.3-8.3-2c-7.8,0.8-119.6,3.2-124.4,3.3
							c-27.2,0-51.9-15-64.6-39.1l-24.5-46.8c-0.2-0.3-0.2-0.7-0.1-1l28.2-78.6c0.2-0.5,0.6-0.8,1.1-0.8c0.5,0,1,0.3,1.2,0.7
							L259.5,629c20.6,27.7,138.6,35.3,144,34.8c0.1,0,0.1,0,0.2,0c0,0,1.5,0,3.1-1l1.3-0.9c6.4-4.6,17.1-12.3,25.2-11.2
							c11.7,1.6,15.1,9.9,15.9,13c2,0.1,6.7,0.5,9.4,3.2c1.4,1.4,2,3.2,2,5.2c-0.1,3-1.3,13.1-13.5,18.4
							C439.8,693.6,432.3,696.6,424.4,696.6z M399.7,686.4c3,0,5.9,0.9,8.5,2.6c13.5,8.8,25.6,4.7,37.8-0.8
							c10.8-4.8,11.8-13.6,11.9-16.2c0-1.4-0.4-2.4-1.2-3.4c-2.2-2.2-6.9-2.6-8.6-2.4c-0.6,0-1.2-0.4-1.3-1.1
							c-0.1-0.4-1.6-10.1-14.1-11.8c-7-1-17.6,6.6-23.4,10.7l-1.3,0.9c-2.1,1.5-4.3,1.5-4.5,1.5c-3.6,0.2-34-1.6-65.7-6.6
							c-44.4-7-71.5-16.9-80.6-29.4c-0.1-0.1-0.1-0.2-0.1-0.2l-42.8-99.5l-26.8,75l24.3,46.3c12.1,23.3,36,37.6,62.3,37.6
							c1.1,0,116.4-2.6,124.1-3.3C398.7,686.4,399.2,686.4,399.7,686.4z M403.6,665.2L403.6,665.2L403.6,665.2z"/>
					</g>
					<g>
						<g>
							<path class="st2" d="M373,644.1l11.2-19.7l9.3,6c0.5,0.3,0.9,0.8,1.2,1.3l0.5,0.9c0.7,1.2,1.9,1.9,3.4,1.9l0,0
								c0.7,0,1.4,0.2,2.1,0.6l68.8,44.5c0.6,0.4,1.1,0.8,1.5,1.3l13.9,15.4l-19.3-4.4c-1-0.2-2-0.6-3.1-1.1l-72.3-37.8
								c-0.6-0.3-1.1-0.8-1.5-1.4l-0.1-0.1c-0.7-1.1-1.9-1.8-3.3-1.8h-0.7c-0.6,0-1.2-0.1-1.7-0.4L373,644.1z"/>
							<path d="M484.9,697.6c-0.1,0-0.2,0-0.3,0l-19.4-4.4c-1.1-0.3-2.2-0.7-3.4-1.2l-72.3-37.8c-0.8-0.4-1.5-1-2-1.8l-0.1-0.1
								c-0.5-0.7-1.3-1.2-2.1-1.2l0,0h-0.7c-0.8,0-1.6-0.2-2.3-0.6l-9.9-5.2c-0.3-0.2-0.5-0.4-0.6-0.7c-0.1-0.3-0.1-0.7,0.1-1
								l11.2-19.7c0.2-0.3,0.5-0.5,0.8-0.6c0.3-0.1,0.7,0,1,0.2l9.3,6c0.7,0.4,1.2,1,1.6,1.7l0.5,0.9c0.5,0.8,1.3,1.3,2.2,1.3h0.1
								c1,0,1.9,0.3,2.8,0.8l68.8,44.5c0.6,0.4,1.2,0.9,1.8,1.5l13.9,15.4c0.4,0.4,0.4,1,0.1,1.5
								C485.8,697.4,485.4,697.6,484.9,697.6z M385.4,648.4c1.7,0,3.4,0.9,4.3,2.4l0.1,0.1c0.2,0.4,0.6,0.7,1,0.9l72.3,37.8
								c0.8,0.4,1.7,0.8,2.8,1l15.5,3.5l-11.2-12.4c-0.4-0.4-0.8-0.8-1.3-1.1l-68.8-44.5c-0.4-0.3-0.9-0.4-1.3-0.4h-0.1
								c-1.8,0-3.5-1-4.4-2.6l-0.5-0.9c-0.2-0.3-0.5-0.6-0.8-0.9l-8.2-5.3l-10,17.5l8.8,4.6c0.4,0.2,0.8,0.3,1.2,0.3L385.4,648.4
								L385.4,648.4z"/>
						</g>
						<path d="M466,689.6c-0.2,0-0.4,0-0.6-0.1c-0.6-0.3-0.8-1.1-0.5-1.7l4.1-8c0.3-0.6,1.1-0.8,1.7-0.5c0.6,0.3,0.8,1.1,0.5,1.7
							l-4.1,8C466.9,689.4,466.5,689.6,466,689.6z"/>
						<g>
							<path class="st4" d="M368.3,614.7l16.4,9.9l-11.5,19.7l-16.4-9.9c-3-1.8-4-5.7-2.3-8.7l5.3-9
								C361.4,613.7,365.2,612.8,368.3,614.7z"/>
							<path class="st3" d="M373.1,645.5c-0.2,0-0.4-0.1-0.6-0.2l-16.4-9.9c-3.6-2.1-4.8-6.8-2.8-10.3l5.3-9c1-1.7,2.6-2.9,4.5-3.4
								c1.9-0.5,4.1-0.2,5.8,0.9l0,0l16.4,9.9c0.6,0.3,0.8,1.1,0.4,1.7L374.2,645c-0.2,0.3-0.4,0.5-0.8,0.6
								C373.3,645.5,373.2,645.5,373.1,645.5z M365,615c-0.4,0-0.8,0-1.2,0.2c-1.2,0.3-2.3,1.1-3,2.2l-5.3,9
								c-1.4,2.3-0.5,5.4,1.8,6.9l15.3,9.3l10.3-17.5l-15.3-9.3l0,0C366.8,615.2,365.9,615,365,615z"/>
						</g>
						<path d="M389.2,648.1c-0.2,0-0.4-0.1-0.6-0.2c-0.6-0.4-0.8-1.1-0.4-1.7l5.6-9.3c0.4-0.6,1.1-0.8,1.7-0.4
							c0.6,0.4,0.8,1.1,0.4,1.7l-5.6,9.3C390.1,647.9,389.6,648.1,389.2,648.1z"/>
						<path d="M422.2,656c-0.2,0-0.5-0.1-0.7-0.2l-20.5-12.9c-0.6-0.4-0.8-1.1-0.4-1.7c0.4-0.6,1.1-0.8,1.7-0.4l20.5,12.9
							c0.6,0.4,0.8,1.1,0.4,1.7C423,655.8,422.6,656,422.2,656z"/>
						<path d="M464.9,682.5c-0.2,0-0.4-0.1-0.7-0.2l-8.1-5c-0.6-0.4-0.8-1.1-0.4-1.7c0.4-0.6,1.1-0.8,1.7-0.4l8.1,5
							c0.6,0.4,0.8,1.1,0.4,1.7C465.7,682.3,465.3,682.5,464.9,682.5z"/>
						<path class="st2" d="M371.2,637.5c-0.2,0-0.4-0.1-0.6-0.2l-12.4-7.7c-0.6-0.4-0.8-1.1-0.4-1.7c0.4-0.6,1.1-0.8,1.7-0.4
							l12.4,7.7c0.6,0.4,0.8,1.1,0.4,1.7C372.1,637.3,371.7,637.5,371.2,637.5z"/>
					</g>
					<path class="st2" d="M403.6,665.2c0,0,16.7-2,27.4-0.6c8.4,1.1,33-4.8,27.9,11.2c-1.1,3.5-1.7,5.7-4.7,9
						c-1.6,1.7-6.2,5.4-8.8,6.5c-12.5,5.5-24,7.9-37.8-1.2c-2.7-1.7-5.9-2.6-9.1-2.2C396.5,687.9,403.1,665.3,403.6,665.2z"/>
					<path d="M426.1,697.4c-6.2,0-12.5-1.8-19.4-6.3c-2.4-1.6-5.4-2.3-8.3-2c-2,0.2-8.7,0.4-8.9,0.4c-0.7,0-1.3-0.5-1.3-1.2
						s0.5-1.3,1.2-1.3c0.1,0,6.7-0.2,8.8-0.4c3.5-0.3,6.9,0.5,9.9,2.4c13.2,8.7,23.8,6.8,36.7,1.1c2.3-1,6.7-4.6,8.4-6.2
						c2.7-2.9,3.3-4.8,4.3-7.8l0.2-0.7c0.9-2.9,0.8-4.9-0.2-6.2c-2.3-3.2-9.7-3-16.1-2.8c-4.2,0.1-8.1,0.2-10.6-0.6
						c-12.5-3.9-26.5,0.5-26.7,0.6H404c-0.6,0.1-1.9,0.1-6.8-0.2c-0.7,0-1.2-0.6-1.1-1.3c0-0.7,0.7-1.2,1.3-1.1
						c4.4,0.3,5.7,0.3,6.1,0.2c1.3-0.4,15.2-4.6,28.2-0.6c2.1,0.7,5.9,0.6,9.8,0.4c7-0.2,15.1-0.4,18.3,3.8c1.5,2,1.7,4.9,0.6,8.6
						l-0.2,0.7c-1,3.1-1.7,5.5-4.8,8.8c-1.8,1.9-6.4,5.6-9.2,6.8C439,695.4,432.7,697.4,426.1,697.4z"/>
				</g>
				<path class="st3" d="M145.7,472.2c0,0,51.6,6.8,68.9,27.7c21.7,26.5,31.1,65.8,34.2,82.8c0.9,5,0.8,10.1-0.3,15.1l-1.2,5.7
					c-4.5,20-22.8,34-43.3,32.9h1c-3.3-0.2-8.2-1.2-9.6-4.3l-5.4-9.9l-0.5,3.6c-4.1,26.3,17.2,62.4,17.2,62.4l-61.1-8.3
					c-31.4-3.2-61.3-15.5-85.2-36c-13.1-11.1-23.1-21.5-27.4-34.2c-7.3-21.5-6.7-27.6-8.8-53.7c-1.4-17.8,3.8-35.5,14.9-49.4
					C55.3,486.2,86.8,464.8,145.7,472.2z"/>
				<path class="st5" d="M193.3,632.8c-0.5,0-0.9-0.3-1.1-0.7l-14.5-30.4c-0.3-0.6,0-1.4,0.6-1.6c0.6-0.3,1.4,0,1.6,0.6l14.5,30.4
					c0.3,0.6,0,1.4-0.6,1.6C193.7,632.8,193.5,632.8,193.3,632.8z"/>
			</g>
			<g>
				<path d="M153.7,368.8l3.8-2.6c3.1-2,4.3-5.9,3.1-9.3c-3.8-10.3-17.8-28.3-68.3-14.6c-51.5,13.9-42.4,96.6,1.4,114.3
					c43.9,17.6,58.9-73.1,58.9-73.1L153.7,368.8z"/>
				<g>
					<path class="st2" d="M147.4,370.7c0.6-3.2,4.8-3.9,6.3-1c3.9,6.7,5.7,11.5,6.3,14.4c0.8,3.9-2.8,7.8-0.8,11.8
						c1.9,4.2,5,8.9,5.2,16.3c0.3,7.2,7.7,40.7-18.3,39.6c-1,0-1.8,0.7-1.8,1.7c0.1,5.1,0.3,19.1,1.4,26.6c0.6,4.1-1.9,8.1-5.9,9.2
						c-10.4,3-29.7,7-44.2,2.3c-3.8-1.2-5.7-5.3-4.4-9.1c1.7-4.8,4.1-18.1,2.6-26c0,0,8.7-0.8,18.3-5.3
						c14.8-6.8,22.1-23.4,18.1-39.2c-0.9-3.4-2.8-8.3-0.8-13.4c5.1-13.2,12.8,0.1,12.8,0.1L147.4,370.7z"/>
					<path d="M111,495.1c-5.4,0-10.8-0.6-15.6-2.1c-2.1-0.7-3.9-2.1-4.8-4.2c-1-2-1.1-4.4-0.3-6.5c1.6-4.6,4-17.6,2.4-25.4l-0.3-1.3
						l1.4-0.1c0.1,0,8.6-0.9,18-5.2c14.1-6.4,21.3-22.3,17.3-37.7c-0.1-0.4-0.2-0.9-0.4-1.4c-0.9-3.4-2.2-7.9-0.4-12.7
						c1.6-4.2,3.8-6.4,6.3-6.6c2.9-0.2,5.3,2,6.9,4l4.7-25.3c0.4-1.9,1.8-3.5,3.9-3.8c1.9-0.3,3.9,0.6,4.9,2.3
						c4.4,7.7,5.9,12.2,6.4,14.7c0.4,2-0.1,3.9-0.6,5.7c-0.6,2-1.1,4-0.3,5.8c0.3,0.7,0.7,1.3,1,2.1c1.8,3.7,4.1,8.2,4.4,14.7
						c0,0.9,0.2,2.2,0.3,3.8c0.9,8.3,2.7,23.8-5,31.9c-3.5,3.8-8.5,5.5-14.9,5.2c-0.2,0-0.3,0.1-0.4,0.1c-0.1,0.1-0.1,0.2-0.1,0.3
						c0.1,5.5,0.3,19.1,1.4,26.4c0.7,4.7-2.2,9.3-6.8,10.6C133.2,492.5,122,495.1,111,495.1z M95.3,457.7c1.1,8.4-1.1,20.7-2.9,25.4
						c-0.5,1.5-0.4,3.1,0.2,4.5c0.7,1.4,1.8,2.4,3.4,3c14.2,4.6,33.4,0.5,43.5-2.3c3.4-0.9,5.6-4.3,5.1-7.8
						c-1.1-7.5-1.4-21.2-1.4-26.8c0-0.8,0.3-1.6,0.9-2.2c0.6-0.6,1.4-0.9,2.2-0.8c5.6,0.2,10-1.2,13-4.4c6.8-7.3,5.2-22,4.4-29.9
						c-0.2-1.6-0.3-3-0.4-4c-0.2-5.9-2.2-10-4.1-13.7c-0.4-0.7-0.7-1.4-1-2.1c-1.3-2.8-0.5-5.3,0.1-7.7c0.5-1.6,0.9-3.2,0.6-4.5
						c-0.4-1.9-1.7-6.2-6.2-14c-0.5-1-1.5-1.2-2.2-1.1s-1.5,0.6-1.7,1.7l0,0l-5.9,31.5l-1.7-3c-0.8-1.4-3.8-5.5-6.3-5.3
						c-1.9,0.1-3.4,2.9-4.2,5c-1.5,4.1-0.4,8,0.4,11.1c0.1,0.5,0.3,1,0.4,1.4c4.3,16.6-3.6,33.7-18.8,40.6
						C105.1,455.9,98.1,457.2,95.3,457.7z"/>
				</g>
				<path d="M71.6,359.1c0,0-25.4-12.1-43.8,5.2c-18.5,17.2-36.3,55.3-8.7,96.8c17.3,26.1,24.1,46.7,26.6,58.5
					c0.8,3.9,6,4.9,8.3,1.5c11.1-16.7,31.4-53.6,21.6-88.2C62.4,386.1,71.6,359.1,71.6,359.1z"/>
				<path d="M165.3,409.1l-1.3-2.1c7.8-4.7,3.1-17.6,1.4-21.6l-23.2,11.8l-1.1-2.2l25.5-13.1l0.5,1.1
					C167.5,383.8,176.4,402.5,165.3,409.1z"/>
				<path d="M165.3,419c-0.3,0-0.6-0.1-0.9-0.4c-0.5-0.5-0.5-1.3,0-1.7l3.4-3.3c0.8-0.8,1-2.2,0.3-3.2l-2.2-3.2
					c-0.4-0.6-0.3-1.3,0.3-1.7c0.6-0.4,1.3-0.3,1.7,0.3l2.2,3.2c1.4,2,1.2,4.7-0.5,6.4l-3.4,3.3C165.9,418.9,165.6,419,165.3,419z"
					/>
				<path d="M138.5,421.8c-0.6,0-1.2-0.1-1.8-0.2c-3-0.7-5.5-3.3-7.7-7.5c-0.3-0.6,0-1.4,0.6-1.6c0.6-0.3,1.4,0,1.6,0.6
					c1.7,3.6,3.7,5.6,5.9,6.1c2.3,0.6,4.2-0.7,4.3-0.7c0.6-0.4,1.3-0.3,1.7,0.3c0.4,0.5,0.3,1.3-0.3,1.7
					C142.9,420.5,141.1,421.8,138.5,421.8z"/>
				<g>
					<path class="st2" d="M65.2,356.8c0,0,23.6,7.1,13.9,29.7c0,0,10.9-7.9,10.6-20.1c-0.3-12.2-9.4-16.2-15.4-16.1
						C68.2,350.3,65.2,356.8,65.2,356.8z"/>
					<path d="M76.2,390.1l1.7-4.2c2.7-6.3,3-11.9,0.7-16.7c-3.8-8.2-13.8-11.3-13.9-11.3l-1.4-0.4l0.6-1.3c0.1-0.3,3.5-7.1,10.2-7.2
						c3.9-0.1,7.8,1.2,10.7,3.7c2.7,2.1,5.8,6.3,6,13.7c0.3,12.8-10.7,20.8-11.1,21.2L76.2,390.1z M67.1,356.1
						c3.2,1.2,10.5,4.8,13.9,12.1c1.9,4.2,2.2,8.9,1,13.9c3-3.3,6.7-8.8,6.5-15.7c-0.1-5.1-1.8-9.1-5.1-11.7c-2.4-2-5.8-3.2-9.1-3.2
						C70.7,351.5,68.2,354.4,67.1,356.1z"/>
				</g>
			</g>
		</g>
		<g>
			<path class="st2" d="M20.3,550c19.5,11.7,59,28.5,122.6,24.6c4.7-0.3,9,2.4,10.6,6.8l4,15.9c6.9,28,20.1,54,38.5,76.2l9.5,11.5
				c1.4,1.7,0.1,4.5-2.2,4.3l-41.9-3.1c-72-9.5-128-45.7-146-111.5l-4.8-17.5C9.1,551.5,15.2,546.9,20.3,550z"/>
			<path d="M204,690.7c-0.1,0-0.2,0-0.3,0l-9.9-0.7c-0.7-0.1-1.2-0.6-1.1-1.3c0-0.7,0.6-1.2,1.3-1.1l9.9,0.7c0.7,0.1,1-0.4,1.1-0.6
				c0.1-0.2,0.3-0.7-0.1-1.2l-9.9-11.9c-18.4-22.2-31.7-48.8-38.7-76.7l-4-15.8c-1.4-3.9-5.2-6.2-9.4-6
				c-65.1,4-105.3-13.9-123.3-24.8c-2.2-1.3-4.6-0.7-5.9,0.3s-2.6,3.1-1.9,5.6l4.8,17.5c15.9,58.2,63.8,96.9,135,109.1
				c0.7,0.1,1.1,0.8,1,1.4c-0.1,0.7-0.8,1.1-1.4,1c-34.9-5.9-64.3-18.1-87.3-36c-24.6-19.1-41.3-44.3-49.7-74.9l-4.8-17.5
				c-0.8-3.2,0.2-6.3,2.9-8.3c2.7-1.9,5.9-2.1,8.8-0.4c17.9,10.8,57.5,28.4,121.9,24.5c5.3-0.3,10.1,2.8,11.9,7.7v0.1l4,15.9
				c6.9,27.5,20.1,53.8,38.2,75.7l9.9,11.9c0.9,1.1,1.1,2.7,0.4,4C206.7,690,205.5,690.7,204,690.7z"/>
		</g>
	</g>
	<g>
		<g>
			<path class="st2" d="M434.4,93.8h121.9c6.9,0,12.1,6.9,12.1,15.4v43.5c0,8.5-5.3,15.4-12.1,15.4l0,0c-0.1,0-1.9,0-4.4,0v29
				l-16-29c-23.3,0-101.4,0-101.4,0c-6.9,0-12.9-6.8-12.9-15.4v-43.5C421.5,100.8,427.5,93.8,434.4,93.8z"/>
			<path d="M551.8,198.5c-0.4,0-0.7-0.2-0.9-0.6l-15.7-28.5H434.3c-7.5,0-13.9-7.7-13.9-16.7v-43.5c0-9.1,6.3-16.8,13.9-16.8h121.9
				c7.4,0,13.3,7.3,13.3,16.8v43.5c0,9.4-5.8,16.7-13.3,16.7h-3.3v27.6c0,0.6-0.3,1.1-0.8,1.3C552,198.5,551.9,198.5,551.8,198.5z
				 M434.4,95.3c-6.3,0-11.7,6.4-11.7,14.1v43.5c0,7.5,5.4,14,11.7,14h101.4c0.4,0,0.7,0.2,0.9,0.6l14,25.3v-24.6
				c0-0.7,0.5-1.3,1.1-1.3h4.4c6.2,0,11-6.1,11-14v-43.5c0-7.9-4.9-14.1-11-14.1C556.2,95.3,434.4,95.3,434.4,95.3z"/>
		</g>
		<g class="st6">
			<g>
				<defs>
					<path id="SVGID_1_" d="M515.7,108.2c-5.5,0-10.5,2.2-14.3,6l0,0l0,0c-0.8,0.7-1.4,1.5-2.1,2.4c-8.2,9.5-9.4,13.4-15.2,19.4
						c-0.3,0.3-0.5,0.6-0.8,0.8c-0.3,0.3-0.6,0.6-1,0.9c-1.5,1.3-4,2.8-7.4,2.8c-6.2,0-9.6-6.1-9.6-10.6c0-4.3,2.8-10.2,8.9-10.2
						c6.2,0,10,5.1,10.2,5.3l-0.1-0.1l1.8,2.2l7.2-9.1c-0.3-0.4-7.2-10-19.2-10c-5.9,0-11.2,2.6-15,7.2c-3.3,4-5.1,9.4-5.1,14.6
						c0,5.3,1.9,10.7,5.4,14.8c4,4.8,9.5,7.4,15.5,7.4c8,0,13.7-4.1,16.8-7.7l0,0c7.5-8.4,13.3-16.6,13.3-16.6l2.6-3.2l0,0
						c1.7-3,4.8-4.9,8.3-4.9c5.4,0,9.9,4.9,9.9,10.6c0,5.7-4.5,10.2-9.9,10.2c-4.9,0-9.1-3.9-9.7-8.8l-8.2,10.2
						c3.8,6.1,10.3,10.2,17.9,10.2c11.7,0,21.1-9.8,21.1-21.8S527.4,108.2,515.7,108.2z"/>
				</defs>
				<clipPath id="SVGID_00000163795137800349706880000013201986585821811356_">
					<use xlink:href="#SVGID_1_"  style="overflow:visible;"/>
				</clipPath>
				<g style="clip-path:url(#SVGID_00000163795137800349706880000013201986585821811356_);enable-background:new    ;">
					<g>
						<g>
							<defs>
								<rect id="SVGID_00000014606765042605521350000007138570086560436097_" x="453.9" y="107.9" width="83.2" height="44.4"/>
							</defs>
							<clipPath id="SVGID_00000030484975807953286080000006558546010942006704_">
								<use xlink:href="#SVGID_00000014606765042605521350000007138570086560436097_"  style="overflow:visible;"/>
							</clipPath>
							<g style="clip-path:url(#SVGID_00000030484975807953286080000006558546010942006704_);">
								<g>
									<defs>
										<path id="SVGID_00000104682427157629764120000009845115149220447404_" d="M515.7,108.2c-5.5,0-10.5,2.2-14.3,6l0,0l0,0
											c-0.8,0.7-1.4,1.5-2.1,2.4c-8.2,9.5-9.4,13.4-15.2,19.4c-0.3,0.3-0.5,0.6-0.8,0.8c-0.3,0.3-0.6,0.6-1,0.9
											c-1.5,1.3-4,2.8-7.4,2.8c-6.2,0-9.6-6.1-9.6-10.6c0-4.3,2.8-10.2,8.9-10.2c6.2,0,10,5.1,10.2,5.3l-0.1-0.1l1.8,2.2
											l7.2-9.1c-0.3-0.4-7.2-10-19.2-10c-5.9,0-11.2,2.6-15,7.2c-3.3,4-5.1,9.4-5.1,14.6c0,5.3,1.9,10.7,5.4,14.8
											c4,4.8,9.5,7.4,15.5,7.4c8,0,13.7-4.1,16.8-7.7l0,0c7.5-8.4,13.3-16.6,13.3-16.6l2.6-3.2l0,0c1.7-3,4.8-4.9,8.3-4.9
											c5.4,0,9.9,4.9,9.9,10.6c0,5.7-4.5,10.2-9.9,10.2c-4.9,0-9.1-3.9-9.7-8.8l-8.2,10.2c3.8,6.1,10.3,10.2,17.9,10.2
											c11.7,0,21.1-9.8,21.1-21.8S527.4,108.2,515.7,108.2z"/>
									</defs>
									<clipPath id="SVGID_00000051347743204469765380000008750477253819028136_">
										<use xlink:href="#SVGID_00000104682427157629764120000009845115149220447404_"  style="overflow:visible;"/>
									</clipPath>
									<g style="clip-path:url(#SVGID_00000051347743204469765380000008750477253819028136_);">
										<g>
											<defs>
												
													<rect id="SVGID_00000011032611711254945670000009774103729079664288_" x="453.9" y="107.9" width="83.2" height="44.4"/>
											</defs>
											<clipPath id="SVGID_00000171690120724565404550000013477078569964785318_">
												<use xlink:href="#SVGID_00000011032611711254945670000009774103729079664288_"  style="overflow:visible;"/>
											</clipPath>
											
												<rect x="451.8" y="106.2" style="clip-path:url(#SVGID_00000171690120724565404550000013477078569964785318_);fill:#008080;" width="87.1" height="48.3"/>
										</g>
									</g>
								</g>
							</g>
						</g>
					</g>
				</g>
			</g>
		</g>
	</g>
	<g class="st11">
		<g>
			<path class="st12" d="M446.6,624.4c-0.5,0-0.9-0.3-1.1-0.7c-0.3-0.6,0-1.4,0.6-1.6c43.3-19.2,82.5-50.2,113.5-89.9
				c0.4-0.5,1.2-0.6,1.7-0.2c0.5,0.4,0.6,1.2,0.2,1.7c-31.2,39.9-70.8,71.2-114.5,90.6C447,624.4,446.8,624.4,446.6,624.4z"/>
			<path class="st12" d="M442.6,646.5c-0.5,0-1-0.3-1.2-0.8c-0.2-0.6,0.1-1.4,0.7-1.6c41.6-16.1,79-41.7,110.9-76.1
				c0.5-0.5,1.2-0.5,1.7-0.1c0.5,0.5,0.5,1.2,0.1,1.7c-32.2,34.7-69.8,60.5-111.8,76.7C442.9,646.5,442.7,646.5,442.6,646.5z"/>
		</g>
		<g>
			<path class="st13" d="M258.8,36.8c-0.6,0-1.1-0.4-1.2-1c-0.2-0.7,0.3-1.3,0.9-1.5c43.5-10,86.5-10.7,127.9-2
				c0.7,0.1,1.1,0.8,1,1.5c-0.1,0.7-0.8,1.1-1.5,1c-41.1-8.6-83.8-8-126.9,1.9C259,36.8,258.9,36.8,258.8,36.8z"/>
		</g>
		<path d="M416.5,18.9L416.5,18.9L416.5,18.9z"/>
	</g>
</g>
</svg>
