<svg width="200" height="200" viewBox="0 0 200 200" fill="none" xmlns="http://www.w3.org/2000/svg">
<g clip-path="url(#clip0_589_3)">
<rect width="200" height="200" fill="white"/>
<g filter="url(#filter0_d_589_3)">
<path d="M156.34 0H37.0012C16.566 0 0 16.566 0 37.0012V156.34C0 176.775 16.566 193.341 37.0012 193.341H156.34C176.775 193.341 193.341 176.775 193.341 156.34V37.0012C193.341 16.566 176.775 0 156.34 0Z" fill="url(#paint0_linear_589_3)"/>
</g>
<path d="M156.34 6.00019H37.0011C19.8797 6.00019 6.00014 19.8798 6.00014 37.0012V156.34C6.00014 173.461 19.8797 187.341 37.0011 187.341H156.34C173.461 187.341 187.341 173.461 187.341 156.34V37.0012C187.341 19.8798 173.461 6.00019 156.34 6.00019Z" fill="url(#paint1_linear_589_3)"/>
<path d="M42.8338 122.355L42.8338 9.90467" stroke="url(#paint2_radial_589_3)" stroke-width="0.761663" stroke-linecap="round"/>
<path d="M19.4729 92.1005L173.868 92.1005" stroke="url(#paint3_radial_589_3)" stroke-width="0.761663" stroke-linecap="round"/>
<path d="M19.4729 41.3489L173.868 41.3489" stroke="url(#paint4_radial_589_3)" stroke-width="0.761663" stroke-linecap="round"/>
<path d="M33.839 68.1081L164.332 68.1081" stroke="url(#paint5_radial_589_3)" stroke-width="0.761663" stroke-linecap="round"/>
<path d="M26.4587 77.9884L168.832 77.9885" stroke="url(#paint6_radial_589_3)" stroke-width="0.761663" stroke-linecap="round"/>
<path d="M139.5 103.613L139.5 9.90465" stroke="url(#paint7_radial_589_3)" stroke-width="0.761663" stroke-linecap="round"/>
<path d="M79.9477 115.174L79.9477 21.4866" stroke="url(#paint8_radial_589_3)" stroke-width="0.761663" stroke-linecap="round"/>
<path d="M102.779 108.857L102.779 15.0154" stroke="url(#paint9_radial_589_3)" stroke-width="0.761663" stroke-linecap="round"/>
<path d="M146.677 108.857L146.677 15.0154" stroke="url(#paint10_radial_589_3)" stroke-width="0.761663" stroke-linecap="round"/>
<path d="M96.6706 115.174L58.1259 11.9627" stroke="url(#paint11_radial_589_3)" stroke-width="0.761663" stroke-linecap="round"/>
<path style="mix-blend-mode:multiply" d="M189.436 171.378C189.436 171.378 185.402 190.065 158.072 193.515L48.3219 193.515L27.7864 152.074L34.0332 138.549L43.2521 125.092L60.4824 119.708L80.9434 135.861L113.354 140.37L117.917 140.37L161.207 140.37L168.531 143.041L189.436 171.378Z" fill="url(#paint12_linear_589_3)"/>
<path d="M56.5172 112.857C69.7184 112.857 80.9237 121.37 84.9628 133.204H159.121L168.832 142.916L162.592 149.156H146.447L143.83 146.538L137.746 152.621L131.665 146.538L125.576 152.627H116.389L110.3 146.538L104.211 152.627H84.9631C80.924 164.46 69.7187 172.974 56.5175 172.974C39.9163 172.974 26.4586 159.516 26.4586 142.917C26.4586 126.318 39.9163 112.857 56.5172 112.857ZM45.7057 150.777C50.0475 150.777 53.5675 147.255 53.5675 142.916C53.5675 138.576 50.0475 135.054 45.7057 135.054C41.3639 135.054 37.8443 138.572 37.8443 142.916C37.8443 147.259 41.3642 150.777 45.7057 150.777Z" fill="#D6FDEE"/>
<path d="M58.6594 53.9463C58.3954 51.6037 57.3066 49.789 55.393 48.5022C53.4793 47.1989 51.0707 46.5473 48.1672 46.5473C46.0885 46.5473 44.2903 46.8772 42.7726 47.5371C41.2548 48.1805 40.0753 49.0714 39.2339 50.2097C38.4091 51.3315 37.9966 52.61 37.9966 54.0453C37.9966 55.2496 38.2771 56.2889 38.838 57.1633C39.4154 58.0376 40.166 58.7717 41.0899 59.3656C42.0302 59.943 43.0365 60.4297 44.1089 60.8256C45.1812 61.2051 46.2123 61.5185 47.2021 61.766L52.1512 63.0528C53.768 63.4487 55.4259 63.9849 57.1252 64.6613C58.8244 65.3376 60.3999 66.2285 61.8516 67.3338C63.3034 68.4391 64.4747 69.8084 65.3655 71.4416C66.2729 73.0748 66.7265 75.0298 66.7265 77.3064C66.7265 80.1769 65.9842 82.7257 64.4994 84.9528C63.0312 87.18 60.8948 88.9369 58.0902 90.2237C55.3022 91.5105 51.9285 92.1539 47.9692 92.1539C44.1748 92.1539 40.8919 91.5517 38.1204 90.3474C35.3488 89.1431 33.1794 87.4357 31.6122 85.225C30.045 82.9979 29.1789 80.3584 29.0139 77.3064H36.6851C36.8336 79.1376 37.4275 80.6636 38.4668 81.8844C39.5226 83.0886 40.8672 83.9877 42.5004 84.5816C44.1501 85.159 45.9565 85.4477 47.9197 85.4477C50.0808 85.4477 52.0028 85.1096 53.6855 84.4332C55.3847 83.7403 56.721 82.7834 57.6943 81.5627C58.6677 80.3254 59.1543 78.8819 59.1543 77.2321C59.1543 75.7309 58.7254 74.5018 57.8675 73.545C57.0262 72.5882 55.8796 71.7963 54.4279 71.1694C52.9926 70.5425 51.3676 69.9899 49.5529 69.5114L43.5644 67.8782C39.5061 66.7729 36.2892 65.1479 33.9136 63.0033C31.5545 60.8586 30.3749 58.0211 30.3749 54.4907C30.3749 51.5707 31.1668 49.0219 32.7505 46.8443C34.3343 44.6666 36.4789 42.9757 39.1844 41.7714C41.89 40.5506 44.942 39.9402 48.3404 39.9402C51.7718 39.9402 54.7991 40.5423 57.4221 41.7466C60.0617 42.9509 62.1403 44.6089 63.6581 46.7205C65.1758 48.8157 65.9677 51.2243 66.0337 53.9463H58.6594ZM103.505 53.9463C103.241 51.6037 102.152 49.789 100.239 48.5022C98.3249 47.1989 95.9163 46.5473 93.0128 46.5473C90.9342 46.5473 89.136 46.8772 87.6182 47.5371C86.1005 48.1805 84.9209 49.0714 84.0796 50.2097C83.2547 51.3315 82.8423 52.61 82.8423 54.0453C82.8423 55.2496 83.1227 56.2889 83.6836 57.1633C84.261 58.0376 85.0117 58.7717 85.9355 59.3656C86.8758 59.943 87.8822 60.4297 88.9545 60.8256C90.0268 61.2051 91.0579 61.5185 92.0477 61.766L96.9969 63.0528C98.6136 63.4487 100.272 63.9849 101.971 64.6613C103.67 65.3376 105.245 66.2285 106.697 67.3338C108.149 68.4391 109.32 69.8084 110.211 71.4416C111.119 73.0748 111.572 75.0298 111.572 77.3064C111.572 80.1769 110.83 82.7257 109.345 84.9528C107.877 87.18 105.74 88.9369 102.936 90.2237C100.148 91.5105 96.7742 92.1539 92.8148 92.1539C89.0205 92.1539 85.7375 91.5517 82.966 90.3474C80.1945 89.1431 78.0251 87.4357 76.4578 85.225C74.8906 82.9979 74.0245 80.3584 73.8595 77.3064H81.5307C81.6792 79.1376 82.2731 80.6636 83.3124 81.8844C84.3683 83.0886 85.7128 83.9877 87.346 84.5816C88.9957 85.159 90.8022 85.4477 92.7653 85.4477C94.9265 85.4477 96.8484 85.1096 98.5311 84.4332C100.23 83.7403 101.567 82.7834 102.54 81.5627C103.513 80.3254 104 78.8819 104 77.2321C104 75.7309 103.571 74.5018 102.713 73.545C101.872 72.5882 100.725 71.7963 99.2735 71.1694C97.8382 70.5425 96.2133 69.9899 94.3986 69.5114L88.4101 67.8782C84.3518 66.7729 81.1348 65.1479 78.7592 63.0033C76.4001 60.8586 75.2205 58.0211 75.2205 54.4907C75.2205 51.5707 76.0124 49.0219 77.5961 46.8443C79.1799 44.6666 81.3245 42.9757 84.0301 41.7714C86.7356 40.5506 89.7876 39.9402 93.186 39.9402C96.6174 39.9402 99.6447 40.5423 102.268 41.7466C104.907 42.9509 106.986 44.6089 108.504 46.7205C110.021 48.8157 110.813 51.2243 110.879 53.9463H103.505ZM164.732 65.9728C164.732 71.3839 163.743 76.0361 161.763 79.9294C159.783 83.8063 157.069 86.7923 153.622 88.8874C150.19 90.9661 146.289 92.0054 141.917 92.0054C137.528 92.0054 133.61 90.9661 130.162 88.8874C126.731 86.7923 124.026 83.798 122.046 79.9047C120.066 76.0113 119.076 71.3674 119.076 65.9728C119.076 60.5617 120.066 55.9177 122.046 52.0409C124.026 48.1475 126.731 45.1615 130.162 43.0829C133.61 40.9877 137.528 39.9402 141.917 39.9402C146.289 39.9402 150.19 40.9877 153.622 43.0829C157.069 45.1615 159.783 48.1475 161.763 52.0409C163.743 55.9177 164.732 60.5617 164.732 65.9728ZM157.16 65.9728C157.16 61.8485 156.492 58.3758 155.156 55.5548C153.836 52.7173 152.021 50.5726 149.712 49.1209C147.419 47.6526 144.82 46.9185 141.917 46.9185C138.997 46.9185 136.39 47.6526 134.097 49.1209C131.804 50.5726 129.989 52.7173 128.653 55.5548C127.333 58.3758 126.673 61.8485 126.673 65.9728C126.673 70.0971 127.333 73.578 128.653 76.4155C129.989 79.2365 131.804 81.3812 134.097 82.8494C136.39 84.3012 138.997 85.0271 141.917 85.0271C144.82 85.0271 147.419 84.3012 149.712 82.8494C152.021 81.3812 153.836 79.2365 155.156 76.4155C156.492 73.578 157.16 70.0971 157.16 65.9728Z" fill="#D6FDEE"/>
</g>
<defs>
<filter id="filter0_d_589_3" x="0" y="0" width="201.339" height="201.339" filterUnits="userSpaceOnUse" color-interpolation-filters="sRGB">
<feFlood flood-opacity="0" result="BackgroundImageFix"/>
<feColorMatrix in="SourceAlpha" type="matrix" values="0 0 0 0 0 0 0 0 0 0 0 0 0 0 0 0 0 0 127 0" result="hardAlpha"/>
<feOffset dx="4.56998" dy="4.56998"/>
<feGaussianBlur stdDeviation="1.71374"/>
<feComposite in2="hardAlpha" operator="out"/>
<feColorMatrix type="matrix" values="0 0 0 0 0 0 0 0 0 0 0 0 0 0 0 0 0 0 0.25 0"/>
<feBlend mode="normal" in2="BackgroundImageFix" result="effect1_dropShadow_589_3"/>
<feBlend mode="normal" in="SourceGraphic" in2="effect1_dropShadow_589_3" result="shape"/>
</filter>
<linearGradient id="paint0_linear_589_3" x1="96.668" y1="193.341" x2="96.668" y2="0" gradientUnits="userSpaceOnUse">
<stop stop-color="#143226"/>
<stop offset="1" stop-color="#BDF5DE"/>
</linearGradient>
<linearGradient id="paint1_linear_589_3" x1="96.668" y1="6.00019" x2="96.668" y2="187.341" gradientUnits="userSpaceOnUse">
<stop stop-color="#75D4AE"/>
<stop offset="1" stop-color="#1F543F"/>
</linearGradient>
<radialGradient id="paint2_radial_589_3" cx="0" cy="0" r="1" gradientUnits="userSpaceOnUse" gradientTransform="translate(42.8338 116.84) rotate(-90) scale(106.935 728.451)">
<stop offset="0.0378737" stop-color="#72BC9F"/>
<stop offset="0.515803" stop-color="white"/>
<stop offset="0.9375" stop-color="#AEF5D9" stop-opacity="0.29"/>
</radialGradient>
<radialGradient id="paint3_radial_589_3" cx="0" cy="0" r="1" gradientUnits="userSpaceOnUse" gradientTransform="translate(27.0445 92.1005) scale(146.824 728.451)">
<stop offset="0.0378737" stop-color="#72BC9F"/>
<stop offset="0.515803" stop-color="white"/>
<stop offset="0.9375" stop-color="#AEF5D9" stop-opacity="0.29"/>
</radialGradient>
<radialGradient id="paint4_radial_589_3" cx="0" cy="0" r="1" gradientUnits="userSpaceOnUse" gradientTransform="translate(27.0445 41.3489) scale(146.824 728.451)">
<stop offset="0.0378737" stop-color="#72BC9F"/>
<stop offset="0.515803" stop-color="white"/>
<stop offset="0.9375" stop-color="#AEF5D9" stop-opacity="0.29"/>
</radialGradient>
<radialGradient id="paint5_radial_589_3" cx="0" cy="0" r="1" gradientUnits="userSpaceOnUse" gradientTransform="translate(40.2385 68.1081) scale(124.094 728.451)">
<stop offset="0.0378737" stop-color="#72BC9F"/>
<stop offset="0.515803" stop-color="white"/>
<stop offset="0.9375" stop-color="#AEF5D9" stop-opacity="0.29"/>
</radialGradient>
<radialGradient id="paint6_radial_589_3" cx="0" cy="0" r="1" gradientUnits="userSpaceOnUse" gradientTransform="translate(33.4408 77.9884) scale(135.391 728.451)">
<stop offset="0.0378737" stop-color="#72BC9F"/>
<stop offset="0.515803" stop-color="white"/>
<stop offset="0.9375" stop-color="#AEF5D9" stop-opacity="0.29"/>
</radialGradient>
<radialGradient id="paint7_radial_589_3" cx="0" cy="0" r="1" gradientUnits="userSpaceOnUse" gradientTransform="translate(139.5 99.0173) rotate(-90) scale(89.1127 728.451)">
<stop offset="0.0378737" stop-color="#72BC9F"/>
<stop offset="0.515803" stop-color="white"/>
<stop offset="0.9375" stop-color="#AEF5D9" stop-opacity="0.29"/>
</radialGradient>
<radialGradient id="paint8_radial_589_3" cx="0" cy="0" r="1" gradientUnits="userSpaceOnUse" gradientTransform="translate(79.9477 110.579) rotate(-90) scale(89.0926 728.451)">
<stop offset="0.0378737" stop-color="#72BC9F"/>
<stop offset="0.515803" stop-color="white"/>
<stop offset="0.9375" stop-color="#AEF5D9" stop-opacity="0.29"/>
</radialGradient>
<radialGradient id="paint9_radial_589_3" cx="0" cy="0" r="1" gradientUnits="userSpaceOnUse" gradientTransform="translate(102.779 104.255) rotate(-90) scale(89.2396 728.451)">
<stop offset="0.0378737" stop-color="#72BC9F"/>
<stop offset="0.515803" stop-color="white"/>
<stop offset="0.9375" stop-color="#AEF5D9" stop-opacity="0.29"/>
</radialGradient>
<radialGradient id="paint10_radial_589_3" cx="0" cy="0" r="1" gradientUnits="userSpaceOnUse" gradientTransform="translate(146.677 104.255) rotate(-90) scale(89.2396 728.451)">
<stop offset="0.0378737" stop-color="#72BC9F"/>
<stop offset="0.515803" stop-color="white"/>
<stop offset="0.9375" stop-color="#AEF5D9" stop-opacity="0.29"/>
</radialGradient>
<radialGradient id="paint11_radial_589_3" cx="0" cy="0" r="1" gradientUnits="userSpaceOnUse" gradientTransform="translate(94.7803 110.112) rotate(-110.478) scale(104.771 728.451)">
<stop offset="0.0378737" stop-color="#72BC9F"/>
<stop offset="0.515803" stop-color="white"/>
<stop offset="0.9375" stop-color="#AEF5D9" stop-opacity="0.29"/>
</radialGradient>
<linearGradient id="paint12_linear_589_3" x1="100.522" y1="136.816" x2="119.295" y2="249.796" gradientUnits="userSpaceOnUse">
<stop stop-color="#C2C2C2"/>
<stop offset="0.5" stop-color="#E6E6E6"/>
<stop offset="0.91" stop-color="white"/>
</linearGradient>
<clipPath id="clip0_589_3">
<rect width="200" height="200" fill="white"/>
</clipPath>
</defs>
</svg>
