<svg width="200" height="200" viewBox="0 0 200 200" fill="none" xmlns="http://www.w3.org/2000/svg">
<g clip-path="url(#clip0_589_5)">
<rect width="200" height="200" fill="white"/>
<g filter="url(#filter0_d_589_5)">
<path d="M155.95 0H36.6118C16.1766 0 -0.389404 16.566 -0.389404 37.0012V156.34C-0.389404 176.775 16.1766 193.341 36.6118 193.341H155.95C176.386 193.341 192.952 176.775 192.952 156.34V37.0012C192.952 16.566 176.386 0 155.95 0Z" fill="url(#paint0_linear_589_5)"/>
</g>
<path d="M155.95 6.00019H36.6117C19.4903 6.00019 5.61073 19.8798 5.61073 37.0012V156.34C5.61073 173.461 19.4903 187.341 36.6117 187.341H155.95C173.072 187.341 186.951 173.461 186.951 156.34V37.0012C186.951 19.8798 173.072 6.00019 155.95 6.00019Z" fill="url(#paint1_linear_589_5)"/>
<path d="M42.4445 122.355L42.4445 9.90467" stroke="url(#paint2_radial_589_5)" stroke-width="0.761663" stroke-linecap="round"/>
<path d="M19.0834 92.1005L173.479 92.1006" stroke="url(#paint3_radial_589_5)" stroke-width="0.761663" stroke-linecap="round"/>
<path d="M19.0834 41.3489L173.479 41.3489" stroke="url(#paint4_radial_589_5)" stroke-width="0.761663" stroke-linecap="round"/>
<path d="M33.4496 68.1081L163.943 68.1081" stroke="url(#paint5_radial_589_5)" stroke-width="0.761663" stroke-linecap="round"/>
<path d="M26.0693 77.9884L168.443 77.9885" stroke="url(#paint6_radial_589_5)" stroke-width="0.761663" stroke-linecap="round"/>
<path d="M139.111 103.613L139.111 9.90465" stroke="url(#paint7_radial_589_5)" stroke-width="0.761663" stroke-linecap="round"/>
<path d="M79.5585 115.174L79.5585 21.4866" stroke="url(#paint8_radial_589_5)" stroke-width="0.761663" stroke-linecap="round"/>
<path d="M102.39 108.857L102.39 15.0154" stroke="url(#paint9_radial_589_5)" stroke-width="0.761663" stroke-linecap="round"/>
<path d="M146.288 108.857L146.288 15.0154" stroke="url(#paint10_radial_589_5)" stroke-width="0.761663" stroke-linecap="round"/>
<path d="M96.281 115.174L57.7363 11.9627" stroke="url(#paint11_radial_589_5)" stroke-width="0.761663" stroke-linecap="round"/>
<path style="mix-blend-mode:multiply" d="M192.787 160.999C192.787 160.999 190.162 190.34 157.682 193.515L35.7515 193.515L6.59628 147.911L33.6436 138.549L84.0971 114.102L90.0786 123.465L103.862 123.465L112.965 140.369L112.965 117.483L160.818 140.369L186.304 138.029L192.787 160.999Z" fill="url(#paint12_linear_589_5)"/>
<path d="M50.1927 91.3125H42.0761L60.3137 40.633H69.148L87.3857 91.3125H79.269L64.9412 49.8385H64.5453L50.1927 91.3125ZM51.5537 71.4664H77.8833V77.9003H51.5537V71.4664ZM94.7043 91.3125V40.633H112.769C116.712 40.633 119.978 41.3507 122.568 42.7859C125.158 44.2212 127.097 46.1844 128.383 48.6754C129.67 51.15 130.314 53.9381 130.314 57.0395C130.314 60.1575 129.662 62.962 128.359 65.4531C127.072 67.9277 125.125 69.8909 122.519 71.3426C119.929 72.7779 116.67 73.4955 112.744 73.4955H100.322V67.0121H112.051C114.542 67.0121 116.563 66.5832 118.114 65.7253C119.665 64.851 120.803 63.6632 121.529 62.1619C122.255 60.6607 122.618 58.9532 122.618 57.0395C122.618 55.1259 122.255 53.4266 121.529 51.9419C120.803 50.4571 119.656 49.2941 118.089 48.4527C116.538 47.6114 114.493 47.1907 111.952 47.1907H102.351V91.3125H94.7043ZM146.924 40.633V91.3125H139.278V40.633H146.924Z" fill="#E3E4FF"/>
<path d="M186.532 147.335V138.506C186.532 138.176 186.384 137.894 186.169 137.675C185.953 137.456 185.653 137.326 185.337 137.311L159.839 137.326C158.725 131.533 155.905 126.223 151.737 122.089C146.412 116.763 139.042 113.442 130.892 113.461H112.08C111.435 113.475 110.919 113.991 110.9 114.641V171.208C110.9 171.539 111.049 171.821 111.264 172.04C111.479 172.259 111.78 172.388 112.095 172.403H130.907C145.265 172.388 157.215 162.127 159.839 148.519H185.356C186.002 148.534 186.536 148.003 186.536 147.339L186.532 147.335ZM104.154 153.495C104.139 152.85 103.623 152.334 102.974 152.315H85.0979V133.493H103.007C103.638 133.493 104.169 132.962 104.188 132.313V124.746C104.173 124.1 103.657 123.584 103.007 123.566L85.1127 123.581V114.622C85.1127 114.321 84.9977 114.01 84.749 113.791C84.5338 113.576 84.2332 113.442 83.9178 113.427L62.7054 113.461C48.3324 113.461 36.3791 123.718 33.774 137.311L6.79085 137.326C6.14513 137.341 5.62929 137.857 5.61073 138.506V147.335C5.61073 147.665 5.75918 147.947 5.97442 148.166C6.18966 148.385 6.49025 148.515 6.80569 148.53L33.7888 148.515C34.9021 154.408 37.8042 159.671 41.89 163.753C47.2191 169.082 54.5893 172.4 62.7388 172.385H83.9512C84.5821 172.385 85.1127 171.854 85.1313 171.205V162.242H103.041C103.672 162.242 104.202 161.712 104.221 161.062L104.154 153.495Z" fill="#E3E4FF"/>
</g>
<defs>
<filter id="filter0_d_589_5" x="-0.389404" y="0" width="201.339" height="201.339" filterUnits="userSpaceOnUse" color-interpolation-filters="sRGB">
<feFlood flood-opacity="0" result="BackgroundImageFix"/>
<feColorMatrix in="SourceAlpha" type="matrix" values="0 0 0 0 0 0 0 0 0 0 0 0 0 0 0 0 0 0 127 0" result="hardAlpha"/>
<feOffset dx="4.56998" dy="4.56998"/>
<feGaussianBlur stdDeviation="1.71374"/>
<feComposite in2="hardAlpha" operator="out"/>
<feColorMatrix type="matrix" values="0 0 0 0 0 0 0 0 0 0 0 0 0 0 0 0 0 0 0.25 0"/>
<feBlend mode="normal" in2="BackgroundImageFix" result="effect1_dropShadow_589_5"/>
<feBlend mode="normal" in="SourceGraphic" in2="effect1_dropShadow_589_5" result="shape"/>
</filter>
<linearGradient id="paint0_linear_589_5" x1="96.2786" y1="193.341" x2="96.2786" y2="0" gradientUnits="userSpaceOnUse">
<stop stop-color="#393C8C"/>
<stop offset="1" stop-color="#C1C3FF"/>
</linearGradient>
<linearGradient id="paint1_linear_589_5" x1="96.2786" y1="6.00019" x2="96.2786" y2="187.341" gradientUnits="userSpaceOnUse">
<stop stop-color="#8689E9"/>
<stop offset="1" stop-color="#5A5ECA"/>
</linearGradient>
<radialGradient id="paint2_radial_589_5" cx="0" cy="0" r="1" gradientUnits="userSpaceOnUse" gradientTransform="translate(42.4445 116.84) rotate(-90) scale(106.935 728.451)">
<stop offset="0.0378737" stop-color="#A5A6E8"/>
<stop offset="0.515803" stop-color="white"/>
<stop offset="0.96127" stop-color="#9497D9"/>
</radialGradient>
<radialGradient id="paint3_radial_589_5" cx="0" cy="0" r="1" gradientUnits="userSpaceOnUse" gradientTransform="translate(26.6551 92.1005) scale(146.824 728.451)">
<stop offset="0.0378737" stop-color="#A5A6E8"/>
<stop offset="0.515803" stop-color="white"/>
<stop offset="0.96127" stop-color="#9497D9"/>
</radialGradient>
<radialGradient id="paint4_radial_589_5" cx="0" cy="0" r="1" gradientUnits="userSpaceOnUse" gradientTransform="translate(26.6551 41.3489) scale(146.824 728.451)">
<stop offset="0.0378737" stop-color="#A5A6E8"/>
<stop offset="0.515803" stop-color="white"/>
<stop offset="0.96127" stop-color="#9497D9"/>
</radialGradient>
<radialGradient id="paint5_radial_589_5" cx="0" cy="0" r="1" gradientUnits="userSpaceOnUse" gradientTransform="translate(39.8491 68.1081) scale(124.094 728.451)">
<stop offset="0.0378737" stop-color="#A5A6E8"/>
<stop offset="0.515803" stop-color="white"/>
<stop offset="0.96127" stop-color="#9497D9"/>
</radialGradient>
<radialGradient id="paint6_radial_589_5" cx="0" cy="0" r="1" gradientUnits="userSpaceOnUse" gradientTransform="translate(33.0514 77.9884) scale(135.391 728.451)">
<stop offset="0.0378737" stop-color="#A5A6E8"/>
<stop offset="0.515803" stop-color="white"/>
<stop offset="0.96127" stop-color="#9497D9"/>
</radialGradient>
<radialGradient id="paint7_radial_589_5" cx="0" cy="0" r="1" gradientUnits="userSpaceOnUse" gradientTransform="translate(139.111 99.0173) rotate(-90) scale(89.1127 728.451)">
<stop offset="0.0378737" stop-color="#A5A6E8"/>
<stop offset="0.515803" stop-color="white"/>
<stop offset="0.96127" stop-color="#9497D9"/>
</radialGradient>
<radialGradient id="paint8_radial_589_5" cx="0" cy="0" r="1" gradientUnits="userSpaceOnUse" gradientTransform="translate(79.5585 110.579) rotate(-90) scale(89.0926 728.451)">
<stop offset="0.0378737" stop-color="#A5A6E8"/>
<stop offset="0.515803" stop-color="white"/>
<stop offset="0.96127" stop-color="#9497D9"/>
</radialGradient>
<radialGradient id="paint9_radial_589_5" cx="0" cy="0" r="1" gradientUnits="userSpaceOnUse" gradientTransform="translate(102.39 104.255) rotate(-90) scale(89.2396 728.451)">
<stop offset="0.0378737" stop-color="#A5A6E8"/>
<stop offset="0.515803" stop-color="white"/>
<stop offset="0.96127" stop-color="#9497D9"/>
</radialGradient>
<radialGradient id="paint10_radial_589_5" cx="0" cy="0" r="1" gradientUnits="userSpaceOnUse" gradientTransform="translate(146.288 104.255) rotate(-90) scale(89.2396 728.451)">
<stop offset="0.0378737" stop-color="#A5A6E8"/>
<stop offset="0.515803" stop-color="white"/>
<stop offset="0.96127" stop-color="#9497D9"/>
</radialGradient>
<radialGradient id="paint11_radial_589_5" cx="0" cy="0" r="1" gradientUnits="userSpaceOnUse" gradientTransform="translate(94.3907 110.112) rotate(-110.478) scale(104.771 728.451)">
<stop offset="0.0378737" stop-color="#A5A6E8"/>
<stop offset="0.515803" stop-color="white"/>
<stop offset="0.96127" stop-color="#9497D9"/>
</radialGradient>
<linearGradient id="paint12_linear_589_5" x1="100.133" y1="136.816" x2="118.905" y2="249.796" gradientUnits="userSpaceOnUse">
<stop stop-color="#C2C2C2"/>
<stop offset="0.5" stop-color="#E6E6E6"/>
<stop offset="0.91" stop-color="white"/>
</linearGradient>
<clipPath id="clip0_589_5">
<rect width="200" height="200" fill="white"/>
</clipPath>
</defs>
</svg>
