<?xml version="1.0" encoding="utf-8"?>
<!-- Generator: Adobe Illustrator 26.0.1, SVG Export Plug-In . SVG Version: 6.00 Build 0)  -->
<svg version="1.1" id="Layer_2" xmlns="http://www.w3.org/2000/svg" xmlns:xlink="http://www.w3.org/1999/xlink" x="0px" y="0px"
	 viewBox="0 0 1041.3 554.1" style="enable-background:new 0 0 1041.3 554.1;" xml:space="preserve">
<style type="text/css">
	.st0{opacity:0.4;fill:#008080;}
	.st1{fill:#FFFFFF;}
	.st2{fill:#008080;}
	.st3{opacity:0.7;fill:#008080;}
	.st4{fill:#CADDFF;}
	.st5{fill:#99B9FF;}
	.st6{opacity:0.91;fill:#FFFFFF;}
	.st7{opacity:0.82;}
	.st8{clip-path:url(#SVGID_00000023994373144448984810000011227027708355630524_);enable-background:new    ;}
	.st9{clip-path:url(#SVGID_00000156545795663663203220000004967365620558070684_);}
	.st10{clip-path:url(#SVGID_00000124135947927174223680000010072473485152842675_);}
	.st11{clip-path:url(#SVGID_00000149352952499292652460000008793342810301220795_);fill:#008080;}
</style>
<g>
	<g>
		<path class="st0" d="M364,27.8c111.2-61.5,260.1,2.4,337.7,73.2c22.2,20.2,75.9,70.7,88.6,151.6
			c15.8,100.5-35.8,222.3-154.2,274.4c-128.8,56.7-272.9,3-340.3-84.3c-63.1-81.6-50.4-177.7-45.9-212
			C255.2,190.5,270.9,79.3,364,27.8z"/>
		<g>
			<path d="M275.8,293.6c-4,0-7.3-3.3-7.3-7.3c0-4,3.3-7.3,7.3-7.3c0.5,0,1,0.4,1,1c0,0.5-0.4,1-1,1c-2.9,0-5.3,2.4-5.3,5.3
				c0,2.9,2.4,5.3,5.3,5.3c2.9,0,5.3-2.4,5.3-5.3c0-0.5,0.4-1,1-1s1,0.4,1,1C283.1,290.3,279.8,293.6,275.8,293.6z"/>
			<g>
				<path class="st1" d="M424.1,38.3L377,4.7L424.1,38.3z"/>
				<path d="M424.1,39.3c-0.2,0-0.4-0.1-0.6-0.2L376.4,5.5c-0.4-0.3-0.5-0.9-0.2-1.4c0.3-0.4,0.9-0.5,1.4-0.2l47.1,33.6
					c0.4,0.3,0.5,0.9,0.2,1.4C424.7,39.2,424.4,39.3,424.1,39.3z"/>
			</g>
			<g>
				<path class="st1" d="M644.3,231.2l-33.2-26.3L644.3,231.2z"/>
				<path d="M644.3,232.1c-0.2,0-0.4-0.1-0.6-0.2l-33.2-26.3c-0.4-0.3-0.5-1-0.2-1.4c0.3-0.4,1-0.5,1.4-0.2l33.2,26.3
					c0.4,0.3,0.5,1,0.2,1.4C644.9,232,644.6,232.1,644.3,232.1z"/>
			</g>
			<g>
				<path class="st1" d="M446,34.2l-24.8-17.7L446,34.2z"/>
				<path d="M446,35.2c-0.2,0-0.4-0.1-0.6-0.2l-24.8-17.7c-0.4-0.3-0.5-0.9-0.2-1.4c0.3-0.4,0.9-0.5,1.4-0.2l24.8,17.7
					c0.4,0.3,0.5,0.9,0.2,1.4C446.6,35.1,446.3,35.2,446,35.2z"/>
			</g>
		</g>
		<path class="st2" d="M274.5,41.7c-0.8,2.3-1.4,4.6-1.9,6.9L261.8,51l0,10.2l10.9,2.5c0.4,2.3,1,4.6,1.8,6.9l-8.2,7.6l5.1,8.9
			l10.7-3.3c1.5,1.8,3.2,3.5,5,5l-3.3,10.7l8.9,5.1l7.6-8.2c2.3,0.8,4.6,1.4,6.9,1.9l2.4,10.9l10.2,0l2.5-10.9
			c2.3-0.4,4.6-1,6.9-1.8l7.6,8.2l8.9-5.1l-3.3-10.7c1.8-1.5,3.5-3.2,5-5l10.7,3.3l5.1-8.9l-8.2-7.6c0.8-2.3,1.4-4.6,1.9-6.9
			l10.9-2.4l0-10.2l-10.9-2.5c-0.4-2.3-1-4.6-1.8-6.9l8.2-7.6l-5.1-8.9l-10.7,3.3c-1.5-1.8-3.2-3.5-5-5l3.3-10.7l-8.9-5.1l-7.6,8.2
			c-2.3-0.8-4.6-1.4-6.9-1.9l-2.4-10.9l-10.2,0l-2.5,10.9c-2.3,0.4-4.6,1-6.9,1.8l-7.6-8.2l-8.9,5.1l3.3,10.7c-1.8,1.5-3.5,3.2-5,5
			l-10.7-3.3l-5.1,8.9L274.5,41.7z M291.9,43c7.3-12.6,23.4-16.9,36-9.6c12.6,7.3,16.9,23.4,9.6,36c-7.3,12.6-23.4,16.9-36,9.6
			C288.9,71.7,284.6,55.6,291.9,43z"/>
		<g>
			<g>
				<g>
					<path d="M639.2,130.4l-376.8-14.5c-9,0-16.3,7.3-16.3,16.3v263c0,9,7.3,16.3,16.3,16.3l136.1-9.2l-17.5,63.8l-18.5,0.1
						c-5.8,0-10.5,4.7-10.5,10.5c0,5.8,4.7,10.5,10.5,10.5l154.9-7.4c5.8,0-5-68.3-5-68.3S648.2,130.4,639.2,130.4z"/>
					<g>
						<polygon class="st1" points="510,377.7 413.9,377.7 386.7,477.2 537.3,477.2 						"/>
						<path d="M537.3,478.2H386.7c-0.3,0-0.6-0.1-0.8-0.4c-0.2-0.2-0.2-0.6-0.2-0.9l27.3-99.5c0.1-0.4,0.5-0.7,1-0.7H510
							c0.4,0,0.8,0.3,1,0.7l27.3,99.5c0.1,0.3,0,0.6-0.2,0.9C537.9,478.1,537.6,478.2,537.3,478.2z M388,476.2h148l-26.7-97.5h-94.6
							L388,476.2z"/>
					</g>
					<path class="st1" d="M669.1,132.1c0-8.5-6.9-15.3-15.3-15.3H270.2c-8.5,0-15.3,6.9-15.3,15.3v263c0,8.5,6.9,15.3,15.3,15.3
						h383.6c8.5,0,15.3-6.9,15.3-15.3V132.1z"/>
					<g>
						<path class="st1" d="M553.6,467H370.3c-5.3,0-9.5,4.3-9.5,9.5c0,5.3,4.3,9.5,9.5,9.5h183.3c5.3,0,9.5-4.3,9.5-9.5
							C563.2,471.3,558.9,467,553.6,467z"/>
						<path d="M553.6,487.1H370.3c-5.8,0-10.5-4.7-10.5-10.5c0-5.8,4.7-10.5,10.5-10.5h183.3c5.8,0,10.5,4.7,10.5,10.5
							C564.2,482.4,559.4,487.1,553.6,487.1z M370.3,468c-4.7,0-8.6,3.8-8.6,8.6c0,4.7,3.8,8.6,8.6,8.6h183.3c4.7,0,8.6-3.8,8.6-8.6
							c0-4.7-3.8-8.6-8.6-8.6H370.3z"/>
					</g>
					<path d="M623.2,411.4h-353c-9,0-16.3-7.3-16.3-16.3v-263c0-9,7.3-16.3,16.3-16.3h383.6c9,0,16.3,7.3,16.3,16.3v56.6
						c0,0.5-0.4,1-1,1s-1-0.4-1-1v-56.6c0-7.9-6.4-14.3-14.3-14.3H270.2c-7.9,0-14.3,6.4-14.3,14.3v263c0,7.9,6.4,14.3,14.3,14.3
						h353c0.5,0,1,0.4,1,1C624.2,411,623.8,411.4,623.2,411.4z"/>
				</g>
				<g>
					<g>
						<path class="st1" d="M655.5,220.8V154V220.8z"/>
						<path d="M655.5,221.8c-0.5,0-1-0.4-1-1V154c0-0.5,0.4-1,1-1c0.5,0,1,0.4,1,1v66.8C656.5,221.3,656.1,221.8,655.5,221.8z"/>
					</g>
					<g>
						<path class="st1" d="M288.9,396.8h359c4.2,0,7.6-3.4,7.6-7.6v-20.7L288.9,396.8z"/>
						<path d="M647.9,397.8h-359c-0.5,0-1-0.4-1-1c0-0.5,0.4-1,1-1h359c3.7,0,6.6-3,6.6-6.6v-20.7c0-0.5,0.4-1,1-1c0.5,0,1,0.4,1,1
							v20.7C656.5,393.9,652.6,397.8,647.9,397.8z"/>
					</g>
					<g>
						<path class="st1" d="M268.5,150.8V167V150.8z"/>
						<path d="M268.5,168c-0.5,0-1-0.4-1-1v-16.2c0-0.5,0.4-1,1-1c0.5,0,1,0.4,1,1V167C269.5,167.6,269,168,268.5,168z"/>
					</g>
					<g>
						<path class="st1" d="M298.2,130.4h-22.1c-4.2,0-7.6,3.4-7.6,7.6L298.2,130.4z"/>
						<path d="M268.5,139c-0.5,0-1-0.4-1-1c0-4.7,3.9-8.6,8.6-8.6h22.1c0.5,0,1,0.4,1,1c0,0.5-0.4,1-1,1h-22.1c-3.7,0-6.6,3-6.6,6.6
							C269.5,138.6,269,139,268.5,139z"/>
					</g>
				</g>
			</g>
			<g>
				<path class="st3" d="M593.6,395.8H306.7V67.4c0-12,9.7-21.7,21.7-21.7h243.6c12,0,21.7,9.7,21.7,21.7V395.8z"/>
				<path d="M593.6,91.6c-0.5,0-1-0.4-1-1V67.4c0-11.4-9.3-20.7-20.7-20.7h-25.6c-0.5,0-1-0.4-1-1c0-0.5,0.4-1,1-1h25.6
					c12.5,0,22.6,10.2,22.6,22.6v23.2C594.5,91.2,594.1,91.6,593.6,91.6z"/>
				<path d="M554.5,46.8H437.6c-0.5,0-1-0.4-1-1c0-0.5,0.4-1,1-1h116.9c0.5,0,1,0.4,1,1C555.4,46.3,555,46.8,554.5,46.8z"/>
				<path d="M306.7,162c-0.5,0-1-0.4-1-1V67.4c0-12.5,10.2-22.6,22.6-22.6h86.1c0.5,0,1,0.4,1,1c0,0.5-0.4,1-1,1h-86.1
					c-11.4,0-20.7,9.3-20.7,20.7V161C307.7,161.6,307.2,162,306.7,162z"/>
				<g>
					<g>
						<rect x="327.9" y="66.7" class="st3" width="138.5" height="8.7"/>
					</g>
					<rect x="374.4" y="81.5" class="st1" width="161.9" height="9.1"/>
					<rect x="410.5" y="96.5" class="st1" width="161.9" height="9.1"/>
					<rect x="469.2" y="111.5" class="st1" width="83.7" height="9.1"/>
					<g>
						<rect x="327.9" y="186.7" class="st3" width="138.5" height="8.7"/>
					</g>
					<rect x="374.4" y="201.5" class="st1" width="161.9" height="9.1"/>
					<rect x="410.5" y="216.5" class="st1" width="159.6" height="9.1"/>
					<rect x="469.2" y="231.5" class="st1" width="80.8" height="9.1"/>
					<rect x="374.4" y="126.5" class="st1" width="161.9" height="9.1"/>
					<rect x="410.5" y="141.5" class="st1" width="161.9" height="9.1"/>
					<rect x="469.2" y="171.5" class="st1" width="64.2" height="9.1"/>
					<rect x="469.2" y="156.5" class="st1" width="103.2" height="9.1"/>
					<g>
						<rect x="327.9" y="246.6" class="st3" width="138.5" height="8.7"/>
					</g>
					<rect x="374.4" y="261.5" class="st1" width="161.9" height="9.1"/>
					<rect x="410.5" y="276.5" class="st1" width="156.7" height="9.1"/>
					<g>
						<rect x="469.2" y="291.5" class="st3" width="103.2" height="9.1"/>
					</g>
					<g>
						<rect x="410.5" y="366.4" class="st3" width="87.5" height="9.1"/>
					</g>
					<rect x="374.4" y="306.5" class="st1" width="161.9" height="9.1"/>
					<rect x="410.5" y="321.5" class="st1" width="161.9" height="9.1"/>
					<rect x="469.2" y="351.4" class="st1" width="103.2" height="9.1"/>
					<rect x="469.2" y="336.4" class="st1" width="59.1" height="9.1"/>
				</g>
			</g>
		</g>
		<g>
			<g>
				<g>
					<path class="st1" d="M314.1,453.3c0,0-37.3-81.8-15.9-187.9c0,0,57.9,48.5,37,187.9H314.1z"/>
					<path d="M335.2,454.3h-21.1c-0.4,0-0.7-0.2-0.9-0.6c-0.1-0.2-9.5-21-16.1-54.4c-6.1-30.9-11-79.2,0.1-134.1
						c0.1-0.3,0.3-0.6,0.6-0.7c0.3-0.1,0.7,0,1,0.2c0.6,0.5,14.8,12.6,26.6,42.1c10.9,27.1,21.5,74.5,10.7,146.8
						C336.1,453.9,335.7,454.3,335.2,454.3z M314.8,452.3h19.6c10.5-71.2,0-118-10.7-144.7c-9.6-24-21.1-36.6-24.8-40.3
						c-10.6,53.9-5.7,101.2,0.3,131.5C305.1,429,313.2,448.7,314.8,452.3z"/>
				</g>
				<path d="M323.3,445.8C323.3,445.8,323.2,445.8,323.3,445.8c-0.6,0-1-0.5-1-1c2.9-52.3-20.7-164-21-165.1
					c-0.1-0.5,0.2-1.1,0.8-1.2c0.5-0.1,1.1,0.2,1.2,0.8c0.2,1.1,23.9,113.1,21,165.7C324.2,445.3,323.8,445.8,323.3,445.8z"/>
			</g>
			<g>
				<g>
					<path class="st1" d="M357,320.3c0,0-48.1,86.9-19.2,124.5h15.5C353.3,444.8,384.2,376.8,357,320.3z"/>
					<path d="M353.3,445.8h-15.5c-0.3,0-0.6-0.1-0.8-0.4c-12.2-15.9-12.7-41.9-1.4-77.3c8.3-26.2,20.4-48.1,20.5-48.3
						c0.2-0.3,0.5-0.5,0.9-0.5c0.4,0,0.7,0.2,0.9,0.6c14.2,29.5,12.4,62,8.5,84.1c-4.3,23.9-12.1,41.1-12.1,41.3
						C354,445.5,353.7,445.8,353.3,445.8z M338.3,443.8h14.3c1.4-3.2,7.9-19,11.7-40.3c3.8-21.3,5.6-52.5-7.5-81
						c-3,5.6-12.5,24.5-19.4,46.3C329.9,392.5,324,424.6,338.3,443.8z"/>
				</g>
				<path d="M345,448.1c-0.5,0-1-0.4-1-1c-1.4-35.9,11.8-126.1,11.9-127c0.1-0.5,0.6-0.9,1.1-0.8c0.5,0.1,0.9,0.6,0.8,1.1
					c-0.1,0.9-13.3,90.9-11.9,126.6C346,447.6,345.6,448,345,448.1C345.1,448.1,345,448.1,345,448.1z"/>
			</g>
			<g>
				<g>
					<path class="st1" d="M259.2,352.7c0,0,41,14,55.8,96.7h-16.1C298.9,449.4,265.3,403.9,259.2,352.7z"/>
					<path d="M315,450.4h-16.1c-0.3,0-0.6-0.1-0.8-0.4c-0.3-0.5-33.9-46.3-39.9-97.2c0-0.3,0.1-0.7,0.4-0.9c0.3-0.2,0.6-0.3,0.9-0.2
						c0.4,0.1,10.6,3.7,22.8,17.6c11.1,12.7,26,36.9,33.7,79.9c0.1,0.3,0,0.6-0.2,0.8C315.6,450.3,315.3,450.4,315,450.4z
						 M299.4,448.4h14.4c-7.7-41.7-22.1-65.2-32.9-77.6c-9.1-10.5-17.3-15-20.5-16.5C266.6,401.5,296.1,443.9,299.4,448.4z"/>
				</g>
				<path d="M306.2,448.1c-0.5,0-0.9-0.3-1-0.8c-6.1-36.9-32.5-74-32.8-74.4c-0.3-0.4-0.2-1.1,0.2-1.4c0.4-0.3,1.1-0.2,1.4,0.2
					c0.3,0.4,26.9,37.9,33.1,75.2c0.1,0.5-0.3,1-0.8,1.1C306.3,448,306.3,448.1,306.2,448.1z"/>
			</g>
			<path class="st2" d="M277.7,442.8h103.1l0.3,47.8c0.6,11.7-8.8,21.5-20.5,21.5h-57.7c-13.9,0-25.1-11.3-25.1-25.2L277.7,442.8z"
				/>
		</g>
		<g>
			<g>
				<path class="st3" d="M775.9,527.9H640.4c-7.9,0-14.3-6.4-14.3-14.3v-92c0-7.9,6.4-14.3,14.3-14.3h135.4
					c7.9,0,14.3,6.4,14.3,14.3v92C790.2,521.4,783.8,527.9,775.9,527.9z"/>
				<path class="st2" d="M788,427.2H628.4c-2.5,0-4.5-2-4.5-4.5v-11.1c0-2.5,2-4.5,4.5-4.5H788c2.5,0,4.5,2,4.5,4.5v11.1
					C792.5,425.2,790.5,427.2,788,427.2z"/>
				<path d="M788.6,428.2H627.8c-0.5,0-1-0.4-1-1s0.4-1,1-1h160.8c1.6,0,3-1.4,3-3.1v-11.9c0-1.7-1.3-3.1-3-3.1h-98.9
					c-0.5,0-1-0.4-1-1c0-0.5,0.4-1,1-1h98.9c2.7,0,4.9,2.3,4.9,5.1v11.9C793.5,425.9,791.3,428.2,788.6,428.2z"/>
				<path d="M731.7,525.4c-0.5,0-1-0.4-1-1l-1.5-93.6c0-0.5,0.4-1,1-1c0,0,0,0,0,0c0.5,0,1,0.4,1,1l1.5,93.6
					C732.7,525,732.3,525.4,731.7,525.4C731.7,525.4,731.7,525.4,731.7,525.4z"/>
			</g>
			<g>
				<g>
					<g>
						<g>
							<path class="st1" d="M635.8,513.6c-1.6-1.6-10.7-30-10.7-30l-18.1,12.9l19.8,26.6L635.8,513.6z"/>
							<path d="M626.9,524.1C626.8,524.1,626.8,524,626.9,524.1c-0.4,0-0.6-0.2-0.8-0.4L606.3,497c-0.2-0.2-0.2-0.5-0.2-0.7
								c0-0.3,0.2-0.5,0.4-0.7l18.1-12.9c0.3-0.2,0.6-0.2,0.9-0.1c0.3,0.1,0.5,0.3,0.6,0.6c3.4,10.7,9.3,28.3,10.5,29.6
								c0.4,0.4,0.4,1,0,1.4l-9,9.5C627.4,523.9,627.1,524.1,626.9,524.1z M608.5,496.7l18.5,24.9l7.7-8.1
								c-2.1-4.2-7.7-21.1-10-28.3L608.5,496.7z"/>
						</g>
						<g>
							<path d="M603.3,549.5l12-0.1c7.9,0,15.3-4.1,19.7-10.7l11.9-18.8c3.3-5.2,1.4-12.1-4-15c-5-2.6-10.1-5.2-11.4-5.1
								c-2.5,0.2-3.5,11.9-3.5,11.9l-10.7,0.4c0,0-5.3,22-9.9,24.5c-3.4,1.8-5.8,4.5-7.3,6.9C598.4,546.2,600.2,549.6,603.3,549.5z"
								/>
							<path class="st1" d="M604.5,545.8c-0.5,0-0.9-0.4-1-0.8c-0.1-0.5,0.3-1,0.8-1.1l16.4-2.5c3.4-0.5,6.4-2.5,8.1-5.5l14.5-24.2
								c0.3-0.5,0.9-0.6,1.4-0.3c0.5,0.3,0.6,0.9,0.3,1.4L630.6,537c-2.1,3.5-5.6,5.8-9.5,6.4l-16.4,2.5
								C604.6,545.8,604.5,545.8,604.5,545.8z"/>
							<path class="st1" d="M624.8,527.6c-0.1,0-0.2,0-0.3,0l-9.2-2.5c-0.5-0.1-0.8-0.7-0.7-1.2c0.1-0.5,0.7-0.8,1.2-0.7l9.2,2.5
								c0.5,0.1,0.8,0.7,0.7,1.2C625.6,527.3,625.2,527.6,624.8,527.6z"/>
							<path class="st1" d="M620,532.3c-0.1,0-0.2,0-0.2,0l-6.1-1.5c-0.5-0.1-0.9-0.7-0.7-1.2c0.1-0.5,0.7-0.9,1.2-0.7l6.1,1.5
								c0.5,0.1,0.9,0.7,0.7,1.2C620.9,532,620.5,532.3,620,532.3z"/>
						</g>
						<g>
							<polygon class="st1" points="574.2,508.2 553.3,529.2 542.1,525.2 561.5,498.2 							"/>
							<path d="M553.3,530.2c-0.1,0-0.2,0-0.3-0.1l-11.1-4.1c-0.3-0.1-0.5-0.3-0.6-0.6c-0.1-0.3,0-0.6,0.1-0.9l19.3-26.9
								c0.2-0.2,0.4-0.4,0.7-0.4c0.3,0,0.5,0,0.7,0.2l12.8,10c0.2,0.2,0.4,0.4,0.4,0.7c0,0.3-0.1,0.6-0.3,0.8l-21,21.1
								C553.8,530.1,553.5,530.2,553.3,530.2z M543.7,524.7l9.3,3.4l19.7-19.8l-11.1-8.6L543.7,524.7z"/>
						</g>
						<g>
							<path d="M559.9,525.9c0,0,1,9-0.7,16.9c-0.9,4.2-4.7,7.2-9,7.2h-51.5c-3.7,0-5.3-4.6-2.5-7c9.1-7.7,26-19.4,46.7-22.8
								l5.8,8.1L559.9,525.9z"/>
							<path class="st1" d="M554.5,543.9h-53.3c-0.5,0-1-0.4-1-1c0-0.5,0.4-1,1-1h53.3c0.5,0,1,0.4,1,1
								C555.4,543.5,555,543.9,554.5,543.9z"/>
							<path class="st1" d="M530.9,534.5c-0.4,0-0.8-0.2-0.9-0.6l-2.8-6.8c-0.2-0.5,0-1.1,0.5-1.3c0.5-0.2,1.1,0,1.3,0.5l2.8,6.8
								c0.2,0.5,0,1.1-0.5,1.3C531.1,534.4,531,534.5,530.9,534.5z"/>
							<path class="st1" d="M521.6,536.3c-0.4,0-0.8-0.3-0.9-0.7l-2-6.2c-0.2-0.5,0.1-1.1,0.6-1.2c0.5-0.2,1.1,0.1,1.2,0.6l2,6.2
								c0.2,0.5-0.1,1.1-0.6,1.2C521.8,536.2,521.7,536.3,521.6,536.3z"/>
						</g>
						<path d="M685.2,360.8c0,0-95.8-11.2-124.3,13.5c-28.5,24.7,45,130.7,45,130.7l23.2-17.2l-22-75l88.6-25.2L685.2,360.8z"/>
						<path d="M737.9,409.6c-13.9,4.4-38.8,10.1-73.6,9.7c-9.9-0.1-19,5.3-23.5,14.1c-10.3,20.2-32.6,56.6-69,80.2l-17.4-9.4
							l44.3-99.7c4-9.1,11.6-16.2,21-19.6l87.8-32.2c0,0,27.2-7.6,40.6,16.7c2.4,4.3,6.8-3.4,7.9,0.1
							C759.6,381.5,749.9,405.8,737.9,409.6z"/>
						<path class="st1" d="M578.7,450.6c-0.1,0-0.3,0-0.4-0.1c-0.5-0.2-0.7-0.8-0.5-1.3l20-45.1c4.1-9.3,12-16.6,21.5-20.1
							l42.1-15.4c0.5-0.2,1.1,0.1,1.3,0.6c0.2,0.5-0.1,1.1-0.6,1.3l-42.1,15.4c-9.1,3.3-16.5,10.3-20.4,19.1l-20,45.1
							C579.5,450.3,579.1,450.6,578.7,450.6z"/>
						<path class="st1" d="M602.1,489.3c-0.2,0-0.5-0.1-0.7-0.3c-0.4-0.4-0.4-1,0-1.4c4-4.2,7.9-8.6,11.7-13.3
							c0.3-0.4,1-0.5,1.4-0.1c0.4,0.3,0.5,1,0.1,1.4c-3.8,4.7-7.8,9.2-11.8,13.4C602.6,489.2,602.4,489.3,602.1,489.3z"/>
						<path class="st1" d="M613.9,476c-0.2,0-0.4-0.1-0.6-0.2c-0.4-0.3-0.5-1-0.1-1.4c1.9-2.3,3.7-4.7,5.5-7
							c0.3-0.4,0.9-0.5,1.4-0.2c0.4,0.3,0.5,0.9,0.2,1.4c-1.8,2.4-3.7,4.8-5.5,7.1C614.4,475.9,614.1,476,613.9,476z"/>
					</g>
					<g>
						<g>
							<g>
								<path class="st1" d="M560.3,220.6l25,13.5c0,0,15.3,39.9,37.2,42.3c21.9,2.4,43.6-27.9,43.6-27.9l14.5,31.1
									c0,0-21.3,33-55.2,27.7c-33.9-5.3-43.1-56.2-43.1-56.2c0,0-8,0.8-11-7c-2.6-6.7-1.5-10.6-1.5-10.6S557.7,227.1,560.3,220.6z
									"/>
								<path d="M632.7,308.9c-2.4,0-4.9-0.2-7.4-0.6c-14.2-2.2-26.3-12.8-35-30.6c-5.6-11.4-8.1-22.4-8.8-25.5
									c-0.4,0-0.9,0-1.5-0.1c-2.7-0.3-7.4-1.8-9.7-7.6c-2-5.2-1.9-8.9-1.7-10.4c-2.6-1.5-11.8-7.4-9.3-13.8
									c0.1-0.3,0.3-0.5,0.6-0.6c0.3-0.1,0.6-0.1,0.8,0.1l25,13.5c0.2,0.1,0.4,0.3,0.5,0.5c0.2,0.4,15.3,39.4,36.4,41.7
									c21.1,2.3,42.4-27.2,42.7-27.5c0.2-0.3,0.5-0.4,0.9-0.4c0.3,0,0.7,0.2,0.8,0.6l14.5,31.1c0.1,0.3,0.1,0.7-0.1,1
									c-0.2,0.3-5.5,8.5-15.1,16.1C658.7,302.3,647.1,308.9,632.7,308.9z M582.3,250.2c0.1,0,0.1,0,0.2,0c0.4,0.1,0.7,0.4,0.8,0.8
									c0.1,0.5,9.5,50.2,42.3,55.4c30.7,4.8,51.2-22.9,53.9-26.8l-13.6-29.1c-4.4,5.7-22,27.1-40.8,27.1c-0.9,0-1.8,0-2.6-0.1
									c-21.4-2.3-36.2-38.4-37.9-42.6L561,222.1c-0.4,4.4,6.4,9,9.3,10.6c0.4,0.2,0.6,0.7,0.5,1.1c0,0-0.9,3.7,1.5,10
									c2.7,6.9,9.5,6.4,9.9,6.4C582.2,250.2,582.2,250.2,582.3,250.2z"/>
							</g>
							<path d="M583,247.9c-0.1,0-0.2,0-0.3,0c-0.2-0.1-5.3-1.7-5.9-6.1c-0.3-1.8-1.3-3.2-2.2-4.1c-1.3-1.3-2-3.1-2-4.9v-1
								c0-0.3,0.2-0.6,0.4-0.8c0.3-0.2,0.6-0.2,0.9-0.1l8.4,3.4c0.5,0.2,0.8,0.8,0.6,1.3c-0.2,0.5-0.8,0.8-1.3,0.6l-7-2.8
								c0.1,1.2,0.6,2.2,1.4,3c1.1,1.1,2.5,2.9,2.8,5.2c0.4,3.2,4.5,4.5,4.5,4.5c0.5,0.2,0.8,0.7,0.7,1.2
								C583.8,247.6,583.4,247.9,583,247.9z"/>
						</g>
						<path class="st2" d="M744,234.8c-11-2.6-15.6-2.6-55.5-1.2c-9.8,0.4-21.4,12.6-22.5,22.3c3.1,9.3,17.4,55.2-7.6,91.1
							c-3.5,5.1-8.4,10.7-15,16c3.7,3,20.9,1.3,28.6,3.6c12.9,3.8,10.7,1,21.1,1.3c27.4,0.8,34.8,35.7,52.5,31.8
							c4.7-1,11-4.7,16.9-17.1c3.3-10.3,6.3-22.3,8-36c4.5-36.9-2.8-67.7-9.4-87C759.2,253.6,756.9,237.8,744,234.8z"/>
						<path class="st2" d="M646.4,262.5c0,0,21-26.4,39.4-28.5l-9.1,69.9L646.4,262.5z"/>
						<path class="st2" d="M780.8,300.8c0,0-1.9-18.3-3.1-30.4c-2.7-26.9-33.2-35.8-33.2-35.8l-11.5,65.6L780.8,300.8z"/>
						<g>
							<path class="st1" d="M772.3,299.3c0,0-11.8,50.5-21.4,66.9c-11.6,19.6-70-6.8-70-6.8l-6.8-3.8c-4.6-2.6-10.1-3.2-15.1-1.5
								l-11,3.5c0,0,9.1-10.9,16.8-15c3.6-1.9,8.3-0.1,12.3,2.4c6.8,4.3,14.8,6.3,22.9,6.1l23.2-0.7c3.9-0.1,7.1-3.1,7.4-7L738,296
								L772.3,299.3z"/>
							<path d="M733.2,374.4c-21.1,0-50.9-13.4-52.7-14.1c0,0-0.1,0-0.1,0l-6.8-3.8c-4.3-2.5-9.6-3-14.3-1.5l-11,3.5
								c-0.4,0.1-0.9,0-1.1-0.4c-0.2-0.4-0.2-0.8,0.1-1.2c0.4-0.4,9.3-11.1,17.1-15.3c3.4-1.8,7.8-1,13.3,2.4
								c6.5,4.1,14.2,6.2,22.3,5.9l23.2-0.7c3.4-0.1,6.2-2.7,6.5-6.1c0,0,0,0,0-0.1l7.4-47.3c0.1-0.5,0.6-0.9,1.1-0.8l34.3,3.3
								c0.3,0,0.5,0.2,0.7,0.4c0.2,0.2,0.2,0.5,0.2,0.8c-0.5,2.1-11.9,50.8-21.6,67.2C748.4,372.4,741.4,374.4,733.2,374.4z
								 M681.3,358.5c1.8,0.8,57.8,25.6,68.7,7.2c8.7-14.8,19.3-58.1,21.1-65.5l-32.2-3.1l-7.3,46.4c-0.4,4.4-4,7.8-8.4,7.9
								l-23.2,0.7c-8.5,0.3-16.6-1.9-23.4-6.2c-3.3-2.1-7.9-4.2-11.3-2.4c-5.1,2.8-10.9,8.6-14.1,12.1l7.5-2.4
								c5.3-1.7,11.1-1.1,15.9,1.6L681.3,358.5z"/>
						</g>
					</g>
					<g>
						<path d="M722.5,210.7c2.9,1.4,5,1.7,6.6,1.6c5.6-0.3,9.2-4.9,9.9-5.8c3.7-4.7,5.5-12.4,2.4-16.9c-2.3-3.3-5.1-2-7.8-5.7
							c-3-4.1,0.1-7.5-2.7-11.1c-3.2-4.2-10.1-3.8-11.4-3.8c-4.3,0.2-4.8,2.3-8.9,2.2c-4.1-0.1-4.7-2.2-8.5-2.2
							c-3,0-7.4,1.3-9.4,4.8c-2.5,4.4,0.1,10.2,3,13.2c3.5,3.7,6,1.7,11,4.7C715.4,196.8,713.3,206.1,722.5,210.7z"/>
						<g>
							<path class="st1" d="M706.5,230.2l2.3-14.4c-0.5-0.1-4.8-0.8-5.3-1c-4-2-2.9-11.9-2.9-11.9l-2.2-2.6l6.6-14.7
								c7,5.8,9.4,0.1,16.3,3c6.9,2.9,3.2,10.5,3.2,10.5s5.6-2.5,4.4,3c-0.9,4.1-3.9,4.4-5.9,4.2l3.7,24.7c0,0,11.8,3.4,14.1,4
								c-3-0.1-23.6,8.8-46.9-1L706.5,230.2z"/>
							<path d="M717.1,239.5c-7,0-15.1-1.1-23.5-4.6c-0.4-0.2-0.6-0.5-0.6-1c0-0.4,0.3-0.8,0.7-0.9l11.9-3.5l2.1-12.8
								c-1.5-0.2-4-0.7-4.6-1c-4.1-2-3.6-10.3-3.4-12.5l-1.9-2.3c-0.2-0.3-0.3-0.7-0.1-1l6.6-14.7c0.1-0.3,0.4-0.5,0.7-0.6
								c0.3-0.1,0.6,0,0.9,0.2c3.6,3,5.7,2.7,8.4,2.2c2.1-0.4,4.5-0.7,7.7,0.6c2.1,0.9,3.6,2.3,4.3,4.2c0.8,2.1,0.5,4.3,0.1,5.8
								c1-0.2,2.1-0.1,3,0.6c1,0.8,1.3,2.2,0.8,4.1c-0.5,2.3-1.9,4.8-5.7,5l3.4,22.9c2.5,0.7,11.5,3.3,13.5,3.8
								c0.5,0.1,0.8,0.6,0.7,1.1c-0.1,0.5-0.5,0.9-1,0.8c0,0,0,0,0,0c-0.5,0-1.8,0.3-3.2,0.7C733.4,237.6,726.1,239.5,717.1,239.5z
								 M697.1,234c17.2,6.2,32.6,2.5,39.7,0.7c-4.2-1.2-9.9-2.8-10.2-2.9c-0.4-0.1-0.7-0.4-0.7-0.8l-3.7-24.7
								c0-0.3,0.1-0.6,0.3-0.8c0.2-0.2,0.5-0.3,0.8-0.3c2.8,0.2,4.3-0.8,4.8-3.4c0.2-1.1,0.2-1.8-0.2-2.1c-0.6-0.5-2.2-0.1-2.9,0.3
								c-0.4,0.2-0.8,0.1-1.1-0.2c-0.3-0.3-0.4-0.7-0.2-1.1c0,0,1.6-3.4,0.6-6.2c-0.5-1.3-1.6-2.4-3.2-3c-2.7-1.1-4.6-0.8-6.6-0.5
								c-2.6,0.4-5.2,0.9-8.9-1.8l-5.8,13l1.8,2.2c0.2,0.2,0.3,0.5,0.2,0.7c-0.3,2.4-0.4,9.5,2.3,10.9c0.5,0.2,4.4,0.9,4.9,0.9
								c0.3,0,0.5,0.2,0.7,0.4c0.2,0.2,0.2,0.5,0.2,0.8l-2.3,14.4c-0.1,0.4-0.3,0.7-0.7,0.8L697.1,234z M706.5,230.2L706.5,230.2
								L706.5,230.2z"/>
						</g>
						<path d="M710.5,216.8c-0.6,0-1.1,0-1.7-0.1c-0.5-0.1-0.9-0.6-0.8-1.1c0.1-0.5,0.6-0.9,1.1-0.8c6,0.8,8.7-3.6,8.8-3.8
							c0.3-0.5,0.9-0.6,1.4-0.3c0.5,0.3,0.6,0.9,0.4,1.4C719.4,212.2,716.6,216.8,710.5,216.8z"/>
					</g>
				</g>
				<g>
					<g>
						<g>
							<path class="st4" d="M575.8,372.1h124.6c4.1,0,7.5-3.4,7.5-7.5v0H568.3v0C568.3,368.7,571.7,372.1,575.8,372.1z"/>
							<path d="M702.6,373.1H573.6c-3.4,0-6.2-2.8-6.2-6.2v-2.2c0-0.5,0.4-1,1-1h139.6c0.5,0,1,0.4,1,1v2.2
								C708.9,370.3,706.1,373.1,702.6,373.1z M569.3,365.6v1.3c0,2.3,1.9,4.3,4.3,4.3h129.1c2.3,0,4.3-1.9,4.3-4.3v-1.3H569.3z"/>
						</g>
						<g>
							<path class="st2" d="M568.3,364.7h79.9L622.8,290c-1.5-2.3-4.2-3.8-7-3.8h-67.5c-3.1,0-5,3-4,5.6c0.4,1,0.8,2.1,1.2,3.1
								L568.3,364.7z"/>
							<path class="st2" d="M648.2,365.7h-79.9c-0.4,0-0.8-0.3-0.9-0.7l-22.9-69.7c-0.2-0.7-0.5-1.5-0.8-2.2
								c-0.1-0.3-0.2-0.6-0.3-0.9c-0.6-1.5-0.4-3.3,0.6-4.7c1-1.4,2.6-2.3,4.4-2.3h67.5c3.2,0,6.1,1.6,7.8,4.2
								c0,0.1,0.1,0.1,0.1,0.2l25.4,74.7c0.1,0.3,0.1,0.6-0.1,0.9C648.8,365.6,648.5,365.7,648.2,365.7z M569,363.8h77.8l-24.9-73.3
								c-1.4-2-3.6-3.2-6.1-3.2h-67.5c-1.1,0-2.1,0.5-2.7,1.4c-0.6,0.8-0.7,1.9-0.4,2.8c0.1,0.3,0.2,0.6,0.3,0.9
								c0.3,0.7,0.6,1.5,0.9,2.3L569,363.8z"/>
						</g>
						<path class="st1" d="M597.9,324.5c1,3.2-0.5,6.4-3.2,7.2c-2.7,0.8-5.7-1.1-6.7-4.2c-1-3.2,0.5-6.4,3.2-7.2
							C594,319.5,597,321.3,597.9,324.5z"/>
					</g>
				</g>
			</g>
		</g>
		<g>
			<g>
				<g>
					<path class="st2" d="M760.7,72.3c-0.1-9.3-7.6-16.6-16.8-16.1c-8.9,0.5-15.8,8.1-15.6,17.3c0.1,4.4,1.8,8.3,4.7,11.2
						c2.2,2.2,3.4,5.2,3.4,8.3l0,1.9c0,1.5,1.2,2.8,2.8,2.7l11-0.3c1.5,0,2.7-1.3,2.7-2.9l0-1.9c0-3.1,1.1-6.1,3.2-8.4
						C759,81,760.7,76.8,760.7,72.3z"/>
					<path class="st2" d="M739.1,98.5c-0.9,0-1.8-0.4-2.5-1c-0.7-0.7-1.1-1.7-1.1-2.7l0-1.9c0-2.9-1.1-5.6-3.2-7.6
						c-3.1-3.1-4.8-7.3-5-11.9c-0.2-9.7,7-17.8,16.5-18.3c4.6-0.3,9,1.3,12.3,4.5c3.5,3.3,5.4,7.7,5.5,12.6l0,0
						c0,4.7-1.7,9.1-4.9,12.5c-1.9,2-3,4.8-2.9,7.7l0,1.9c0,2.1-1.6,3.8-3.7,3.9l-11,0.3C739.2,98.5,739.2,98.5,739.1,98.5z
						 M744.8,57.1c-0.3,0-0.6,0-0.9,0c-8.4,0.5-14.9,7.6-14.6,16.3c0.1,4,1.7,7.8,4.4,10.5c2.4,2.4,3.7,5.6,3.7,9l0,1.9
						c0,0.5,0.2,0.9,0.5,1.3c0.3,0.3,0.7,0.5,1.2,0.5l11-0.3c1,0,1.7-0.9,1.7-1.9l0-1.9c0-3.4,1.2-6.7,3.5-9.1c2.8-3,4.4-7,4.3-11.1
						l0,0c0-4.3-1.8-8.3-4.8-11.2C752.1,58.5,748.6,57.1,744.8,57.1z"/>
				</g>
				<g>
					<path class="st1" d="M744.8,108.7L744.8,108.7c-3.8,0.1-6.8-2.9-6.9-6.8l0-4.5l13.6-0.4l0,4.5
						C751.6,105.4,748.6,108.6,744.8,108.7z"/>
					<path d="M744.6,109.7c-2,0-3.8-0.7-5.3-2.1c-1.5-1.5-2.4-3.5-2.4-5.6l-0.1-5.5l15.6-0.4l0.1,5.5c0,4.4-3.4,8-7.7,8.2
						C744.8,109.7,744.7,109.7,744.6,109.7z M738.9,98.4l0,3.6c0,1.6,0.7,3.1,1.8,4.2c1.1,1.1,2.5,1.6,4,1.6h0
						c3.2-0.1,5.8-2.9,5.8-6.2l0-3.5L738.9,98.4z"/>
				</g>
			</g>
			<g>
				<path class="st5" d="M744.5,45.2c-0.5,0-1-0.4-1-1l-0.1-10.6c0-0.5,0.4-1,1-1c0,0,0,0,0,0c0.5,0,1,0.4,1,1l0.1,10.6
					C745.5,44.7,745.1,45.2,744.5,45.2C744.5,45.2,744.5,45.2,744.5,45.2z"/>
				<path class="st5" d="M705,78.1c-0.5,0-1-0.4-1-1c0-0.5,0.4-1,1-1l11.6-0.1c0,0,0,0,0,0c0.5,0,1,0.4,1,1c0,0.5-0.4,1-1,1
					L705,78.1C705,78.1,705,78.1,705,78.1z"/>
				<path class="st5" d="M782.2,77.9C782.2,77.9,782.2,77.9,782.2,77.9l-10.8,0c-0.5,0-1-0.4-1-1c0-0.5,0.4-1,1-1c0,0,0,0,0,0
					l10.8,0c0.5,0,1,0.4,1,1C783.2,77.4,782.8,77.9,782.2,77.9z"/>
				<path class="st5" d="M722.5,56.2c-0.3,0-0.5-0.1-0.7-0.3l-8.1-8.1c-0.4-0.4-0.4-1,0-1.4c0.4-0.4,1-0.4,1.4,0l8.1,8.1
					c0.4,0.4,0.4,1,0,1.4C723,56.1,722.8,56.2,722.5,56.2z"/>
				<path class="st5" d="M765.5,56.8c-0.3,0-0.5-0.1-0.7-0.3c-0.4-0.4-0.4-1,0-1.4l8.1-8.2c0.4-0.4,1-0.4,1.4,0c0.4,0.4,0.4,1,0,1.4
					l-8.1,8.2C766,56.7,765.7,56.8,765.5,56.8z"/>
			</g>
		</g>
		<g>
			<g>
				<g>
					<polygon class="st6" points="655.7,124.9 655.7,41.7 639.9,25.6 533.7,25.6 533.7,124.9 					"/>
					<path d="M532.7,124.9V25.6c0-0.5,0.4-1,1-1h106.2c0.3,0,0.5,0.1,0.7,0.3l15.8,16c0.2,0.2,0.3,0.4,0.3,0.7v83.2c0,0.5-0.4,1-1,1
						h-122C533.2,125.9,532.7,125.4,532.7,124.9z M534.7,26.6v97.3h120V42.1l-15.2-15.5H534.7z"/>
				</g>
			</g>
			<path d="M638.5,42.1v-10c0-0.5,0.4-1,1-1c0.5,0,1,0.4,1,1v9h8c0.5,0,1,0.4,1,1c0,0.5-0.4,1-1,1h-8.9
				C638.9,43.1,638.5,42.6,638.5,42.1z"/>
		</g>
		<g>
			<g>
				<path class="st5" d="M743,124.5c-0.1,0-0.1,0-0.2,0c-0.5-0.1-0.9-0.6-0.7-1.2c0.2-0.9,0.4-1.9,0.6-2.9c0.1-0.5,0.6-0.9,1.2-0.8
					c0.5,0.1,0.9,0.6,0.8,1.2c-0.2,1-0.4,2-0.6,2.9C743.9,124.2,743.5,124.5,743,124.5z"/>
				<path class="st5" d="M732.3,153.4c-0.2,0-0.3,0-0.5-0.1c-0.5-0.3-0.7-0.9-0.4-1.3c0.8-1.5,1.6-3,2.3-4.6
					c0.2-0.5,0.8-0.7,1.3-0.5c0.5,0.2,0.7,0.8,0.5,1.3c-0.7,1.6-1.5,3.1-2.3,4.7C733,153.2,732.7,153.4,732.3,153.4z M736.7,144.1
					c-0.1,0-0.3,0-0.4-0.1c-0.5-0.2-0.7-0.8-0.5-1.3c0.7-1.6,1.3-3.2,1.9-4.8c0.2-0.5,0.8-0.8,1.3-0.6c0.5,0.2,0.8,0.8,0.6,1.3
					c-0.6,1.6-1.2,3.2-1.9,4.8C737.5,143.9,737.1,144.1,736.7,144.1z M740.3,134.4c-0.1,0-0.2,0-0.3,0c-0.5-0.2-0.8-0.7-0.6-1.2
					c0.5-1.6,1-3.3,1.5-4.9c0.1-0.5,0.7-0.8,1.2-0.7c0.5,0.1,0.8,0.7,0.7,1.2c-0.5,1.7-1,3.3-1.5,5
					C741.1,134.2,740.7,134.4,740.3,134.4z"/>
				<path class="st5" d="M728.2,160.5c-0.2,0-0.4-0.1-0.5-0.2c-0.5-0.3-0.6-0.9-0.3-1.4c0.5-0.8,1-1.6,1.5-2.5
					c0.3-0.5,0.9-0.6,1.4-0.3c0.5,0.3,0.6,0.9,0.3,1.4c-0.5,0.9-1.1,1.8-1.6,2.6C728.9,160.3,728.6,160.5,728.2,160.5z"/>
			</g>
			<g>
				<path class="st5" d="M623.2,40.6c-0.2,0-0.5-0.1-0.6-0.2c-0.4-0.4-0.5-1-0.1-1.4c0.7-0.8,1.3-1.5,2-2.2c0.4-0.4,1-0.4,1.4,0
					c0.4,0.4,0.4,1,0,1.4c-0.7,0.7-1.3,1.4-2,2.2C623.8,40.5,623.5,40.6,623.2,40.6z"/>
				<path class="st5" d="M670.5,52.9c-0.1,0-0.1,0-0.2,0c-2.1-0.4-4-1.3-5.7-2.4c-0.4-0.3-0.6-0.9-0.2-1.4c0.3-0.4,0.9-0.6,1.4-0.2
					c1.4,1,3.1,1.7,4.9,2.1c0.5,0.1,0.9,0.6,0.8,1.2C671.4,52.5,671,52.9,670.5,52.9z M676.3,52.9c-0.5,0-0.9-0.3-1-0.8
					c-0.1-0.5,0.2-1.1,0.8-1.2c1.2-0.3,2.4-0.7,3.4-1.4c0.5-0.3,0.9-0.6,1.3-0.9c0.4-0.4,1-0.3,1.4,0.1c0.4,0.4,0.3,1-0.1,1.4
					c-0.5,0.4-1,0.8-1.5,1.1c-1.2,0.8-2.6,1.3-4.1,1.6C676.4,52.9,676.4,52.9,676.3,52.9z M661.4,46.3c-0.4,0-0.7-0.2-0.9-0.5
					c-0.9-1.7-1.3-3.6-1.3-5.6c0-0.2,0-0.3,0-0.5c0-0.5,0.5-1,1-1c0.5,0,1,0.5,1,1c0,0.1,0,0.3,0,0.4c0,1.7,0.4,3.3,1.1,4.8
					c0.2,0.5,0,1.1-0.4,1.3C661.7,46.2,661.6,46.3,661.4,46.3z M684.8,45.6c-0.1,0-0.2,0-0.4-0.1c-0.5-0.2-0.8-0.8-0.6-1.3
					c0.6-1.6,0.9-3.4,1-5.3c0-0.5,0.4-1,1-1c0,0,0,0,0,0c0.5,0,1,0.5,1,1c0,2.2-0.4,4.2-1.1,6C685.5,45.4,685.2,45.6,684.8,45.6z
					 M661.5,35c-0.1,0-0.2,0-0.4-0.1c-0.5-0.2-0.7-0.8-0.5-1.3c0.8-1.9,1.8-3.7,3-5.2l0-0.1c0.3-0.4,1-0.5,1.4-0.2
					c0.4,0.3,0.5,1,0.2,1.4l-0.1,0.1c-1.1,1.3-2,2.9-2.7,4.6C662.3,34.8,661.9,35,661.5,35z M629.4,34.4c-0.3,0-0.5-0.1-0.7-0.3
					c-0.4-0.4-0.3-1,0.1-1.4c1.5-1.3,3-2.6,4.6-3.7c0.4-0.3,1.1-0.2,1.4,0.2c0.3,0.4,0.2,1.1-0.2,1.4c-1.5,1.1-3,2.3-4.4,3.6
					C629.8,34.3,629.6,34.4,629.4,34.4z M685,34.2c-0.4,0-0.8-0.3-0.9-0.7c-0.2-0.6-0.4-1.1-0.6-1.6c-0.5-1.1-1.2-2.1-2-3.1
					c-0.4-0.4-0.3-1,0.1-1.4c0.4-0.4,1-0.3,1.4,0.1c0.9,1.1,1.7,2.3,2.3,3.6c0.3,0.6,0.5,1.2,0.7,1.8c0.2,0.5-0.1,1.1-0.6,1.2
					C685.2,34.2,685.1,34.2,685,34.2z M708.1,29.8c-0.2,0-0.3,0-0.5-0.1c-1.7-0.9-3.4-1.7-5.2-2.4c-0.5-0.2-0.7-0.8-0.5-1.3
					c0.2-0.5,0.8-0.7,1.3-0.5c1.8,0.7,3.6,1.6,5.3,2.5c0.5,0.3,0.7,0.9,0.4,1.3C708.8,29.6,708.4,29.8,708.1,29.8z M638.7,27.6
					c-0.3,0-0.7-0.2-0.9-0.5c-0.3-0.5-0.1-1.1,0.4-1.4c1.7-1,3.5-1.9,5.3-2.7c0.5-0.2,1.1,0,1.3,0.5c0.2,0.5,0,1.1-0.5,1.3
					c-1.7,0.7-3.4,1.6-5.1,2.6C639.1,27.5,638.9,27.6,638.7,27.6z M668.9,26.4c-0.3,0-0.7-0.2-0.9-0.5c-0.3-0.5-0.1-1.1,0.4-1.3
					c1-0.6,2.1-1,3.3-1.5c-0.3-0.2-0.4-0.6-0.3-1c0.2-0.5,0.7-0.8,1.2-0.7c2.1,0.6,3.9,1.4,5.6,2.3c0.5,0.3,0.6,0.9,0.4,1.3
					c-0.3,0.5-0.9,0.6-1.3,0.4c-0.8-0.4-1.6-0.8-2.5-1.2c-0.1,0-0.1,0-0.2,0.1c-1.9,0.5-3.7,1.1-5.2,2
					C669.3,26.3,669.1,26.4,668.9,26.4z M697.3,25.4c-0.1,0-0.2,0-0.3,0c-1.8-0.5-3.7-0.9-5.5-1.2c-0.5-0.1-0.9-0.6-0.8-1.1
					c0.1-0.5,0.6-0.9,1.1-0.8c1.9,0.3,3.9,0.7,5.8,1.3c0.5,0.1,0.8,0.7,0.7,1.2C698.2,25.1,697.8,25.4,697.3,25.4z M685.9,23.5
					C685.9,23.5,685.8,23.5,685.9,23.5c-2.1-0.1-4-0.2-5.8-0.1c-0.6,0-1-0.4-1-0.9c0-0.5,0.4-1,0.9-1c1.8-0.1,3.8-0.1,5.9,0.1
					c0.5,0,1,0.5,0.9,1.1C686.8,23.1,686.4,23.5,685.9,23.5z M649.4,23c-0.4,0-0.8-0.3-1-0.7c-0.1-0.5,0.2-1.1,0.7-1.2
					c1.9-0.5,3.9-0.9,5.8-1.2c0.5-0.1,1,0.3,1.1,0.9c0.1,0.5-0.3,1-0.9,1.1c-1.8,0.2-3.7,0.6-5.5,1.1C649.6,23,649.5,23,649.4,23z
					 M666.7,22.1c0,0-0.1,0-0.1,0c-2.3-0.3-4.2-0.4-5.2-0.5c-0.2,0-0.3,0-0.5,0c-0.5,0-1-0.5-1-1c0-0.5,0.5-1,1-1c0.2,0,0.3,0,0.5,0
					c1.1,0.1,3,0.1,5.4,0.5c0.5,0.1,0.9,0.6,0.8,1.1C667.6,21.7,667.2,22.1,666.7,22.1z"/>
				<path class="st5" d="M715.6,34.4c-0.2,0-0.4-0.1-0.6-0.2c-0.8-0.6-1.6-1.1-2.4-1.7c-0.5-0.3-0.6-0.9-0.3-1.4
					c0.3-0.5,0.9-0.6,1.4-0.3c0.8,0.5,1.6,1.1,2.5,1.7c0.4,0.3,0.5,0.9,0.2,1.4C716.2,34.3,715.9,34.4,715.6,34.4z"/>
			</g>
		</g>
	</g>
	<g class="st7">
		<defs>
			<path id="SVGID_1_" class="st7" d="M616.8,52.7c-5.5,0-10.6,2.3-14.4,6c0,0,0,0,0,0c0,0,0,0,0,0c-0.8,0.8-1.5,1.6-2.1,2.4
				c-8.2,9.5-9.5,13.4-15.3,19.5c-0.3,0.3-0.6,0.6-0.8,0.9c-0.3,0.3-0.6,0.6-1,1c-1.5,1.3-3.9,2.8-7.4,2.8c-6.3,0-9.7-6.2-9.7-10.7
				c0-4.3,2.8-10.2,8.9-10.2c6.2,0,10,5.1,10.2,5.3l-0.1-0.1l1.9,2.2l7.2-9.1c-0.3-0.4-7.3-10-19.2-10c-5.9,0-11.3,2.6-15.1,7.2
				c-3.3,4-5.1,9.4-5.1,14.6c0,5.3,2,10.7,5.4,14.9c4,4.8,9.5,7.5,15.5,7.5c8,0,13.7-4,16.9-7.6c0,0,0,0,0,0
				c7.6-8.5,13.3-16.7,13.3-16.7l2.6-3.2l0,0c1.8-2.9,4.8-5,8.3-5c5.5,0,9.9,5,9.9,10.6s-4.5,10.3-9.9,10.3c-5,0-9.1-3.9-9.8-8.9
				l-8.1,10.2c3.7,6.2,10.4,10.3,17.9,10.3c11.7,0,21.2-9.9,21.2-21.9S628.5,52.7,616.8,52.7z"/>
		</defs>
		<clipPath id="SVGID_00000145037624669089318470000008069347073201010364_">
			<use xlink:href="#SVGID_1_"  style="overflow:visible;"/>
		</clipPath>
		<g style="clip-path:url(#SVGID_00000145037624669089318470000008069347073201010364_);enable-background:new    ;">
			<g>
				<defs>
					<rect id="SVGID_00000060752371179601361160000009174075723322488253_" x="554.7" y="52.3" width="83.6" height="44.6"/>
				</defs>
				<clipPath id="SVGID_00000136372367838961853160000015713059420841829558_">
					<use xlink:href="#SVGID_00000060752371179601361160000009174075723322488253_"  style="overflow:visible;"/>
				</clipPath>
				<g style="clip-path:url(#SVGID_00000136372367838961853160000015713059420841829558_);">
					<defs>
						<path id="SVGID_00000044174663794969698820000006874737614914479515_" d="M616.8,52.7c-5.5,0-10.6,2.3-14.4,6c0,0,0,0,0,0
							c0,0,0,0,0,0c-0.8,0.8-1.5,1.6-2.1,2.4c-8.2,9.5-9.5,13.4-15.3,19.5c-0.3,0.3-0.6,0.6-0.8,0.9c-0.3,0.3-0.6,0.6-1,1
							c-1.5,1.3-3.9,2.8-7.4,2.8c-6.3,0-9.7-6.2-9.7-10.7c0-4.3,2.8-10.2,8.9-10.2c6.2,0,10,5.1,10.2,5.3l-0.1-0.1l1.9,2.2l7.2-9.1
							c-0.3-0.4-7.3-10-19.2-10c-5.9,0-11.3,2.6-15.1,7.2c-3.3,4-5.1,9.4-5.1,14.6c0,5.3,2,10.7,5.4,14.9c4,4.8,9.5,7.5,15.5,7.5
							c8,0,13.7-4,16.9-7.6c0,0,0,0,0,0c7.6-8.5,13.3-16.7,13.3-16.7l2.6-3.2l0,0c1.8-2.9,4.8-5,8.3-5c5.5,0,9.9,5,9.9,10.6
							s-4.5,10.3-9.9,10.3c-5,0-9.1-3.9-9.8-8.9l-8.1,10.2c3.7,6.2,10.4,10.3,17.9,10.3c11.7,0,21.2-9.9,21.2-21.9
							S628.5,52.7,616.8,52.7z"/>
					</defs>
					<clipPath id="SVGID_00000019656518196990391160000018249123352638519442_">
						<use xlink:href="#SVGID_00000044174663794969698820000006874737614914479515_"  style="overflow:visible;"/>
					</clipPath>
					<g style="clip-path:url(#SVGID_00000019656518196990391160000018249123352638519442_);">
						<defs>
							<rect id="SVGID_00000171681302339034444360000007037138044231412098_" x="554.7" y="52.3" width="83.6" height="44.6"/>
						</defs>
						<clipPath id="SVGID_00000142144068011187639450000010659610331160126141_">
							<use xlink:href="#SVGID_00000171681302339034444360000007037138044231412098_"  style="overflow:visible;"/>
						</clipPath>
						
							<rect x="552.6" y="50.5" style="clip-path:url(#SVGID_00000142144068011187639450000010659610331160126141_);fill:#008080;" width="87.5" height="48.5"/>
					</g>
				</g>
			</g>
		</g>
	</g>
</g>
</svg>
