<?xml version="1.0" encoding="utf-8"?>
<!-- Generator: Adobe Illustrator 26.5.0, SVG Export Plug-In . SVG Version: 6.00 Build 0)  -->
<svg version="1.1" id="Layer_2_00000065065650894315701050000016811216408004786053_"
	 xmlns="http://www.w3.org/2000/svg" xmlns:xlink="http://www.w3.org/1999/xlink" x="0px" y="0px" viewBox="0 0 700 700"
	 style="enable-background:new 0 0 700 700;" xml:space="preserve">
<style type="text/css">
	.st0{opacity:0.4;fill:#008080;enable-background:new    ;}
	.st1{fill:#6EB7B0;}
	.st2{fill:#008080;}
	.st3{fill:#FFFFFF;}
	.st4{fill:#036663;}
	.st5{fill:#130F41;}
	.st6{fill:#CCCCCC;}
	.st7{fill:#98BBFF;}
	.st8{fill:#5379F6;}
</style>
<g>
	<path class="st0" d="M362.3,117.3c-60.5-1.3-121.8-2.5-180.3,14.5S67.3,187.2,39.6,246.7c-40.1,85.9-10.1,196.4,51.4,265
		s147.6,102.5,232.7,124c59,14.8,119.9,24.8,180.1,17.1c60.1-7.8,119.9-34.7,160.7-84.2c18-21.8,32.3-48.6,34.8-78.1
		c6.4-74.7-57.1-129.1-56.5-205.3c0.2-24.3,2.8-49.1-2.8-72.6c-8-33.3-32.4-60.3-61-73.9C517.2,109.1,428.1,118.8,362.3,117.3z"/>
	<g>
		<polygon class="st1" points="357.5,145.7 388.9,181.5 420.3,145.7 401.2,145.7 401.2,104.8 376.6,104.8 376.6,145.7 		"/>
		<g>
			<path d="M386.3,193.7l-32.6-37.2h19.8v-40.8h25.6v40.8H419L386.3,193.7z M356.1,157.5l30.2,34.5l30.2-34.5h-18.4v-40.8h-23.5
				v40.8H356.1z"/>
		</g>
	</g>
	<g>
		<polygon class="st2" points="385.1,91.6 353.7,55.7 322.3,91.6 341.4,91.6 341.4,132.4 366,132.4 366,91.6 		"/>
		<g>
			<path d="M363.9,140.2h-25.6V99.4h-19.8l32.6-37.2l32.6,37.2h-19.8L363.9,140.2L363.9,140.2z M339.4,138.9h23.5V98.2h18.4
				l-30.2-34.5l-30.2,34.5h18.4v40.8H339.4z"/>
		</g>
	</g>
	<g>
		<g>
			<g>
				<polygon class="st3" points="535.7,130.5 488.5,101 488.5,30.4 535.7,59.8 				"/>
				<polygon class="st1" points="535.7,130.5 582.9,101 582.9,30.4 535.7,59.8 				"/>
				<polygon class="st2" points="582.9,30.4 535.7,0.9 488.5,30.4 535.7,59.8 				"/>
			</g>
			<g>
				<path d="M535.7,131.3l-47.8-29.8V29.9l0.3-0.2L535.7,0l47.8,29.8v71.6L535.7,131.3z M489.1,100.7l46.6,29l46.6-29v-70l-46.6-29
					l-46.6,29V100.7z"/>
			</g>
			<g>
				<polygon points="535.7,60.6 488.2,30.9 488.8,29.7 535.7,58.9 582.6,29.7 583.3,30.9 				"/>
			</g>
			<g>
				<rect x="535.1" y="59.8" width="1.2" height="70.7"/>
			</g>
		</g>
		<g>
			<path d="M528.9,143.1c-1.3-0.3-2.3,1.1-3,2.3c-1,1.9-2.1,3.8-2.5,6c-0.4,2-0.2,4.1-0.2,6.2c0.1,4.1-0.5,8.3-2.1,12.1
				c-1.5,3.7-4,6.6-5.4,10.3c-2,5.1-1.9,11.1,0.2,16.2c0.1,0.3,0.3,0.6,0.5,0.8c0.3,0.2,0.6,0.2,0.9,0.2c5.7,0.6,11.4,1.1,17.1,1.7
				c5.2,0.6,10.5,1,15.7,1.3c3.2,0.2,6.5,0.3,9.7-0.1c0.4,0,0.8-0.1,1-0.4c0.4-0.4,0.5-1,0.5-1.7c0.3-5,1.4-9.7,2.2-14.6
				c0.7-4.9,1-10.1-0.5-14.7c-1.7-5.2-5.5-9.2-9.2-13c-3.2-3.2-6.5-6.4-10.2-8.9c-3.7-2.4-7.9-4.2-12.3-4.4
				c-1.6-0.1-3.5,0.2-4.4,1.8"/>
			<g>
				<polygon class="st3" points="522.6,469.2 522.2,484.7 535.5,488.9 535.5,472 				"/>
				<g>
					<path d="M536,484.6h-1.2c0.1-3.3,0.2-8.8,0.2-9.3l1.2-0.2C536.2,475.1,536.3,475.4,536,484.6z"/>
				</g>
				<g>
					<path d="M521.9,480.7c-0.1-3.2-0.3-6.9-0.4-7.3l0.4-0.1l0.7-0.4c0.1,0.2,0.2,0.4,0.5,7.8L521.9,480.7z"/>
				</g>
				<g>
					<g>
						<path class="st4" d="M535.7,484.2c0,0-5.7,4.3-8.4,0.2c-2.7-4.1-4.7-4.2-5.3-3.4c-0.6,0.8-15.2,13-18.8,15.6
							c-3.6,2.7,1.8,6,8.2,5.5c4.4-0.3,9.8-1.7,13.7-2.8c4.2-1.2,10.7-2.5,10.7-2.5S537.2,487.8,535.7,484.2z"/>
						<path d="M510.2,502.8c-4.3,0-8.1-1.6-8.8-3.8c-0.2-0.7-0.3-1.9,1.4-3.1c3.7-2.8,18.1-14.8,18.7-15.5c0.3-0.4,0.8-0.6,1.4-0.6
							c1,0.1,2.6,0.8,4.8,4.1c2.3,3.5,7.5-0.3,7.6-0.4l0.6-0.4l0.3,0.8c1.6,3.8,0.3,12.7,0.2,13.1l-0.1,0.4l-0.4,0.1
							c-0.1,0-6.6,1.3-10.7,2.5c-5.7,1.6-10.3,2.5-13.9,2.8C511,502.8,510.6,502.8,510.2,502.8z M522.8,481.3c-0.2,0-0.3,0-0.4,0.1
							c-0.7,0.8-15.4,13.2-18.9,15.7c-0.7,0.6-1,1-0.9,1.6c0.4,1.3,3.9,3.1,8.7,2.8c3.5-0.2,8-1.1,13.6-2.7c3.5-1,8.8-2.1,10.3-2.4
							c0.2-1.8,1-7.9,0.1-11.1c-2.3,1.6-6.4,3-8.6-0.3C524.6,481.6,523.2,481.3,522.8,481.3L522.8,481.3z"/>
					</g>
					<g>
						<path class="st3" d="M535.8,496.2l-0.2,5.2c0,0-21,8-30.2,4.5c-3.9-1.4-3.4-6.6-3.4-6.6s3.2,4,12.5,2.4
							C521.9,500.6,535.8,496.2,535.8,496.2z"/>
						<path d="M511.1,507.4c-2.3,0-4.3-0.2-6-0.9c-3.4-1.3-4-5.3-3.8-7.3l0.1-1.6l0.9,1.1c0,0,3.2,3.7,11.9,2.2
							c7.4-1.2,21.2-5.5,21.3-5.5l0.8-0.2l-0.3,6.5l-0.4,0.1C535,502.2,521.2,507.4,511.1,507.4z M502.5,500.8
							c0.1,1.4,0.7,3.7,3,4.5c8.2,3.1,26.5-3.3,29.4-4.4l0.2-3.8c-3.1,1-14.2,4.3-20.6,5.3C507.9,503.6,504.2,501.9,502.5,500.8z"/>
					</g>
				</g>
				<g>
					<polygon points="509,492.3 509.6,491.3 513.7,494.5 513.1,495.4 					"/>
				</g>
				<g>
					<polygon points="515,487.2 515.6,486.3 519.1,489.2 518.5,490.1 					"/>
				</g>
			</g>
			<g>
				<polygon class="st3" points="610.2,468.8 612,483.6 598.9,483.7 594,468.4 				"/>
				<g>
					<path d="M597.6,481.6c-2.6-7.8-2.5-8-2.4-8.2l0.6,0.2h0.6c0.1,0.4,1.3,4.2,2.4,7.5L597.6,481.6z"/>
				</g>
				<g>
					<path d="M610.8,479.4c-1.5-7.3-1.4-7.4-1.2-7.8l0.5,0.4l0.6,0.1c0,0.4,0.6,3.9,1.3,7L610.8,479.4z"/>
				</g>
				<g>
					<g>
						<path class="st4" d="M598,481c0,0,5.2,5,8.3,1.3c3.1-3.8,5.1-3.5,5.6-2.8s13.7,14.8,17,17.9c3.4,3.1-2.4,5.7-8.7,4.4
							c-4.4-0.9-9.5-2.9-13.4-4.5c-4-1.7-10.4-3.9-10.4-3.9S596,484.4,598,481z"/>
						<path d="M623.5,502.9c-1.1,0-2.3-0.1-3.4-0.3c-3.5-0.7-8-2.2-13.5-4.5c-4-1.7-10.3-3.9-10.4-3.9l-0.4-0.1v-0.4
							c0-0.3-0.4-9.4,1.6-13l0.4-0.7l0.5,0.6c0,0,4.8,4.5,7.5,1.3c2.5-3,4.2-3.5,5.2-3.4c0.6,0,1.1,0.3,1.4,0.8
							c0.6,0.8,13.5,14.6,16.9,17.8c1.5,1.4,1.3,2.7,1,3.2C629.7,501.9,626.9,502.9,623.5,502.9z M597.1,493c1.5,0.6,6.6,2.3,10,3.8
							c5.4,2.3,9.8,3.8,13.2,4.4c4.7,0.9,8.4-0.3,8.9-1.6c0.2-0.4,0-1-0.7-1.7c-3.2-3-16.5-17.2-17.1-18.1c-0.1-0.1-0.2-0.2-0.4-0.2
							c-0.4,0-1.8,0.1-4.2,3c-2.5,3-6.4,1.1-8.6-0.8C596.9,485.2,597,491.3,597.1,493z"/>
					</g>
					<g>
						<path class="st3" d="M596.6,492.9l-0.3,5.2c0,0,20,10.6,29.5,8.4c4-0.9,4.1-6.1,4.1-6.1s-3.6,3.5-12.7,0.9
							C609.9,499,596.6,492.9,596.6,492.9z"/>
						<path d="M622.9,507.4c-10.1,0-26.1-8.4-26.9-8.8l-0.4-0.2l0.4-6.5l0.8,0.3c0.1,0.1,13.3,6.1,20.6,8.3
							c8.5,2.5,12.1-0.7,12.1-0.7l1-1v1.6c0,2-1,6-4.6,6.8C625,507.4,624,507.4,622.9,507.4z M596.9,497.7
							c2.8,1.4,20.3,10.2,28.7,8.2c2.3-0.6,3.1-2.7,3.4-4.1c-1.8,0.9-5.6,2.1-12,0.2c-6.3-1.9-16.9-6.6-19.9-8L596.9,497.7z"/>
					</g>
				</g>
				<g>
					<polygon points="618.7,494 623.1,491.5 623.6,492.5 619.1,495 					"/>
				</g>
				<g>
					<polygon points="613.7,488.1 617.6,485.7 618,486.6 614.2,489.1 					"/>
				</g>
			</g>
			<path class="st5" d="M510.4,346.6c0,10.1,0.2,20.3,0.7,30.4c1.5,32.8,3.1,63.7,7.7,96.3c0.1,1,0.3,2.1,1,2.8
				c0.8,0.8,1.9,0.8,2.9,0.8c7.1,0,17.6,0.2,24.6,0.2c2.2-22.9,0.9-96.6,1.6-105.3c1.2-15.3,0.7-34.2,3.1-49.1
				c2.8-17.2,4.8-28.8,6.2-46.4c0.1-1.7-36.5-5.7-39.4-5.3C512.6,295.6,510.5,321.1,510.4,346.6z"/>
			<path class="st5" d="M612.8,476.4c-8.4,0-17.9-0.7-26.3-0.7c-4.4,0-15.2-39.3-17.1-44.4c-5.9-16-9.9-35.8-13.8-52.5
				c-7.6-32.1-11.1-60.7-12.7-93.8c-0.1-1.2-2.8-2.9-2.1-3.8c0.7-0.8,1.8-1,2.7-1.1c6.5-0.8,22.1-4.7,28-1.2
				c5.5,3.1,7,16.4,8.7,23.2c4.9,19.1,10,36.9,13.2,56.4C595.3,368.8,611.4,442.4,612.8,476.4z"/>
			<g>
				<path d="M545.5,477.6c-3.2,0-6.9,0-10.5-0.1c-4.3-0.1-8.8-0.1-12.3-0.1c-1.2,0-2.4-0.1-3.3-1c-0.8-0.8-1-2-1.2-3.1
					c-4.5-32-6.1-62.6-7.7-96.4c-0.5-11.1-0.7-21.1-0.7-30.4c0.1-29,2.9-53.8,8.5-75.8l0.1-0.3h0.4c2.2-0.2,37.8,3.2,39.7,5.3
					c0.2,0.2,0.2,0.4,0.2,0.6l-0.1,0.9c6.4-0.7,10.6-0.3,13.1,1.1c4.6,2.5,6.4,11.5,7.9,18.6c0.4,1.8,0.7,3.5,1.1,4.9
					c0.8,3.2,1.7,6.4,2.5,9.5c4.1,15.7,8,30.6,10.8,46.9c0.3,2.1,1.3,6.6,2.5,13c5.1,25.3,15.6,77.9,16.7,105.1v0.6h-0.5
					c-4.2,0-8.8-0.2-13.2-0.3c-4.4-0.2-9-0.3-13.1-0.3c-3.2,0-8.2-14.4-15.3-37.7c-1-3.4-1.8-6.1-2.2-7.1
					c-4.7-12.9-8.1-27.8-11.4-42.2c-0.8-3.5-1.6-7-2.4-10.4c-1.8-7.6-3.4-15.1-4.8-22.5c-0.2,5.4-0.4,10.6-0.8,15.5
					c-0.3,3.1-0.3,14.7-0.3,29.5c0,25.8,0,61.2-1.4,75.8v0.6h-0.5C546.7,477.6,546.1,477.6,545.5,477.6z M524.5,476.3
					c3.2,0,6.9,0,10.5,0.1c4.1,0,8.4,0.1,11.8,0.1c1.3-14.8,1.3-49.6,1.3-75.1c0-14.7,0-26.4,0.3-29.6c0.5-5.9,0.7-12.1,0.9-18.7
					l0.2-6.4l0.9,4.9c1.6,9.1,3.4,17.9,5.6,27.3c0.8,3.3,1.6,6.9,2.4,10.4c3.3,14.4,6.7,29.2,11.4,42.1c0.4,1.1,1.2,3.7,2.3,7.2
					c3.1,10.1,11.2,36.9,14.3,36.9c4.2,0,8.8,0.2,13.2,0.3c4.2,0.1,8.6,0.3,12.6,0.3c-1.2-27.4-11.7-79.3-16.7-104.4
					c-1.3-6.3-2.2-10.9-2.5-13c-2.7-16.2-6.6-31-10.7-46.8c-0.8-3.1-1.7-6.3-2.5-9.5c-0.4-1.4-0.7-3.1-1.1-5
					c-1.4-7-3.3-15.5-7.4-17.8c-2.4-1.3-6.7-1.7-13.2-0.9l-0.6,0.1l0.2-2.1c-2.7-1.4-33.6-5.1-38.4-5c-5.5,21.7-8.2,46.3-8.3,75
					c0,9.3,0.2,19.2,0.7,30.4c1.5,33.7,3.2,64.3,7.7,96.3c0.1,1,0.3,1.9,0.9,2.4c0.6,0.7,1.6,0.7,2.6,0.7
					C523.3,476.3,523.9,476.3,524.5,476.3z"/>
			</g>
			<g>
				<path d="M550.1,355.8c-1.5-9.3-2.4-16.8-2.8-22.8l1-0.1c0.4,6,1.3,13.4,2.7,22.7L550.1,355.8z"/>
			</g>
			<g>
				<path d="M601.9,443.4c-4.6-24.6-10.8-50.6-18.1-75.3l1-0.3c7.3,24.8,13.5,50.9,18.1,75.5L601.9,443.4z"/>
			</g>
			<path class="st1" d="M575.5,199.1c0.8,2.9,0.8,5.9,0.9,8.9c0.1,8.8,2.4,18.5,2.6,27.3c0.1,4.1,2.7,23.4,3.4,26.7
				c3.1,15.8,4.3,29.1,4.6,46.6c0,1.1,0,2.4-0.7,3.2c-0.6,0.7-1.5,0.9-2.4,1c-20.8,3.2-41.4-8-62.3-6.9c-4.5,0.2-9.2,1.2-12.5,4.5
				c-2.8-12.2-1.6-22.7-1-34.8c0.5-11.1,0.3-43,0-48c-0.4-5.7-0.5-11.3,0.4-17c1.2-8,6-26.6,12.9-23.9c7.2,2.8,14,3.5,21.8,3.3
				c8.5-0.1,20.8-0.8,29.7-9.4c0,0,0.8,13.1,2.4,17.6C575.4,198.5,575.5,198.9,575.5,199.1z"/>
			<g>
				<path d="M515.8,384.2c-2.2-19.2-2.5-39.3-0.9-58.4l1,0.1c-1.6,18.9-1.3,39,0.9,58.2L515.8,384.2z"/>
			</g>
			<g>
				<path class="st3" d="M528.4,148.2c0,0-1.6,18.4-0.5,25.2s6.9,8.1,6.9,8.1c0.6,0.1,0.1,4.2,0.1,4.7c0,0.6-0.1,1.1-0.1,1.6
					c0,0.3,0.2,1.1,0.2,1.3c-0.3,0.8-2.4,1.2-3,1.6c-0.9,0.6-1.7,1.7-1.4,2.8c0.1,0.6,0.5,1.1,1,1.4s1,0.4,1.5,0.7
					c2.3,0.7,4.5,0.8,6.8,0.8c3.7,0,7.7,0.7,11.4-0.3c1-0.3,3.4-1.6,3.3-2.8c0-1.1-2.3-2.7-3.6-3.1c-0.6-0.2-0.1-0.4-0.1-1
					c-0.2-4.3,0.5-8.6,2.2-12.5c0.8-1.9,1.9-3.7,2.2-5.8c0.3-2.5,0.5-5.2,0.8-7.8c0.5-5.2,1.1-10.4,1.6-15.5
					C557.8,147.5,535.3,139,528.4,148.2z"/>
				<g>
					<path d="M538.6,182.3c-4.3,0-8.2-1-10.1-5.8c-1.6-4.1-1.4-8.8-1.2-13.2c0-0.6,0-1.1,0.1-1.7c0-1,0.1-2,0.1-3
						c0.1-2.1,0.1-4.2,0.2-6.3h1c0,2.1-0.1,4.2-0.2,6.3c0,1-0.1,2-0.1,2.9c0,0.6,0,1.1-0.1,1.7c-0.2,4.3-0.3,8.9,1.2,12.7
						c2,5.2,7.1,5.3,12.1,5l0.1,1.1C540.6,182.3,539.6,182.3,538.6,182.3z"/>
				</g>
				<path d="M537.2,162.6c0,0.9,0.6,1.7,1.5,1.7c0.8,0,1.5-0.7,1.5-1.7c0-0.9-0.6-1.7-1.5-1.7C537.9,161,537.3,161.8,537.2,162.6z"
					/>
				<path d="M527.8,162.1c0,0.9,0.6,1.7,1.5,1.7c0.8,0,1.5-0.7,1.5-1.7c0-0.9-0.6-1.7-1.5-1.7C528.5,160.5,527.8,161.2,527.8,162.1z
					"/>
				<g>
					<path d="M534.1,171.2L534.1,171.2c-1,0-1.5,0-2.5-0.3c-1.1-0.4-2-1.3-2.3-2.4c-0.1-0.2-0.1-0.4-0.1-0.8
						c0.1-0.6,0.5-0.8,0.8-0.9c1.7-1,2.8-3.2,2.7-5.4l1-0.1c0.1,2.7-1.2,5.2-3.2,6.5c-0.1,0-0.2,0.1-0.3,0.2c0,0,0,0,0,0.1
						c0.2,0.8,0.8,1.3,1.7,1.7c0.8,0.3,1.2,0.3,2,0.3h0.1L534.1,171.2z"/>
				</g>
				<g>
					<path d="M533.2,175.7c-0.2,0-0.3,0-0.5,0l0.1-1.1c2.4,0.1,4.5-1,5.5-3.1l0.9,0.6C538,174.3,535.8,175.7,533.2,175.7z"/>
				</g>
				<g>
					<path d="M542.4,159.9c-1.8-1.2-3.8-2-5.9-2.2l0.1-1.1c2.2,0.2,4.4,1.1,6.3,2.4L542.4,159.9z"/>
				</g>
				<g>
					<path d="M528.8,157.5l-0.3-1.1c0.9-0.3,1.8-0.6,2.7-0.4v1.1C530.4,157.1,529.6,157.3,528.8,157.5z"/>
				</g>
				<g>
					<path d="M543.5,197.1c-0.9,0-1.8,0-2.7-0.1H540c-2.2-0.1-4.7-0.2-6.8-1h-0.1c-0.9-0.3-2.1-0.8-2.7-1.7
						c-0.6-0.9-0.4-2.1,0.1-2.9c0.5-0.8,1.2-1.3,1.9-1.7c0.7-0.4,1.4-0.8,2.1-1c0.1-1.1,0-2.2,0-3.3c0-1.3-0.1-2.8,0.1-4.2l1,0.1
						c-0.1,1.3-0.1,2.7-0.1,4c0,1.2,0.1,2.5,0,3.8v0.3l-0.3,0.1c-0.8,0.3-1.6,0.7-2.3,1.1c-0.5,0.3-1.1,0.8-1.5,1.3
						c-0.3,0.4-0.4,1.1-0.1,1.7c0.3,0.6,1.5,1,2.2,1.2h0.1c2,0.7,4.4,0.8,6.5,0.9h0.8c2.5,0.1,4.9,0,7.8-0.1c1.8-0.1,4-0.6,4.9-1.7
						c0.3-0.3,0.4-0.8,0.4-1.2c0-0.6-2-2.2-3-2.3l-0.4-0.1l-0.1-0.4c-0.2-1.1-0.2-1.7-0.2-2.4c0-0.3,0-0.8-0.1-1.2v-0.6
						c-0.1-1.4-0.2-2.9-0.3-4.4l1-0.1c0.1,1.4,0.2,2.9,0.3,4.4v0.6c0,0.6,0.1,0.9,0.1,1.3c0,0.7,0,1.1,0.2,1.9
						c1.2,0.4,3.4,2,3.5,3.3c0,0.8-0.2,1.4-0.7,2.1c-1.3,1.7-4.4,2-5.6,2C547.1,197.1,545.3,197.1,543.5,197.1z"/>
				</g>
				<g>
					<path d="M549.2,172.1l-0.8-0.7c0.2-0.3,0.5-0.6,0.8-0.8c0.4-0.3,0.7-0.6,0.8-0.9c0.1-0.2,0.1-0.4,0-0.7
						c-0.1-0.4-0.2-1.1-0.7-1.7c-0.4-0.4-1.1-0.7-1.7-0.4l-0.3-1.1c0.9-0.3,2,0,2.7,0.7s0.9,1.7,1,2.3c0,0.3,0.1,0.8-0.1,1.2
						c-0.2,0.7-0.7,1.1-1.1,1.4C549.6,171.6,549.3,171.8,549.2,172.1z"/>
				</g>
			</g>
			<path d="M573.8,189.7c-1,0.4-2,0.8-3,1.1c-2.3,0.7-3.4,0.8-5.3-0.4c-1.7-1.1-3.6-2.5-5.7-2.2c-3.3,0.6-9.4,1.2-9.4,1.2
				c-0.4-3.4-0.9-14.7-0.9-14.7c2.1-0.9,3.3-4.8,3.3-6.5c0-0.7-0.1-1.4-0.4-2c-0.4-1-1.1-1.9-2-2.3c-1.5-0.8-3.4-0.2-4.2,1.4
				c-0.1-4.2-2.7-8.2-6.3-9.6c-1.8-0.7-3.8-0.8-5.8-0.7c-1.2,0.1-2.5,0.2-3.7,0.4c-0.6,0.1-1.9,0.1-2.3,0.6
				c-0.5,0.7-0.3,2.7-0.3,3.5c-0.1,1.2-0.2,2.3-0.2,3.5c-1.9-3-2.9-6.5-2.8-10.2c0.2-9.3,7.1-17.9,15.9-15.5c2.4,0.7,4.5,2.1,7,2.3
				c2.1,0.2,5-0.7,6.9,0.8s3.1,4.1,4.8,5.8c3.8,3.7,9.1,4.8,13.3,7.4c2.5,1.6,4.7,3.8,5.9,6.5c1.2,2.9,1.3,6.2,1.5,9.4
				c0.5,6.4,4.4,11.3-1,16.7C577.7,187.8,575.8,188.9,573.8,189.7z"/>
			<g>
				<path d="M542.9,201.5c-2.4,0-4.9-0.2-7.3-0.6l0.1-1.1c4.9,0.7,9.8,0.7,14.7,0c1.3-0.2,2.7-0.4,3.9-1.2l0.5,1
					c-1.4,0.9-2.9,1.1-4.3,1.3C548,201.3,545.4,201.5,542.9,201.5z"/>
			</g>
			<g>
				<g>
					<path class="st3" d="M582.2,83.4c-0.2-1.6-0.2-3.2,0.7-4.4c0.9-1.2,2.4-1.8,3.8-1.4c0.3,2.2,0.8,4.3,1.4,6.3
						c0.3,1,1.1,4.1,1.8,5.9c0.1,0.3-0.2,0.6-0.4,0.3C587.4,88.5,582.3,84.3,582.2,83.4z"/>
					<path d="M589.6,91c-0.2,0-0.4-0.1-0.5-0.2c-7.4-6-7.5-6.9-7.5-7.2c-0.2-1.4-0.3-3.4,0.9-5c1.1-1.3,2.8-2,4.4-1.7l0.4,0.1
						l0.1,0.4c0.3,2.1,0.7,4.2,1.4,6.2c0.1,0.2,0.2,0.7,0.3,1.2c0.4,1.3,1,3.3,1.4,4.7c0.2,0.4,0,0.9-0.3,1.1
						C590,90.9,589.8,91,589.6,91z M582.8,83.3c0.3,0.6,2.2,2.4,6.1,5.5c-0.4-1.2-0.8-2.5-1-3.5c-0.1-0.4-0.3-0.9-0.3-1.2
						c-0.6-2-1-4-1.3-6c-1-0.1-2.1,0.4-2.8,1.2C582.8,80.3,582.6,81.5,582.8,83.3z"/>
				</g>
				<g>
					<path class="st3" d="M579.5,103.9c-0.3-0.7-0.6-1.3-0.9-2.1c-0.7-1.4-6.5-2.5-7.6-2.8c-0.4-0.1-0.7-0.1-1-0.4
						c-1.4-1.1-1-3.7,0.2-3.9c-2.8-2.1-0.7-4.4,0.8-4.5c-2.5-1.4-1.2-4.7,0.4-4.5c-1.4-0.7-2.7-5,3.7-4.1c3.3,0.4,6.5,1.4,9.4,3.2
						c2.9,1.8,5.4,4.4,6.9,7.6c1.7,3.8,1.9,8.2,1.6,12.3c-0.4,4.4-2.1,6.4-6.1,5.5C583.7,109.8,580.8,107.4,579.5,103.9z"/>
					<path d="M588.6,111.3c-0.6,0-1.2-0.1-1.8-0.2c-3.5-0.8-6.5-3.5-7.7-7c-0.2-0.7-0.5-1.2-0.9-2c-0.4-0.8-4-1.9-7.1-2.4
						c-0.4-0.1-0.9-0.1-1.3-0.6c-1.1-0.9-1.3-2.3-1.1-3.3c0.1-0.4,0.3-0.9,0.6-1.2c-1-1.1-1-2.2-0.8-2.9c0.2-0.8,0.8-1.4,1.4-1.8
						c-0.7-0.9-0.8-2.1-0.6-2.9c0.2-0.7,0.6-1.2,1-1.7c-0.4-0.7-0.7-1.6-0.5-2.4c0.2-1,1.3-2.7,5.5-2c3.8,0.6,7,1.7,9.6,3.3
						c3.2,2,5.7,4.8,7.1,8c1.9,4.3,1.9,9.2,1.6,12.6c-0.3,2.7-1,4.4-2.2,5.4C590.6,111.1,589.7,111.3,588.6,111.3z M571.3,86.5
						c-0.4,0-0.8,0.4-1,1c-0.1,0.3-0.3,1.4,1,2.2l2.1,1.2H571c-0.6,0-1.3,0.6-1.5,1.2c-0.2,0.8,0.5,1.6,1.1,2l1.3,1l-1.5,0.2
						c-0.4,0.1-0.5,0.6-0.6,0.8c-0.1,0.6,0,1.4,0.6,1.9c0.2,0.1,0.4,0.2,0.8,0.2c1.7,0.3,7.2,1.4,8,3.1c0.3,0.7,0.7,1.3,1,2.1l0,0
						c1.1,3,3.8,5.4,6.8,6.1c1.7,0.3,2.9,0.2,3.7-0.4c0.9-0.8,1.5-2.2,1.7-4.4c0.3-3.2,0.3-7.9-1.5-11.9c-1.3-3-3.7-5.5-6.6-7.4
						c-2.5-1.6-5.5-2.5-9.2-3.1c-2.4-0.3-3.9,0-4.1,1c-0.2,0.7,0.3,1.6,0.7,1.8l3.8,1.8L571.3,86.5
						C571.4,86.5,571.3,86.5,571.3,86.5z"/>
				</g>
				<g>
					<path d="M582.4,89.4c-3.4-2.1-7.8-2.5-11.6-2.8l0.1-1.3c4,0.2,8.5,0.7,12.2,3L582.4,89.4z"/>
				</g>
				<g>
					<path d="M581,93.6c-2-1.3-8.1-2.3-10.5-2.3V90c2.6,0,8.9,1,11.2,2.5L581,93.6z"/>
				</g>
				<g>
					<path d="M580.5,98.2c-3.4-1.2-6.9-2.1-10.4-2.7l0.1-1.3c3.6,0.4,7.2,1.3,10.6,2.7L580.5,98.2z"/>
				</g>
			</g>
			<g>
				<g>
					<path class="st3" d="M490.3,89.9c0.2-1.6,0.2-3.2-0.7-4.4c-0.9-1.2-2.4-1.8-3.8-1.4c-0.3,2.2-0.8,4.3-1.4,6.3
						c-0.3,1-1.1,4.1-1.8,5.9c-0.1,0.3,0.2,0.6,0.4,0.3C485.1,95,490.2,90.7,490.3,89.9z"/>
					<path d="M482.8,97.4c-0.2,0-0.4-0.1-0.5-0.2c-0.3-0.2-0.4-0.8-0.3-1.1c0.5-1.2,1-3.3,1.4-4.7c0.1-0.6,0.3-0.9,0.3-1.2
						c0.6-2,1.1-4.1,1.4-6.2l0.1-0.4l0.4-0.1c1.6-0.3,3.3,0.2,4.4,1.7c1.2,1.6,1.1,3.5,0.9,5l0,0c-0.1,0.4-0.2,1.2-7.5,7.2
						C483.2,97.3,483,97.4,482.8,97.4z M486.3,84.6c-0.3,2-0.7,4-1.3,6c-0.1,0.2-0.2,0.7-0.3,1.2c-0.3,1-0.7,2.3-1,3.4
						c3.9-3.2,5.8-5.1,6.1-5.5c0.2-1.8,0.1-3-0.6-3.8C488.4,85.1,487.4,84.5,486.3,84.6z"/>
				</g>
				<g>
					<path class="st3" d="M492.9,110.4c0.3-0.7,0.6-1.3,0.9-2.1c0.7-1.4,6.5-2.5,7.6-2.8c0.4-0.1,0.7-0.1,1-0.4
						c1.4-1.1,1-3.7-0.2-3.9c2.8-2.1,0.7-4.4-0.8-4.5c2.5-1.4,1.2-4.7-0.4-4.5c1.4-0.7,2.7-5-3.7-4.1c-3.3,0.4-6.5,1.4-9.4,3.2
						s-5.4,4.4-6.9,7.6c-1.7,3.8-1.9,8.2-1.6,12.3c0.4,4.4,2.1,6.4,6.1,5.5C488.8,116.2,491.7,113.8,492.9,110.4z"/>
					<path d="M483.9,117.8c-1.2,0-2.1-0.3-2.9-0.9c-1.2-1-1.9-2.8-2.2-5.4c-0.3-3.4-0.3-8.3,1.6-12.6c1.4-3.2,3.9-6,7.1-8
						c2.7-1.7,5.8-2.7,9.6-3.3c4.2-0.7,5.3,1,5.5,2c0.2,0.9,0,1.8-0.5,2.4c0.5,0.3,0.9,0.9,1,1.7c0.2,0.9,0.2,2-0.6,2.9
						c0.6,0.3,1.2,1,1.4,1.8c0.2,0.7,0.2,1.7-0.8,2.9c0.3,0.3,0.5,0.7,0.6,1.2c0.2,1,0,2.4-1.1,3.3c-0.4,0.3-0.9,0.4-1.3,0.6
						c-3.1,0.6-6.8,1.7-7.1,2.4c-0.4,0.7-0.6,1.3-0.9,2l0,0c-1.2,3.4-4.3,6.2-7.7,7C485.1,117.7,484.5,117.8,483.9,117.8z M499,88.7
						c-0.5,0-1,0-1.6,0.1c-3.7,0.6-6.7,1.6-9.2,3.1c-2.9,1.8-5.3,4.4-6.6,7.4c-1.8,4-1.8,8.6-1.5,11.9c0.2,2.2,0.8,3.8,1.7,4.4
						c0.8,0.7,2.1,0.9,3.7,0.4c3.1-0.7,5.7-3.1,6.8-6.1l0,0c0.3-0.8,0.6-1.4,1-2.1c0.8-1.7,6.3-2.8,8-3.1c0.3-0.1,0.6-0.1,0.8-0.2
						c0.6-0.4,0.7-1.3,0.6-1.9c0-0.1-0.2-0.7-0.6-0.8l-1.5-0.2l1.3-1c0.6-0.4,1.3-1.2,1.1-2c-0.2-0.7-1-1.2-1.5-1.2h-2.4l2.1-1.2
						c1.3-0.8,1.1-1.9,1-2.2c-0.2-0.7-0.6-1.1-1-1l-4.2,0.3l3.8-1.8c0.4-0.2,0.9-1,0.7-1.8C501.4,89.2,500.5,88.7,499,88.7z"/>
				</g>
				<g>
					<path d="M490.1,95.8l-0.6-1.2c3.6-2.2,8.2-2.8,12.2-3l0.1,1.3C497.9,93.2,493.5,93.7,490.1,95.8z"/>
				</g>
				<g>
					<path d="M491.5,100l-0.6-1.2c2.3-1.6,8.6-2.5,11.2-2.5v1.3C499.5,97.7,493.4,98.7,491.5,100z"/>
				</g>
				<g>
					<path d="M491.9,104.6l-0.4-1.3c3.4-1.3,7-2.2,10.6-2.7l0.1,1.3C498.8,102.5,495.3,103.4,491.9,104.6z"/>
				</g>
			</g>
			<path class="st1" d="M557.2,188.8c6.1-1.3,18.4-12.3,25.3-24.6c9.7-17.4-0.6-52.3-0.2-54.3c5.5-1.9,12.3-7.2,17.8-9.1
				c1.5,6.4,18.2,37.7,9.4,69.9c-8,29.5-29.4,48.5-36.3,52C571.4,223.5,556,189.1,557.2,188.8z"/>
			<path class="st1" d="M510.8,175.5c-15.7-13.8-17.4-48.4-18.6-61.2l-20,2.3c0,0-7,36.3,6,65c10.6,23.4,21.6,34.1,30.4,39.6
				c11.5-3.3,13.3-24.9,23.1-31.9C525.6,189.1,517.5,181.4,510.8,175.5z"/>
			<g>
				<path class="st1" d="M576.1,313.9c-8.7,0-17.4-1.9-25.8-3.8c-9.4-2.1-19.1-4.2-28.7-3.7c-3.6,0.2-8.7,0.9-12.1,4.4l-0.6,0.7
					l-0.2-0.9c-2.4-10.4-1.8-19.7-1.3-29.6c0.1-1.8,0.2-3.7,0.3-5.4c0.5-11.3,0.3-43.1,0-47.9c-0.2-2.4-0.2-4.7-0.3-6.6
					c-11.2-7.3-21.1-20.5-29.5-39.1c-12.9-28.6-6.1-65-6-65.4l0.1-0.4l20.9-2.4l0.1,0.6c0.1,0.9,0.2,1.9,0.2,3
					c1.2,14.6,3.7,45.2,18.1,57.8l1.7,1.6c6.3,5.7,13.4,12,18.8,12.2l1.7,0.1l-0.5,0.3l-0.1,1.1c-0.4-0.1-0.9-0.1-1.3-0.2l-1.4-0.2
					l0.1-0.1c-5.5-1.1-12.1-7-18-12.2l-1.7-1.6c-14.8-13-17.3-43.9-18.5-58.6c-0.1-0.9-0.1-1.7-0.2-2.3l-19.1,2.2
					c-0.7,4.1-6,37.7,6,64.3c8.4,18.5,18.3,31.6,29.3,38.8l0.3,0.1v0.3c0,2.1,0.1,4.4,0.3,7c0.3,4.8,0.5,36.7,0,48
					c-0.1,1.9-0.2,3.7-0.3,5.4c-0.5,9.4-1,18.4,1.1,28.3c3.7-3.2,8.6-3.9,12.1-4.1c9.7-0.6,19.5,1.7,29,3.7
					c10.9,2.4,22.2,4.9,33.3,3.2c0.8-0.1,1.6-0.3,2.1-0.9c0.6-0.7,0.6-1.8,0.6-2.9c-0.3-18.4-1.6-31.5-4.6-46.5
					c-0.7-3.3-3.3-22.7-3.4-26.8c-0.1-4.2-0.7-8.8-1.3-13.1l-0.3-2.4l0.3-0.2c10.8-8.2,25.6-25.9,31.9-48.9
					c7.2-26.4-2.7-51.7-7.4-64c-0.8-2.2-1.5-3.9-1.8-5c-2.5,1-5.4,2.7-8.2,4.3c-2.9,1.8-6,3.5-8.7,4.5c0.1,0.7,0.4,2.4,0.8,4.2
					c2.2,10.7,7.2,35.9-0.7,50c-6.5,11.6-17.8,22-24.3,24.5c-2.1,0.6-4.2,0.9-6.5,1.2l-0.1-1.1c2.3-0.2,4.4-0.7,6.4-1.1
					c6.3-2.3,17.3-12.5,23.7-23.9c7.7-13.7,2.7-38.6,0.6-49.1c-0.7-3.3-0.9-4.4-0.8-5l0.1-0.3l0.3-0.1c2.7-1,5.9-2.8,8.9-4.5
					c3-1.8,6.2-3.5,8.9-4.5l0.5-0.2l0.1,0.6c0.3,1.1,1,3,2,5.4c4.8,12.3,14.7,38,7.5,64.8c-6.3,23-21.1,40.9-32,49.3l0.2,1.8
					c0.6,4.4,1.2,9,1.3,13.3c0.1,4.1,2.7,23.3,3.4,26.6c3,15.2,4.3,28.3,4.6,46.8c0,1.2,0,2.7-0.9,3.7c-0.7,0.9-1.8,1.1-2.7,1.2
					C581.3,313.8,578.7,313.9,576.1,313.9z"/>
			</g>
			<g>
				<path d="M576.7,221.6c-0.3-2-0.5-4.1-0.6-6.3c-0.2-3.2-0.4-6.4-1.3-9.3l1-0.3c0.9,3,1.1,6.4,1.3,9.6c0.1,2.2,0.3,4.2,0.6,6.1
					L576.7,221.6z"/>
			</g>
			<g>
				<path d="M508.3,220.4h-1c0.1-4.3,0.3-8.6,0.7-12.9l1,0.1C508.7,211.8,508.4,216.2,508.3,220.4z"/>
			</g>
		</g>
	</g>
	<g>
		<g>
			<polygon class="st6" points="376.2,483.7 329.6,454.6 329.6,384.7 376.2,413.7 			"/>
			<polygon class="st7" points="376.2,483.7 422.9,454.6 422.9,384.6 376.2,413.7 			"/>
			<polygon class="st8" points="422.9,384.6 376.2,355.5 329.6,384.7 376.2,413.7 			"/>
		</g>
		<g>
			<path d="M376.2,484.5L329,454.9v-70.8l0.3-0.2l47-29.4l47.3,29.5v70.8L376.2,484.5z M330.2,454.1l46,28.7l46-28.7V385l-46-28.7
				l-46,28.7V454.1z"/>
		</g>
		<g>
			<polygon points="376.2,414.5 329.3,385.2 329.9,384 376.2,412.9 422.6,384 423.2,385.2 			"/>
		</g>
		<g>
			<rect x="375.6" y="413.8" width="1.2" height="69.9"/>
		</g>
	</g>
	<g>
		<g>
			<polygon class="st6" points="423,512.6 376.4,483.5 376.4,413.6 423,442.7 			"/>
			<polygon class="st7" points="423,512.6 469.7,483.5 469.7,413.6 423,442.7 			"/>
			<polygon class="st8" points="469.7,413.6 423,384.5 376.4,413.6 423,442.7 			"/>
		</g>
		<g>
			<path d="M423,513.4L375.7,484v-70.8l0.3-0.2l47-29.4l47.3,29.5v70.8L423,513.4z M377,483.2l46,28.7l46-28.7V414l-46-28.7L377,414
				V483.2z"/>
		</g>
		<g>
			<polygon points="423,443.5 376.1,414.3 376.7,413 423,442 469.4,413 470,414.2 			"/>
		</g>
		<g>
			<rect x="422.4" y="442.8" width="1.2" height="69.9"/>
		</g>
	</g>
	<g>
		<g>
			<polygon class="st6" points="469.7,541.8 423,512.8 423,442.7 469.7,471.9 			"/>
			<polygon class="st1" points="469.7,541.8 516.4,512.6 516.4,442.7 469.7,471.9 			"/>
			<polygon class="st4" points="516.4,442.7 469.7,413.6 423,442.7 469.7,471.9 			"/>
		</g>
		<g>
			<path d="M469.7,542.6l-47.3-29.5v-70.7l0.3-0.2l47-29.4l47.3,29.6v70.8L469.7,542.6z M423.7,512.3l46,28.7l46-28.7v-69.1
				l-46-28.7l-46,28.7V512.3z"/>
		</g>
		<g>
			<polygon points="469.7,472.6 422.7,443.4 423.3,442.2 469.7,471.1 516.1,442.2 516.7,443.4 			"/>
		</g>
		<g>
			<rect x="469.1" y="472" width="1.2" height="69.9"/>
		</g>
	</g>
	<g>
		<g>
			<polygon class="st6" points="376.2,413.7 329.6,384.6 329.6,314.5 376.2,343.7 			"/>
			<polygon class="st7" points="376.2,413.7 422.9,384.6 422.9,314.5 376.2,343.7 			"/>
			<polygon class="st8" points="422.9,314.5 376.2,285.5 329.6,314.5 376.2,343.7 			"/>
		</g>
		<g>
			<path d="M376.2,414.5L329,384.9v-70.8l0.3-0.2l47-29.4l47.3,29.5v70.8L376.2,414.5z M330.2,384.1l46,28.7l46-28.7V315l-46-28.7
				l-46,28.7V384.1z"/>
		</g>
		<g>
			<polygon points="376.2,344.5 329.3,315.2 329.9,314 376.2,342.9 422.6,314 423.2,315.2 			"/>
		</g>
		<g>
			<rect x="375.6" y="343.8" width="1.2" height="69.9"/>
		</g>
	</g>
	<g>
		<g>
			<polygon class="st6" points="423,442.6 376.4,413.5 376.4,343.6 423,372.7 			"/>
			<polygon class="st7" points="423,442.6 469.7,413.5 469.7,343.6 423,372.7 			"/>
			<polygon class="st8" points="469.7,343.6 423,314.4 376.4,343.6 423,372.7 			"/>
		</g>
		<g>
			<path d="M423,443.4l-47.3-29.5v-70.8l0.3-0.2l47-29.4l47.3,29.5v70.8L423,443.4z M377,413.2l46,28.7l46-28.7V344l-46-28.7
				L377,344V413.2z"/>
		</g>
		<g>
			<polygon points="423,373.5 376.1,344.1 376.7,343 423,371.9 469.4,343 470,344.1 			"/>
		</g>
		<g>
			<rect x="422.4" y="372.7" width="1.2" height="69.9"/>
		</g>
	</g>
	<g>
		<g>
			<polygon class="st3" points="528.8,463.3 482.1,434.2 482.1,364.3 528.8,393.4 			"/>
			<polygon class="st1" points="528.8,463.3 575.4,434.2 575.4,364.3 528.8,393.4 			"/>
			<polygon class="st2" points="575.4,364.3 528.8,335.2 482.1,364.3 528.8,393.4 			"/>
		</g>
		<g>
			<path class="st2" d="M528.8,464.1l-47.3-29.5v-70.8l0.3-0.2l47-29.4l47.3,29.5v70.9L528.8,464.1z M482.7,433.9l46,28.7l46-28.7
				v-69.1l-46-28.7l-46,28.7V433.9z"/>
		</g>
		<g>
			<polygon points="528.8,394.2 481.8,364.8 482.4,363.6 528.8,392.7 575.1,363.6 575.7,364.8 			"/>
		</g>
		<g>
			<rect x="528.2" y="393.4" width="1.2" height="69.9"/>
		</g>
	</g>
	<g>
		<g>
			<polygon class="st3" points="376.2,343.8 329.6,314.7 329.6,244.7 376.2,273.9 			"/>
			<polygon class="st1" points="376.2,343.8 422.9,314.7 422.9,244.7 376.2,273.9 			"/>
			<polygon class="st2" points="422.9,244.7 376.2,215.6 329.6,244.7 376.2,273.9 			"/>
		</g>
		<g>
			<path d="M376.2,344.6L329,315.1v-70.8l0.3-0.2l47-29.4l47.3,29.5V315L376.2,344.6z M330.2,314.2l46,28.7l46-28.7v-69.1l-46-28.7
				l-46,28.7V314.2z"/>
		</g>
		<g>
			<polygon points="376.2,274.7 329.3,245.3 329.9,244.1 376.2,273.1 422.6,244.1 423.2,245.3 			"/>
		</g>
		<g>
			<rect x="375.6" y="273.9" width="1.2" height="69.9"/>
		</g>
	</g>
	<g>
		<g>
			<polygon class="st3" points="469.7,402 423,372.8 423,302.9 469.7,331.9 			"/>
			<polygon class="st1" points="469.7,402 516.4,372.8 516.4,302.8 469.7,331.9 			"/>
			<polygon class="st2" points="516.4,302.8 469.7,273.8 423,302.9 469.7,331.9 			"/>
		</g>
		<g>
			<path class="st1" d="M469.7,402.7l-47.3-29.5v-70.8l0.3-0.2l47-29.4l47.3,29.5v70.8L469.7,402.7z M423.7,372.4l46,28.7l46-28.7
				v-69.1l-46-28.7l-46,28.7V372.4z"/>
		</g>
		<g>
			<polygon points="469.7,332.7 422.7,303.5 423.3,302.2 469.7,331.2 516.1,302.2 516.7,303.5 			"/>
		</g>
		<g>
			<rect x="469.1" y="332.1" width="1.2" height="69.9"/>
		</g>
	</g>
	<g>
		<g>
			<polygon class="st6" points="329.6,512.9 282.9,483.7 282.9,413.8 329.6,443 			"/>
			<polygon class="st7" points="329.6,512.9 376.2,483.7 376.2,413.8 329.6,443 			"/>
			<polygon class="st8" points="376.2,413.8 329.6,384.7 282.9,413.8 329.6,443 			"/>
		</g>
		<g>
			<path d="M329.6,513.6l-47.3-29.5v-70.8l0.3-0.2l47-29.4l47.3,29.5v70.8L329.6,513.6z M283.5,483.4l46,28.7l46-28.7v-69.1
				l-46-28.7l-46,28.7V483.4z"/>
		</g>
		<g>
			<polygon points="329.6,443.7 282.6,414.4 283.2,413.3 329.6,442.2 375.9,413.2 376.5,414.4 			"/>
		</g>
		<g>
			<rect x="329" y="443" width="1.2" height="69.9"/>
		</g>
	</g>
	<g>
		<g>
			<polygon class="st6" points="376.4,541.9 329.7,512.8 329.7,442.8 376.4,471.9 			"/>
			<polygon class="st7" points="376.4,541.9 423,512.8 423,442.7 376.4,471.9 			"/>
			<polygon class="st8" points="423,442.7 376.4,413.7 329.7,442.8 376.4,471.9 			"/>
		</g>
		<g>
			<path d="M376.4,542.7l-47.3-29.5v-70.8l0.3-0.2l47-29.4l47.3,29.5v70.8L376.4,542.7z M330.3,512.3l46,28.7l46-28.7v-69.1
				l-46-28.7l-46,28.7V512.3z"/>
		</g>
		<g>
			<polygon points="376.4,472.6 329.4,443.4 330,442.2 376.4,471.1 422.7,442.2 423.3,443.4 			"/>
		</g>
		<g>
			<rect x="375.7" y="472" width="1.2" height="69.9"/>
		</g>
	</g>
	<g>
		<g>
			<polygon class="st6" points="423,571 376.4,541.9 376.4,472 423,501 			"/>
			<polygon class="st1" points="423,571 469.7,541.9 469.7,472 423,501 			"/>
			<polygon class="st8" points="469.7,472 423,442.8 376.4,472 423,501 			"/>
		</g>
		<g>
			<path d="M423,571.8l-47.3-29.5v-70.8l0.3-0.2l47-29.4l47.3,29.5v70.8L423,571.8z M377,541.5l46,28.7l46-28.7v-69.1l-46-28.7
				l-46,28.7V541.5z"/>
		</g>
		<g>
			<polygon points="423,501.9 376.1,472.5 376.7,471.3 423,500.2 469.4,471.3 470,472.5 			"/>
		</g>
		<g>
			<rect x="422.4" y="501.1" width="1.2" height="69.9"/>
		</g>
	</g>
	<g>
		<g>
			<polygon class="st6" points="329.6,442.8 282.9,413.7 282.9,343.8 329.6,372.9 			"/>
			<polygon class="st7" points="329.6,442.8 376.2,413.7 376.2,343.8 329.6,372.9 			"/>
			<polygon class="st8" points="376.2,343.8 329.6,314.7 282.9,343.8 329.6,372.9 			"/>
		</g>
		<g>
			<path d="M329.6,443.6l-47.3-29.5v-70.8l0.3-0.2l47-29.4l47.3,29.5V414L329.6,443.6z M283.5,413.4l46,28.7l46-28.7v-69.1l-46-28.7
				l-46,28.7V413.4z"/>
		</g>
		<g>
			<polygon points="329.6,373.7 282.6,344.3 283.2,343.1 329.6,372.2 375.9,343.1 376.5,344.3 			"/>
		</g>
		<g>
			<rect x="329" y="372.9" width="1.2" height="69.9"/>
		</g>
	</g>
	<g>
		<g>
			<polygon class="st3" points="247.3,563.9 200.6,534.8 200.6,464.9 247.3,493.9 			"/>
			<polygon class="st7" points="247.3,563.9 294,534.8 294,464.9 247.3,493.9 			"/>
			<polygon class="st8" points="294,464.9 247.3,435.8 200.6,464.9 247.3,493.9 			"/>
		</g>
		<g>
			<path d="M247.3,564.7L200,535.1v-70.8l0.3-0.2l47-29.4l47.3,29.5V535L247.3,564.7z M201.2,534.4l46,28.7l46-28.7v-69.1l-46-28.7
				l-46,28.7L201.2,534.4L201.2,534.4z"/>
		</g>
		<g>
			<polygon points="247.3,494.8 200.3,465.4 200.9,464.2 247.3,493.1 293.7,464.2 294.3,465.4 			"/>
		</g>
		<g>
			<rect x="246.7" y="494" width="1.2" height="69.9"/>
		</g>
	</g>
	<g>
		<g>
			<polygon class="st6" points="376.4,471.9 329.7,442.7 329.7,372.8 376.4,401.9 			"/>
			<polygon class="st7" points="376.4,471.9 423,442.7 423,372.7 376.4,401.9 			"/>
			<polygon class="st8" points="423,372.7 376.4,343.7 329.7,372.8 376.4,401.9 			"/>
		</g>
		<g>
			<path d="M376.4,472.6l-47.3-29.5v-70.8l0.3-0.2l47-29.4l47.3,29.5v70.8L376.4,472.6z M330.3,442.3l46,28.7l46-28.7v-69.1
				l-46-28.7l-46,28.7V442.3z"/>
		</g>
		<g>
			<polygon points="376.4,402.6 329.4,373.4 330,372.2 376.4,401.1 422.7,372.2 423.3,373.4 			"/>
		</g>
		<g>
			<rect x="375.7" y="402" width="1.2" height="69.9"/>
		</g>
	</g>
	<g>
		<g>
			<polygon class="st3" points="282.8,472 236.2,442.8 236.2,372.9 282.8,402.1 			"/>
			<polygon class="st7" points="282.8,472 329.5,442.8 329.5,372.9 282.8,402.1 			"/>
			<polygon class="st8" points="329.5,372.9 282.8,343.8 236.2,372.9 282.8,402.1 			"/>
		</g>
		<g>
			<path d="M282.8,472.8l-47.3-29.5v-70.8l0.3-0.2l47-29.4l47.3,29.5v70.8L282.8,472.8z M236.8,442.5l46,28.7l46-28.7v-69.1
				l-46-28.7l-46,28.7L236.8,442.5L236.8,442.5z"/>
		</g>
		<g>
			<polygon points="282.8,402.8 235.9,373.5 236.5,372.4 282.8,401.3 329.2,372.4 329.8,373.5 			"/>
		</g>
		<g>
			<rect x="282.2" y="402.1" width="1.2" height="69.9"/>
		</g>
	</g>
	<g>
		<g>
			<polygon class="st3" points="423,501 376.4,471.9 376.4,402 423,431 			"/>
			<polygon class="st1" points="423,501 469.7,471.9 469.7,402 423,431 			"/>
			<polygon class="st2" points="469.7,402 423,372.8 376.4,402 423,431 			"/>
		</g>
		<g>
			<path d="M423,501.8l-47.3-29.5v-70.8l0.3-0.2l47-29.4l47.3,29.5v70.8L423,501.8z M377,471.4l46,28.7l46-28.7v-69.1l-46-28.7
				l-46,28.7V471.4z"/>
		</g>
		<g>
			<polygon points="423,431.9 376.1,402.5 376.7,401.3 423,430.2 469.4,401.3 470,402.5 			"/>
		</g>
		<g>
			<rect x="422.4" y="431.1" width="1.2" height="69.9"/>
		</g>
	</g>
	<g>
		<g>
			<polygon class="st3" points="376.4,402 329.7,372.8 329.7,302.9 376.4,332.1 			"/>
			<polygon class="st1" points="376.4,402 423,372.8 423,302.9 376.4,332.1 			"/>
			<polygon class="st2" points="423,302.9 376.4,273.8 329.7,302.9 376.4,332.1 			"/>
		</g>
		<g>
			<path d="M376.4,402.7l-47.3-29.5v-70.8l0.3-0.2l47-29.4l47.3,29.5v70.8L376.4,402.7z M330.3,372.4l46,28.7l46-28.7v-69.1
				l-46-28.7l-46,28.7V372.4z"/>
		</g>
		<g>
			<polygon points="376.4,332.8 329.4,303.5 330,302.2 376.4,331.3 422.7,302.2 423.3,303.5 			"/>
		</g>
		<g>
			<rect x="375.7" y="332.1" width="1.2" height="69.9"/>
		</g>
	</g>
	<g>
		<g>
			<polygon class="st3" points="282.7,402 236,372.8 236,302.9 282.7,332.1 			"/>
			<polygon class="st1" points="282.7,402 329.3,372.8 329.3,302.9 282.7,332.1 			"/>
			<polygon class="st2" points="329.3,302.9 282.7,273.8 236,302.9 282.7,332.1 			"/>
		</g>
		<g>
			<path d="M282.7,402.7l-47.3-29.5v-70.8l0.3-0.2l47-29.4l47.3,29.5v70.8L282.7,402.7z M236.6,372.4l46,28.7l46-28.7v-69.1
				l-46-28.7l-46,28.7V372.4z"/>
		</g>
		<g>
			<polygon points="282.7,332.8 235.7,303.5 236.3,302.2 282.7,331.3 329,302.2 329.7,303.5 			"/>
		</g>
		<g>
			<rect x="282.1" y="332.1" width="1.2" height="69.9"/>
		</g>
	</g>
	<g>
		<g>
			<polygon class="st3" points="329.6,571 283,541.9 283,472 329.6,501 			"/>
			<polygon class="st1" points="329.6,571 376.3,541.9 376.3,472 329.6,501 			"/>
			<polygon class="st8" points="376.3,472 329.6,442.8 283,472 329.6,501 			"/>
		</g>
		<g>
			<path d="M329.6,571.8l-47.3-29.5v-70.8l0.3-0.2l47-29.4l47.3,29.5v70.8L329.6,571.8z M283.6,541.5l46,28.7l46-28.7v-69.1
				l-46-28.7l-46,28.7V541.5z"/>
		</g>
		<g>
			<polygon points="329.6,501.9 282.7,472.5 283.3,471.3 329.6,500.2 376,471.3 376.6,472.5 			"/>
		</g>
		<g>
			<rect x="329" y="501.1" width="1.2" height="69.9"/>
		</g>
	</g>
	<g>
		<g>
			<polygon class="st3" points="422.5,630.5 375.8,601.4 375.8,531.5 422.5,560.5 			"/>
			<polygon class="st1" points="422.5,630.5 469.2,601.4 469.2,531.5 422.5,560.5 			"/>
			<polygon class="st2" points="469.2,531.5 422.5,502.3 375.8,531.5 422.5,560.5 			"/>
		</g>
		<g>
			<path d="M422.5,631.3l-47.3-29.5V531l0.3-0.2l47-29.4l47.3,29.5v70.8L422.5,631.3z M376.5,600.9l46,28.7l46-28.7v-69.1l-46-28.7
				l-46,28.7V600.9z"/>
		</g>
		<g>
			<polygon points="422.5,561.3 375.5,532 376.1,530.8 422.5,559.7 468.9,530.8 469.5,532 			"/>
		</g>
		<g>
			<rect x="421.9" y="560.6" width="1.2" height="69.9"/>
		</g>
	</g>
	<g>
		<g>
			<polygon class="st3" points="329.6,501 283,471.9 283,402 329.6,431 			"/>
			<polygon class="st7" points="329.6,501 376.3,471.9 376.3,402 329.6,431 			"/>
			<polygon class="st2" points="376.3,402 329.6,372.8 283,402 329.6,431 			"/>
		</g>
		<g>
			<path d="M329.6,501.8l-47.3-29.5v-70.8l0.3-0.2l47-29.4l47.3,29.5v70.8L329.6,501.8z M283.6,471.4l46,28.7l46-28.7v-69.1
				l-46-28.7l-46,28.7V471.4z"/>
		</g>
		<g>
			<polygon points="329.6,431.9 282.7,402.5 283.3,401.3 329.6,430.2 376,401.3 376.6,402.5 			"/>
		</g>
		<g>
			<rect x="329" y="431.1" width="1.2" height="69.9"/>
		</g>
	</g>
	<g>
		<g>
			<polygon class="st3" points="375.9,530.2 329.2,501 329.2,431.1 375.9,460.2 			"/>
			<polygon class="st1" points="375.8,530.2 422.5,501 422.5,431.1 375.8,460.2 			"/>
			<polygon class="st2" points="422.5,431.1 375.8,402 329.2,431.1 375.9,460.2 			"/>
		</g>
		<g>
			<path d="M375.8,530.9l-47.3-29.5v-70.8l0.3-0.2l47-29.4l47.3,29.5v70.8L375.8,530.9z M329.8,500.7l46,28.7l46-28.7v-69.1
				l-46-28.7l-46,28.7V500.7z"/>
		</g>
		<g>
			<polygon points="375.9,461 328.9,431.7 329.5,430.5 375.9,459.5 422.2,430.5 422.8,431.7 			"/>
		</g>
		<g>
			<rect x="375.2" y="460.2" width="1.2" height="69.9"/>
		</g>
	</g>
	<g>
		<g>
			<path class="st3" d="M178.1,201.9c0.6-3,1.7-8.4,2.4-11.4c0.3-1.4,0.6-2.9,1.4-4.1c0.8-1.2,2-2.1,3.2-2.9
				c2.6-1.8,7.1-4.8,9.8-6.3c2.1,4.1,0.5,5.7-1.6,7.5c-1.3,1.2-2.7,2-4.4,2.3c0.1,4.7,0.1,12.9,0.2,17.5L178.1,201.9z"/>
			<path d="M189.7,205.4l-12.4-3l0.1-0.7c0.3-1.6,0.8-3.7,1.2-5.9c0.4-2.1,0.9-4.1,1.2-5.7c0.3-1.4,0.6-3.1,1.5-4.4s2.1-2.2,3.4-3.1
				c0.8-0.4,1.7-1.1,2.6-1.8c2.4-1.7,5.2-3.4,7.2-4.7l0.5-0.3l0.3,0.6c2.4,4.7,0.3,6.5-1.7,8.4c-1.3,1.2-2.7,2-4.2,2.4
				c0,2.2,0.1,5.2,0.1,8.1c0,3.2,0,6.4,0.1,8.8L189.7,205.4z M178.9,201.4l9.6,2.3c0-2.2-0.1-5.1-0.1-8c0-3.2,0-6.4-0.1-8.8v-0.6
				l0.5-0.1c1.4-0.2,2.8-1,4.1-2.2c1.9-1.8,3.2-2.9,1.7-6.1c-1.9,1.1-4.3,2.8-6.6,4.2c-1,0.7-1.9,1.2-2.7,1.8
				c-1.2,0.8-2.3,1.6-3,2.7c-0.7,1.1-1,2.5-1.3,3.9c-0.3,1.4-0.7,3.5-1.2,5.7C179.6,198.1,179.2,199.9,178.9,201.4z"/>
		</g>
		<g>
			<path class="st2" d="M127,247.7c1,0,3.4,3.8,4,4.9c1.7,3,3.3,6,4.9,9.1c2,4,7.9,13.2,7.2,17.6c0.2,0.1,0.5,0.1,0.7,0
				c13.7-6.9,24.7-16.6,34.2-29.1c7.5-9.9,15-31.8,16.2-43.9c0,0-12.8-3.8-19.1-5.1c-4,9.1-13.8,27.6-21.4,34.5
				C146.2,242.3,136.7,248,127,247.7z"/>
			<path d="M143.4,280c-0.2,0-0.4,0-0.6-0.1l-0.4-0.2l0.1-0.6c0.5-3.3-3.1-9.7-5.4-14.1c-0.7-1.2-1.3-2.2-1.7-3.1
				c-1.5-3.1-3.2-6.1-4.9-9.1c-1.1-2-3-4.4-3.5-4.5V247l0,0c10.5,0.2,20.1-6.4,26.3-12c7.2-6.5,16.8-24.5,21.2-34.2l0.2-0.4l0.5,0.1
				c6.3,1.3,19.1,5.1,19.2,5.1l0.5,0.1l-0.1,0.6c-1.2,11.9-8.8,34.2-16.4,44.2c-10,13.2-21.3,22.8-34.4,29.4
				C143.8,280,143.6,280,143.4,280z M128.9,248.4c1.2,1.4,2.4,3.4,2.6,3.8c1.7,3,3.3,6,4.9,9.1c0.4,0.8,1,1.9,1.7,3.1
				c2.4,4.4,5.7,10.3,5.7,14.2c12.9-6.5,23.9-16,33.8-28.9c7.3-9.6,14.7-31.1,16-42.9c-2.4-0.7-12.5-3.7-18.1-4.9
				c-4.5,10-14,27.6-21.3,34.2C148.1,241.5,139,247.8,128.9,248.4z"/>
		</g>
		<g>
			<path class="st3" d="M174.9,526.5c0.2,0.8,4.6,14.8,4.6,14.8l-12.1,2.9l-6.6-15.2L174.9,526.5z"/>
			<path d="M167.1,545.1l-7.2-16.4l15.4-3l0.2,0.6c0.2,0.8,4.6,14.7,4.6,14.8l0.2,0.8L167.1,545.1z M161.7,529.7l6,13.8l11-2.7
				c-0.8-2.7-3.5-11.3-4.2-13.6L161.7,529.7z"/>
		</g>
		<g>
			<path class="st3" d="M79.3,527.9c-0.1,0.8-2.8,15.2-2.8,15.2l-10.4-2.8l1.4-16.3L79.3,527.9z"/>
			<path d="M77,544l-11.5-3.1l1.6-17.7l13,4.3l-0.1,0.7c-0.1,0.8-2.8,15.2-2.8,15.2L77,544z M66.8,539.8l9.2,2.4
				c0.5-2.5,2.1-11.4,2.6-13.8l-10.5-3.4L66.8,539.8z"/>
		</g>
		<g>
			<g>
				<path class="st4" d="M178.6,535.9c6,1.7,17.8,6,23.1,10.5c2.6,2.2,3.1,6,2.8,9.6c-12.6,0-25.1-0.1-37.7-0.1
					c-0.6,0-1.2,0-1.6-0.3c-0.5-0.4-0.7-1.1-0.9-1.8c-0.9-4-2.1-17.3,1.4-16.7c1.9,0.2,2.3,3.8,8,3.9
					C175.5,541,178,538.8,178.6,535.9z"/>
				<path d="M205,556.7l-38.2-0.1c-0.6,0-1.3,0-2-0.6c-0.7-0.6-0.9-1.3-1.1-2.2c-0.7-3.1-1.9-14.1,0.3-16.8c0.5-0.6,1.1-0.9,1.7-0.8
					c0.9,0.1,1.5,0.7,2.1,1.3c1.1,1.1,2.4,2.4,5.9,2.5c1.5,0,3.7-2,4.3-4.4l0.1-0.7l0.6,0.1c6.1,1.7,17.9,6,23.3,10.6
					c2.4,2.1,3.4,5.5,3,10.3L205,556.7z M165.5,537.7c-0.2,0-0.4,0.1-0.5,0.3c-1.7,2.1-0.9,12.1-0.1,15.6c0.1,0.6,0.3,1.1,0.6,1.3
					s0.7,0.2,1.3,0.2l37.1,0.1c0.3-3.9-0.6-6.8-2.6-8.4c-4.8-4.1-15.7-8.3-22.3-10.2c-0.9,2.9-3.4,4.9-5.3,4.9c0,0,0,0-0.1,0
					c-3.9-0.1-5.5-1.7-6.7-2.9C166.4,538.1,166,537.7,165.5,537.7C165.6,537.7,165.5,537.7,165.5,537.7z"/>
			</g>
			<g>
				<path class="st3" d="M163.7,550.1c0.2,1.6,0.4,2.9,0.6,3.8c0.2,0.7,0.4,1.3,0.9,1.8c0.5,0.3,1.1,0.3,1.6,0.3
					c12.6,0,25.1,0.1,37.7,0.1c0.2-2.1,0.1-4.2-0.5-6.1h-40.3V550.1z"/>
				<path d="M204.9,556.6l-38.1-0.1c-0.6,0-1.3,0-1.9-0.4c-0.6-0.4-0.9-1.3-1.1-2.1c-0.2-0.9-0.4-2.3-0.6-3.9l-0.1-0.7h41.2l0.1,0.3
					c0.6,1.8,0.7,3.9,0.5,6.3L204.9,556.6z M164.3,550.6c0.2,1.2,0.3,2.3,0.5,3.1c0.1,0.6,0.3,1.1,0.7,1.4c0.3,0.2,0.8,0.2,1.3,0.2
					l37.2,0.1c0.1-1.9,0-3.4-0.4-4.9L164.3,550.6L164.3,550.6z"/>
			</g>
		</g>
		<g>
			<g>
				<path class="st4" d="M66.7,537.1c0,0,4.1,3,7.9,0.8c4.1-2.3,5.9-3.8,7.6,0.6c2.8,6.9,6.3,10.4,10,15.3c0.4,0.6,0.8,1.2,1,2
					c0.3,1.3-0.4,2.8-1.3,3.5c-1,0.8-2.2,1.1-3.5,1.1c-3.7,0.1-7.6-1.4-10.9-3.3c-3.3-1.9-9.4-5-11.4-8.6
					C64.5,545.6,65.4,539.8,66.7,537.1z"/>
				<path d="M88,561c-3.2,0-6.8-1.1-10.7-3.4c-0.4-0.2-0.9-0.6-1.4-0.8c-3.6-2-8.4-4.7-10.3-8.1c-1.8-3.1-0.8-9.1,0.6-12l0.3-0.7
					l0.6,0.4c0,0,3.8,2.7,7.3,0.7l0.8-0.4c2.3-1.3,3.9-2.2,5.3-1.7c1,0.3,1.7,1.3,2.4,3.1c2.2,5.3,4.8,8.6,7.6,12.2
					c0.8,1,1.5,1.9,2.3,3c0.6,0.8,0.9,1.6,1.1,2.2c0.3,1.6-0.3,3.2-1.6,4.2c-1,0.8-2.2,1.2-3.8,1.2C88.3,561,88.1,561,88,561z
					 M67,538c-1.1,2.7-1.7,7.5-0.4,10c1.7,3,6.5,5.8,9.8,7.5c0.5,0.3,1,0.6,1.4,0.8c3.9,2.2,7.5,3.3,10.6,3.2c1.3,0,2.4-0.3,3.1-1
					c0.9-0.7,1.3-1.9,1.1-2.8c-0.1-0.6-0.4-1.1-0.9-1.7c-0.8-1-1.5-2-2.3-3c-2.8-3.7-5.5-7-7.8-12.5c-0.6-1.3-1.1-2.1-1.7-2.3
					c-0.9-0.3-2.4,0.4-4.3,1.7l-0.8,0.4C71.7,540.3,68.3,538.8,67,538z"/>
			</g>
			<g>
				<path class="st3" d="M65.1,547.3c-0.2,1.4-0.4,2.9-0.6,4.4c-0.1,0.7-0.2,1.2,0,1.9c0.3,1.1,16.5,16.5,27.7,9.4
					c0.5-1.7,1.2-2.4,0.9-5.3c-6.6,6.9-14.9-0.6-19.6-2.9C66.4,551.3,65.3,547.8,65.1,547.3z"/>
				<path d="M85.6,565.6c-2.5,0-5.1-0.6-8-1.8c-7.3-3.1-13.4-9.1-13.7-10c-0.2-0.8-0.1-1.6,0-2.2l1-6.5l0.9,2.1
					c1.3,3.2,5.1,5.5,8.1,7.1c0.9,0.4,1.8,1,2.9,1.7c4.6,2.8,10.9,6.5,16,1.3l0.9-1l0.1,1.4c0.2,2.4-0.2,3.4-0.6,4.7
					c-0.1,0.3-0.2,0.7-0.3,1l-0.1,0.2l-0.2,0.1C90.4,564.9,88.1,565.6,85.6,565.6z M65.4,549.3l-0.4,2.5c-0.1,0.6-0.2,1.1,0,1.6
					c0.5,1,15.9,15.7,26.6,9.2c0.1-0.3,0.2-0.6,0.3-0.9c0.3-0.8,0.5-1.4,0.6-2.7c-5.5,4.5-11.8,0.8-16.5-2c-1-0.7-2-1.2-2.8-1.6
					C70.6,554.1,67.3,552.1,65.4,549.3z"/>
			</g>
		</g>
		<path class="st1" d="M87.4,381c-3.7,28.9-15.2,55.3-18.5,84.3c-2.5,22.3-4.7,42.1-2.2,64.4l12.8,1.9c2.5-3.1,5.4-9.5,6.8-13.7
			c2.6-7.8,5-15.5,7.3-23.4c2.2-7.4,4.3-15,6.6-22.3c5.6-17.5,12.8-34.2,16.8-52.5c2.5-11.3,4.2-23.5,5.5-35.1
			c1.4-13.2,1.9-26.5,1.6-39.8c-5.4-2.3-11.3-1.2-16.9-1.2c-6,0-12,0.1-18,0.1C89.8,355.8,89,369.2,87.4,381z"/>
		<path class="st1" d="M148.5,345.8c0.4,0,4.3,24.4,4.7,26.1c2,10.2,4,20.4,5.8,30.6c3.6,20.3,6.3,40.9,9.4,61.2
			c3.2,21.8,5.8,43.8,7.7,65.8c-3.2,1.7-9.8,3.7-13,5.3c-1.1,0.6-27-40.3-32.3-85.6c-1.5-13-9-25.9-13.6-37.3
			c-7.8-19.7-11.6-35.9-9.8-58.9c0.1-1.4,0.3-3,0.8-4.2c1.5-3.2,4.6-3,7.1-2.7c3.2,0.3,6.4,0.2,9.7,0.1
			C132.8,345.7,140.6,345.6,148.5,345.8z"/>
		<g>
			<path d="M163,535.5c-0.1,0-0.2,0-0.3-0.1c-2.2-1.3-27.2-41-32.4-86.1c-1.1-9.6-5.3-19.2-9.4-28.4c-0.8-1.8-1.5-3.5-2.3-5.2
				c-0.1,0.6-0.3,1.1-0.4,1.6c-0.2,0.9-0.5,1.7-0.6,2.4c-2.7,12.2-6.8,23.7-10.8,35c-2,5.8-4.1,11.6-6,17.6
				c-1.6,5.2-3.2,10.5-4.7,15.7c-0.6,2.2-1.3,4.4-1.9,6.6c-2.3,7.9-4.8,15.6-7.3,23.4c-1.5,4.5-4.4,10.9-6.8,14l-0.2,0.2l-13.4-1.9
				v-0.4c-2.5-22.8-0.2-43.1,2.2-64.5c1.7-14.8,5.6-29.2,9.4-43.2c3.6-13.3,7.3-27,9.1-41.1c1.7-13.1,2.3-26.4,1.7-37.2v-0.6
				l18.5-0.1c1.3,0,2.6-0.1,3.9-0.1c4.4-0.2,9-0.4,13.2,1.3l0.3,0.1v0.3c0,0.2,0,0.4,0,0.8h0.4c7.8-0.4,15.7-0.4,23.5-0.3
				c0.6,0,0.7,0,4.2,20.9c0.5,2.9,0.9,5.1,1,5.7c2.4,12.2,4.2,21.7,5.8,30.6c2.7,14.8,4.9,30.2,7,45c0.8,5.4,1.6,10.7,2.4,16.2
				c3.2,21.7,5.8,43.9,7.7,65.8v0.4l-0.3,0.2c-1.6,0.9-4.2,1.8-6.6,2.7c-2.4,0.9-4.9,1.8-6.5,2.7C163.2,535.4,163.1,535.5,163,535.5
				z M118.2,412.3l0.6,1.6c0.9,2.2,1.9,4.3,2.9,6.6c4.1,9.3,8.4,18.9,9.5,28.7c5.1,43.5,28.9,82.5,31.8,85.1c1.6-0.9,4-1.8,6.4-2.5
				c2.2-0.9,4.6-1.7,6.1-2.4c-1.9-21.8-4.5-43.9-7.7-65.4c-0.8-5.4-1.6-10.7-2.4-16.2c-2.1-14.8-4.3-30.1-7-45
				c-1.6-9-3.4-18.4-5.8-30.6c-0.1-0.6-0.5-2.7-1-5.7c-1.1-6.4-3-17.9-3.6-20.1c-7.7-0.2-15.5-0.1-23.1,0.3l-1.5,0.1v-1.1
				c0-0.1,0-0.2,0-0.3c-3.9-1.6-8.3-1.3-12.4-1.2c-1.3,0.1-2.7,0.1-4,0.1l-17.4,0.1c0.8,13.8-0.5,27.6-1.7,36.8
				c-1.8,14.2-5.5,27.9-9.2,41.2c-3.8,13.8-7.7,28.3-9.4,43c-2.4,21.3-4.7,41.3-2.3,63.8l12.1,1.8c2.3-3,5.1-9.1,6.5-13.3
				c2.5-7.6,5-15.5,7.3-23.3c0.6-2.2,1.3-4.4,1.9-6.6c1.5-5.2,3-10.5,4.7-15.7c1.9-6,4-11.9,6-17.6c4-11.2,8.1-22.8,10.8-34.9
				c0.2-0.9,0.4-1.7,0.7-2.5c0.3-1,0.6-2.1,0.8-3.1L118.2,412.3z"/>
		</g>
		<g>
			<path class="st2" d="M91.5,265.2c1.6-7.3,4.2-15.1,9.8-19.4c2.8-2.1,6-3.2,9.2-4.2c6.9-2.1,13.8,0.6,19.6,5
				c1.9,1.4,3.3,3.5,4.8,5.4c6.2,7.9,10.5,17.6,12.3,27.9c1.6,9.4,1,19.1,0.9,28.6c-0.2,8.6-0.7,18.2,0.7,26.7
				c0.9,5.4,3.3,10.5,4.4,16c0.6,2.8,1.2,5.9,0.7,8.6c-0.8,4.3-2.9,4.4-6.5,5.3c-17.1,4.5-34.7,6.8-52.4,6.9c-2.1,0-4.4-0.1-6.2-1.3
				c-4-2.7-2.5-15.8-2.6-20.6c-0.3-9.2-0.5-18.5-0.4-27.7c0.2-18.3,1.4-36.8,5.1-54.6C91.2,267,91.3,266.1,91.5,265.2z"/>
			<path d="M95,372.8c-2.3,0-4.6-0.1-6.5-1.4c-3.4-2.3-3.2-11-3-17.2c0.1-1.6,0.1-3,0.1-3.9c-0.3-10.5-0.4-19.4-0.4-27.8
				c0.2-21.7,1.9-39.1,5.1-54.8c0.2-0.9,0.4-1.8,0.6-2.5c1.5-6.8,4-15.2,10.1-19.8c2.8-2.2,6.2-3.3,9.4-4.3
				c6.3-1.9,13.3-0.1,20.1,5.1c1.6,1.2,2.8,2.8,3.9,4.3c0.3,0.4,0.6,0.8,0.9,1.2c6.4,8.1,10.7,17.8,12.4,28.3
				c1.4,8.1,1.2,16.5,1,24.6c0,1.4-0.1,2.8-0.1,4.2c0,1.6-0.1,3.1-0.1,4.7c-0.2,7.3-0.4,15,0.7,21.9c0.5,3,1.4,5.9,2.3,8.6
				c0.8,2.3,1.6,4.8,2.1,7.3c0.7,3.1,1.2,6.1,0.7,9c-0.8,4.3-2.9,4.9-6,5.7c-0.3,0.1-0.6,0.1-1,0.2
				C130.3,370.5,112.7,372.8,95,372.8L95,372.8z M115.5,241.6c-1.5,0-3.1,0.2-4.7,0.7c-3.1,0.9-6.4,2-9.1,4.1
				c-5.7,4.3-8.1,12.4-9.6,18.9l0,0c-0.2,0.9-0.4,1.7-0.6,2.5c-3.2,15.5-4.8,32.9-5.1,54.5c-0.1,8.3,0,17.2,0.4,27.7
				c0,1,0,2.4-0.1,4c-0.2,5.2-0.5,14.1,2.4,16c1.6,1.1,3.7,1.2,5.8,1.2H95c17.5,0,35.1-2.3,52.2-6.8c0.3-0.1,0.7-0.2,1-0.2
				c3-0.8,4.4-1.1,5-4.5c0.5-2.5-0.1-5.4-0.7-8.4c-0.5-2.4-1.3-4.8-2.1-7.1c-0.9-2.9-1.9-5.9-2.4-8.9c-1.2-7.1-1-14.8-0.8-22.3
				c0-1.6,0.1-3.1,0.1-4.7c0-1.4,0.1-2.8,0.1-4.2c0.2-8,0.4-16.3-1-24.3c-1.7-10.1-5.9-19.6-12.1-27.6c-0.3-0.4-0.6-0.8-0.9-1.2
				c-1.2-1.6-2.3-3-3.7-4.1C126.3,244.5,121.1,241.6,115.5,241.6z"/>
		</g>
		<path class="st3" d="M139.1,200.3c0.1,0.3,0.2,8.2,1.2,11.9c1.1,3.8,2.5,4.1,2.6,5.8c0.1,1.7-3.4,12.7-3.4,12.7s-1,3.5-5.3,3.9
			c0,0-3.8,0.1-5-0.1c0,0-1.7-0.8-1.5,2.2c0.1,1.4,0,2.9-0.1,4.2c-0.1,1.2-0.2,2.3-0.2,3.5c0,0.8,0.1,1.4,0.4,2.1
			c0.4,1,1.8,2.2,1.8,3.3c0,3.3-6.6,0.1-8.1-0.6c-3.3-1.6-6.7-2.9-10.2-4.1c-0.7-0.2-1.4-0.4-1.9-1c-0.1-0.1-0.2-0.1-0.2-0.3
			c0-0.1,0-0.2,0.1-0.2c1-2.1,2-4.4,2.4-6.8c0.4-2.2,0.8-4.4,1.2-6.6c0.5-3.1,1.1-6.3,1.6-9.4c0,0-9.1-10.2-0.3-16.1
			C123.2,198.9,135.2,192.8,139.1,200.3z"/>
		<g>
			<path d="M132,235.4c-2.3,0-4.9-0.4-7.9-1.4l0.3-1.1c3.8,1.2,7.1,1.6,9.8,1.2c2.4-0.3,3.8-1.3,4.5-3.1c1.4-3.9,2-6.5,2.7-10.4
				c0.1-0.2,0.2-0.6,0.5-1.1c0.2-0.3,0.5-1.1,0.6-1.3c-0.1-0.3-0.4-0.8-0.6-1.2l-0.1-0.2c-1.3-2-2.2-4.4-2.3-6.9
				c-0.1-0.8-0.2-1.6-0.3-2.2c-0.1-1-0.3-2-0.3-3h1c0,0.9,0.2,1.9,0.3,2.9c0.1,0.8,0.2,1.6,0.3,2.3c0.2,2.2,0.9,4.5,2.1,6.3l0.1,0.2
				c0.3,0.4,0.7,1,0.8,1.7c0.1,0.4-0.2,1.1-0.7,2c-0.1,0.3-0.4,0.7-0.4,0.9c-0.7,3.9-1.3,6.6-2.8,10.6c-1.1,2.9-3.5,3.7-5.3,3.9
				C133.6,235.3,132.8,235.4,132,235.4z"/>
		</g>
		<g>
			<path d="M127.6,251.8c-2.1,0-4.7-1.3-5.9-2.1c-3.7-2.2-7.9-3.5-12.1-4c-0.6-0.1-0.9-0.3-1.1-0.7c-0.3-0.8,0.3-1.7,0.8-2.4
				c0.2-0.3,0.4-0.7,0.4-0.8c0.4-1,0.3-2.4,0.2-3.9c0-0.7-0.1-1.3,0-1.9l0.3-9.1h1l-0.3,9.1c0,0.6,0,1.1,0,1.8
				c0.1,1.4,0.1,3-0.3,4.3c-0.1,0.3-0.3,0.7-0.6,1c-0.2,0.3-0.7,1.1-0.7,1.3c0,0,0.1,0,0.2,0c4.3,0.4,8.7,1.9,12.5,4.1
				c2.3,1.3,5.2,2.4,6.6,1.7c0.3-0.1,0.3-0.3,0.3-0.3c0.1-0.6-0.7-1.6-1-1.8c-0.1-0.1-0.2-0.2-0.2-0.2c-0.5-0.8-1.1-1.8-1.1-3
				c0.1-1.4,0.1-2.5,0.2-3.7c0.1-2.3,0.2-4.2,0.3-7.3h1c-0.1,3-0.2,5-0.3,7.3c-0.1,1.1-0.1,2.2-0.2,3.7c0,0.8,0.5,1.7,0.9,2.2
				l0.1,0.1c0.5,0.6,1.4,1.7,1.2,2.8c-0.1,0.3-0.3,0.9-0.9,1.2C128.8,251.7,128.2,251.8,127.6,251.8z"/>
		</g>
		<g>
			<path d="M121.1,226.9c-1.4,0-2.8-0.7-3.9-1.9c-1-1.1-1.7-2.5-2.4-4.7c-0.3-1.1-0.7-2.3-0.6-3.7c0.1-2.5,1.9-4.9,4.2-5.4
				c2.3-0.6,4.8,0.8,5.9,3l-0.9,0.6c-0.9-1.8-2.9-2.9-4.7-2.4c-1.8,0.4-3.3,2.3-3.4,4.4c0,1.1,0.3,2.2,0.6,3.2
				c0.6,2,1.3,3.2,2.2,4.2c1.1,1.2,2.5,1.8,3.7,1.6l0.2,1.1C121.7,226.9,121.4,226.9,121.1,226.9z"/>
		</g>
		<g>
			<path d="M121.1,222.6c-1.1-0.3-2.1-1.3-2.5-2.5c-0.4-1.2-0.3-2.7,0.3-3.8c0.4-0.7,1-1.1,1.6-1.2c0.4-0.1,0.8,0.1,1.1,0.4
				l-0.7,0.8c0,0-0.1-0.1-0.3-0.1c-0.3,0-0.7,0.3-0.9,0.7c-0.4,0.8-0.5,1.9-0.2,2.8c0.3,0.9,1,1.6,1.9,1.8L121.1,222.6z"/>
		</g>
		<g>
			<path d="M140.1,228.1c-1.2,0-3.5-0.9-4.5-2.3l0.8-0.7c1,1.3,3.4,2,3.9,1.9l0.3,1.1C140.4,228.1,140.3,228.1,140.1,228.1z"/>
		</g>
		<ellipse cx="133.8" cy="214.5" rx="1.4" ry="1.8"/>
		<g>
			<path d="M130.8,211l-0.8-0.8c1.6-2.1,4.1-3.1,6.6-2.7l-0.2,1.1C134.3,208.3,132.2,209.2,130.8,211z"/>
		</g>
		<path d="M116.2,213.4c1-1.3,2.5-1.8,4-1.6c1,0.1,3,1.9,3.8,1.1c0.4-0.3,0.5-0.9,0.7-1.3c0.6-2.5,1.3-8,1-10.6
			c2.8,1,13.5-1,14.6,8.9c0.1,1,6-7,0.9-14.8c-2-3.1-4.7-3.4-8-3.1c-0.3,0-0.7,0.1-1,0s-0.5-0.3-0.8-0.4c-1-0.7-2.2-0.9-3.4-1
			c-3.7-0.4-7.4-0.1-10.9,1.2c-5.2,2-9.6,6.6-10.6,12.9c-0.6,4.1,1.7,8.1-0.7,12c-0.9,1.4-2,2.5-3,3.9c-1.2,1.8-1.9,4.1-1.9,6.3
			c0,1.2,0.1,2.4-0.2,3.5c-0.6,2-2.4,3.1-3.9,4.3c-2.3,1.9-4,4.7-4.7,7.6c-0.2,1.1-0.3,2.3-0.7,3.3c-1.2,3.5-4.4,5.2-6.4,8.1
			c-5.1,7.3-4.2,8.3-5.2,12.6c-2.3,10.1-0.6,20.3,7.5,26.1c0.7-13.1,5.7-37.6,17.5-44.1c3.9-2.1,9.1-2.7,12.6-5.4
			c4.4-3.5,5.7-11.2,4.1-17c-2.7-0.7-3.7-1.1-5-3.8C115.3,219.5,114.4,215.7,116.2,213.4z"/>
		<g>
			<path d="M118.2,417l-1-0.3c6.9-27.1,8.6-32.9,8.6-33l1,0.3C126.8,384.2,125.2,390,118.2,417z"/>
		</g>
		<g>
			<path d="M155.4,238.9l-0.6-0.9c2.7-2.3,5.1-5,7.1-8c1.3-1.9,2.4-3.9,3.5-5.8c1.3-2.3,2.7-4.8,4.4-7l0.8,0.8
				c-1.6,2.1-3,4.5-4.3,6.9c-1.1,2-2.3,4-3.6,5.9C160.6,233.8,158.1,236.5,155.4,238.9z"/>
		</g>
		<g>
			<path d="M79.7,268.1c-1.3-2.4-0.1-8.9,1.6-11.4c0.6-1,1.4-1.9,2.2-2.8c0.4-0.3,0.7-0.8,1.1-1.2c1.5-1.8,2.6-3.9,3.2-6.2
				c0.3-1,0.3-2,0.3-3c0.1-1.3,0.1-2.7,0.6-4c0.8-2,2.3-3.3,3.7-4.7c1.6-1.4,3.1-2.8,3.6-4.8c0.2-1.1,0.2-2.2,0.1-3.3
				c-0.1-1-0.2-1.9-0.1-2.9c0.3-2.9,2.1-5.1,3.8-7.3c1.4-1.8,2.9-3.5,3.4-5.7c0.4-1.3,0.4-2.7,0.4-4.1c0-1,0.1-1.9,0.2-2.9
				c0.7-5.1,5.4-10.9,12.2-11.6l0.1,1.1c-6.2,0.7-10.6,6-11.2,10.6c-0.1,0.9-0.1,1.9-0.2,2.8c0,1.4-0.1,3-0.5,4.4
				c-0.7,2.3-2.2,4.2-3.7,6.1c-1.7,2.1-3.3,4.1-3.6,6.6c-0.1,0.9,0,1.8,0.1,2.7c0.1,1.2,0.2,2.5-0.1,3.8c-0.6,2.3-2.3,3.9-3.9,5.3
				c-1.4,1.2-2.8,2.4-3.4,4.2c-0.4,1.1-0.5,2.3-0.6,3.7c0,1.1-0.1,2.2-0.4,3.2c-0.7,2.5-1.8,4.8-3.4,6.6c-0.4,0.4-0.7,0.8-1.1,1.2
				c-0.8,0.8-1.5,1.6-2,2.5c-1,1.8-2.5,8.4-1.5,10.3L79.7,268.1z"/>
		</g>
		<g>
			<g>
				<polygon class="st3" points="236.2,287.1 189,257.6 189,186.8 236.2,216.3 				"/>
				<polygon class="st1" points="236.2,287 283.5,257.6 283.5,186.8 236.2,216.3 				"/>
				<polygon class="st2" points="283.5,186.8 236.2,157.3 189,186.8 236.2,216.3 				"/>
			</g>
			<g>
				<path d="M236.2,287.8L188.4,258v-71.6l0.3-0.2l47.5-29.7l47.8,29.8v71.6L236.2,287.8z M189.6,257.2l46.6,29l46.6-29v-69.9
					l-46.6-29l-46.6,29V257.2z"/>
			</g>
			<g>
				<polygon points="236.2,217 188.7,187.4 189.3,186.1 236.2,215.5 283.2,186.1 283.8,187.4 				"/>
			</g>
			<g>
				<rect x="235.6" y="216.3" width="1.2" height="70.7"/>
			</g>
		</g>
		<g>
			<g>
				<path class="st3" d="M184,255.8c0.6-0.2,1.1-0.6,1.7-0.8c2-1.1,3.8-2.5,5.4-4.3c1.1-1.3,6.4-5.4,7.6-2.8c1.1,2.4-3,6.4-4.2,8.1
					s-1.7,2.5-0.9,4.4c0,0,4.5,3.1,9.3,5.7c0.9,0.4,6.5,3.5,5.6,4c-1.8,0.9-4.4,0.6-5.4,0.4c-5.1-0.7-9.2-0.9-13.6-0.1
					c-2.3,0.4-4.2,0.4-6.5,1c-2.4,0.6-4.7,1-7.1,1.4c-0.3,0-0.6,0.1-0.9-0.1c-0.4-0.3-0.4-1.3-0.6-1.8c-0.3-0.8-0.5-1.6-0.8-2.2
					c-0.1-0.2-0.2-0.6-0.2-0.8c0-0.2,0.1-0.6,0.1-0.8c1.2-4.5,4.6-8.2,8.5-10.2C182.5,256.5,183.3,256.2,184,255.8z"/>
				<path d="M175.3,273.6c-0.3,0-0.7-0.1-0.9-0.3c-0.4-0.4-0.5-1-0.6-1.6c0-0.2-0.1-0.3-0.1-0.6l-0.8-2.2c-0.1-0.3-0.2-0.7-0.2-1
					s0.1-0.8,0.2-1c1.2-4.4,4.4-8.3,8.9-10.6c0.6-0.3,1.2-0.6,1.8-0.9l0.3-0.1c0.6-0.2,1.1-0.6,1.7-0.8c2-1,3.7-2.4,5.2-4.2
					c0.9-1.1,4.7-4.2,7.1-3.9c0.7,0.1,1.2,0.6,1.5,1.2c1.1,2.3-1.6,5.5-3.4,7.6c-0.4,0.4-0.7,0.8-0.9,1.1c-1.1,1.4-1.4,2.1-0.9,3.5
					c0.9,0.6,4.9,3.2,9,5.5c6.1,3.3,6.1,3.9,6.1,4.4c0,0.3-0.2,0.6-0.5,0.8c-1.3,0.7-3.3,0.9-5.7,0.6c-5.2-0.7-9.2-0.9-13.5-0.1
					c-1.1,0.2-2.1,0.3-3,0.4c-1.2,0.1-2.3,0.2-3.5,0.6c-2.4,0.6-4.8,1-7.2,1.4C175.6,273.6,175.5,273.6,175.3,273.6z M184.2,256.5
					l-0.3,0.1c-0.6,0.2-1.2,0.6-1.8,0.8c-4.1,2.1-7.1,5.7-8.2,9.7c-0.1,0.2-0.1,0.4-0.1,0.6c0,0.2,0.1,0.3,0.2,0.6l0.8,2.2
					c0.1,0.2,0.1,0.4,0.2,0.7c0.1,0.3,0.2,0.8,0.3,0.9c0,0,0.1,0,0.3,0c2.4-0.4,4.8-0.9,7.1-1.4c1.3-0.3,2.5-0.4,3.6-0.6
					c0.9-0.1,1.9-0.2,2.9-0.4c4.4-0.8,8.5-0.6,13.8,0.1c2.1,0.2,3.5,0.1,4.4-0.1c-0.6-0.4-1.9-1.3-4.9-3c-4.8-2.7-9.3-5.8-9.4-5.8
					l-0.2-0.1l-0.1-0.2c-0.9-2.3-0.2-3.5,1-5.2c0.2-0.3,0.6-0.8,1-1.2c1.3-1.7,3.9-4.7,3.2-6.1c-0.1-0.2-0.3-0.4-0.6-0.4
					c-1.6-0.2-5,2.3-6,3.4c-1.6,1.9-3.5,3.3-5.6,4.4C185.3,255.9,184.8,256.2,184.2,256.5L184.2,256.5z"/>
			</g>
		</g>
		<g>
			<g>
				<path class="st2" d="M129.9,272c1.2,2.4,2.2,5.1,3.4,7.5c2.3,5.1,6.1,13.2,12.2,13.3c2.5,0.1,6.3-2.5,8.1-4.2
					c2.4-2.1,4.3-4.8,6-7.4c3.7-5.4,7.3-11,11-16.4c0.3-0.4,0.6-0.9,1-1.1c0.5-0.3,1.1-0.2,1.7-0.1c7.8,1.3,16.4,6.5,21.6,12.7
					c0.3-0.1,0.4-0.3,0.2,0c-3.7,7.5-7.8,15-12.3,22c-2.1,3.3-4.2,7.1-6.8,9.9c-2.4,2.5-4.7,5.5-7.4,7.9c-2.6,2.2-5.9,4.3-8.7,6.3
					c-8.4,5.8-19.3,5.8-27.8,0.3c-5.9-3.8-10.8-9.1-15-14.8c-6.4-8.5-11.7-18.1-15.8-28.1c-1.6-4.1-3.1-8.5-2.7-13
					c0.4-4.1,2.6-7,5.5-8.9"/>
				<path d="M145.7,327.4c-4.8,0-9.7-1.3-13.9-4.1c-5.2-3.3-10-8.1-15.2-15c-6.5-8.6-11.8-18.2-15.9-28.4c-1.7-4.2-3.2-8.8-2.7-13.4
					c0.4-4,2.5-7.3,5.8-9.3l0.6,1.2c-3,1.8-4.8,4.8-5.2,8.3c-0.4,4.3,1,8.6,2.6,12.6c4,10.1,9.3,19.5,15.7,28
					c5.1,6.9,9.8,11.5,14.9,14.7c8.4,5.3,19,5.2,27.2-0.3l1.4-0.9c2.5-1.7,5.1-3.4,7.3-5.3c1.6-1.4,3.2-3.2,4.7-4.9
					c0.9-1,1.7-2,2.6-2.9c2.1-2.1,3.8-5,5.5-7.6c0.4-0.7,0.9-1.4,1.3-2.1c4.4-6.9,8.4-14.1,12-21.4c-5.2-6.1-13.7-11.1-21.1-12.3
					c-0.5-0.1-1-0.1-1.3,0c-0.3,0.1-0.6,0.6-0.8,0.9l-11,16.4c-1.8,2.7-3.7,5.3-6.1,7.5c-1.7,1.6-5.6,4.3-8.4,4.3h-0.1
					c-6.7-0.1-10.8-9.3-12.8-13.7c-0.4-0.8-0.7-1.7-1.1-2.4c-0.7-1.7-1.5-3.4-2.3-5.1l1.1-0.7c0.8,1.7,1.6,3.4,2.3,5.1
					c0.4,0.8,0.7,1.7,1.1,2.4c1.8,4.2,5.7,12.9,11.7,13c2.3,0,5.9-2.4,7.7-4.1c2.3-2.1,4.2-4.8,5.9-7.3l11-16.4
					c0.3-0.4,0.7-1,1.2-1.3c0.7-0.3,1.4-0.2,2.1-0.1c7.6,1.3,16.2,6.4,21.6,12.5l0.2-0.2l0.7,0.8l-0.3,0.7c-3.7,7.5-7.9,15-12.4,22
					c-0.4,0.7-0.9,1.3-1.3,2.1c-1.7,2.8-3.5,5.7-5.6,7.9c-0.9,0.9-1.8,1.9-2.6,2.9c-1.5,1.8-3.1,3.5-4.8,5c-2.2,1.9-4.9,3.7-7.4,5.4
					l-1.3,0.9C155.8,326,150.8,327.4,145.7,327.4z"/>
			</g>
			<g>
				<path class="st8" d="M126.4,265.6c0.2,0.2,0.3,0.4,0.5,0.7c1.2,1.8,2.1,3.8,3.1,5.7"/>
				<path d="M129.3,272.3c-1.1-2.2-2-4-3-5.7c-0.1-0.2-0.3-0.4-0.5-0.7l1-0.8c0.2,0.2,0.3,0.4,0.5,0.8c1,1.7,2,3.4,3.1,5.8
					L129.3,272.3z"/>
			</g>
			<g>
				<path d="M145.5,323.7c-4.6,0-9.4-1.7-13.4-4.9l0.6-0.9c5,4,11.3,5.5,16.9,4.1l0.2,1.1C148.4,323.6,146.9,323.7,145.5,323.7z"/>
			</g>
			<g>
				<path d="M155.3,321.1l-0.5-1c2.6-1.4,5-3.3,7.2-5l0.6,1C160.4,317.6,157.9,319.5,155.3,321.1z"/>
			</g>
		</g>
	</g>
	<g>
		<polygon class="st3" points="258.6,667.8 259,681.3 273.7,680.3 272,666.8 		"/>
		<polygon class="st3" points="202.9,666.1 201.9,677.3 214.8,678.2 216.4,667.8 		"/>
		<g>
			<g>
				<path class="st4" d="M272.9,674.8c6,1.7,17.6,6,22.9,10.4c2.6,2.2,3.1,6,2.7,9.6c-12.4,0-24.9-0.1-37.3-0.1
					c-0.6,0-1.2,0-1.6-0.3c-0.5-0.4-0.7-1.1-0.8-1.8c-0.9-4-2.1-17.1,1.4-16.6c1.9,0.2,2.3,3.7,7.9,3.9
					C269.8,679.8,272.3,677.6,272.9,674.8z"/>
				<path class="st4" d="M299.1,695.5l-37.9-0.1c-0.6,0-1.3,0-2-0.6c-0.6-0.6-0.9-1.3-1.1-2.1c-0.6-2.5-2-13.7,0.3-16.7
					c0.5-0.6,1.1-0.9,1.7-0.8c0.9,0.1,1.5,0.7,2.1,1.3c1,1.1,2.4,2.4,5.8,2.4l0,0c1.5,0,3.7-2,4.2-4.4l0.1-0.7l0.6,0.1
					c6.1,1.7,17.7,6,23.1,10.5c2.4,2.1,3.4,5.5,3,10.2L299.1,695.5z M259.9,676.6c-0.2,0-0.4,0.1-0.5,0.3c-1.7,2.1-0.9,12-0.1,15.5
					c0.1,0.6,0.3,1.1,0.6,1.3c0.3,0.2,0.7,0.2,1.2,0.2l36.8,0.1c0.3-3.9-0.6-6.6-2.5-8.3c-4.8-4.1-15.6-8.3-22.1-10.1
					c-0.9,2.9-3.5,4.9-5.3,4.8c-3.9-0.1-5.5-1.7-6.6-2.9C260.9,677.1,260.5,676.6,259.9,676.6C260,676.6,260,676.6,259.9,676.6z"/>
			</g>
			<g>
				<path class="st3" d="M258.1,688.8c0.2,1.6,0.4,2.9,0.6,3.8c0.1,0.7,0.3,1.3,0.8,1.8c0.5,0.3,1.1,0.3,1.6,0.3
					c12.4,0,24.9,0.1,37.3,0.1c0.2-2.1,0.1-4.1-0.5-6L258.1,688.8L258.1,688.8z"/>
				<path d="M299,695.3l-37.8-0.1c-0.6,0-1.3,0-1.9-0.4c-0.6-0.4-0.9-1.3-1.1-2.1c-0.2-0.9-0.4-2.3-0.6-3.8l-0.1-0.7h40.9l0.1,0.3
					c0.6,1.8,0.7,3.9,0.5,6.2V695.3z M258.7,689.4c0.2,1.2,0.3,2.3,0.5,3c0.1,0.6,0.3,1.1,0.6,1.4c0.3,0.2,0.8,0.2,1.3,0.2l36.9,0.1
					c0.1-1.8,0-3.4-0.4-4.9h-38.9V689.4z"/>
			</g>
		</g>
		<g>
			<g>
				<path class="st3" d="M215.8,688.8l-0.2,8.1c0,0-3,3.3-11.1,2.4c-8-1-9.4-3.7-9.4-3.7l-0.2-6.9H215.8z"/>
				<path d="M207.2,700c-0.9,0-1.8,0-2.8-0.2c-8.1-1-9.6-3.7-9.8-4l-0.1-0.1l-0.3-7.6l22,0.1l-0.3,8.9l-0.1,0.1
					C215.8,697.3,213.4,700,207.2,700z M195.6,695.3c0.3,0.4,2.2,2.5,8.9,3.3s9.8-1.6,10.5-2.1l0.2-7.2l-19.9-0.1L195.6,695.3z"/>
			</g>
			<g>
				<path class="st4" d="M215.7,675.5c0,0,0.3,13.8,0.2,15.3c-0.1,1.3-5.7,2.7-11.1,2.3c-5.4-0.3-7.8-1.7-9.5-3.7
					c-1.7-2,4.1-11.5,6.8-14.5C202.2,674.8,207.6,677.8,215.7,675.5z"/>
				<path d="M206.3,693.8c-0.5,0-1.1,0-1.5,0c-4.9-0.3-7.8-1.4-9.9-3.9c-2.3-2.7,4.8-13.2,6.8-15.5l0.3-0.3l0.4,0.2
					c0.1,0,5.3,2.9,13.1,0.7l0.8-0.2v0.9c0,0.6,0.3,14,0.2,15.3C216.4,692.9,210.5,693.8,206.3,693.8z M202.3,675.6
					c-3.1,3.7-7.6,12-6.5,13.3c1.4,1.6,3.4,3.1,9.1,3.4c5.4,0.3,10.1-1,10.4-1.8c0.1-1-0.1-10-0.2-14.3
					C208.5,678.1,203.7,676.3,202.3,675.6z"/>
			</g>
		</g>
		<g>
			<path d="M202.8,675.4l-1.2-0.1c0.3-6.5,0.4-6.8,0.4-6.9l1.2,0.4l-0.6-0.2l0.6,0.1C203.2,669.3,203,673.1,202.8,675.4z"/>
		</g>
		<g>
			<polygon points="214.5,675.8 215.4,668.6 216.6,668.8 215.7,676 			"/>
		</g>
		<g>
			<path d="M258.1,676.4c-0.2-5.8-0.2-6-0.1-6.1l1.2,0.4l-0.6-0.2l0.6,0.1c0,0.3,0.1,3.5,0.2,5.8H258.1z"/>
		</g>
		<g>
			<path d="M272.3,675c-0.8-6-0.7-6.2-0.5-6.5l1,0.8l-0.5-0.3l0.6,0.1c0,0.4,0.3,3.2,0.6,5.8L272.3,675z"/>
		</g>
		<path class="st5" d="M201.2,670.4c-6.4-22.7-4.6-47.4-0.6-70.5c4.3-24.4,9.1-47.2,9-72.3c-0.1-14,0.6-28.3-0.5-42
			c-0.1-1.8-0.2-12.9,0-14.7c0-0.3,20-1.3,21.8-1.4c7.3-0.7,14.6-0.2,22,0c-1.2,6.1-0.7,12.5-0.5,18.7c0.6,19.9-1.7,39.8-5.7,59.2
			c-2.1,10.2-4.8,19.8-6.9,30c-3.2,15.3-8,29.7-9.7,45.2c-1.7,15.1-3.4,30.5-8.1,44.9c-0.3,0.8-1,2.3-1.6,2.9
			C219.7,671,207.1,671.4,201.2,670.4z"/>
		<path class="st5" d="M251.1,613.9c0.2-8.9,1.7-16.5,1.8-25.3c0.1-10-0.6-19.9-2.2-29.8c-3.1-19.6-9.4-38.3-13.1-57.8
			c-1.3-7-2.3-14.1-3-21.2c-0.6-6.6-0.7-8.8,5.8-9.1c11.8-0.7,26.4,0.8,37.8-2.9c-0.9,0.3,4.2,49.3,4.5,53.6
			c1.2,16.8,1.4,34.1,1.3,51.1c-0.3,32.9-5,65.4-10.8,97.8c-3.9,2.4-14,3.5-18.4,2.3C254.9,672.6,250.4,651.5,251.1,613.9z"/>
		<path class="st3" d="M275.1,384.8c-4.5-3.2-10.5-5.1-15.2-6.6c-7.4-2.4-15.1-3.4-22.8-3.2c-10,0.2-22.1,2.2-30.8,9.3
			c-1.6,1.3-3.5,6.5-2.9,9.2c0.4,1.9,0.2,4.2,0.3,6.2c0.2,4.4,0.3,8.8,0.4,13.2c0.2,9.6,0.3,19.4,0.4,29c0.2,12.9,1.7,24.9,2.4,37.7
			c0.3,5.5,0.3,15.6,0.2,20.2c0,0.4,73.5,1.3,73.2-3.2c-0.2-2.8-1.3-9-1.4-11.7c-0.6-10.4-1.7-16.7-2.3-27.1
			c-0.4-7.2-0.8-14.4-1.2-21.6c-0.3-4.5-0.5-9.2-0.8-13.7c-0.2-2.8-0.4-3,1.7-4.4c1.7-1.1,3.4-2,5-3.2c2.5-2,4.2-5,5.3-8.2
			c1.3-3.8-5.4-14.8-7.6-17.8C278,387.2,276.6,385.9,275.1,384.8z"/>
		<path class="st3" d="M262.6,379.1c6.8,3.5,14,6.4,19,13.1c4.7,6.2,7.5,14,10,21.6c4.6,14.6,8.2,29.9,9,45.5
			c0.1,1.9,0.1,3.9-0.4,5.7c-1.3,4.9-8.1,7-11.8,8.2c-5.3,1.8-10.9,2.3-16.4,1.4c-0.5-0.1-1-0.2-1.3-0.6c-0.4-0.4-0.6-1.1-0.7-1.7
			c-3.1-13.5-2.7-27.9-5.6-41.4c-1.6-12.2-4.3-25.8-3.1-38.1C261.3,392,261.9,378.8,262.6,379.1z"/>
		<path class="st3" d="M236.3,375.2c-17.9,1.2-30,4.8-41.2,21.2c-7.8,11.4-13.3,27-14.6,39.6c-1.4,13-1.4,43.5,12.9,45.2
			c6.1,0.7,12.2-1.3,17.6-4.7c0.9-0.6,2.3-1.3,2.7-2.3c0.4-0.8,2.6-12.7,3.1-15.3c-7.3-7-10.6-16.8-8.5-27.3
			c1.8-9.1,7.5-20.5,14.7-25.7c7.8-5.7,15.4-10.5,20.3-19.8c0.9-1.7,1.6-3.3,1.6-5.1c0.1-1.8-0.7-3.7-2.2-4.8
			C241,374.9,238.5,374.9,236.3,375.2z"/>
		<g>
			<path d="M228.9,500.9c-10.9,0-21.7-0.1-22.2-0.4l-0.3-0.2v-0.4c0.2-4.7,0.1-14.6-0.2-20.2l0,0c-4.5,1.9-8.8,2.5-12.9,2.1
				c-3.1-0.3-5.7-2-7.8-4.9c-6.9-9.5-6.8-30.2-5.6-41c1.4-13.3,7.2-28.9,14.7-40c4.3-6.3,8.9-11,14.1-14.2
				c7.1-4.7,16.6-7.1,28.3-7.4c9.1-0.2,31.8,1,45,17.5c4.8,6,7.5,13.7,10.1,21.9c5.5,17.4,8.3,31.9,9,45.6l0,0
				c0.1,1.9,0.1,4-0.4,5.9c-1.4,5.1-7.9,7.2-11.8,8.5l-0.4,0.1c-3.2,1.1-6.5,1.7-9.8,1.9c0.2,2.5,0.5,5.5,0.7,9.1
				c0.1,1.3,0.4,3.7,0.7,5.9c0.3,2.2,0.6,4.5,0.7,6c0,0.3-0.1,0.8-0.7,1.2c-3.1,2.1-22.7,2.8-38.6,3
				C237.9,500.8,233.4,500.9,228.9,500.9z M207.7,499.2c3,0.2,19.2,0.4,35.7,0.2c31.2-0.4,35.7-2.2,36.3-2.9
				c-0.1-1.3-0.4-3.5-0.7-5.7c-0.3-2.2-0.6-4.5-0.7-6c-0.2-3.9-0.5-7.1-0.8-9.7l-0.1-0.8h0.7c3.4-0.1,6.8-0.7,10.1-1.8l0.4-0.1
				c3.7-1.2,9.8-3.3,11-7.6c0.5-1.7,0.4-3.7,0.3-5.4l0,0c-0.7-13.6-3.5-28-8.9-45.3c-2.5-8-5.2-15.6-9.8-21.4
				c-12.9-16.1-35.1-17.3-44.1-17.1c-11.5,0.3-20.8,2.8-27.7,7.2c-5.1,3.2-9.6,7.6-13.8,13.8c-7.4,10.9-13.1,26.3-14.5,39.2
				c-1,9.9-1.3,30.8,5.4,40c1.9,2.7,4.2,4.1,7,4.4c4.2,0.4,8.6-0.3,13.1-2.3l0.8-0.3l0.1,1.9C207.8,484.8,207.8,494.3,207.7,499.2z"
				/>
		</g>
		<path class="st3" d="M258.1,340.9l-2.4,26.1c0,0-2,4.8-4.3,4.9c0,0,1.2,6.2-0.4,7.8c-1.5,1.6-6,4.9-10.8,3.1
			c-4.8-1.8-7.1-4.8-6.7-8.2v-14c0,0-4.7-5.2-5.7-9.2c-1-4.1,2.3-10.6,5.7-10.7C237,340.5,251.4,337.3,258.1,340.9z"/>
		<g>
			<path d="M247.9,373.5c-2.3,0-5-0.7-8-2l0.4-1.3c5.3,2.2,9.3,2.4,12,0.7c2.7-1.8,3.1-5.1,3.1-5.1c0.6-6.3,2.1-23,2.1-23.6h1.2
				c0,0.4-1.8,19.8-2.1,23.7c0,0.2-0.5,4-3.7,6.1C251.6,373,249.9,373.5,247.9,373.5z"/>
		</g>
		<path d="M230.9,348.1c1.3-1.3,4-1,5.8,1c0.9-4.1,0.7-6.2,8.2-6.4c2.7-0.1,14.4-0.6,12.9,5c1.6-0.4,2.8-1.8,3.9-3.2
			c0.8-1,2-2.2,2.4-3.5c0.4-1.6-0.2-3.4-1.1-4.5c-1.1-1.6-2.9-2.4-4.6-2.7c-0.9-0.1-1.8-0.1-2.6-0.3c-2.1-0.4-3.7-3.4-5.5-4.8
			c-2.6-1.9-5.9-2.7-9-2c-3.1,0.7-5.9,2.8-7.7,5.7c-0.7,1.1-0.6,2.1-1.9,2.5c-0.8,0.3-1.6,0.3-2.3,0.8c-2.3,1.3-2.7,6.5-2.7,9.1
			c-0.1,3.8,1.8,15.6,7.3,14.4C231.4,356.3,227.7,351.6,230.9,348.1z"/>
		<g>
			<path d="M242.2,383.2c-0.1,0-0.1,0-0.2,0c-3,0-5.3-0.9-6.9-2.7c-1.9-2.2-1.9-4.9-1.9-5l-0.5-16.5h1l0.5,16.5c0,0,0,1.7,0.9,3.3
				c1.3,2.1,3.6,3.2,6.8,3.3c0.1,0,0.1,0,0.2,0c3.8,0,6.5-1,7.9-2.8c1.3-1.8,1-3.7,1-3.7v-0.1l0.1-4.2h1l-0.1,4.1
				c0.1,0.4,0.3,2.5-1.2,4.5C249.3,382.1,246.4,383.2,242.2,383.2z"/>
		</g>
		<g>
			<path class="st3" d="M248.2,545.7l-0.5-2.7c1.1-3.7,1.9-12,1.9-14h1.2C250.8,531.1,249.3,541.8,248.2,545.7z"/>
		</g>
		<g>
			<path d="M273.4,427.8c-0.2-2.9-1.2-17.1-1.2-17.4h1.2h-0.6h0.6c0,0.4,0.9,12.6,1.2,17.4H273.4z"/>
		</g>
		<g>
			<path class="st3" d="M201.4,645.9c-1.6-20.4,0-40.9,4.5-60.7l1.2,0.3c-4.5,19.7-6,40-4.5,60.3L201.4,645.9z"/>
		</g>
		<g>
			<path d="M241.2,387.4c-5.2,0-10.8-1.8-11.5-7.1l1.2-0.2c0.8,6.4,10.5,6,11.7,5.9l0.1,1.3C242.2,387.4,241.7,387.4,241.2,387.4z"
				/>
		</g>
		<g>
			<g>
				<path d="M249.7,360.6l-0.9-1c0.5-0.6,1.1-0.7,1.7-0.8c0.4-0.1,0.8-0.1,1-0.3s0.2-0.6,0.1-1c-0.1-0.3-0.3-0.7-0.5-1.1l-0.2-0.2
					c-1-1.8-1.4-3.5-1.2-5.2l1.2,0.2c-0.2,1.7,0.5,3.3,1,4.3l0.1,0.2c0.2,0.4,0.5,0.9,0.6,1.4c0.2,0.9,0.1,1.8-0.4,2.3
					c-0.5,0.6-1.1,0.7-1.7,0.8C250.3,360.3,249.9,360.4,249.7,360.6z"/>
			</g>
			<g>
				<path d="M247.6,365.8c-1,0-1.9-0.3-2.7-0.9c-1.3-0.9-2.1-2.5-2.2-4.2l1.2-0.1c0.1,1.2,0.7,2.4,1.6,3.1c0.9,0.7,2.2,0.9,3.2,0.4
					l0.4,1.3C248.7,365.7,248.1,365.8,247.6,365.8z"/>
			</g>
			<g>
				<path d="M240.8,348.4l-0.7-1.1c2.1-1.7,5.1-1.8,7.2-0.2l-0.7,1.2C244.9,347,242.4,347.1,240.8,348.4z"/>
			</g>
			<path d="M244.8,352.8c0.5-1,0.2-2.4-1.1-2.2c-0.7,0.1-1.2,1-1.2,1.8c0,0.4,0.3,0.9,0.7,1.1C243.9,353.8,244.5,353.3,244.8,352.8z
				"/>
			<path d="M254.5,353.7c0.8,0.1,1.4-0.9,1.4-1.7c0-0.3-0.1-0.7-0.4-0.9c-0.5-0.3-1.4,0-1.6,0.6c-0.3,0.6-0.2,1.2,0.2,1.7
				C254.2,353.5,254.3,353.7,254.5,353.7z"/>
			<g>
				<path d="M255.6,349.4c-0.2-0.4-1.9-1-2.3-1v-1.3c0.4,0,2.8,0.6,3.4,1.7L255.6,349.4z"/>
			</g>
		</g>
		<g>
			<path d="M233.4,356.2c-1.4-0.9-2.2-2.9-1.7-4.7c0.2-0.9,0.7-1.6,1.3-1.8c0.3-0.1,0.6-0.1,1,0c0.7,0.1,1.2,0.6,1.6,1.2l-1.1,0.7
				c-0.2-0.3-0.4-0.6-0.7-0.6c-0.1,0-0.3,0-0.3,0c-0.2,0.1-0.4,0.4-0.5,0.8c-0.3,1.1,0.2,2.5,1.2,3.1L233.4,356.2z"/>
		</g>
		<g>
			<path d="M213.9,471.2l-1.1-0.7c2.1-4.2,3.4-8.9,3.6-13.6c0-0.2,0-0.3,0-0.6c-0.3,0-0.7,0-1.1,0.1c-2.6,0.2-7.1,0.7-8.7-2.1
				c-2.2-3.8-1-11.3,0.4-18.2c0.7-3.5,1.9-7.1,3-10.5c2.3-6.9,4.4-13.4,3.4-20.3l1.2-0.2c1,7.2-1.2,14.2-3.4,20.9
				c-1.1,3.3-2.2,6.9-2.9,10.3c-0.8,4-2.7,13.4-0.5,17.2c1.2,2.1,5.4,1.8,7.6,1.6c1.5-0.1,2-0.2,2.3,0.3c0.2,0.4,0.2,1,0.2,1.6
				C217.4,462,216.1,466.9,213.9,471.2z"/>
		</g>
		<g>
			<path d="M185.4,463c-3.7-11.4-1.8-33.9,2.4-42.4l1.1,0.7c-4,8.1-5.9,30.4-2.3,41.3L185.4,463z"/>
		</g>
		<g>
			<g>
				<polygon class="st3" points="245.9,527.4 198.7,497.9 198.7,427.1 245.9,456.6 				"/>
				<polygon class="st1" points="245.9,527.4 293.2,497.9 293.2,427.1 245.9,456.6 				"/>
				<polygon class="st2" points="293.2,427.1 245.9,397.6 198.7,427.1 245.9,456.6 				"/>
			</g>
			<g>
				<path d="M245.9,528.2l-47.8-29.8v-71.6l0.3-0.2l47.5-29.7l47.8,29.8v71.6L245.9,528.2z M199.3,497.6l46.6,29l46.6-29v-69.9
					l-46.6-29l-46.6,29L199.3,497.6L199.3,497.6z"/>
			</g>
			<g>
				<polygon points="245.9,457.5 198.4,427.8 199,426.6 245.9,455.8 292.9,426.6 293.5,427.8 				"/>
			</g>
			<g>
				<rect x="245.3" y="456.7" width="1.2" height="70.7"/>
			</g>
		</g>
		<g>
			<g>
				<path class="st3" d="M294,454.8c-0.3-1.6-0.3-3.7,0.5-4.9s2.4-1.9,3.8-1.7c0.4,2.1,1,4.2,1.8,6.3c1.3,3.8,0.9,6.1,0.9,6.1
					C299.6,458,294.2,455.7,294,454.8z"/>
				<path d="M301.2,462.7l-0.8-1.6c-0.8-1.4-3-2.9-4.6-4c-1.6-1-2.3-1.6-2.4-2.1l0,0c-0.2-0.8-0.6-3.7,0.6-5.4c1-1.4,2.7-2.2,4.3-2
					l0.4,0.1l0.1,0.4c0.4,1.9,0.9,3.9,1.7,6.2c1.4,3.9,1,6.4,0.9,6.5L301.2,462.7z M294.6,454.6c0.2,0.2,1.1,0.9,1.8,1.3
					c1.3,0.9,2.8,1.9,3.9,3c-0.1-1-0.3-2.3-0.9-4.1c-0.8-2.1-1.3-4.1-1.7-5.9c-1.1,0-2.1,0.6-2.8,1.4
					C294.3,451.4,294.3,453.1,294.6,454.6z M294.6,454.6L294.6,454.6L294.6,454.6z"/>
			</g>
			<g>
				<path class="st3" d="M294.4,475.6c-0.6-0.1-1.1-0.7-1.8-1.1c-0.7-0.4-1.6-0.7-2.4-0.9c-1.6-0.4-3.2-0.7-4.8-0.9
					c-0.4,0-0.8-0.1-1.1-0.3c-1.5-1.1-1.3-3.7,0-4c-2.9-2-1-4.4,0.5-4.5c-2.6-1.3-1.5-4.7,0.1-4.5c-1.5-0.6-3-4.9,3.5-4.3
					c3.7,0.3,10.2,0.9,12,5.2c0.3,0.8,0.4,1.6,0.4,2.4c0.2,3.9-0.9,7.8-3.1,10.7c-0.6,0.9-1.4,1.8-2.4,2.1
					C295.1,475.6,294.7,475.6,294.4,475.6z"/>
				<path d="M294.8,476.3c-0.2,0-0.3,0-0.5,0l0,0c-0.6-0.1-1-0.4-1.4-0.8c-0.2-0.1-0.3-0.2-0.5-0.4c-0.6-0.4-1.4-0.6-2.1-0.8h-0.2
					c-1.4-0.3-3-0.7-4.8-0.9c-0.4,0-0.9-0.1-1.3-0.4c-1.1-0.8-1.4-2.2-1.3-3.3c0.1-0.4,0.3-0.9,0.5-1.2c-1.1-1.1-1.1-2.2-1-2.8
					c0.2-0.8,0.7-1.4,1.3-1.9c-0.8-0.9-0.9-2-0.8-2.9c0.1-0.7,0.5-1.3,1-1.7c-0.5-0.7-0.8-1.6-0.6-2.4c0.2-1,1.2-2.8,5.4-2.4
					c3.4,0.2,10.5,0.9,12.5,5.7c0.4,0.9,0.5,1.9,0.5,2.7c0.2,4-1,8.1-3.2,11.3c-0.6,0.8-1.4,1.9-2.7,2.3
					C295.4,476.3,295.1,476.3,294.8,476.3z M285,460c-0.4,0-0.8,0.4-1,1.1c-0.1,0.3-0.2,1.4,1.1,2.1l2.2,1.1l-2.4,0.2
					c-0.6,0-1.3,0.7-1.5,1.3c-0.2,0.9,0.5,1.6,1.2,2l1.3,0.9l-1.5,0.3c-0.4,0.1-0.5,0.7-0.5,0.8c-0.1,0.7,0.1,1.4,0.7,1.9
					c0.2,0.1,0.5,0.2,0.8,0.2c1.8,0.2,3.4,0.6,4.9,0.9h0.2c0.8,0.2,1.7,0.4,2.5,1c0.2,0.1,0.4,0.3,0.6,0.4c0.4,0.2,0.6,0.4,0.9,0.6
					l0,0c0.2,0,0.5,0,0.8-0.1c0.9-0.3,1.6-1.2,2.1-1.9c2-2.9,3.1-6.6,3-10.3c0-0.7-0.1-1.4-0.4-2.2c-1.7-4-8.3-4.5-11.4-4.9
					c-2.4-0.2-3.9,0.3-4.1,1.3c-0.1,0.8,0.4,1.6,0.8,1.8l3.9,1.4H285L285,460z"/>
			</g>
			<g>
				<path d="M296.2,462.1c-3.6-1.9-8-2.1-11.9-2v-1.3c4-0.1,8.6,0.1,12.4,2.1L296.2,462.1z"/>
			</g>
			<g>
				<path d="M295.1,466.4c-2.1-1.2-8.3-1.8-10.7-1.7l-0.1-1.3c2.6-0.1,9,0.4,11.4,1.8L295.1,466.4z"/>
			</g>
			<g>
				<path d="M294.9,471.1c-3.5-1-7-1.7-10.6-1.9l0.1-1.3c3.7,0.2,7.3,0.9,10.9,2L294.9,471.1z"/>
			</g>
		</g>
		<g>
			<g>
				<path class="st3" d="M199,460.1c0.3-1.6,0.3-3.7-0.5-4.9c-0.9-1.2-2.4-1.9-3.8-1.7c-0.4,2.1-1,4.2-1.8,6.3
					c-1.3,3.8-0.9,6.1-0.9,6.1C193.5,463.3,198.9,461,199,460.1z"/>
				<path d="M191.8,468l-0.3-1.8c0-0.1-0.4-2.5,0.9-6.5c0.8-2.3,1.4-4.3,1.7-6.2l0.1-0.4l0.4-0.1c1.6-0.2,3.3,0.6,4.3,2
					c1.2,1.8,0.8,4.7,0.6,5.4l0,0c-0.1,0.7-0.8,1.1-2.4,2.1c-1.6,1.1-3.9,2.5-4.6,4L191.8,468z M195.2,454.3
					c-0.4,1.8-0.9,3.8-1.7,5.9c-0.6,1.7-0.8,3.1-0.9,4.1c1.1-1.1,2.6-2.1,3.9-3c0.7-0.4,1.6-1,1.8-1.3c0.3-1.3,0.3-3.2-0.4-4.2
					C197.4,454.8,196.3,454.3,195.2,454.3z"/>
			</g>
			<g>
				<path class="st3" d="M198.6,481c0.6-0.1,1.1-0.7,1.8-1.1s1.6-0.7,2.4-0.9c1.6-0.4,3.2-0.7,4.8-0.9c0.4,0,0.8-0.1,1.1-0.3
					c1.5-1.1,1.3-3.7,0-4c2.9-2,1-4.4-0.5-4.5c2.6-1.3,1.5-4.7-0.1-4.5c1.5-0.6,3-4.9-3.5-4.3c-3.7,0.3-10.2,0.9-12,5.2
					c-0.3,0.8-0.4,1.6-0.4,2.4c-0.2,3.9,0.9,7.8,3.1,10.7c0.6,0.9,1.4,1.8,2.4,2.1C198,481,198.3,481,198.6,481z"/>
				<path d="M198.2,481.6c-0.3,0-0.6,0-0.9-0.1c-1.2-0.4-2.1-1.6-2.7-2.3c-2.2-3.1-3.4-7.2-3.2-11.3c0-0.8,0.1-1.8,0.5-2.7
					c2-4.8,9.1-5.3,12.5-5.7c4.3-0.3,5.2,1.3,5.4,2.4c0.2,0.9-0.1,1.8-0.6,2.4c0.5,0.3,0.8,1,1,1.7c0.2,0.9,0,2-0.8,2.9
					c0.6,0.4,1.1,1.1,1.3,1.9c0.1,0.7,0.1,1.8-1,2.8c0.3,0.3,0.4,0.8,0.5,1.2c0.2,1.1-0.1,2.5-1.3,3.3c-0.5,0.3-1,0.3-1.3,0.4
					c-1.8,0.2-3.3,0.4-4.8,0.9h-0.2c-0.7,0.2-1.5,0.4-2.1,0.8c-0.2,0.1-0.4,0.2-0.5,0.4c-0.4,0.3-0.8,0.7-1.4,0.8l0,0
					C198.6,481.6,198.4,481.6,198.2,481.6z M205.5,460.9c-0.3,0-0.6,0-1,0c-3.2,0.2-9.8,0.8-11.4,4.9c-0.3,0.7-0.4,1.6-0.4,2.2
					c-0.2,3.7,0.9,7.4,3,10.3c0.5,0.7,1.2,1.6,2.1,1.9c0.3,0.1,0.5,0.1,0.8,0.1c0.3-0.1,0.6-0.3,0.9-0.6c0.2-0.1,0.4-0.3,0.6-0.4
					c0.8-0.6,1.7-0.8,2.5-1h0.2c1.5-0.4,3.1-0.7,4.9-0.9c0.3,0,0.6-0.1,0.8-0.2c0.6-0.4,0.8-1.3,0.7-1.9c0-0.1-0.1-0.7-0.5-0.8
					l-1.5-0.3l1.3-0.9c0.6-0.4,1.4-1.1,1.2-2c-0.2-0.8-0.9-1.3-1.5-1.3l-2.4-0.2l2.2-1.1c1.3-0.7,1.2-1.8,1.1-2.1
					c-0.1-0.7-0.6-1.1-1-1.1l-4.1,0.1l3.9-1.4c0.4-0.1,1-1,0.8-1.8C208.5,461.5,207.3,460.9,205.5,460.9z"/>
			</g>
			<g>
				<path d="M196.8,467.4l-0.5-1.2c3.8-2,8.4-2.2,12.4-2.1v1.3C204.8,465.4,200.4,465.6,196.8,467.4z"/>
			</g>
			<g>
				<path d="M197.9,471.8l-0.6-1.2c2.4-1.3,8.8-2,11.4-1.8l-0.1,1.3C206.2,470,200,470.7,197.9,471.8z"/>
			</g>
			<g>
				<path d="M198.1,476.4l-0.3-1.3c3.5-1.1,7.2-1.8,10.9-2l0.1,1.3C205.2,474.8,201.6,475.4,198.1,476.4z"/>
			</g>
		</g>
	</g>
	<g>
		<g>
			<path d="M18.1,422.5c-2.1-3.9-4-8-5.7-12.3l1.1-0.6c1.7,4.2,3.6,8.3,5.6,12.2L18.1,422.5z M7.9,397.3c-1.3-4.2-2.4-8.8-3.4-13.3
				l1.2-0.3c1,4.5,2.1,9,3.4,13.2L7.9,397.3z M2.2,370.4c-0.6-4.4-1.1-9.1-1.5-13.7l1.2-0.1c0.4,4.7,0.8,9.2,1.5,13.6L2.2,370.4z
				 M0,342.9c0-1.4,0-2.8,0-4.2c0-3.2,0.1-6.4,0.2-9.6l1.2,0.1c-0.1,3.2-0.2,6.4-0.2,9.5c0,1.4,0,2.8,0,4.2H0z M2.3,315.4l-1.2-0.1
				c0.4-4.5,1-9.2,1.6-13.7l1.2,0.2C3.3,306.3,2.7,310.9,2.3,315.4z M6.3,288.4l-1.2-0.3c0.9-4.5,2-9,3.1-13.4l1.2,0.4
				C8.3,279.4,7.2,283.9,6.3,288.4z M13.3,262l-1.2-0.4c1.4-4.4,2.9-8.8,4.4-12.9l1.1,0.6C16.2,253.3,14.7,257.6,13.3,262z
				 M22.7,236.7l-1.1-0.6c1.8-4.2,3.7-8.3,5.7-12.3l1.1,0.7C26.4,228.5,24.5,232.6,22.7,236.7z M34.8,212.8l-1-0.8
				c2.3-3.9,4.7-7.6,7.2-11.3l1,0.9C39.5,205.2,37.1,209,34.8,212.8z M49.9,191l-0.9-0.9c2.7-3.4,5.6-6.8,8.6-10l0.9,1
				C55.4,184.4,52.6,187.7,49.9,191z M67.6,172l-0.8-1c3.1-2.9,6.4-5.8,9.8-8.5l0.7,1.1C73.9,166.2,70.7,169.1,67.6,172z
				 M87.4,155.6l-0.7-1.1c3.4-2.4,6.9-4.9,10.6-7.3l0.6,1.2C94.3,150.7,90.8,153.1,87.4,155.6z"/>
		</g>
		<polygon points="26.7,426 19.3,431.8 27.5,435.9 		"/>
	</g>
	<g>
		<g>
			<path class="st3" d="M556.7,611.7l-0.4-1.3c61.9-24.6,104.4-68.1,126-129.2l1.2,0.6C661.6,543.2,619,586.9,556.7,611.7z"/>
		</g>
		<g>
			<path class="st3" d="M494.6,628.5l-0.2-1.3c11.6-1.9,23-4.3,33.9-7.4l0.3,1.3C517.7,624.2,506.2,626.7,494.6,628.5z"/>
		</g>
		<polygon class="st3" points="687.2,470.1 680.1,476.2 688.4,480 		"/>
	</g>
	<g>
		<path d="M478.7,71.4l-1.2-0.4l0.6,0.2l-0.6-0.1c0.2-1.3,0.1-28.5,0-46.4v-0.4l37.2-23.3l0.6,1.2L478.7,25
			C478.9,36.1,479.1,70.4,478.7,71.4z"/>
	</g>
	<g>
		<path d="M291.8,228.1c-0.3-1.1-0.1-35.2,0-46.4l-36.6-22.9l0.6-1.2l37.2,23.3v0.4c-0.1,17.9-0.2,45.1,0,46.4L291.8,228.1z"/>
	</g>
	<g>
		<path d="M422.6,643.7l-0.3-0.2c-13.9-9.1-35.1-22.8-36.2-23.3l0.3-1.3c1,0.2,27.6,17.5,36.2,23.3l36.2-23.6l0.6,1.2L422.6,643.7z"
			/>
	</g>
	<g>
		<path d="M285,95.8c-2.6,0-5.2-1.2-7.1-3.4c-3.6-4.3-3.3-11.1,0.6-15.1c3.9-4,10-3.7,13.6,0.7l0,0c1.7,2.1,2.6,4.9,2.5,7.6
			c-0.1,2.9-1.2,5.4-3.1,7.4C289.6,95,287.3,95.8,285,95.8z M285,76c-2,0-4,0.8-5.6,2.4c-3.4,3.4-3.7,9.3-0.6,13.1
			c3.1,3.8,8.4,4.1,11.8,0.7c1.7-1.7,2.6-4,2.7-6.4c0.1-2.4-0.7-4.9-2.2-6.6l0,0C289.6,77,287.3,76,285,76z"/>
	</g>
	<g>
		<path d="M549.3,592.8c-0.1,0-0.2,0-0.3,0c-1.5-0.1-2.9-0.8-4-2.1c-2.1-2.5-2-6.6,0.4-9c1.1-1.1,2.6-1.8,4.1-1.7s2.9,0.8,4,2.1
			c1,1.2,1.6,2.9,1.5,4.5s-0.7,3.2-1.9,4.4C552.1,592.1,550.7,592.8,549.3,592.8z M549.3,581.4c-1.1,0-2.2,0.4-3,1.3
			c-1.8,1.9-2,5-0.3,7c0.8,1,1.9,1.6,3.1,1.7c1.2,0.1,2.3-0.4,3.2-1.3s1.4-2.1,1.5-3.4s-0.4-2.5-1.2-3.5l0,0c-0.8-1-1.9-1.6-3.1-1.7
			C549.4,581.4,549.4,581.4,549.3,581.4z"/>
	</g>
	<g>
		<g>
			<polygon points="683.8,345 685,318 686.2,318.1 685,345.1 			"/>
		</g>
		<g>
			<polygon points="685.3,310.9 685.8,298.4 687,298.5 686.5,311 			"/>
		</g>
	</g>
	<g>
		<g>
			<polygon points="669.1,328.4 670.2,301.4 671.4,301.5 670.3,328.5 			"/>
		</g>
		<g>
			<polygon points="670.5,294.4 671.6,261.4 672.8,261.5 671.7,294.5 			"/>
		</g>
	</g>
	<g>
		<g>
			<polygon points="56,360.6 56.3,352.7 57.5,352.8 57.2,360.7 			"/>
		</g>
		<g>
			<polygon points="46.6,363.7 46.6,362.4 53.7,362.7 53.7,364.1 			"/>
		</g>
		<g>
			<polygon points="55.3,374.3 55.6,366.5 56.8,366.5 56.5,374.4 			"/>
		</g>
		<g>
			<polygon points="59,364.4 59.1,363 66.2,363.4 66.1,364.7 			"/>
		</g>
	</g>
	<g>
		<g>
			<polygon points="528.7,574.9 529,569.9 530.2,570 529.9,574.9 			"/>
		</g>
		<g>
			<polygon points="523,577.2 523.1,575.9 527.6,576.1 527.5,577.5 			"/>
		</g>
		<g>
			<polygon points="528.3,583.7 528.5,578.7 529.7,578.8 529.5,583.8 			"/>
		</g>
		<g>
			<polygon points="530.9,577.7 531,576.4 535.4,576.6 535.4,577.9 			"/>
		</g>
	</g>
</g>
</svg>
