<svg width="200" height="200" viewBox="0 0 200 200" fill="none" xmlns="http://www.w3.org/2000/svg">
<g clip-path="url(#clip0_589_6)">
<rect width="200" height="200" fill="white"/>
<g filter="url(#filter0_d_589_6)">
<path d="M156.34 0H37.0012C16.566 0 0 16.566 0 37.0012V156.34C0 176.775 16.566 193.341 37.0012 193.341H156.34C176.775 193.341 193.341 176.775 193.341 156.34V37.0012C193.341 16.566 176.775 0 156.34 0Z" fill="url(#paint0_linear_589_6)"/>
</g>
<path d="M156.34 6.00018H37.0013C19.8799 6.00018 6.00031 19.8798 6.00031 37.0012V156.34C6.00031 173.461 19.8799 187.341 37.0013 187.341H156.34C173.461 187.341 187.341 173.461 187.341 156.34V37.0012C187.341 19.8798 173.461 6.00018 156.34 6.00018Z" fill="url(#paint1_linear_589_6)"/>
<path d="M37.2607 122.355L37.2607 9.90467" stroke="url(#paint2_radial_589_6)" stroke-width="0.761663" stroke-linecap="round"/>
<path d="M19.4728 92.1005L173.868 92.1006" stroke="url(#paint3_radial_589_6)" stroke-width="0.761663" stroke-linecap="round"/>
<path d="M19.4728 35.8756L173.868 35.8756" stroke="url(#paint4_radial_589_6)" stroke-width="0.761663" stroke-linecap="round"/>
<path d="M20.9962 66.1296L175.392 66.1296" stroke="url(#paint5_radial_589_6)" stroke-width="0.761663" stroke-linecap="round"/>
<path d="M67.0201 103.613L67.0201 9.90468" stroke="url(#paint6_radial_589_6)" stroke-width="0.761663" stroke-linecap="round"/>
<path d="M76.9714 111.142L76.9714 54.1202" stroke="url(#paint7_radial_589_6)" stroke-width="0.761663" stroke-linecap="round"/>
<path d="M83.8264 111.142L83.8264 54.1202" stroke="url(#paint8_radial_589_6)" stroke-width="0.761663" stroke-linecap="round"/>
<path d="M83.8264 17.0401L83.8264 74.062" stroke="url(#paint9_radial_589_6)" stroke-width="0.761663" stroke-linecap="round"/>
<path d="M76.9714 17.0401L76.9714 74.062" stroke="url(#paint10_radial_589_6)" stroke-width="0.761663" stroke-linecap="round"/>
<path d="M126.714 133.109L126.714 15.0154" stroke="url(#paint11_radial_589_6)" stroke-width="0.761663" stroke-linecap="round"/>
<path d="M134.278 103.746L134.278 9.90469" stroke="url(#paint12_radial_589_6)" stroke-width="0.761663" stroke-linecap="round"/>
<path d="M100.17 113.693L178.529 27.949" stroke="url(#paint13_radial_589_6)" stroke-width="0.761663" stroke-linecap="round"/>
<path d="M100.17 103.613L178.529 17.8693" stroke="url(#paint14_radial_589_6)" stroke-width="0.761663" stroke-linecap="round"/>
<path d="M59.1744 53.9463C58.9104 51.6037 57.8216 49.789 55.9079 48.5022C53.9942 47.1989 51.5857 46.5473 48.6821 46.5473C46.6035 46.5473 44.8053 46.8772 43.2876 47.5371C41.7698 48.1805 40.5903 49.0714 39.7489 50.2097C38.924 51.3315 38.5116 52.61 38.5116 54.0453C38.5116 55.2496 38.7921 56.2889 39.353 57.1633C39.9304 58.0376 40.681 58.7717 41.6048 59.3656C42.5452 59.943 43.5515 60.4297 44.6238 60.8256C45.6961 61.2051 46.7272 61.5185 47.7171 61.766L52.6662 63.0528C54.2829 63.4487 55.9409 63.9849 57.6401 64.6613C59.3393 65.3376 60.9148 66.2285 62.3666 67.3338C63.8183 68.4391 64.9896 69.8084 65.8805 71.4416C66.7878 73.0748 67.2415 75.0298 67.2415 77.3064C67.2415 80.1769 66.4991 82.7257 65.0144 84.9528C63.5461 87.18 61.4097 88.9369 58.6052 90.2237C55.8172 91.5105 52.4435 92.1539 48.4842 92.1539C44.6898 92.1539 41.4069 91.5517 38.6353 90.3474C35.8638 89.1431 33.6944 87.4357 32.1272 85.225C30.5599 82.9979 29.6938 80.3584 29.5289 77.3064H37.2001C37.3486 79.1376 37.9425 80.6636 38.9818 81.8844C40.0376 83.0886 41.3821 83.9877 43.0153 84.5816C44.6651 85.159 46.4715 85.4477 48.4347 85.4477C50.5958 85.4477 52.5177 85.1096 54.2005 84.4332C55.8997 83.7403 57.236 82.7834 58.2093 81.5627C59.1826 80.3254 59.6693 78.8819 59.6693 77.2321C59.6693 75.7309 59.2404 74.5018 58.3825 73.545C57.5411 72.5882 56.3946 71.7963 54.9428 71.1694C53.5076 70.5425 51.8826 69.9899 50.0679 69.5114L44.0794 67.8782C40.0211 66.7729 36.8041 65.1479 34.4285 63.0033C32.0694 60.8586 30.8899 58.0211 30.8899 54.4907C30.8899 51.5707 31.6818 49.0219 33.2655 46.8443C34.8492 44.6666 36.9939 42.9757 39.6994 41.7714C42.4049 40.5506 45.4569 39.9402 48.8554 39.9402C52.2868 39.9402 55.314 40.5423 57.9371 41.7466C60.5766 42.9509 62.6553 44.6089 64.173 46.7205C65.6908 48.8157 66.4826 51.2243 66.5486 53.9463H59.1744ZM92.7854 91.3125H76.3789V40.633H93.3051C98.2707 40.633 102.535 41.6476 106.099 43.6768C109.662 45.6894 112.392 48.5847 114.29 52.3626C116.203 56.1239 117.16 60.6359 117.16 65.8985C117.16 71.1777 116.195 75.7144 114.265 79.5088C112.351 83.3031 109.58 86.2231 105.95 88.2688C102.321 90.2979 97.9325 91.3125 92.7854 91.3125ZM84.0254 84.6311H92.3647C96.2251 84.6311 99.4338 83.9053 101.991 82.4535C104.548 80.9853 106.462 78.8654 107.732 76.0938C109.002 73.3058 109.637 69.9074 109.637 65.8985C109.637 61.9227 109.002 58.549 107.732 55.7775C106.478 53.006 104.606 50.9026 102.115 49.4673C99.6235 48.0321 96.5303 47.3144 92.8349 47.3144H84.0254V84.6311ZM126.669 91.3125V40.633H134.315V64.8345H134.934L156.19 40.633H165.817L145.376 63.4487L165.891 91.3125H156.685L140.304 68.6701L134.315 75.5494V91.3125H126.669Z" fill="#E4EAFF"/>
<path style="mix-blend-mode:multiply" d="M193.176 160.999C193.176 160.999 190.551 190.34 158.072 193.515L72.9337 193.515L36.1411 144.567L40.2762 126.81L119.131 132.545L129.127 126.891L130.508 117.447L137.759 116.242L147.825 115.308L169.913 127.21L193.176 160.999Z" fill="url(#paint15_linear_589_6)"/>
<path d="M147.082 147.617C145.685 147.629 144.544 146.511 144.533 145.114L144.39 129.724C144.378 128.328 145.496 127.187 146.893 127.175L169.742 126.965C167.875 122.412 164.752 118.314 160.455 115.242C148.291 106.544 131.373 109.352 122.672 121.52C121.579 123.05 120.67 124.654 119.938 126.303L47.5643 124.029C39.8451 124.127 33.6653 129.983 33.7557 137.111C33.8461 144.238 40.1773 149.933 47.8965 149.836L119.967 148.285C121.862 152.556 124.88 156.393 128.954 159.306C141.122 168.006 158.036 165.196 166.737 153.028C168.012 151.244 169.033 149.354 169.82 147.408L147.086 147.619L147.082 147.617ZM42.2144 142.218C39.4664 140.253 38.8311 136.43 40.7961 133.682C42.761 130.934 46.5841 130.299 49.3321 132.263C52.0802 134.228 52.7154 138.052 50.7505 140.8C48.7856 143.548 44.9624 144.183 42.2144 142.218Z" fill="#E4EAFF" stroke="white" stroke-width="0.472484" stroke-miterlimit="10"/>
</g>
<defs>
<filter id="filter0_d_589_6" x="0" y="0" width="201.339" height="201.339" filterUnits="userSpaceOnUse" color-interpolation-filters="sRGB">
<feFlood flood-opacity="0" result="BackgroundImageFix"/>
<feColorMatrix in="SourceAlpha" type="matrix" values="0 0 0 0 0 0 0 0 0 0 0 0 0 0 0 0 0 0 127 0" result="hardAlpha"/>
<feOffset dx="4.56998" dy="4.56998"/>
<feGaussianBlur stdDeviation="1.71374"/>
<feComposite in2="hardAlpha" operator="out"/>
<feColorMatrix type="matrix" values="0 0 0 0 0 0 0 0 0 0 0 0 0 0 0 0 0 0 0.25 0"/>
<feBlend mode="normal" in2="BackgroundImageFix" result="effect1_dropShadow_589_6"/>
<feBlend mode="normal" in="SourceGraphic" in2="effect1_dropShadow_589_6" result="shape"/>
</filter>
<linearGradient id="paint0_linear_589_6" x1="96.668" y1="193.341" x2="96.668" y2="0" gradientUnits="userSpaceOnUse">
<stop stop-color="#3C609E"/>
<stop offset="1" stop-color="#BACDEA"/>
</linearGradient>
<linearGradient id="paint1_linear_589_6" x1="96.6681" y1="6.00018" x2="96.6681" y2="187.341" gradientUnits="userSpaceOnUse">
<stop stop-color="#759BD4"/>
<stop offset="1" stop-color="#4D79C6"/>
</linearGradient>
<radialGradient id="paint2_radial_589_6" cx="0" cy="0" r="1" gradientUnits="userSpaceOnUse" gradientTransform="translate(37.2607 116.84) rotate(-90) scale(106.935 728.451)">
<stop offset="0.0378737" stop-color="#7096D2"/>
<stop offset="0.515803" stop-color="white"/>
<stop offset="0.96127" stop-color="#7197D2"/>
</radialGradient>
<radialGradient id="paint3_radial_589_6" cx="0" cy="0" r="1" gradientUnits="userSpaceOnUse" gradientTransform="translate(27.0445 92.1005) scale(146.824 728.451)">
<stop offset="0.0378737" stop-color="#7096D2"/>
<stop offset="0.515803" stop-color="white"/>
<stop offset="0.96127" stop-color="#7197D2"/>
</radialGradient>
<radialGradient id="paint4_radial_589_6" cx="0" cy="0" r="1" gradientUnits="userSpaceOnUse" gradientTransform="translate(27.0445 35.8756) scale(146.824 728.451)">
<stop offset="0.0378737" stop-color="#7096D2"/>
<stop offset="0.515803" stop-color="white"/>
<stop offset="0.96127" stop-color="#7197D2"/>
</radialGradient>
<radialGradient id="paint5_radial_589_6" cx="0" cy="0" r="1" gradientUnits="userSpaceOnUse" gradientTransform="translate(28.5679 66.1296) scale(146.824 728.451)">
<stop offset="0.0378737" stop-color="#7096D2"/>
<stop offset="0.515803" stop-color="white"/>
<stop offset="0.96127" stop-color="#7197D2"/>
</radialGradient>
<radialGradient id="paint6_radial_589_6" cx="0" cy="0" r="1" gradientUnits="userSpaceOnUse" gradientTransform="translate(67.0201 99.0174) rotate(-90) scale(89.1127 728.451)">
<stop offset="0.0378737" stop-color="#7096D2"/>
<stop offset="0.515803" stop-color="white"/>
<stop offset="0.96127" stop-color="#7197D2"/>
</radialGradient>
<radialGradient id="paint7_radial_589_6" cx="0" cy="0" r="1" gradientUnits="userSpaceOnUse" gradientTransform="translate(76.9714 108.346) rotate(-90) scale(54.2255 728.451)">
<stop offset="0.0378737" stop-color="#7096D2"/>
<stop offset="0.515803" stop-color="white"/>
<stop offset="0.96127" stop-color="#7197D2"/>
</radialGradient>
<radialGradient id="paint8_radial_589_6" cx="0" cy="0" r="1" gradientUnits="userSpaceOnUse" gradientTransform="translate(83.8264 108.346) rotate(-90) scale(54.2255 728.451)">
<stop offset="0.0378737" stop-color="#7096D2"/>
<stop offset="0.515803" stop-color="white"/>
<stop offset="0.96127" stop-color="#7197D2"/>
</radialGradient>
<radialGradient id="paint9_radial_589_6" cx="0" cy="0" r="1" gradientUnits="userSpaceOnUse" gradientTransform="translate(83.8264 19.8365) rotate(90) scale(54.2255 728.451)">
<stop offset="0.0378737" stop-color="#7096D2"/>
<stop offset="0.515803" stop-color="white"/>
<stop offset="0.96127" stop-color="#7197D2"/>
</radialGradient>
<radialGradient id="paint10_radial_589_6" cx="0" cy="0" r="1" gradientUnits="userSpaceOnUse" gradientTransform="translate(76.9714 19.8365) rotate(90) scale(54.2255 728.451)">
<stop offset="0.0378737" stop-color="#7096D2"/>
<stop offset="0.515803" stop-color="white"/>
<stop offset="0.96127" stop-color="#7197D2"/>
</radialGradient>
<radialGradient id="paint11_radial_589_6" cx="0" cy="0" r="1" gradientUnits="userSpaceOnUse" gradientTransform="translate(126.714 127.317) rotate(-90) scale(112.302 728.451)">
<stop offset="0.0378737" stop-color="#7096D2"/>
<stop offset="0.515803" stop-color="white"/>
<stop offset="0.96127" stop-color="#7197D2"/>
</radialGradient>
<radialGradient id="paint12_radial_589_6" cx="0" cy="0" r="1" gradientUnits="userSpaceOnUse" gradientTransform="translate(134.278 99.1443) rotate(-90) scale(89.2396 728.451)">
<stop offset="0.0378737" stop-color="#7096D2"/>
<stop offset="0.515803" stop-color="white"/>
<stop offset="0.96127" stop-color="#7197D2"/>
</radialGradient>
<radialGradient id="paint13_radial_589_6" cx="0" cy="0" r="1" gradientUnits="userSpaceOnUse" gradientTransform="translate(104.013 109.488) rotate(-47.5766) scale(110.459 728.451)">
<stop offset="0.0378737" stop-color="#7096D2"/>
<stop offset="0.515803" stop-color="white"/>
<stop offset="0.96127" stop-color="#7197D2"/>
</radialGradient>
<radialGradient id="paint14_radial_589_6" cx="0" cy="0" r="1" gradientUnits="userSpaceOnUse" gradientTransform="translate(104.013 99.4079) rotate(-47.5766) scale(110.459 728.451)">
<stop offset="0.0378737" stop-color="#7096D2"/>
<stop offset="0.515803" stop-color="white"/>
<stop offset="0.96127" stop-color="#7197D2"/>
</radialGradient>
<linearGradient id="paint15_linear_589_6" x1="100.522" y1="136.816" x2="119.295" y2="249.795" gradientUnits="userSpaceOnUse">
<stop stop-color="#C2C2C2"/>
<stop offset="0.5" stop-color="#E6E6E6"/>
<stop offset="0.91" stop-color="white"/>
</linearGradient>
<clipPath id="clip0_589_6">
<rect width="200" height="200" fill="white"/>
</clipPath>
</defs>
</svg>
