<?xml version="1.0" encoding="utf-8"?>
<!-- Generator: Adobe Illustrator 26.0.1, SVG Export Plug-In . SVG Version: 6.00 Build 0)  -->
<svg version="1.1" id="Layer_2" xmlns="http://www.w3.org/2000/svg" xmlns:xlink="http://www.w3.org/1999/xlink" x="0px" y="0px"
	 viewBox="0 0 1088 688" style="enable-background:new 0 0 1088 688;" xml:space="preserve">
<style type="text/css">
	.st0{opacity:0.4;fill:#008080;}
	.st1{opacity:0.22;fill:#008080;}
	.st2{fill:#FFFFFF;}
	.st3{fill:#008080;}
	.st4{opacity:0.7;fill:#008080;}
	.st5{fill:#99B9FF;}
	.st6{opacity:0.82;}
	.st7{clip-path:url(#SVGID_00000141449975988226726000000016401032851209582727_);enable-background:new    ;}
	.st8{clip-path:url(#SVGID_00000021825136240812886510000015284919781838778545_);}
	.st9{clip-path:url(#SVGID_00000155860793942830657030000001120338744282610051_);}
	.st10{clip-path:url(#SVGID_00000032619179188400128500000002268670636324892290_);fill:#008080;}
	.st11{opacity:0.44;}
	.st12{opacity:0.27;}
	.st13{opacity:0.3;}
</style>
<path class="st0" d="M209.5,562.2c20.1,48.9,67.2,72.1,97.2,86.9c118.5,58.3,298.5,51.5,428.1-54.9c30.3-24.9,179.8-155.3,145-331.8
	C849,106.2,694.3,15.7,564,3.6C456-6.3,315,33.1,265.2,128.3c-31.3,59.9,6.3,78.9-19.3,214.6C223.7,460.3,184.9,502.3,209.5,562.2z"
	/>
<g>
	<g>
		<g>
			<g>
				<path class="st1" d="M655.8,372.4l-129.4,0.8c-0.8,0-1.1,0.8-1.1,1.5v110.1c0,10.5-73.5,37.9-74.3,36.5l-0.1,11.7
					c0,2.2,1.9,4.1,4.3,4.1h1.6c0,0,0,0,0,0h108.5c5,0,10-1.1,14.6-3l59.7-25.1c10.7-4.5,17.5-14.2,17.5-24.8V373.9
					C657.2,373.1,656.6,372.4,655.8,372.4z"/>
				<g>
					<path class="st2" d="M512.1,366.8v110.1c0,10.9-7,20.7-18,25.4l-40.2,17.2c-2.6,1.1-1.7,4.6,1.2,4.6h110.6c5,0,9.9-1,14.4-2.9
						l44.6-18.8c11.1-4.7,18.1-14.6,18.1-25.5V366.8c0-0.5-0.4-0.8-0.9-0.8H513.1C512.6,366,512.1,366.3,512.1,366.8z"/>
					<path d="M565.7,525.4H455.1c-1.9,0-3.5-1.2-3.9-3c-0.3-1.7,0.6-3.3,2.2-4l40.2-17.2c10.5-4.5,17.2-14,17.2-24.3V366.8
						c0-1.1,1-2.1,2.2-2.1h128.8c1.2,0,2.2,0.9,2.2,2.1V477c0,11.4-7.4,21.8-18.9,26.6l-44.6,18.8
						C575.9,524.4,570.8,525.4,565.7,525.4z M513.4,367.2v109.7c0,11.3-7.3,21.7-18.7,26.6l-40.2,17.2c-0.9,0.4-0.8,1-0.8,1.3
						c0.1,0.5,0.5,1,1.5,1h110.6c4.8,0,9.6-1,13.9-2.8l44.6-18.8c10.5-4.4,17.4-14,17.4-24.4V367.2H513.4z M641.9,367.2L641.9,367.2
						L641.9,367.2z"/>
				</g>
			</g>
			<g>
				<path class="st3" d="M270.2,429.9l557.8,1.3c4.9,0,9.7-3.7,10.4-8.5l45.3-349.1c1.1-8.5-5.5-16.9-13.9-16.7l-551.4,2.9
					L270.2,429.9z"/>
				<path class="st2" d="M848,58.9c9.6,0,18.3,9.7,17,19.3l-44,343.6c-0.6,4.9-5.8,9-10.7,9l-548-0.9c-5.9,0-9.8-4.9-9-10.7
					l45.6-350c0.6-4.9,3.8-10.3,8.7-10.3H848z"/>
				<path d="M810.3,431.2l-404.6-0.7c-0.7,0-1.2-0.6-1.2-1.2c0-0.7,0.6-1.2,1.2-1.2c0,0,0,0,0,0l404.6,0.7c4.4,0,8.9-3.8,9.5-7.9
					l44-343.6c0.5-4.2-1-8.6-4.1-12.2c-3.2-3.6-7.4-5.7-11.7-5.7H307.6c-3.9,0-6.9,4.7-7.5,9.2l-45.6,350c-0.3,2.6,0.3,5,1.9,6.7
					c1.4,1.6,3.5,2.6,5.9,2.6l33.3,0.1c0.7,0,1.2,0.6,1.2,1.2c0,0.7-0.6,1.2-1.2,1.2c0,0,0,0,0,0l-33.3-0.1c-3.1,0-5.8-1.2-7.8-3.4
					c-2-2.3-2.9-5.4-2.5-8.7l45.6-350c0.7-5.5,4.4-11.4,9.9-11.4H848c5,0,9.9,2.4,13.6,6.5c3.6,4.1,5.3,9.3,4.7,14.1l-44,343.6
					C821.5,426.5,816,431.2,810.3,431.2z"/>
				<path class="st4" d="M832.1,73c8.8,0,16.8,9,15.7,17.7l-40.5,316.1c-0.6,4.5-5.4,8.2-9.8,8.2l-517.7-0.8c-5.4,0-9-4.5-8.3-9.8
					l41.9-322c0.6-4.5,3.5-9.5,8-9.5H832.1z"/>
			</g>
		</g>
	</g>
	<g>
		<g>
			<polygon class="st2" points="777.6,116.6 567.2,116.6 568.6,106.1 779,106.1 			"/>
			<polygon class="st3" points="823,134 608.6,134 610,123.5 824.5,123.5 			"/>
			<polygon class="st2" points="794.8,151.4 684,151.4 685.4,140.9 796.3,140.9 			"/>
			<polygon class="st2" points="758.9,255.8 548.5,255.8 549.9,245.2 760.3,245.2 			"/>
			<polygon class="st3" points="804.3,273.2 589.9,273.2 591.3,262.6 805.8,262.6 			"/>
			<polygon class="st3" points="802,290.6 665.3,290.6 666.7,280 803.4,280 			"/>
			<polygon class="st3" points="712.1,307.2 584.5,307.2 586,296.7 713.5,296.7 			"/>
			<polygon class="st3" points="770.6,168.8 560.2,168.8 561.6,158.3 772,158.3 			"/>
			<polygon class="st3" points="816,186.2 601.6,186.2 603,175.7 817.4,175.7 			"/>
			<polygon class="st2" points="759.6,221 674.7,221 676.1,210.4 761.1,210.4 			"/>
			<polygon class="st3" points="782.7,238.4 697.7,238.4 699.1,227.8 784.1,227.8 			"/>
			<polygon class="st3" points="813.7,203.6 677,203.6 678.4,193.1 815.1,193.1 			"/>
			<polygon class="st2" points="749.6,325.4 539.1,325.4 540.5,314.8 751,314.8 			"/>
			<polygon class="st3" points="788.1,342.8 580.6,342.8 582,332.2 789.5,332.2 			"/>
			<polygon class="st3" points="792.6,360.2 656,360.2 657.4,349.6 794.1,349.6 			"/>
			<polygon class="st2" points="742.5,377.6 532.1,377.6 533.5,367 744,367 			"/>
			<polygon class="st3" points="788,395 573.5,395 575,384.4 789.4,384.4 			"/>
		</g>
		<g>
			<polygon class="st3" points="533.3,238.2 512.8,238.2 514.2,228 534.7,228 			"/>
			<polygon class="st3" points="550.4,116.6 529.1,116.6 530.5,106.1 551.8,106.1 			"/>
			<polygon class="st3" points="552.6,100.6 531.2,100.6 532.6,90.1 554,90.1 			"/>
			<polygon class="st3" points="547.9,134 526.7,134 528.1,123.5 549.3,123.5 			"/>
			<polygon class="st3" points="544.9,151.4 524.7,151.4 526.2,140.9 546.3,140.9 			"/>
			<polygon class="st3" points="542.6,168.8 522.1,168.8 523.6,158.3 544,158.3 			"/>
			<polygon class="st3" points="540.2,186.2 519.7,186.2 521.1,175.7 541.6,175.7 			"/>
			<polygon class="st3" points="536.1,220.3 515.8,220.3 517.2,209.7 537.5,209.7 			"/>
			<polygon class="st3" points="537.9,202.9 518.5,202.9 519.9,192.4 539.4,192.4 			"/>
			<polygon class="st3" points="526.2,291 505.7,291 507.1,280.9 527.6,280.9 			"/>
			<polygon class="st3" points="529,273.1 508.7,273.1 510.1,262.6 530.4,262.6 			"/>
			<polygon class="st3" points="530.8,255.7 511.4,255.7 512.8,245.2 532.3,245.2 			"/>
			<polygon class="st3" points="512.4,393.9 491.9,393.9 493.2,383.8 513.7,383.8 			"/>
			<polygon class="st3" points="523.9,307.2 503.8,307.2 505.2,296.6 525.3,296.6 			"/>
			<polygon class="st3" points="521.7,324.6 501.2,324.6 502.6,314 523.1,314 			"/>
			<polygon class="st3" points="519.2,341.9 498.8,341.9 500.2,331.4 520.7,331.4 			"/>
			<polygon class="st3" points="515.2,376 494.9,376 496.3,365.5 516.6,365.5 			"/>
			<polygon class="st3" points="517,358.6 497.6,358.6 499,348.1 518.4,348.1 			"/>
		</g>
		<g>
			<polygon class="st3" points="441.8,98.3 340.4,98.3 341.8,88.2 443.1,88.2 			"/>
			<polygon class="st2" points="459.6,115.9 352.8,115.9 354.2,105.4 461,105.4 			"/>
			<polygon class="st2" points="487.5,133.3 363.1,133.3 364.5,122.8 488.9,122.8 			"/>
			<polygon class="st2" points="503.4,150.7 399.6,150.7 401,140.2 504.8,140.2 			"/>
			<polygon class="st3" points="403.8,237.5 321.7,237.5 323.1,227.4 405.2,227.4 			"/>
			<polygon class="st2" points="405.1,255.1 345.1,255.1 346.5,244.5 406.5,244.5 			"/>
			<polygon class="st2" points="426.6,272.5 369.1,272.5 370.5,261.9 428,261.9 			"/>
			<polygon class="st2" points="464.6,289.9 391.9,289.9 393.3,279.3 466,279.3 			"/>
			<polygon class="st3" points="405.7,168.1 332.4,168.1 333.8,157.6 407.2,157.6 			"/>
			<polygon class="st2" points="496.9,185.5 383.6,185.5 385,175 498.3,175 			"/>
			<polygon class="st3" points="402,202.9 328.6,202.9 330,192.3 403.4,192.3 			"/>
			<polygon class="st2" points="493.2,220.3 379.8,220.3 381.2,209.7 494.6,209.7 			"/>
			<polygon class="st3" points="403.6,307.1 312.4,307.1 313.7,296.9 405,296.9 			"/>
			<polygon class="st2" points="462.7,324.7 313.7,324.7 315.1,314.1 464.1,314.1 			"/>
			<polygon class="st2" points="462.2,342.1 376.6,342.1 378.1,331.5 463.6,331.5 			"/>
			<polygon class="st3" points="426.3,376.9 327.8,376.9 329.2,366.3 427.7,366.3 			"/>
			<polygon class="st2" points="479.3,358.1 397.2,358.1 398.6,347.5 480.7,347.5 			"/>
			<polygon class="st2" points="443.2,394.3 365.6,394.3 367,383.7 444.6,383.7 			"/>
		</g>
	</g>
</g>
<g>
	<g>
		<g>
			<g>
				<polygon class="st2" points="855.2,626.4 853.1,646.1 839.9,647.6 839.9,624.3 				"/>
				<path d="M839.9,648.9c-0.3,0-0.6-0.1-0.8-0.3c-0.3-0.2-0.4-0.6-0.4-0.9v-23.4c0-0.4,0.2-0.7,0.4-0.9c0.3-0.2,0.6-0.3,1-0.3
					l15.3,2.1c0.7,0.1,1.1,0.7,1.1,1.4l-2.1,19.7c-0.1,0.6-0.5,1-1.1,1.1l-13.2,1.6C840,648.9,840,648.9,839.9,648.9z M841.1,625.7
					v20.6L852,645l1.8-17.5L841.1,625.7z"/>
			</g>
			<g>
				<g>
					<path class="st3" d="M837.8,682c5.5,0.8,14.6,1.5,25.2,0c3.5-0.5,5.8-3.9,4.9-7.3c-2.3-9.6-6.4-27.7-13.3-36.1l-1.7,4.6
						l-2.4-4.3c-0.3-0.6-0.9-1-1.6-1.1l-5.2-0.7c-1.1-0.1-2.1,0.6-2.3,1.7l-0.8,4l-3.2-5.2l-1.4,19.4c-0.3,4.2-0.9,8.3-1.9,12.3
						l-1.4,6.1C832.4,678.5,834.6,681.5,837.8,682z"/>
					<path d="M850.3,684.1c-5.1,0-9.4-0.4-12.7-0.9l0,0c-3.9-0.5-6.6-4.2-6.1-8.1c0,0,0-0.1,0-0.1l1.4-6.1c0.9-4,1.5-8.1,1.8-12.1
						l1.4-19.4c0-0.5,0.4-1,0.9-1.1c0.5-0.1,1.1,0.1,1.3,0.6l1.5,2.5l0.2-0.9c0.4-1.7,2-2.9,3.7-2.6l5.2,0.7c1.1,0.1,2,0.8,2.5,1.7
						l1.1,2l0.8-2.1c0.2-0.4,0.5-0.7,1-0.8c0.4-0.1,0.9,0.1,1.2,0.4c6.6,8.1,10.6,24.6,13,34.6l0.5,2.1c0.5,2,0.1,4.1-1,5.8
						c-1.1,1.7-2.9,2.8-4.9,3.1C858.6,683.8,854.2,684.1,850.3,684.1z M834,675.5c-0.3,2.5,1.5,4.9,4,5.2l0,0
						c5.6,0.8,14.5,1.4,24.8,0c1.3-0.2,2.5-0.9,3.2-2c0.7-1.1,1-2.5,0.7-3.8l-0.5-2.1c-2.2-9-5.7-23.6-11.2-31.8l-0.9,2.4
						c-0.2,0.5-0.6,0.8-1.1,0.8c-0.5,0-0.9-0.2-1.2-0.6l-2.4-4.3c-0.1-0.2-0.4-0.4-0.6-0.4l-5.2-0.7c-0.4-0.1-0.9,0.2-1,0.7l-0.8,4
						c-0.1,0.5-0.5,0.9-1,1c-0.5,0.1-1-0.1-1.3-0.6l-1.2-1.9l-1.1,15.5c-0.3,4.2-0.9,8.4-1.9,12.5L834,675.5z"/>
				</g>
				<path d="M849.9,678.2c-6.8,0-11-1.5-11.2-1.6c-0.6-0.2-1-0.9-0.7-1.6c0.2-0.6,0.9-1,1.6-0.7c0.1,0,8.8,3,21.5,0.1
					c0.7-0.2,1.3,0.3,1.5,0.9c0.2,0.7-0.3,1.3-0.9,1.5C857.2,677.9,853.2,678.2,849.9,678.2z"/>
				<path d="M856.3,663.1C856.3,663.1,856.3,663.1,856.3,663.1l-12.4-0.4c-0.7,0-1.2-0.6-1.2-1.3c0-0.7,0.6-1.2,1.3-1.2l12.4,0.4
					c0.7,0,1.2,0.6,1.2,1.3C857.5,662.5,857,663.1,856.3,663.1z"/>
			</g>
		</g>
		<g>
			<g>
				<polygon class="st2" points="793.2,615.9 791.2,644.6 775.3,644.6 774.5,615.9 				"/>
				<path d="M791.2,645.9h-15.9c-0.7,0-1.2-0.5-1.2-1.2l-0.7-28.8c0-0.3,0.1-0.7,0.3-0.9c0.2-0.2,0.6-0.4,0.9-0.4h18.7
					c0.3,0,0.7,0.1,0.9,0.4c0.2,0.3,0.4,0.6,0.3,0.9l-2,28.8C792.4,645.4,791.9,645.9,791.2,645.9z M776.5,643.4h13.6l1.8-26.3
					h-16.1L776.5,643.4z"/>
			</g>
			<g>
				<g>
					<path class="st3" d="M795.4,660.9c0,2.7-1.8,5.1-4.4,5.7c-9.2,2.1-29.8,6.9-35.7,7.8c-7.6,1.1-17-1.2-21.1-5.7
						c-4-4.5,9-15.2,15.2-19.1c9.2-5.8,18.1-17.3,21.8-17.8c3.7-0.5,10.6,10.3,10.6,10.3l11.3-4.8
						C793.2,637.3,795.2,647.1,795.4,660.9z"/>
					<path d="M751.3,675.9c-7.1,0-14.5-2.5-18-6.4c-0.9-1-1.2-2.2-1-3.6c0.9-6.3,12.5-14.9,16.5-17.4c4.5-2.8,8.9-7,12.7-10.7
						c4.7-4.4,7.4-7,9.5-7.3c3.8-0.5,9.1,6.7,11.3,10l10.4-4.4c0.3-0.1,0.7-0.1,1.1,0c0.3,0.2,0.6,0.5,0.6,0.8c0,0.1,2,10,2.2,23.8
						l0,0c0,3.3-2.2,6.2-5.4,6.9c-8.8,2.1-29.8,6.9-35.8,7.8C754.1,675.8,752.7,675.9,751.3,675.9z M771.5,633c0,0-0.1,0-0.1,0
						c-1.5,0.2-4.9,3.5-8.2,6.6c-3.9,3.8-8.4,8-13.1,11c-6.1,3.8-14.8,11.4-15.4,15.7c-0.1,0.9,0.2,1.3,0.4,1.6
						c3.6,4,12.6,6.4,20,5.3c5.9-0.9,26.8-5.7,35.6-7.8c2.1-0.5,3.5-2.4,3.5-4.5l0,0c-0.2-10.4-1.3-18.6-1.9-21.8l-9.9,4.2
						c-0.6,0.2-1.2,0-1.5-0.5C777.8,638,773.4,633,771.5,633z"/>
				</g>
				<path d="M751.4,668.9c-5.1,0-9.6-0.8-12.9-3c-0.6-0.4-0.7-1.1-0.4-1.7c0.4-0.6,1.1-0.7,1.7-0.4c11.6,7.6,43-3.8,49.1-6.1
					c0.6-0.2,1.4,0.1,1.6,0.7c0.2,0.6-0.1,1.4-0.7,1.6C783.3,662.5,765.3,668.9,751.4,668.9z"/>
				<path d="M769.1,653.2c-0.3,0-0.6-0.1-0.9-0.4l-6.6-6.5c-0.5-0.5-0.5-1.3,0-1.7c0.5-0.5,1.3-0.5,1.7,0l6.6,6.5
					c0.5,0.5,0.5,1.3,0,1.7C769.7,653.1,769.4,653.2,769.1,653.2z"/>
			</g>
		</g>
		<g>
			<path class="st3" d="M859.7,428.4c0,0,4.9,89.9,7.5,120.9c2.6,31-6,80.9-6,80.9l-24.6-1.3c0,0-1.7-60.7-3.5-77.5
				c0,0-10.4-22.8-13.5-43.2c-3.1-20.4-13.6-52.5-13.6-52.5s-8.5,160.6-9.3,173.2c0,0-19.3,0.9-26.2-3.5c0,0-12.2-58.5-10.5-90.4
				c1.8-31.9-0.2-111-0.2-111L859.7,428.4z"/>
			<path class="st2" d="M845.1,552.7h-7.5c-0.7,0-1.2-0.6-1.2-1.2s0.6-1.2,1.2-1.2h7.5c0.7,0,1.2,0.6,1.2,1.2
				S845.8,552.7,845.1,552.7z"/>
			<path class="st2" d="M784.1,599.4c-0.7,0-1.2-0.5-1.2-1.2c-0.3-14.3-16.7-41.3-16.8-41.6c-0.4-0.6-0.2-1.3,0.4-1.7
				c0.6-0.4,1.3-0.2,1.7,0.4c0.7,1.1,16.9,27.8,17.2,42.8C785.3,598.8,784.8,599.4,784.1,599.4C784.1,599.4,784.1,599.4,784.1,599.4
				z"/>
		</g>
	</g>
	<g>
		<g>
			<path class="st2" d="M744.7,286.2c-1.4-0.1-12.7,19.3-18,28.6c-1.5,2.6-4.9,3.5-7.5,1.9L677.6,291c-3.4-2.1-6.3-4.9-8.5-8.3
				c-3.5-5.3-5.5-10.7-10.2-14.5c-3.8-3.1-7.6-6.5-8.8-7.4c-0.7-0.6-4.1,1.8-1.5,6c0.8,1.3,3.7,3.9,4.5,5.1c1.3,1.9,1.3,4.4-0.1,6.2
				c-1.5,1.9-2.7,5-1.1,9.3c2.5,6.3,8.1,7.9,11.3,8.3c1.6,0.2,3.1,1,4.1,2.2l38.4,44.1c6,6.8,15.9,8.4,23.7,3.7
				c12.5-7.6,28.6-23,40.2-42.5L744.7,286.2z"/>
			<path d="M719.6,349.7c-5.6,0-11-2.3-14.9-6.8l-38.4-44.1c-0.9-1-2.1-1.6-3.3-1.8c-3.4-0.4-9.6-2.1-12.3-9
				c-1.9-4.9-0.4-8.4,1.2-10.5c1.1-1.4,1.1-3.3,0.1-4.8c-0.3-0.5-1.1-1.3-1.9-2.1c-1.1-1.1-2.1-2.2-2.6-3c-2-3.3-1-5.9,0.4-7.2
				c1-0.9,2.1-1.1,2.9-0.5c0.5,0.4,1.4,1.2,2.7,2.3c1.7,1.5,3.9,3.3,6.1,5.1c3.5,2.8,5.5,6.4,7.7,10.2c0.9,1.5,1.8,3.1,2.8,4.6
				c2.1,3.2,4.9,5.9,8.1,7.9l41.7,25.7c1,0.6,2.1,0.8,3.2,0.5c1.1-0.3,2-1,2.6-2c16.9-29.4,18.1-29.3,19.2-29.3
				c0.2,0,0.4,0.1,0.6,0.2l24.8,17.1c0.5,0.4,0.7,1.1,0.4,1.6c-12.5,21-29.2,35.9-40.6,42.9C726.7,348.8,723.2,349.7,719.6,349.7z
				 M649.7,262.2c-0.2,0.1-0.5,0.4-0.7,0.9c-0.4,0.9-0.2,2,0.6,3.3c0.3,0.6,1.4,1.6,2.3,2.6c0.9,0.9,1.7,1.8,2.2,2.5
				c1.6,2.4,1.5,5.5-0.2,7.7c-1.8,2.3-2.1,5-0.9,8.1c2.3,5.7,7.4,7.2,10.3,7.5c1.9,0.2,3.7,1.1,4.9,2.6l38.4,44.1
				c5.6,6.4,14.9,7.8,22.1,3.4c11-6.7,27-21,39.2-41.1l-23.1-16c-1.7,2-6.9,10-17,27.7c-0.9,1.6-2.4,2.7-4.1,3.1
				c-1.7,0.4-3.6,0.2-5.1-0.8l-41.7-25.7c-3.6-2.2-6.6-5.2-8.9-8.6c-1-1.6-2-3.2-2.8-4.7c-2.1-3.6-4-7-7.1-9.5
				c-2.2-1.8-4.5-3.7-6.1-5.1C651,263.3,650.2,262.6,649.7,262.2z"/>
		</g>
		<path d="M887.7,322.4c0,0,2.8-51.2-35.9-65.6c-30-11.1-68.3-6.3-80.3-2.2c-29.5,10.2-44.1,49.3-44.1,49.3l34.6,4.9
			c0,0-10.4,112.2-5.9,137.2c0,0,27.9,3.3,39.7-1.4c11.8-4.7,50.7-11.2,69.2-2.7l-3.4-120L887.7,322.4z"/>
		<path class="st2" d="M839.5,418.3c-0.1,0-0.1,0-0.2,0c-45.4-8.1-58.7-40-58.9-40.3c-0.3-0.6,0.1-1.4,0.7-1.6
			c0.6-0.3,1.4,0.1,1.6,0.7c0.1,0.3,13,30.9,57,38.8c0.7,0.1,1.1,0.8,1,1.4C840.6,417.9,840,418.3,839.5,418.3z"/>
		<g>
			<polygon class="st3" points="756.9,363.6 813.6,363.6 795.8,299.8 739.1,299.8 			"/>
			<path d="M813.6,364.9h-56.7c-0.6,0-1-0.4-1.2-0.9l-17.8-63.8c-0.1-0.4,0-0.8,0.2-1.1c0.2-0.3,0.6-0.5,1-0.5h56.7
				c0.6,0,1,0.4,1.2,0.9l17.8,63.8c0.1,0.4,0,0.8-0.2,1.1C814.3,364.7,814,364.9,813.6,364.9z M757.8,362.4H812l-17.1-61.3h-54.2
				L757.8,362.4z"/>
		</g>
		<g>
			<path class="st2" d="M881,322.4l-24.9-1.1c0,0-0.2,21.1-2.4,21.5c-8,1.3-24.8,1.4-35.7,0.1c-3.8-0.5-6.8-3.4-7.5-7.2
				c-0.5-2.9-2.1-6.2-6-8.6c-3.8-2.3-0.1,5-3.6,9.8c-1.9,2.5-7.9,1.4-16.1-0.5c-8.2-1.9-10.3,6.9-1.1,12.2c10,5.8,16.3,5.1,19.4,5.8
				c6.3,1.3,62.2,10.2,70.8,5.4C880.5,356.1,881,322.4,881,322.4z"/>
			<path d="M863,362.4c-20.1,0-57.1-6.2-60.3-6.8c-0.6-0.1-1.4-0.2-2.3-0.3c-3.5-0.4-9.4-1-17.5-5.6c-6-3.5-7.4-8.3-6.2-11.3
				c1.1-2.8,4.4-4.1,8.2-3.2c5.6,1.3,13.2,3.1,14.8,1c1.5-2,1.5-4.7,1.5-6.7c0-1.8,0-3.1,1.1-3.8c1.1-0.6,2.2,0.1,2.7,0.4
				c3.5,2.2,5.8,5.5,6.6,9.5c0.6,3.3,3.2,5.8,6.5,6.2c10.5,1.3,27,1.3,35.1,0c1-1.8,1.6-11.8,1.7-20.4c0-0.3,0.1-0.7,0.4-0.9
				c0.2-0.2,0.6-0.4,0.9-0.3l24.9,1.1c0.7,0,1.2,0.6,1.2,1.3c0,3.5-0.7,34.6-7.8,38.4C872.5,362,868.4,362.4,863,362.4z
				 M782.5,337.3c-1.7,0-3,0.7-3.5,1.9c-0.8,2.1,0.7,5.6,5.2,8.3c7.6,4.4,12.9,5,16.5,5.3c1,0.1,1.9,0.2,2.6,0.3
				c9.1,1.9,62.1,9.9,70,5.6c4.3-2.3,6.2-22.3,6.5-35.1l-22.5-1c-0.3,20.9-2.5,21.3-3.5,21.4c-8.2,1.4-25.1,1.4-36.1,0.1
				c-4.3-0.5-7.8-3.8-8.6-8.2c-0.6-3.4-2.5-6-5.4-7.8c0,0.4,0,0.9,0,1.2c0,2.2,0,5.5-1.9,8.2c-2.4,3.2-8.4,2.1-17.4,0
				C783.7,337.4,783.1,337.3,782.5,337.3z"/>
		</g>
	</g>
	<g>
		<g>
			<g>
				<path class="st2" d="M795.1,255.5c0,0,6.5-4,6.4-6.3l1.8-11.9c0-1.1-0.7-2.1-1.7-2.4l-7.6-2.6c-1-0.3-1.6-1.3-1.5-2.3l0.6-9.5
					l-3-2.7c-0.2-0.2-0.3-0.6-0.1-0.8l4.7-5.8c1.5-2.2,3.1-7.4,4.4-7c0,0,26.9-3.1,28.3,10.5c0.2,2-0.4,3.9-1.5,5.5l-2.4,3.4
					c-2.4,3.4-3.7,7.5-3.2,11.7c0.1,0.9,1.2,6.4,2,10.1c0.4,2.1,1.6,3.9,3.3,5.2c2.1,1.6,4.7,3.7,4.2,3.8c0,0-3,2.2-7.7,4.1
					c-8.4,3.4-17.9,2.6-25.6-2.1L795.1,255.5z"/>
				<path d="M811.4,261.7c-5.4,0-10.8-1.5-15.6-4.4l-1.3-0.8c-0.4-0.2-0.6-0.6-0.6-1.1c0-0.4,0.2-0.8,0.6-1.1c3-1.9,5.8-4.4,5.8-5.2
					c0-0.1,0-0.1,0-0.2l1.8-11.8c0-0.5-0.4-1-0.8-1.2l-7.6-2.6c-1.5-0.5-2.5-2-2.4-3.6l0.6-8.9l-2.5-2.3c-0.7-0.7-0.8-1.8-0.2-2.5
					l4.7-5.7c0.5-0.7,1.1-1.9,1.6-3.1c1.2-2.6,2.2-4.7,3.8-4.4c2-0.2,18-1.7,25.5,4.4c2.3,1.9,3.6,4.3,3.9,7.2
					c0.2,2.2-0.4,4.5-1.8,6.4l-2.4,3.4c-2.3,3.3-3.4,7.1-3,10.8c0,0.3,0.3,1.8,1.9,9.9c0.4,1.8,1.4,3.4,2.8,4.5c5,3.8,4.9,4.2,4.8,5
					c-0.1,0.3-0.3,0.6-0.5,0.8l0,0c-0.1,0.1-3.2,2.3-8,4.3C818.9,261,815.1,261.7,811.4,261.7z M797.4,255.5
					c7.4,4.3,16.3,5,24.1,1.8c2.9-1.2,5.1-2.5,6.3-3.3c-0.6-0.5-1.5-1.3-3.2-2.6c-1.9-1.5-3.2-3.6-3.7-5.9c-1.2-6.1-1.9-9.5-2-10.2
					c-0.4-4.3,0.8-8.7,3.5-12.5l2.4-3.4c1-1.4,1.5-3.1,1.3-4.7c-0.2-2.2-1.2-4-3-5.5c-7.1-5.7-23.7-3.9-23.9-3.9c0,0,0,0,0,0
					c-0.4,0.5-1.1,2-1.6,3c-0.6,1.3-1.2,2.6-1.9,3.5c0,0,0,0-0.1,0.1l-4.3,5.3l2.5,2.2c0.3,0.3,0.4,0.6,0.4,1l-0.6,9.5
					c0,0.5,0.3,0.9,0.7,1.1l7.6,2.6c1.5,0.5,2.5,2,2.5,3.6c0,0.1,0,0.1,0,0.2l-1.8,11.8C802.7,251.4,799.7,253.9,797.4,255.5z"/>
			</g>
			<path d="M798.2,183.5c6.1-0.3-1.6,6,21.1-0.5c9.1-2.6,4.4,8,6.8,7.4c8.7-2.5,8.4-2.4,12.6-1.2c2.8,0.8,4.6,6,4,9.9
				c-0.7,5.1-6.5,13.3-11.7,21.9c-2.7,4.5-7.4,4.9-13.1-1.8c-0.6-0.7,2.5-4.9,0.9-6.7c-4.2-4.7-6.1,2.4-9.5,0.2
				c-3.3-2.1-4.6-3.4-8.1-6.6c-4.2-3.8-11.2,2.1-13.6-6.5C786.3,195,789.8,183.9,798.2,183.5z"/>
		</g>
	</g>
</g>
<g>
	<g>
		<g>
			<g>
				<g>
					<path class="st2" d="M597.2,654.1c0,0,1.9,0,3.7-1.3c5.6-4,17.2-12.8,25.1-11.7c13.3,1.8,14.8,12.7,14.8,12.7s11.2-0.4,11,7
						c-0.2,5.7-3.4,13-12.5,17c-12.3,5.4-24.7,9.6-38.3,0.7c-2.6-1.7-5.8-2.5-8.9-2.2c-7.7,0.8-121.8,3.2-121.8,3.2
						c-26.1,0-50-14.5-62.2-37.6L384.1,596l27.6-77l43.2,100.4C475.8,647.9,595,654.6,597.2,654.1z"/>
					<path d="M617.6,684.9c-5.6,0-11.3-1.5-17.3-5.4c-2.4-1.6-5.3-2.3-8.1-2c-7.6,0.8-117.2,3.1-121.9,3.2
						c-26.7,0-50.9-14.7-63.3-38.3L383,596.5c-0.2-0.3-0.2-0.7-0.1-1l27.6-77c0.2-0.5,0.6-0.8,1.1-0.8c0.5,0,1,0.3,1.2,0.7
						l43.2,100.3c20.2,27.2,135.9,34.6,141.1,34.1c0.1,0,0.1,0,0.2,0c0,0,1.5,0,3-1l1.3-0.9c6.3-4.5,16.8-12.1,24.7-11
						c11.5,1.6,14.8,9.7,15.6,12.7c2,0.1,6.6,0.5,9.2,3.1c1.4,1.4,2,3.1,2,5.1c-0.1,2.9-1.3,12.8-13.2,18
						C632.7,682,625.3,684.9,617.6,684.9z M593.4,674.9c2.9,0,5.8,0.9,8.3,2.5c13.2,8.6,25.1,4.6,37.1-0.8
						c10.6-4.7,11.6-13.3,11.7-15.9c0-1.4-0.4-2.4-1.2-3.3c-2.2-2.2-6.8-2.5-8.4-2.4c-0.6,0-1.2-0.4-1.3-1.1
						c-0.1-0.4-1.6-9.9-13.8-11.6c-6.9-1-17.3,6.5-22.9,10.5l-1.3,0.9c-2.1,1.5-4.2,1.5-4.4,1.5c-3.5,0.2-33.3-1.6-64.4-6.5
						c-43.5-6.9-70.1-16.6-79-28.8c-0.1-0.1-0.1-0.2-0.1-0.2l-42-97.5l-26.3,73.5l23.8,45.4c11.9,22.8,35.3,36.9,61.1,36.9
						c1.1,0,114.1-2.5,121.6-3.2C592.4,674.9,592.9,674.9,593.4,674.9z M597.2,654.1L597.2,654.1L597.2,654.1z"/>
				</g>
				<g>
					<g>
						<path class="st2" d="M567.2,633.5l11-19.3l9.1,5.9c0.5,0.3,0.9,0.8,1.2,1.3l0.5,0.9c0.7,1.2,1.9,1.9,3.3,1.9l0,0
							c0.7,0,1.4,0.2,2.1,0.6l67.4,43.6c0.6,0.4,1.1,0.8,1.5,1.3l13.6,15.1l-18.9-4.3c-1-0.2-2-0.6-3-1.1l-70.9-37.1
							c-0.6-0.3-1.1-0.8-1.5-1.4l-0.1-0.1c-0.7-1.1-1.9-1.8-3.2-1.8l-0.7,0c-0.6,0-1.2-0.1-1.7-0.4L567.2,633.5z"/>
						<path d="M676.9,685.9c-0.1,0-0.2,0-0.3,0l-19-4.3c-1.1-0.3-2.2-0.7-3.3-1.2l-70.9-37.1c-0.8-0.4-1.5-1-2-1.8l-0.1-0.1
							c-0.5-0.7-1.3-1.2-2.1-1.2c0,0,0,0,0,0l-0.7,0c-0.8,0-1.6-0.2-2.3-0.6l-9.7-5.1c-0.3-0.2-0.5-0.4-0.6-0.7
							c-0.1-0.3-0.1-0.7,0.1-1l11-19.3c0.2-0.3,0.5-0.5,0.8-0.6c0.3-0.1,0.7,0,1,0.2l9.1,5.9c0.7,0.4,1.2,1,1.6,1.7l0.5,0.9
							c0.5,0.8,1.3,1.3,2.2,1.3c0,0,0.1,0,0.1,0c1,0,1.9,0.3,2.7,0.8l67.4,43.6c0.6,0.4,1.2,0.9,1.8,1.5l13.6,15.1
							c0.4,0.4,0.4,1,0.1,1.5C677.8,685.7,677.4,685.9,676.9,685.9z M579.4,637.7c1.7,0,3.3,0.9,4.2,2.4l0.1,0.1
							c0.2,0.4,0.6,0.7,1,0.9l70.9,37.1c0.8,0.4,1.7,0.8,2.7,1l15.2,3.4l-11-12.2c-0.4-0.4-0.8-0.8-1.3-1.1l-67.4-43.6
							c-0.4-0.3-0.9-0.4-1.3-0.4c0,0-0.1,0-0.1,0c-1.8,0-3.4-1-4.3-2.5l-0.5-0.9c-0.2-0.3-0.5-0.6-0.8-0.9l-8-5.2L569,633l8.6,4.5
							c0.4,0.2,0.8,0.3,1.2,0.3L579.4,637.7C579.4,637.7,579.4,637.7,579.4,637.7z"/>
					</g>
					<path d="M658.4,678.1c-0.2,0-0.4,0-0.6-0.1c-0.6-0.3-0.8-1.1-0.5-1.7l4-7.8c0.3-0.6,1.1-0.8,1.7-0.5c0.6,0.3,0.8,1.1,0.5,1.7
						l-4,7.8C659.3,677.9,658.9,678.1,658.4,678.1z"/>
					<g>
						<path class="st4" d="M562.6,604.6l16.1,9.7l-11.3,19.3l-16.1-9.7c-2.9-1.8-3.9-5.6-2.3-8.5l5.2-8.8
							C555.9,603.7,559.6,602.8,562.6,604.6z"/>
						<path class="st3" d="M567.3,634.8c-0.2,0-0.4-0.1-0.6-0.2l-16.1-9.7c-3.5-2.1-4.7-6.7-2.7-10.1l5.2-8.8c1-1.7,2.5-2.8,4.4-3.3
							c1.9-0.5,4-0.2,5.7,0.9c0,0,0,0,0,0l16.1,9.7c0.6,0.3,0.8,1.1,0.4,1.7l-11.3,19.3c-0.2,0.3-0.4,0.5-0.8,0.6
							C567.5,634.8,567.4,634.8,567.3,634.8z M559.4,604.9c-0.4,0-0.8,0-1.2,0.2c-1.2,0.3-2.3,1.1-2.9,2.2l-5.2,8.8
							c-1.4,2.3-0.5,5.3,1.8,6.8l15,9.1l10.1-17.2l-15-9.1h0C561.1,605.1,560.3,604.9,559.4,604.9z"/>
					</g>
					<path d="M583.1,637.4c-0.2,0-0.4-0.1-0.6-0.2c-0.6-0.4-0.8-1.1-0.4-1.7l5.5-9.1c0.4-0.6,1.1-0.8,1.7-0.4
						c0.6,0.4,0.8,1.1,0.4,1.7l-5.5,9.1C584,637.2,583.5,637.4,583.1,637.4z"/>
					<path d="M615.4,645.1c-0.2,0-0.5-0.1-0.7-0.2l-20.1-12.6c-0.6-0.4-0.8-1.1-0.4-1.7c0.4-0.6,1.1-0.8,1.7-0.4l20.1,12.6
						c0.6,0.4,0.8,1.1,0.4,1.7C616.2,644.9,615.8,645.1,615.4,645.1z"/>
					<path d="M657.3,671.1c-0.2,0-0.4-0.1-0.7-0.2l-7.9-4.9c-0.6-0.4-0.8-1.1-0.4-1.7c0.4-0.6,1.1-0.8,1.7-0.4l7.9,4.9
						c0.6,0.4,0.8,1.1,0.4,1.7C658.1,670.9,657.7,671.1,657.3,671.1z"/>
					<path class="st2" d="M565.5,627c-0.2,0-0.4-0.1-0.6-0.2l-12.2-7.5c-0.6-0.4-0.8-1.1-0.4-1.7c0.4-0.6,1.1-0.8,1.7-0.4l12.2,7.5
						c0.6,0.4,0.8,1.1,0.4,1.7C566.3,626.8,565.9,627,565.5,627z"/>
				</g>
				<path class="st2" d="M597.2,654.1c0,0,16.4-2,26.9-0.6c8.2,1.1,32.3-4.7,27.3,11c-1.1,3.4-1.7,5.6-4.6,8.8
					c-1.6,1.7-6.1,5.3-8.6,6.4c-12.3,5.4-23.5,7.7-37.1-1.2c-2.6-1.7-5.8-2.5-8.9-2.2C590.3,676.4,596.7,654.2,597.2,654.1z"/>
				<path d="M619.3,685.7c-6.1,0-12.3-1.8-19-6.2c-2.4-1.6-5.3-2.3-8.1-2c-2,0.2-8.5,0.4-8.7,0.4c-0.7,0-1.3-0.5-1.3-1.2
					c0-0.7,0.5-1.3,1.2-1.3c0.1,0,6.6-0.2,8.6-0.4c3.4-0.3,6.8,0.5,9.7,2.4c12.9,8.5,23.3,6.7,36,1.1c2.3-1,6.6-4.5,8.2-6.1
					c2.6-2.8,3.2-4.7,4.2-7.6l0.2-0.7c0.9-2.8,0.8-4.8-0.2-6.1c-2.3-3.1-9.5-2.9-15.8-2.7c-4.1,0.1-7.9,0.2-10.4-0.6
					c-12.3-3.8-26,0.5-26.2,0.6c0,0-0.1,0-0.1,0c-0.6,0.1-1.9,0.1-6.7-0.2c-0.7,0-1.2-0.6-1.1-1.3c0-0.7,0.7-1.2,1.3-1.1
					c4.3,0.3,5.6,0.3,6,0.2c1.3-0.4,14.9-4.5,27.6-0.6c2.1,0.7,5.8,0.6,9.6,0.4c6.9-0.2,14.8-0.4,17.9,3.7c1.5,2,1.7,4.8,0.6,8.4
					l-0.2,0.7c-1,3-1.7,5.4-4.7,8.6c-1.8,1.9-6.3,5.5-9,6.7C631.9,683.7,625.7,685.7,619.3,685.7z"/>
			</g>
			<path class="st3" d="M344.4,465c0,0,50.6,6.7,67.5,27.2c21.3,26,30.5,64.5,33.5,81.2c0.9,4.9,0.8,9.9-0.3,14.8l-1.2,5.6
				c-4.4,19.6-22.3,33.3-42.4,32.2l1,0c-3.2-0.2-8-1.2-9.4-4.2l-5.3-9.7l-0.5,3.5c-4,25.8,16.9,61.2,16.9,61.2l-59.9-8.1
				c-30.8-3.1-60.1-15.2-83.5-35.3c-12.8-10.9-22.6-21.1-26.9-33.5c-7.2-21.1-6.6-27.1-8.6-52.6c-1.4-17.4,3.7-34.8,14.6-48.4
				C255.8,478.7,286.7,457.7,344.4,465z"/>
			<path class="st5" d="M391.1,622.4c-0.5,0-0.9-0.3-1.1-0.7l-14.2-29.8c-0.3-0.6,0-1.4,0.6-1.6c0.6-0.3,1.4,0,1.6,0.6l14.2,29.8
				c0.3,0.6,0,1.4-0.6,1.6C391.5,622.4,391.3,622.4,391.1,622.4z"/>
		</g>
		<g>
			<path d="M352.3,363.6l3.7-2.5c3-2,4.2-5.8,3-9.1c-3.7-10.1-17.4-27.7-66.9-14.3c-50.5,13.6-41.6,94.7,1.4,112
				c43,17.3,57.7-71.7,57.7-71.7L352.3,363.6z"/>
			<g>
				<path class="st2" d="M346.1,365.5c0.6-3.1,4.7-3.8,6.2-1c3.8,6.6,5.6,11.3,6.2,14.1c0.8,3.8-2.7,7.6-0.8,11.6
					c1.9,4.1,4.9,8.7,5.1,16c0.3,7.1,7.5,39.9-17.9,38.8c-1,0-1.8,0.7-1.8,1.7c0.1,5,0.3,18.7,1.4,26.1c0.6,4-1.9,7.9-5.8,9
					c-10.2,2.9-29.1,6.9-43.3,2.3c-3.7-1.2-5.6-5.2-4.3-8.9c1.7-4.7,4-17.7,2.5-25.5c0,0,8.5-0.8,17.9-5.2
					c14.5-6.7,21.7-22.9,17.7-38.4c-0.9-3.3-2.7-8.1-0.8-13.1c5-12.9,12.5,0.1,12.5,0.1L346.1,365.5z"/>
				<path d="M310.4,487.4c-5.3,0-10.6-0.6-15.3-2.1c-2.1-0.7-3.8-2.1-4.7-4.1c-1-2-1.1-4.3-0.3-6.4c1.6-4.5,3.9-17.3,2.4-24.9
					l-0.3-1.3l1.4-0.1c0.1,0,8.4-0.9,17.6-5.1c13.8-6.3,20.9-21.9,17-37c-0.1-0.4-0.2-0.9-0.4-1.4c-0.9-3.3-2.2-7.7-0.4-12.4
					c1.6-4.1,3.7-6.3,6.2-6.5c2.8-0.2,5.2,2,6.8,3.9l4.6-24.8c0.4-1.9,1.8-3.4,3.8-3.7c1.9-0.3,3.8,0.6,4.8,2.3
					c4.3,7.5,5.8,12,6.3,14.4c0.4,2-0.1,3.8-0.6,5.6c-0.6,2-1.1,3.9-0.3,5.7c0.3,0.7,0.7,1.3,1,2.1c1.8,3.6,4,8,4.3,14.4
					c0,0.9,0.2,2.2,0.3,3.7c0.9,8.1,2.6,23.3-4.9,31.3c-3.4,3.7-8.3,5.4-14.6,5.1c-0.2,0-0.3,0.1-0.4,0.1c-0.1,0.1-0.1,0.2-0.1,0.3
					c0.1,5.4,0.3,18.7,1.4,25.9c0.7,4.6-2.2,9.1-6.7,10.4C332.2,484.9,321.2,487.4,310.4,487.4z M295,450.7
					c1.1,8.2-1.1,20.3-2.8,24.9c-0.5,1.5-0.4,3,0.2,4.4c0.7,1.4,1.8,2.4,3.3,2.9c13.9,4.5,32.7,0.5,42.6-2.3c3.3-0.9,5.5-4.2,5-7.6
					c-1.1-7.4-1.4-20.8-1.4-26.3c0-0.8,0.3-1.6,0.9-2.2c0.6-0.6,1.4-0.9,2.2-0.8c5.5,0.2,9.8-1.2,12.7-4.3
					c6.7-7.2,5.1-21.6,4.3-29.3c-0.2-1.6-0.3-2.9-0.4-3.9c-0.2-5.8-2.2-9.8-4-13.4c-0.4-0.7-0.7-1.4-1-2.1c-1.3-2.7-0.5-5.2,0.1-7.5
					c0.5-1.6,0.9-3.1,0.6-4.4c-0.4-1.9-1.7-6.1-6.1-13.7c-0.5-1-1.5-1.2-2.2-1.1c-0.7,0.1-1.5,0.6-1.7,1.7v0l-5.8,30.9l-1.7-2.9
					c-0.8-1.4-3.7-5.4-6.2-5.2c-1.9,0.1-3.3,2.8-4.1,4.9c-1.5,4-0.4,7.8,0.4,10.9c0.1,0.5,0.3,1,0.4,1.4c4.2,16.3-3.5,33-18.4,39.8
					C304.6,449,297.8,450.3,295,450.7z"/>
			</g>
			<path d="M271.8,354.1c0,0-24.9-11.9-42.9,5.1c-18.1,16.9-35.6,54.2-8.5,94.9c17,25.6,23.6,45.8,26.1,57.3
				c0.8,3.8,5.9,4.8,8.1,1.5c10.9-16.4,30.8-52.5,21.2-86.5C262.8,380.6,271.8,354.1,271.8,354.1z"/>
			<path d="M363.6,403.1l-1.3-2.1c7.6-4.6,3-17.3,1.4-21.2L341,391.4l-1.1-2.2l25-12.8l0.5,1.1C365.8,378.3,374.5,396.6,363.6,403.1
				z"/>
			<path d="M363.6,412.8c-0.3,0-0.6-0.1-0.9-0.4c-0.5-0.5-0.5-1.3,0-1.7l3.3-3.2c0.8-0.8,1-2.2,0.3-3.1l-2.2-3.1
				c-0.4-0.6-0.3-1.3,0.3-1.7c0.6-0.4,1.3-0.3,1.7,0.3l2.2,3.1c1.4,2,1.2,4.6-0.5,6.3l-3.3,3.2C364.2,412.7,363.9,412.8,363.6,412.8
				z"/>
			<path d="M337.4,415.6c-0.6,0-1.2-0.1-1.8-0.2c-2.9-0.7-5.4-3.2-7.5-7.4c-0.3-0.6,0-1.4,0.6-1.6c0.6-0.3,1.4,0,1.6,0.6
				c1.7,3.5,3.6,5.5,5.8,6c2.3,0.6,4.1-0.7,4.2-0.7c0.6-0.4,1.3-0.3,1.7,0.3c0.4,0.5,0.3,1.3-0.3,1.7
				C341.7,414.3,339.9,415.6,337.4,415.6z"/>
			<g>
				<path class="st2" d="M265.5,351.8c0,0,23.1,7,13.6,29.1c0,0,10.7-7.7,10.4-19.7c-0.3-12-9.2-15.9-15.1-15.8
					C268.5,345.5,265.5,351.8,265.5,351.8z"/>
				<path d="M276.3,384.5l1.7-4.1c2.6-6.2,2.9-11.7,0.7-16.4c-3.7-8-13.5-11.1-13.6-11.1l-1.4-0.4l0.6-1.3c0.1-0.3,3.4-7,10-7.1
					c3.8-0.1,7.6,1.2,10.5,3.6c2.6,2.1,5.7,6.2,5.9,13.4c0.3,12.5-10.5,20.4-10.9,20.8L276.3,384.5z M267.4,351.2
					c3.1,1.2,10.3,4.7,13.6,11.9c1.9,4.1,2.2,8.7,1,13.6c2.9-3.2,6.6-8.6,6.4-15.4c-0.1-5-1.8-8.9-5-11.5c-2.4-2-5.7-3.1-8.9-3.1
					C270.9,346.7,268.5,349.5,267.4,351.2z"/>
			</g>
		</g>
	</g>
	<g>
		<path class="st2" d="M221.5,541.2c19.1,11.5,57.8,27.9,120.2,24.1c4.6-0.3,8.8,2.4,10.4,6.7l3.9,15.6
			c6.8,27.4,19.7,52.9,37.7,74.7l9.3,11.3c1.4,1.7,0.1,4.4-2.2,4.2l-41.1-3c-70.6-9.3-125.5-44.8-143.1-109.3l-4.7-17.2
			C210.5,542.7,216.5,538.2,221.5,541.2z"/>
		<path d="M401.6,679.1c-0.1,0-0.2,0-0.3,0l-9.7-0.7c-0.7-0.1-1.2-0.6-1.1-1.3c0-0.7,0.6-1.2,1.3-1.1l9.7,0.7c0.7,0.1,1-0.4,1.1-0.6
			s0.3-0.7-0.1-1.2l-9.7-11.7c-18-21.8-31.1-47.8-37.9-75.2l-3.9-15.5c-1.4-3.8-5.1-6.1-9.2-5.9c-63.8,3.9-103.2-13.6-120.9-24.3
			c-2.2-1.3-4.5-0.7-5.8,0.3c-1.3,1-2.5,3-1.9,5.5l4.7,17.2c15.6,57,62.5,95,132.3,106.9c0.7,0.1,1.1,0.8,1,1.4
			c-0.1,0.7-0.8,1.1-1.4,1c-34.2-5.8-63-17.7-85.6-35.3c-24.1-18.7-40.5-43.4-48.7-73.4l-4.7-17.2c-0.8-3.1,0.2-6.2,2.8-8.1
			c2.6-1.9,5.8-2.1,8.6-0.4c17.5,10.6,56.4,27.8,119.5,24c5.2-0.3,9.9,2.7,11.7,7.5c0,0,0,0.1,0,0.1l3.9,15.6
			c6.8,27,19.7,52.7,37.4,74.2l9.7,11.7c0.9,1.1,1.1,2.6,0.4,3.9C404.2,678.4,403,679.1,401.6,679.1z"/>
	</g>
</g>
<g>
	<g>
		<path class="st2" d="M627.4,94.1h119.5c6.8,0,11.9,6.8,11.9,15.1v42.6c0,8.3-5.2,15.1-11.9,15.1l0,0c-0.1,0-1.9,0-4.3,0v28.4
			l-15.7-28.4c-22.8,0-99.4,0-99.4,0c-6.8,0-12.6-6.7-12.6-15.1v-42.6C614.8,100.9,620.6,94.1,627.4,94.1z"/>
		<path d="M742.5,196.7c-0.4,0-0.7-0.2-0.9-0.6l-15.4-27.9h-98.9c-7.4,0-13.6-7.5-13.6-16.4v-42.6c0-8.9,6.2-16.5,13.6-16.5h119.5
			c7.3,0,13,7.2,13,16.5v42.6c0,9.2-5.7,16.4-13,16.4h-3.2v27.1c0,0.6-0.3,1.1-0.8,1.3C742.7,196.7,742.6,196.7,742.5,196.7z
			 M627.4,95.5c-6.2,0-11.5,6.3-11.5,13.8v42.6c0,7.4,5.3,13.7,11.5,13.7h99.4c0.4,0,0.7,0.2,0.9,0.6l13.7,24.8v-24.1
			c0-0.7,0.5-1.3,1.1-1.3h4.3c6.1,0,10.8-6,10.8-13.7v-42.6c0-7.7-4.8-13.8-10.8-13.8H627.4z"/>
	</g>
	<g class="st6">
		<defs>
			<path id="SVGID_1_" class="st6" d="M707.1,108.2c-5.4,0-10.3,2.2-14,5.9c0,0,0,0,0,0c0,0,0,0,0,0c-0.8,0.7-1.4,1.5-2.1,2.4
				c-8,9.3-9.2,13.1-14.9,19c-0.3,0.3-0.5,0.6-0.8,0.8c-0.3,0.3-0.6,0.6-1,0.9c-1.5,1.3-3.9,2.7-7.3,2.7c-6.1,0-9.4-6-9.4-10.4
				c0-4.2,2.7-10,8.7-10c6.1,0,9.8,5,10,5.2l-0.1-0.1l1.8,2.2l7.1-8.9c-0.3-0.4-7.1-9.8-18.8-9.8c-5.8,0-11,2.5-14.7,7.1
				c-3.2,3.9-5,9.2-5,14.3c0,5.2,1.9,10.5,5.3,14.5c3.9,4.7,9.3,7.3,15.2,7.3c7.8,0,13.4-4,16.5-7.5c0,0,0,0,0,0
				c7.4-8.2,13-16.3,13-16.3l2.5-3.1l0,0c1.7-2.9,4.7-4.8,8.1-4.8c5.3,0,9.7,4.8,9.7,10.4s-4.4,10-9.7,10c-4.8,0-8.9-3.8-9.5-8.6
				l-8,10c3.7,6,10.1,10,17.5,10c11.5,0,20.7-9.6,20.7-21.4S718.6,108.2,707.1,108.2z"/>
		</defs>
		<clipPath id="SVGID_00000182530329781072751910000014671246091097584565_">
			<use xlink:href="#SVGID_1_"  style="overflow:visible;"/>
		</clipPath>
		<g style="clip-path:url(#SVGID_00000182530329781072751910000014671246091097584565_);enable-background:new    ;">
			<g>
				<defs>
					<rect id="SVGID_00000136398661214785228230000003686705290237377411_" x="646.5" y="107.9" width="81.6" height="43.5"/>
				</defs>
				<clipPath id="SVGID_00000147193661812518503100000009377823322538186938_">
					<use xlink:href="#SVGID_00000136398661214785228230000003686705290237377411_"  style="overflow:visible;"/>
				</clipPath>
				<g style="clip-path:url(#SVGID_00000147193661812518503100000009377823322538186938_);">
					<defs>
						<path id="SVGID_00000090287302247694084790000010465816465120243343_" d="M707.1,108.2c-5.4,0-10.3,2.2-14,5.9c0,0,0,0,0,0
							c0,0,0,0,0,0c-0.8,0.7-1.4,1.5-2.1,2.4c-8,9.3-9.2,13.1-14.9,19c-0.3,0.3-0.5,0.6-0.8,0.8c-0.3,0.3-0.6,0.6-1,0.9
							c-1.5,1.3-3.9,2.7-7.3,2.7c-6.1,0-9.4-6-9.4-10.4c0-4.2,2.7-10,8.7-10c6.1,0,9.8,5,10,5.2l-0.1-0.1l1.8,2.2l7.1-8.9
							c-0.3-0.4-7.1-9.8-18.8-9.8c-5.8,0-11,2.5-14.7,7.1c-3.2,3.9-5,9.2-5,14.3c0,5.2,1.9,10.5,5.3,14.5c3.9,4.7,9.3,7.3,15.2,7.3
							c7.8,0,13.4-4,16.5-7.5c0,0,0,0,0,0c7.4-8.2,13-16.3,13-16.3l2.5-3.1l0,0c1.7-2.9,4.7-4.8,8.1-4.8c5.3,0,9.7,4.8,9.7,10.4
							s-4.4,10-9.7,10c-4.8,0-8.9-3.8-9.5-8.6l-8,10c3.7,6,10.1,10,17.5,10c11.5,0,20.7-9.6,20.7-21.4S718.6,108.2,707.1,108.2z"/>
					</defs>
					<clipPath id="SVGID_00000142178193404377198890000002782705351489911480_">
						<use xlink:href="#SVGID_00000090287302247694084790000010465816465120243343_"  style="overflow:visible;"/>
					</clipPath>
					<g style="clip-path:url(#SVGID_00000142178193404377198890000002782705351489911480_);">
						<defs>
							<rect id="SVGID_00000046338537352392115760000000020207999622358933_" x="646.5" y="107.9" width="81.6" height="43.5"/>
						</defs>
						<clipPath id="SVGID_00000031197910383274136850000018058493886923216304_">
							<use xlink:href="#SVGID_00000046338537352392115760000000020207999622358933_"  style="overflow:visible;"/>
						</clipPath>
						
							<rect x="644.5" y="106.2" style="clip-path:url(#SVGID_00000031197910383274136850000018058493886923216304_);fill:#008080;" width="85.4" height="47.3"/>
					</g>
				</g>
			</g>
		</g>
	</g>
</g>
<g class="st11">
	<g>
		<path class="st12" d="M639.4,614.1c-0.5,0-0.9-0.3-1.1-0.7c-0.3-0.6,0-1.4,0.6-1.6c42.4-18.8,80.9-49.2,111.3-88.1
			c0.4-0.5,1.2-0.6,1.7-0.2c0.5,0.4,0.6,1.2,0.2,1.7c-30.6,39.1-69.4,69.8-112.2,88.8C639.8,614.1,639.6,614.1,639.4,614.1z"/>
		<path class="st12" d="M635.4,635.8c-0.5,0-1-0.3-1.2-0.8c-0.2-0.6,0.1-1.4,0.7-1.6c40.8-15.8,77.4-40.9,108.7-74.6
			c0.5-0.5,1.2-0.5,1.7-0.1c0.5,0.5,0.5,1.2,0.1,1.7c-31.6,34-68.4,59.3-109.6,75.2C635.7,635.8,635.5,635.8,635.4,635.8z"/>
	</g>
	<g>
		<path class="st13" d="M455.3,38.2c-0.6,0-1.1-0.4-1.2-1c-0.2-0.7,0.3-1.3,0.9-1.5c42.6-9.8,84.8-10.5,125.4-2
			c0.7,0.1,1.1,0.8,1,1.5c-0.1,0.7-0.8,1.1-1.5,1c-40.3-8.4-82.1-7.8-124.4,1.9C455.5,38.2,455.4,38.2,455.3,38.2z"/>
	</g>
	<path d="M609.9,20.6L609.9,20.6L609.9,20.6z"/>
</g>
</svg>
