<?xml version="1.0" encoding="utf-8"?>
<!-- Generator: Adobe Illustrator 26.0.1, SVG Export Plug-In . SVG Version: 6.00 Build 0)  -->
<svg version="1.1" id="Layer_2_00000065065650894315701050000016811216408004786053_"
	 xmlns="http://www.w3.org/2000/svg" xmlns:xlink="http://www.w3.org/1999/xlink" x="0px" y="0px" viewBox="0 0 700 700"
	 style="enable-background:new 0 0 700 700;" xml:space="preserve">
<style type="text/css">
	.st0{opacity:0.4;fill:#008080;enable-background:new    ;}
	.st1{fill:#FFFFFF;}
	.st2{fill:#008080;}
	.st3{opacity:0.7;fill:#008080;enable-background:new    ;}
	.st4{fill:#CADDFF;}
	.st5{fill:#99B9FF;}
	.st6{opacity:0.91;fill:#FFFFFF;enable-background:new    ;}
	.st7{opacity:0.82;}
	.st8{clip-path:url(#SVGID_00000147906343205815941690000007899152951003776697_);enable-background:new    ;}
	.st9{clip-path:url(#SVGID_00000078039849051489286080000004777313485156011183_);}
	.st10{clip-path:url(#SVGID_00000099647690399775479380000016107286706593172890_);}
	.st11{clip-path:url(#SVGID_00000140723131107542303530000017881959659851386535_);fill:#008080;}
</style>
<g>
	<g>
		<path class="st0" d="M151.1,31.7c142.1-78.6,332.4,3.1,431.6,93.5c28.4,25.8,97,90.4,113.2,193.7
			c20.2,128.4-45.8,284.1-197.1,350.7c-164.6,72.5-348.8,3.8-434.9-107.7C-16.7,457.6-0.5,334.8,5.3,291
			C12.1,239.6,32.1,97.5,151.1,31.7z"/>
		<g>
			<path d="M38.4,371.3c-5.1,0-9.3-4.2-9.3-9.3s4.2-9.3,9.3-9.3c0.6,0,1.3,0.5,1.3,1.3c0,0.6-0.5,1.3-1.3,1.3
				c-3.7,0-6.8,3.1-6.8,6.8s3.1,6.8,6.8,6.8s6.8-3.1,6.8-6.8c0-0.6,0.5-1.3,1.3-1.3s1.3,0.5,1.3,1.3
				C47.7,367.1,43.5,371.3,38.4,371.3z"/>
			<g>
				<path class="st1" d="M227.9,45.1L167.7,2.1L227.9,45.1z"/>
				<path d="M227.9,46.4c-0.3,0-0.5-0.1-0.8-0.3L167,3.2c-0.5-0.4-0.6-1.2-0.3-1.8c0.4-0.5,1.2-0.6,1.8-0.3l60.2,42.9
					c0.5,0.4,0.6,1.2,0.3,1.8C228.7,46.2,228.3,46.4,227.9,46.4z"/>
			</g>
			<g>
				<path class="st1" d="M509.3,291.6L466.9,258L509.3,291.6z"/>
				<path d="M509.3,292.7c-0.3,0-0.5-0.1-0.8-0.3l-42.4-33.6c-0.5-0.4-0.6-1.3-0.3-1.8c0.4-0.5,1.3-0.6,1.8-0.3l42.4,33.6
					c0.5,0.4,0.6,1.3,0.3,1.8C510.1,292.6,509.7,292.7,509.3,292.7z"/>
			</g>
			<g>
				<path class="st1" d="M255.9,39.8l-31.7-22.6L255.9,39.8z"/>
				<path d="M255.9,41.1c-0.3,0-0.5-0.1-0.8-0.3l-31.7-22.6c-0.5-0.4-0.6-1.2-0.3-1.8c0.4-0.5,1.2-0.6,1.8-0.3l31.7,22.6
					c0.5,0.4,0.6,1.2,0.3,1.8C256.7,41,256.3,41.1,255.9,41.1z"/>
			</g>
		</g>
		<path class="st2" d="M36.7,49.4c-1,2.9-1.8,5.9-2.4,8.8l-13.8,3.1v13l13.9,3.2c0.5,2.9,1.3,5.9,2.3,8.8l-10.5,9.7l6.5,11.4
			l13.7-4.2c1.9,2.3,4.1,4.5,6.4,6.4l-4.2,13.7l11.4,6.5l9.7-10.5c2.9,1,5.9,1.8,8.8,2.4l3.1,13.9h13l3.2-13.9
			c2.9-0.5,5.9-1.3,8.8-2.3l9.7,10.5l11.4-6.5l-4.2-13.7c2.3-1.9,4.5-4.1,6.4-6.4l13.7,4.2l6.5-11.4l-10.5-9.7
			c1-2.9,1.8-5.9,2.4-8.8l13.9-3.1v-13L142,58.4c-0.5-2.9-1.3-5.9-2.3-8.8l10.5-9.7l-6.5-11.4L130,32.7c-1.9-2.3-4.1-4.5-6.4-6.4
			l4.2-13.7l-11.4-6.5l-9.7,10.5c-2.9-1-5.9-1.8-8.8-2.4L94.9,0.2h-13l-3.2,13.9c-2.9,0.5-5.9,1.3-8.8,2.3L60.1,6l-11.4,6.5L53,26.2
			c-2.3,1.9-4.5,4.1-6.4,6.4l-13.7-4.2l-6.5,11.4L36.7,49.4z M59,51.1c9.3-16.1,29.9-21.6,46-12.3s21.6,29.9,12.3,46
			s-29.9,21.6-46,12.3S49.6,67.2,59,51.1z"/>
		<g>
			<g>
				<g>
					<path d="M502.8,162.8L21.3,144.2c-11.5,0-20.8,9.3-20.8,20.8v336.1c0,11.5,9.3,20.8,20.8,20.8l173.9-11.8l-22.4,81.5l-23.6,0.1
						c-7.4,0-13.4,6-13.4,13.4c0,7.4,6,13.4,13.4,13.4l198-9.5c7.4,0-6.4-87.3-6.4-87.3S514.3,162.8,502.8,162.8z"/>
					<g>
						<polygon class="st1" points="337.7,478.8 214.9,478.8 180.1,606 372.6,606 						"/>
						<path d="M372.6,607.3H180.1c-0.4,0-0.8-0.1-1-0.5c-0.3-0.3-0.3-0.8-0.3-1.2l34.9-127.2c0.1-0.5,0.6-0.9,1.3-0.9h122.7
							c0.5,0,1,0.4,1.3,0.9l34.9,127.2c0.1,0.4,0,0.8-0.3,1.2C373.3,607.1,373,607.3,372.6,607.3z M181.8,604.7h189.1l-34.1-124.6
							H215.9L181.8,604.7z"/>
					</g>
					<path class="st1" d="M541,164.9c0-10.9-8.8-19.6-19.6-19.6H31.2c-10.9,0-19.6,8.8-19.6,19.6v336.1c0,10.9,8.8,19.6,19.6,19.6
						h490.2c10.9,0,19.6-8.8,19.6-19.6L541,164.9L541,164.9z"/>
					<g>
						<path class="st1" d="M393.4,592.9H159.2c-6.8,0-12.1,5.5-12.1,12.1c0,6.8,5.5,12.1,12.1,12.1h234.3c6.8,0,12.1-5.5,12.1-12.1
							C405.7,598.4,400.2,592.9,393.4,592.9z"/>
						<path d="M393.4,618.6H159.2c-7.4,0-13.4-6-13.4-13.4s6-13.4,13.4-13.4h234.3c7.4,0,13.4,6,13.4,13.4
							C407,612.6,400.8,618.6,393.4,618.6z M159.2,594.2c-6,0-11,4.9-11,11c0,6,4.9,11,11,11h234.3c6,0,11-4.9,11-11
							c0-6-4.9-11-11-11H159.2z"/>
					</g>
					<path d="M482.4,521.9H31.2c-11.5,0-20.8-9.3-20.8-20.8V164.9c0-11.5,9.3-20.8,20.8-20.8h490.2c11.5,0,20.8,9.3,20.8,20.8v72.3
						c0,0.6-0.5,1.3-1.3,1.3c-0.8,0-1.3-0.5-1.3-1.3v-72.3c0-10.1-8.2-18.3-18.3-18.3H31.2c-10.1,0-18.3,8.2-18.3,18.3v336.1
						c0,10.1,8.2,18.3,18.3,18.3h451.1c0.6,0,1.3,0.5,1.3,1.3C483.6,521.4,483.1,521.9,482.4,521.9z"/>
				</g>
				<g>
					<g>
						<path class="st1" d="M523.6,278.3v-85.4V278.3z"/>
						<path d="M523.6,279.6c-0.6,0-1.3-0.5-1.3-1.3v-85.4c0-0.6,0.5-1.3,1.3-1.3c0.6,0,1.3,0.5,1.3,1.3v85.4
							C524.9,278.9,524.4,279.6,523.6,279.6z"/>
					</g>
					<g>
						<path class="st1" d="M55.1,503.2h458.8c5.4,0,9.7-4.3,9.7-9.7v-26.5L55.1,503.2z"/>
						<path d="M513.9,504.5H55.1c-0.6,0-1.3-0.5-1.3-1.3c0-0.6,0.5-1.3,1.3-1.3h458.8c4.7,0,8.4-3.8,8.4-8.4v-26.5
							c0-0.6,0.5-1.3,1.3-1.3c0.6,0,1.3,0.5,1.3,1.3v26.5C524.9,499.5,519.9,504.5,513.9,504.5z"/>
					</g>
					<g>
						<path class="st1" d="M29.1,188.8v20.7V188.8z"/>
						<path d="M29.1,210.8c-0.6,0-1.3-0.5-1.3-1.3v-20.7c0-0.6,0.5-1.3,1.3-1.3c0.6,0,1.3,0.5,1.3,1.3v20.7
							C30.3,210.3,29.7,210.8,29.1,210.8z"/>
					</g>
					<g>
						<path class="st1" d="M67,162.8H38.8c-5.4,0-9.7,4.3-9.7,9.7L67,162.8z"/>
						<path d="M29.1,173.8c-0.6,0-1.3-0.5-1.3-1.3c0-6,5-11,11-11H67c0.6,0,1.3,0.5,1.3,1.3c0,0.6-0.5,1.3-1.3,1.3H38.8
							c-4.7,0-8.4,3.8-8.4,8.4C30.3,173.3,29.7,173.8,29.1,173.8z"/>
					</g>
				</g>
			</g>
			<g>
				<path class="st3" d="M444.5,502H77.9V82.3c0-15.3,12.4-27.7,27.7-27.7h311.3c15.3,0,27.7,12.4,27.7,27.7V502H444.5z"/>
				<path d="M444.5,113.2c-0.6,0-1.3-0.5-1.3-1.3V82.3c0-14.6-11.9-26.5-26.5-26.5h-32.7c-0.6,0-1.3-0.5-1.3-1.3
					c0-0.6,0.5-1.3,1.3-1.3h32.7c16,0,28.9,13,28.9,28.9v29.6C445.7,112.7,445.2,113.2,444.5,113.2z"/>
				<path d="M394.6,55.9H245.2c-0.6,0-1.3-0.5-1.3-1.3c0-0.6,0.5-1.3,1.3-1.3h149.4c0.6,0,1.3,0.5,1.3,1.3
					C395.7,55.3,395.2,55.9,394.6,55.9z"/>
				<path d="M77.9,203.2c-0.6,0-1.3-0.5-1.3-1.3V82.3c0-16,13-28.9,28.9-28.9h110c0.6,0,1.3,0.5,1.3,1.3c0,0.6-0.5,1.3-1.3,1.3h-110
					C90.9,55.9,79,67.8,79,82.4v119.5C79.2,202.6,78.5,203.2,77.9,203.2z"/>
				<g>
					<g>
						<rect x="105" y="81.4" class="st3" width="177" height="11.1"/>
					</g>
					<rect x="164.4" y="100.3" class="st1" width="206.9" height="11.6"/>
					<rect x="210.5" y="119.5" class="st1" width="206.9" height="11.6"/>
					<rect x="285.5" y="138.6" class="st1" width="107" height="11.6"/>
					<g>
						<rect x="105" y="234.7" class="st3" width="177" height="11.1"/>
					</g>
					<rect x="164.4" y="253.6" class="st1" width="206.9" height="11.6"/>
					<rect x="210.5" y="272.8" class="st1" width="204" height="11.6"/>
					<rect x="285.5" y="292" class="st1" width="103.3" height="11.6"/>
					<rect x="164.4" y="157.8" class="st1" width="206.9" height="11.6"/>
					<rect x="210.5" y="177" class="st1" width="206.9" height="11.6"/>
					<rect x="285.5" y="215.3" class="st1" width="82" height="11.6"/>
					<rect x="285.5" y="196.1" class="st1" width="131.9" height="11.6"/>
					<g>
						<rect x="105" y="311.3" class="st3" width="177" height="11.1"/>
					</g>
					<rect x="164.4" y="330.3" class="st1" width="206.9" height="11.6"/>
					<rect x="210.5" y="349.5" class="st1" width="200.3" height="11.6"/>
					<g>
						<rect x="285.5" y="368.7" class="st3" width="131.9" height="11.6"/>
					</g>
					<g>
						<rect x="210.5" y="464.4" class="st3" width="111.8" height="11.6"/>
					</g>
					<rect x="164.4" y="387.8" class="st1" width="206.9" height="11.6"/>
					<rect x="210.5" y="407" class="st1" width="206.9" height="11.6"/>
					<rect x="285.5" y="445.2" class="st1" width="131.9" height="11.6"/>
					<rect x="285.5" y="426" class="st1" width="75.5" height="11.6"/>
				</g>
			</g>
		</g>
		<g>
			<g>
				<g>
					<path class="st1" d="M87.3,575.4c0,0-47.7-104.5-20.3-240.1c0,0,74,62,47.3,240.1H87.3z"/>
					<path d="M114.3,576.7h-27c-0.5,0-0.9-0.3-1.2-0.8c-0.1-0.3-12.1-26.8-20.6-69.5c-7.8-39.5-14.1-101.2,0.1-171.4
						c0.1-0.4,0.4-0.8,0.8-0.9c0.4-0.1,0.9,0,1.3,0.3c0.8,0.6,18.9,16.1,34,53.8c13.9,34.6,27.5,95.2,13.7,187.6
						C115.4,576.2,114.9,576.7,114.3,576.7z M88.2,574.2h25c13.4-91,0-150.8-13.7-184.9c-12.3-30.7-27-46.8-31.7-51.5
						c-13.5,68.9-7.3,129.3,0.4,168.1C75.8,544.4,86.2,569.6,88.2,574.2z"/>
				</g>
				<path d="M99.1,565.9C99.1,565.9,99,565.9,99.1,565.9c-0.8,0-1.3-0.6-1.3-1.3c3.7-66.8-26.5-209.6-26.8-211
					c-0.1-0.6,0.3-1.4,1-1.5c0.6-0.1,1.4,0.3,1.5,1c0.3,1.4,30.5,144.5,26.8,211.8C100.2,565.2,99.7,565.9,99.1,565.9z"/>
			</g>
			<g>
				<g>
					<path class="st1" d="M142.2,405.5c0,0-61.5,111.1-24.5,159.1h19.8C137.4,564.6,176.9,477.7,142.2,405.5z"/>
					<path d="M137.4,565.9h-19.8c-0.4,0-0.8-0.1-1-0.5c-15.6-20.3-16.2-53.5-1.8-98.8c10.6-33.5,26.1-61.5,26.2-61.7
						c0.3-0.4,0.6-0.6,1.2-0.6c0.5,0,0.9,0.3,1.2,0.8c18.1,37.7,15.8,79.2,10.9,107.5c-5.5,30.5-15.5,52.5-15.5,52.8
						C138.3,565.5,137.9,565.9,137.4,565.9z M118.3,563.3h18.3c1.8-4.1,10.1-24.3,15-51.5c4.9-27.2,7.2-67.1-9.6-103.5
						c-3.8,7.2-16,31.3-24.8,59.2C107.5,497.7,100,538.8,118.3,563.3z"/>
				</g>
				<path d="M126.8,568.8c-0.6,0-1.3-0.5-1.3-1.3c-1.8-45.9,15.1-161.2,15.2-162.3c0.1-0.6,0.8-1.2,1.4-1s1.2,0.8,1,1.4
					c-0.1,1.2-17,116.2-15.2,161.8C128.1,568.2,127.6,568.7,126.8,568.8C127,568.8,126.8,568.8,126.8,568.8z"/>
			</g>
			<g>
				<g>
					<path class="st1" d="M17.2,446.9c0,0,52.4,17.9,71.3,123.6H67.9C67.9,570.5,25,512.3,17.2,446.9z"/>
					<path d="M88.5,571.7H67.9c-0.4,0-0.8-0.1-1-0.5c-0.4-0.6-43.3-59.2-51-124.2c0-0.4,0.1-0.9,0.5-1.2c0.4-0.3,0.8-0.4,1.2-0.3
						c0.5,0.1,13.5,4.7,29.1,22.5c14.2,16.2,33.2,47.2,43.1,102.1c0.1,0.4,0,0.8-0.3,1C89.3,571.6,88.9,571.7,88.5,571.7z
						 M68.5,569.2H87c-9.8-53.3-28.2-83.3-42-99.2c-11.6-13.4-22.1-19.2-26.2-21.1C26.6,509.2,64.3,563.4,68.5,569.2z"/>
				</g>
				<path d="M77.2,568.8c-0.6,0-1.2-0.4-1.3-1c-7.8-47.2-41.5-94.6-41.9-95.1c-0.4-0.5-0.3-1.4,0.3-1.8c0.5-0.4,1.4-0.3,1.8,0.3
					c0.4,0.5,34.4,48.4,42.3,96.1c0.1,0.6-0.4,1.3-1,1.4C77.4,568.7,77.4,568.8,77.2,568.8z"/>
			</g>
			<path class="st2" d="M40.8,562h131.8l0.4,61.1c0.8,15-11.2,27.5-26.2,27.5H73c-17.8,0-32.1-14.4-32.1-32.2L40.8,562z"/>
		</g>
		<g>
			<g>
				<path class="st3" d="M677.5,670.8H504.3c-10.1,0-18.3-8.2-18.3-18.3V534.9c0-10.1,8.2-18.3,18.3-18.3h173
					c10.1,0,18.3,8.2,18.3,18.3v117.6C695.8,662.5,687.6,670.8,677.5,670.8z"/>
				<path class="st2" d="M693,542.1H489c-3.2,0-5.8-2.6-5.8-5.8v-14.2c0-3.2,2.6-5.8,5.8-5.8h204c3.2,0,5.8,2.6,5.8,5.8v14.2
					C698.7,539.5,696.2,542.1,693,542.1z"/>
				<path d="M693.7,543.4H488.2c-0.6,0-1.3-0.5-1.3-1.3s0.5-1.3,1.3-1.3h205.5c2,0,3.8-1.8,3.8-4v-15.2c0-2.2-1.7-4-3.8-4H567.3
					c-0.6,0-1.3-0.5-1.3-1.3c0-0.6,0.5-1.3,1.3-1.3h126.4c3.5,0,6.3,2.9,6.3,6.5v15.2C700,540.4,697.2,543.4,693.7,543.4z"/>
				<path d="M621,667.6c-0.6,0-1.3-0.5-1.3-1.3l-1.9-119.6c0-0.6,0.5-1.3,1.3-1.3l0,0c0.6,0,1.3,0.5,1.3,1.3l1.9,119.6
					C622.3,667.1,621.8,667.6,621,667.6L621,667.6z"/>
			</g>
			<g>
				<g>
					<g>
						<g>
							<path class="st1" d="M498.5,652.5c-2-2-13.7-38.3-13.7-38.3l-23.1,16.5l25.3,34L498.5,652.5z"/>
							<path d="M487.1,665.9C487,665.9,487,665.8,487.1,665.9c-0.5,0-0.8-0.3-1-0.5l-25.3-34.1c-0.3-0.3-0.3-0.6-0.3-0.9
								c0-0.4,0.3-0.6,0.5-0.9l23.1-16.5c0.4-0.3,0.8-0.3,1.2-0.1c0.4,0.1,0.6,0.4,0.8,0.8c4.3,13.7,11.9,36.2,13.4,37.8
								c0.5,0.5,0.5,1.3,0,1.8L488,665.4C487.7,665.7,487.3,665.9,487.1,665.9z M463.6,630.9l23.6,31.8l9.8-10.4
								c-2.7-5.4-9.8-27-12.8-36.2L463.6,630.9z"/>
						</g>
						<g>
							<path d="M456.9,698.4l15.3-0.1c10.1,0,19.6-5.2,25.2-13.7l15.2-24c4.2-6.6,1.8-15.5-5.1-19.2c-6.4-3.3-12.9-6.6-14.6-6.5
								c-3.2,0.3-4.5,15.2-4.5,15.2l-13.7,0.5c0,0-6.8,28.1-12.7,31.3c-4.3,2.3-7.4,5.8-9.3,8.8C450.7,694.2,453,698.5,456.9,698.4z
								"/>
							<path class="st1" d="M458.5,693.7c-0.6,0-1.2-0.5-1.3-1c-0.1-0.6,0.4-1.3,1-1.4l21-3.2c4.3-0.6,8.2-3.2,10.4-7l18.5-30.9
								c0.4-0.6,1.2-0.8,1.8-0.4c0.6,0.4,0.8,1.2,0.4,1.8l-18.4,30.9c-2.7,4.5-7.2,7.4-12.1,8.2l-21,3.2
								C458.6,693.7,458.5,693.7,458.5,693.7z"/>
							<path class="st1" d="M484.4,670.4c-0.1,0-0.3,0-0.4,0l-11.8-3.2c-0.6-0.1-1-0.9-0.9-1.5c0.1-0.6,0.9-1,1.5-0.9l11.8,3.2
								c0.6,0.1,1,0.9,0.9,1.5C485.4,670,484.9,670.4,484.4,670.4z"/>
							<path class="st1" d="M478.3,676.4c-0.1,0-0.3,0-0.3,0l-7.8-1.9c-0.6-0.1-1.2-0.9-0.9-1.5c0.1-0.6,0.9-1.2,1.5-0.9l7.8,1.9
								c0.6,0.1,1.2,0.9,0.9,1.5C479.4,676,478.9,676.4,478.3,676.4z"/>
						</g>
						<g>
							<polygon class="st1" points="419.7,645.6 393,672.4 378.7,667.3 403.5,632.8 							"/>
							<path d="M393,673.7c-0.1,0-0.3,0-0.4-0.1l-14.2-5.2c-0.4-0.1-0.6-0.4-0.8-0.8c-0.1-0.4,0-0.8,0.1-1.2l24.7-34.4
								c0.3-0.3,0.5-0.5,0.9-0.5c0.4,0,0.6,0,0.9,0.3l16.4,12.8c0.3,0.3,0.5,0.5,0.5,0.9s-0.1,0.8-0.4,1l-26.8,27
								C393.7,673.6,393.3,673.7,393,673.7z M380.8,666.7l11.9,4.3l25.2-25.3l-14.2-11L380.8,666.7z"/>
						</g>
						<g>
							<path d="M401.5,668.2c0,0,1.3,11.5-0.9,21.6c-1.2,5.4-6,9.2-11.5,9.2h-65.8c-4.7,0-6.8-5.9-3.2-8.9
								c11.6-9.8,33.2-24.8,59.7-29.1l7.4,10.4L401.5,668.2z"/>
							<path class="st1" d="M394.6,691.2h-68.1c-0.6,0-1.3-0.5-1.3-1.3c0-0.6,0.5-1.3,1.3-1.3h68.1c0.6,0,1.3,0.5,1.3,1.3
								C395.7,690.7,395.2,691.2,394.6,691.2z"/>
							<path class="st1" d="M364.4,679.2c-0.5,0-1-0.3-1.2-0.8l-3.6-8.7c-0.3-0.6,0-1.4,0.6-1.7c0.6-0.3,1.4,0,1.7,0.6l3.6,8.7
								c0.3,0.6,0,1.4-0.6,1.7C364.7,679.1,364.5,679.2,364.4,679.2z"/>
							<path class="st1" d="M352.5,681.5c-0.5,0-1-0.4-1.2-0.9l-2.6-7.9c-0.3-0.6,0.1-1.4,0.8-1.5c0.6-0.3,1.4,0.1,1.5,0.8l2.6,7.9
								c0.3,0.6-0.1,1.4-0.8,1.5C352.8,681.4,352.6,681.5,352.5,681.5z"/>
						</g>
						<path d="M561.6,457.2c0,0-122.4-14.3-158.9,17.3s57.5,167,57.5,167l29.6-22l-28.1-95.8L575,491.5L561.6,457.2z"/>
						<path d="M628.9,519.6c-17.8,5.6-49.6,12.9-94.1,12.4c-12.7-0.1-24.3,6.8-30,18c-13.2,25.8-41.7,72.3-88.2,102.5l-22.2-12
							L451,513.1c5.1-11.6,14.8-20.7,26.8-25l112.2-41.2c0,0,34.8-9.7,51.9,21.3c3.1,5.5,8.7-4.3,10.1,0.1
							C656.7,483.7,644.3,514.7,628.9,519.6z"/>
						<path class="st1" d="M425.5,572c-0.1,0-0.4,0-0.5-0.1c-0.6-0.3-0.9-1-0.6-1.7l25.6-57.6c5.2-11.9,15.3-21.2,27.5-25.7
							l53.8-19.7c0.6-0.3,1.4,0.1,1.7,0.8c0.3,0.6-0.1,1.4-0.8,1.7l-53.8,19.7c-11.6,4.2-21.1,13.2-26.1,24.4l-25.6,57.6
							C426.5,571.6,426,572,425.5,572z"/>
						<path class="st1" d="M455.4,621.4c-0.3,0-0.6-0.1-0.9-0.4c-0.5-0.5-0.5-1.3,0-1.8c5.1-5.4,10.1-11,15-17
							c0.4-0.5,1.3-0.6,1.8-0.1c0.5,0.4,0.6,1.3,0.1,1.8c-4.9,6-10,11.8-15.1,17.1C456,621.3,455.8,621.4,455.4,621.4z"/>
						<path class="st1" d="M470.5,604.4c-0.3,0-0.5-0.1-0.8-0.3c-0.5-0.4-0.6-1.3-0.1-1.8c2.4-2.9,4.7-6,7-8.9
							c0.4-0.5,1.2-0.6,1.8-0.3c0.5,0.4,0.6,1.2,0.3,1.8c-2.3,3.1-4.7,6.1-7,9.1C471.1,604.3,470.7,604.4,470.5,604.4z"/>
					</g>
					<g>
						<g>
							<g>
								<path class="st1" d="M402,278.1l31.9,17.3c0,0,19.6,51,47.5,54.1c28,3.1,55.7-35.7,55.7-35.7l18.5,39.7
									c0,0-27.2,42.2-70.5,35.4c-43.3-6.8-55.1-71.8-55.1-71.8s-10.2,1-14.1-8.9c-3.3-8.6-1.9-13.5-1.9-13.5
									S398.7,286.4,402,278.1z"/>
								<path d="M494.5,390.9c-3.1,0-6.3-0.3-9.5-0.8c-18.1-2.8-33.6-16.4-44.7-39.1c-7.2-14.6-10.4-28.6-11.2-32.6
									c-0.5,0-1.2,0-1.9-0.1c-3.5-0.4-9.5-2.3-12.4-9.7c-2.6-6.6-2.4-11.4-2.2-13.3c-3.3-1.9-15.1-9.5-11.9-17.6
									c0.1-0.4,0.4-0.6,0.8-0.8c0.4-0.1,0.8-0.1,1,0.1l31.9,17.3c0.3,0.1,0.5,0.4,0.6,0.6c0.3,0.5,19.6,50.4,46.5,53.3
									c27,2.9,54.2-34.8,54.6-35.1c0.3-0.4,0.6-0.5,1.2-0.5c0.4,0,0.9,0.3,1,0.8l18.5,39.7c0.1,0.4,0.1,0.9-0.1,1.3
									c-0.3,0.4-7,10.9-19.3,20.6C527.7,382.5,512.9,390.9,494.5,390.9z M430.1,315.9c0.1,0,0.1,0,0.3,0c0.5,0.1,0.9,0.5,1,1
									c0.1,0.6,12.1,64.2,54.1,70.8c39.2,6.1,65.4-29.3,68.9-34.2l-17.4-37.2c-5.6,7.3-28.1,34.6-52.1,34.6c-1.2,0-2.3,0-3.3-0.1
									c-27.3-2.9-46.3-49.1-48.4-54.4L402.9,280c-0.5,5.6,8.2,11.5,11.9,13.5c0.5,0.3,0.8,0.9,0.6,1.4c0,0-1.2,4.7,1.9,12.8
									c3.5,8.8,12.1,8.2,12.7,8.2C430,315.9,430,315.9,430.1,315.9z"/>
							</g>
							<path d="M431,312.9c-0.1,0-0.3,0-0.4,0c-0.3-0.1-6.8-2.2-7.5-7.8c-0.4-2.3-1.7-4.1-2.8-5.2c-1.7-1.7-2.6-4-2.6-6.3v-1.3
								c0-0.4,0.3-0.8,0.5-1c0.4-0.3,0.8-0.3,1.2-0.1l10.7,4.3c0.6,0.3,1,1,0.8,1.7c-0.3,0.6-1,1-1.7,0.8l-8.9-3.6
								c0.1,1.5,0.8,2.8,1.8,3.8c1.4,1.4,3.2,3.7,3.6,6.6c0.5,4.1,5.8,5.8,5.8,5.8c0.6,0.3,1,0.9,0.9,1.5
								C432,312.6,431.5,312.9,431,312.9z"/>
						</g>
						<path class="st2" d="M636.7,296.2c-14.1-3.3-19.9-3.3-70.9-1.5c-12.5,0.5-27.3,16.1-28.8,28.5c4,11.9,22.2,70.5-9.7,116.4
							c-4.5,6.5-10.7,13.7-19.2,20.4c4.7,3.8,26.7,1.7,36.6,4.6c16.5,4.9,13.7,1.3,27,1.7c35,1,44.5,45.6,67.1,40.6
							c6-1.3,14.1-6,21.6-21.9c4.2-13.2,8.1-28.5,10.2-46c5.8-47.2-3.6-86.5-12-111.2C656.2,320.2,653.2,300,636.7,296.2z"/>
						<path class="st2" d="M512,331.6c0,0,26.8-33.7,50.4-36.4l-11.6,89.3L512,331.6z"/>
						<path class="st2" d="M683.8,380.5c0,0-2.4-23.4-4-38.9c-3.5-34.4-42.4-45.8-42.4-45.8l-14.7,83.8L683.8,380.5z"/>
						<g>
							<path class="st1" d="M672.9,378.6c0,0-15.1,64.5-27.3,85.5c-14.8,25-89.5-8.7-89.5-8.7l-8.7-4.9c-5.9-3.3-12.9-4.1-19.3-1.9
								l-14.1,4.5c0,0,11.6-13.9,21.5-19.2c4.6-2.4,10.6-0.1,15.7,3.1c8.7,5.5,18.9,8.1,29.3,7.8l29.6-0.9c5-0.1,9.1-4,9.5-8.9
								l9.5-60.6L672.9,378.6z"/>
							<path d="M622.9,474.6c-27,0-65-17.1-67.3-18h-0.1l-8.7-4.9c-5.5-3.2-12.3-3.8-18.3-1.9l-14.1,4.5c-0.5,0.1-1.2,0-1.4-0.5
								c-0.3-0.5-0.3-1,0.1-1.5c0.5-0.5,11.9-14.2,21.9-19.6c4.3-2.3,10-1.3,17,3.1c8.3,5.2,18.1,7.9,28.5,7.5l29.6-0.9
								c4.3-0.1,7.9-3.5,8.3-7.8c0,0,0,0,0-0.1l9.5-60.4c0.1-0.6,0.8-1.2,1.4-1l43.8,4.2c0.4,0,0.6,0.3,0.9,0.5
								c0.3,0.3,0.3,0.6,0.3,1c-0.6,2.7-15.2,64.9-27.6,85.9C642.4,472,633.4,474.6,622.9,474.6z M556.6,454.3
								c2.3,1,73.9,32.7,87.8,9.2c11.1-18.9,24.7-74.3,27-83.7l-41.2-4l-9.3,59.3c-0.5,5.6-5.1,10-10.7,10.1l-29.6,0.9
								c-10.9,0.4-21.2-2.4-29.9-7.9c-4.2-2.7-10.1-5.4-14.4-3.1c-6.5,3.6-13.9,11-18,15.5l9.6-3.1c6.8-2.2,14.2-1.4,20.3,2
								L556.6,454.3z"/>
						</g>
					</g>
					<g>
						<path d="M609.3,265.4c3.7,1.8,6.4,2.2,8.4,2c7.2-0.4,11.8-6.3,12.7-7.4c4.7-6,7-15.8,3.1-21.6c-2.9-4.2-6.5-2.6-10-7.3
							c-3.8-5.2,0.1-9.6-3.5-14.2c-4.1-5.4-12.9-4.9-14.6-4.9c-5.5,0.3-6.1,2.9-11.4,2.8s-6-2.8-10.9-2.8c-3.8,0-9.5,1.7-12,6.1
							c-3.2,5.6,0.1,13,3.8,16.9c4.5,4.7,7.7,2.2,14.1,6C600.2,247.6,597.5,259.5,609.3,265.4z"/>
						<g>
							<path class="st1" d="M588.8,290.3l2.9-18.4c-0.6-0.1-6.1-1-6.8-1.3c-5.1-2.6-3.7-15.2-3.7-15.2l-2.8-3.3l8.4-18.8
								c8.9,7.4,12,0.1,20.8,3.8c8.8,3.7,4.1,13.4,4.1,13.4s7.2-3.2,5.6,3.8c-1.2,5.2-5,5.6-7.5,5.4l4.7,31.6c0,0,15.1,4.3,18,5.1
								c-3.8-0.1-30.2,11.2-59.9-1.3L588.8,290.3z"/>
							<path d="M602.4,302.2c-8.9,0-19.3-1.4-30-5.9c-0.5-0.3-0.8-0.6-0.8-1.3c0-0.5,0.4-1,0.9-1.2l15.2-4.5l2.7-16.4
								c-1.9-0.3-5.1-0.9-5.9-1.3c-5.2-2.6-4.6-13.2-4.3-16l-2.4-2.9c-0.3-0.4-0.4-0.9-0.1-1.3l8.4-18.8c0.1-0.4,0.5-0.6,0.9-0.8
								c0.4-0.1,0.8,0,1.2,0.3c4.6,3.8,7.3,3.5,10.7,2.8c2.7-0.5,5.8-0.9,9.8,0.8c2.7,1.2,4.6,2.9,5.5,5.4c1,2.7,0.6,5.5,0.1,7.4
								c1.3-0.3,2.7-0.1,3.8,0.8c1.3,1,1.7,2.8,1,5.2c-0.6,2.9-2.4,6.1-7.3,6.4l4.3,29.3c3.2,0.9,14.7,4.2,17.3,4.9
								c0.6,0.1,1,0.8,0.9,1.4c-0.1,0.6-0.6,1.2-1.3,1l0,0c-0.6,0-2.3,0.4-4.1,0.9C623.2,299.8,613.9,302.2,602.4,302.2z
								 M576.8,295.2c22,7.9,41.7,3.2,50.7,0.9c-5.4-1.5-12.7-3.6-13-3.7c-0.5-0.1-0.9-0.5-0.9-1l-4.7-31.6c0-0.4,0.1-0.8,0.4-1
								c0.3-0.3,0.6-0.4,1-0.4c3.6,0.3,5.5-1,6.1-4.3c0.3-1.4,0.3-2.3-0.3-2.7c-0.8-0.6-2.8-0.1-3.7,0.4c-0.5,0.3-1,0.1-1.4-0.3
								c-0.4-0.4-0.5-0.9-0.3-1.4c0,0,2-4.3,0.8-7.9c-0.6-1.7-2-3.1-4.1-3.8c-3.5-1.4-5.9-1-8.4-0.6c-3.3,0.5-6.6,1.2-11.4-2.3
								l-7.4,16.6l2.3,2.8c0.3,0.3,0.4,0.6,0.3,0.9c-0.4,3.1-0.5,12.1,2.9,13.9c0.6,0.3,5.6,1.2,6.3,1.2c0.4,0,0.6,0.3,0.9,0.5
								c0.3,0.3,0.3,0.6,0.3,1l-2.9,18.4c-0.1,0.5-0.4,0.9-0.9,1L576.8,295.2z M588.8,290.3L588.8,290.3L588.8,290.3z"/>
						</g>
						<path d="M593.9,273.2c-0.8,0-1.4,0-2.2-0.1c-0.6-0.1-1.2-0.8-1-1.4c0.1-0.6,0.8-1.2,1.4-1c7.7,1,11.1-4.6,11.2-4.9
							c0.4-0.6,1.2-0.8,1.8-0.4c0.6,0.4,0.8,1.2,0.5,1.8C605.3,267.3,601.7,273.2,593.9,273.2z"/>
					</g>
				</g>
				<g>
					<g>
						<g>
							<path class="st4" d="M421.8,471.7H581c5.2,0,9.6-4.3,9.6-9.6l0,0H412.2l0,0C412.2,467.3,416.5,471.7,421.8,471.7z"/>
							<path d="M583.8,472.9H419c-4.3,0-7.9-3.6-7.9-7.9v-2.8c0-0.6,0.5-1.3,1.3-1.3h178.4c0.6,0,1.3,0.5,1.3,1.3v2.8
								C591.9,469.4,588.3,472.9,583.8,472.9z M413.5,463.4v1.7c0,2.9,2.4,5.5,5.5,5.5h165c2.9,0,5.5-2.4,5.5-5.5v-1.7H413.5z"/>
						</g>
						<g>
							<path class="st2" d="M412.2,462.2h102.1l-32.5-95.5c-1.9-2.9-5.4-4.9-8.9-4.9h-86.3c-4,0-6.4,3.8-5.1,7.2
								c0.5,1.3,1,2.7,1.5,4L412.2,462.2z"/>
							<path class="st2" d="M514.3,463.5H412.2c-0.5,0-1-0.4-1.2-0.9l-29.3-89.1c-0.3-0.9-0.6-1.9-1-2.8c-0.1-0.4-0.3-0.8-0.4-1.2
								c-0.8-1.9-0.5-4.2,0.8-6c1.3-1.8,3.3-2.9,5.6-2.9H473c4.1,0,7.8,2,10,5.4c0,0.1,0.1,0.1,0.1,0.3l32.5,95.5
								c0.1,0.4,0.1,0.8-0.1,1.2C515.1,463.4,514.7,463.5,514.3,463.5z M413.1,461.1h99.4l-31.8-93.7c-1.8-2.6-4.6-4.1-7.8-4.1
								h-86.3c-1.4,0-2.7,0.6-3.5,1.8c-0.8,1-0.9,2.4-0.5,3.6c0.1,0.4,0.3,0.8,0.4,1.2c0.4,0.9,0.8,1.9,1.2,2.9L413.1,461.1z"/>
						</g>
						<path class="st1" d="M450,410.8c1.3,4.1-0.6,8.2-4.1,9.2c-3.5,1-7.3-1.4-8.6-5.4c-1.3-4.1,0.6-8.2,4.1-9.2
							C445,404.4,448.9,406.7,450,410.8z"/>
					</g>
				</g>
			</g>
		</g>
		<g>
			<g>
				<g>
					<path class="st2" d="M658.1,88.5c-0.1-11.9-9.7-21.2-21.5-20.6c-11.4,0.6-20.2,10.4-19.9,22.1c0.1,5.6,2.3,10.6,6,14.3
						c2.8,2.8,4.3,6.6,4.3,10.6v2.4c0,1.9,1.5,3.6,3.6,3.5l14.1-0.4c1.9,0,3.5-1.7,3.5-3.7v-2.4c0-4,1.4-7.8,4.1-10.7
						C655.9,99.6,658.1,94.3,658.1,88.5z"/>
					<path class="st2" d="M630.5,122c-1.2,0-2.3-0.5-3.2-1.3c-0.9-0.9-1.4-2.2-1.4-3.5v-2.4c0-3.7-1.4-7.2-4.1-9.7
						c-4-4-6.1-9.3-6.4-15.2c-0.3-12.4,8.9-22.7,21.1-23.4c5.9-0.4,11.5,1.7,15.7,5.8c4.5,4.2,6.9,9.8,7,16.1l0,0
						c0,6-2.2,11.6-6.3,16c-2.4,2.6-3.8,6.1-3.7,9.8v2.4c0,2.7-2,4.9-4.7,5L630.5,122C630.6,122,630.6,122,630.5,122z M637.8,69.1
						c-0.4,0-0.8,0-1.2,0c-10.7,0.6-19,9.7-18.7,20.8c0.1,5.1,2.2,10,5.6,13.4c3.1,3.1,4.7,7.2,4.7,11.5v2.4c0,0.6,0.3,1.2,0.6,1.7
						c0.4,0.4,0.9,0.6,1.5,0.6l14.1-0.4c1.3,0,2.2-1.2,2.2-2.4v-2.4c0-4.3,1.5-8.6,4.5-11.6c3.6-3.8,5.6-8.9,5.5-14.2l0,0
						c0-5.5-2.3-10.6-6.1-14.3C647.1,70.9,642.6,69.1,637.8,69.1z"/>
				</g>
				<g>
					<path class="st1" d="M637.8,135L637.8,135c-4.9,0.1-8.7-3.7-8.8-8.7v-5.8l17.4-0.5v5.8C646.5,130.8,642.6,134.9,637.8,135z"/>
					<path d="M637.5,136.3c-2.6,0-4.9-0.9-6.8-2.7c-1.9-1.9-3.1-4.5-3.1-7.2l-0.1-7l19.9-0.5l0.1,7c0,5.6-4.3,10.2-9.8,10.5
						C637.8,136.3,637.6,136.3,637.5,136.3z M630.2,121.9v4.6c0,2,0.9,4,2.3,5.4s3.2,2,5.1,2l0,0c4.1-0.1,7.4-3.7,7.4-7.9v-4.5
						L630.2,121.9z"/>
				</g>
			</g>
			<g>
				<path class="st5" d="M637.4,53.9c-0.6,0-1.3-0.5-1.3-1.3L636,39.1c0-0.6,0.5-1.3,1.3-1.3l0,0c0.6,0,1.3,0.5,1.3,1.3l0.1,13.5
					C638.7,53.3,638.1,53.9,637.4,53.9L637.4,53.9z"/>
				<path class="st5" d="M586.9,95.9c-0.6,0-1.3-0.5-1.3-1.3c0-0.6,0.5-1.3,1.3-1.3l14.8-0.1l0,0c0.6,0,1.3,0.5,1.3,1.3
					c0,0.6-0.5,1.3-1.3,1.3L586.9,95.9L586.9,95.9z"/>
				<path class="st5" d="M685.6,95.7L685.6,95.7h-13.8c-0.6,0-1.3-0.5-1.3-1.3c0-0.6,0.5-1.3,1.3-1.3l0,0h13.8
					c0.6,0,1.3,0.5,1.3,1.3C686.8,95,686.3,95.7,685.6,95.7z"/>
				<path class="st5" d="M609.3,68c-0.4,0-0.6-0.1-0.9-0.4L598,57.2c-0.5-0.5-0.5-1.3,0-1.8s1.3-0.5,1.8,0l10.4,10.4
					c0.5,0.5,0.5,1.3,0,1.8C609.9,67.8,609.6,68,609.3,68z"/>
				<path class="st5" d="M664.2,68.7c-0.4,0-0.6-0.1-0.9-0.4c-0.5-0.5-0.5-1.3,0-1.8l10.4-10.5c0.5-0.5,1.3-0.5,1.8,0s0.5,1.3,0,1.8
					l-10.4,10.5C664.9,68.6,664.5,68.7,664.2,68.7z"/>
			</g>
		</g>
		<g>
			<g>
				<g>
					<polygon class="st6" points="523.9,155.7 523.9,49.4 503.7,28.8 368,28.8 368,155.7 					"/>
					<path d="M366.7,155.7V28.8c0-0.6,0.5-1.3,1.3-1.3h135.7c0.4,0,0.6,0.1,0.9,0.4l20.2,20.4c0.3,0.3,0.4,0.5,0.4,0.9v106.3
						c0,0.6-0.5,1.3-1.3,1.3H368C367.3,157,366.7,156.4,366.7,155.7z M369.3,30.1v124.3h153.4V49.9l-19.4-19.8
						C503.2,30.1,369.3,30.1,369.3,30.1z"/>
				</g>
			</g>
			<path d="M501.9,49.9V37.2c0-0.6,0.5-1.3,1.3-1.3c0.6,0,1.3,0.5,1.3,1.3v11.5h10.2c0.6,0,1.3,0.5,1.3,1.3c0,0.6-0.5,1.3-1.3,1.3
				h-11.4C502.4,51.2,501.9,50.6,501.9,49.9z"/>
		</g>
		<g>
			<g>
				<path class="st5" d="M635.5,155.2c-0.1,0-0.1,0-0.3,0c-0.6-0.1-1.2-0.8-0.9-1.5c0.3-1.2,0.5-2.4,0.8-3.7c0.1-0.6,0.8-1.2,1.5-1
					c0.6,0.1,1.2,0.8,1,1.5c-0.3,1.3-0.5,2.6-0.8,3.7C636.6,154.9,636.1,155.2,635.5,155.2z"/>
				<path class="st5" d="M621.8,192.2c-0.3,0-0.4,0-0.6-0.1c-0.6-0.4-0.9-1.2-0.5-1.7c1-1.9,2-3.8,2.9-5.9c0.3-0.6,1-0.9,1.7-0.6
					c0.6,0.3,0.9,1,0.6,1.7c-0.9,2-1.9,4-2.9,6C622.7,191.9,622.3,192.2,621.8,192.2z M627.4,180.3c-0.1,0-0.4,0-0.5-0.1
					c-0.6-0.3-0.9-1-0.6-1.7c0.9-2,1.7-4.1,2.4-6.1c0.3-0.6,1-1,1.7-0.8c0.6,0.3,1,1,0.8,1.7c-0.8,2-1.5,4.1-2.4,6.1
					C628.4,180,627.9,180.3,627.4,180.3z M632,167.9c-0.1,0-0.3,0-0.4,0c-0.6-0.3-1-0.9-0.8-1.5c0.6-2,1.3-4.2,1.9-6.3
					c0.1-0.6,0.9-1,1.5-0.9c0.6,0.1,1,0.9,0.9,1.5c-0.6,2.2-1.3,4.2-1.9,6.4C633,167.6,632.5,167.9,632,167.9z"/>
				<path class="st5" d="M616.5,201.2c-0.3,0-0.5-0.1-0.6-0.3c-0.6-0.4-0.8-1.2-0.4-1.8c0.6-1,1.3-2,1.9-3.2
					c0.4-0.6,1.2-0.8,1.8-0.4c0.6,0.4,0.8,1.2,0.4,1.8c-0.6,1.2-1.4,2.3-2,3.3C617.4,201,617.1,201.2,616.5,201.2z"/>
			</g>
			<g>
				<path class="st5" d="M482.4,48c-0.3,0-0.6-0.1-0.8-0.3c-0.5-0.5-0.6-1.3-0.1-1.8c0.9-1,1.7-1.9,2.6-2.8c0.5-0.5,1.3-0.5,1.8,0
					s0.5,1.3,0,1.8c-0.9,0.9-1.7,1.8-2.6,2.8C483.1,47.9,482.7,48,482.4,48z"/>
				<path class="st5" d="M542.8,63.7c-0.1,0-0.1,0-0.3,0c-2.7-0.5-5.1-1.7-7.3-3.1c-0.5-0.4-0.8-1.2-0.3-1.8
					c0.4-0.5,1.2-0.8,1.8-0.3c1.8,1.3,4,2.2,6.3,2.7c0.6,0.1,1.2,0.8,1,1.5C544,63.2,543.4,63.7,542.8,63.7z M550.2,63.7
					c-0.6,0-1.2-0.4-1.3-1c-0.1-0.6,0.3-1.4,1-1.5c1.5-0.4,3.1-0.9,4.3-1.8c0.6-0.4,1.2-0.8,1.7-1.2c0.5-0.5,1.3-0.4,1.8,0.1
					c0.5,0.5,0.4,1.3-0.1,1.8c-0.6,0.5-1.3,1-1.9,1.4c-1.5,1-3.3,1.7-5.2,2C550.3,63.7,550.3,63.7,550.2,63.7z M531.2,55.3
					c-0.5,0-0.9-0.3-1.2-0.6c-1.2-2.2-1.7-4.6-1.7-7.2c0-0.3,0-0.4,0-0.6c0-0.6,0.6-1.3,1.3-1.3c0.6,0,1.3,0.6,1.3,1.3
					c0,0.1,0,0.4,0,0.5c0,2.2,0.5,4.2,1.4,6.1c0.3,0.6,0,1.4-0.5,1.7C531.6,55.2,531.4,55.3,531.2,55.3z M561.1,54.4
					c-0.1,0-0.3,0-0.5-0.1c-0.6-0.3-1-1-0.8-1.7c0.8-2,1.2-4.3,1.3-6.8c0-0.6,0.5-1.3,1.3-1.3l0,0c0.6,0,1.3,0.6,1.3,1.3
					c0,2.8-0.5,5.4-1.4,7.7C562,54.1,561.6,54.4,561.1,54.4z M531.3,40.9c-0.1,0-0.3,0-0.5-0.1c-0.6-0.3-0.9-1-0.6-1.7
					c1-2.4,2.3-4.7,3.8-6.6v-0.1c0.4-0.5,1.3-0.6,1.8-0.3c0.5,0.4,0.6,1.3,0.3,1.8l-0.1,0.1c-1.4,1.7-2.6,3.7-3.5,5.9
					C532.3,40.6,531.8,40.9,531.3,40.9z M490.3,40.1c-0.4,0-0.6-0.1-0.9-0.4c-0.5-0.5-0.4-1.3,0.1-1.8c1.9-1.7,3.8-3.3,5.9-4.7
					c0.5-0.4,1.4-0.3,1.8,0.3c0.4,0.5,0.3,1.4-0.3,1.8c-1.9,1.4-3.8,2.9-5.6,4.6C490.8,40,490.5,40.1,490.3,40.1z M561.3,39.8
					c-0.5,0-1-0.4-1.2-0.9c-0.3-0.8-0.5-1.4-0.8-2c-0.6-1.4-1.5-2.7-2.6-4c-0.5-0.5-0.4-1.3,0.1-1.8c0.5-0.5,1.3-0.4,1.8,0.1
					c1.2,1.4,2.2,2.9,2.9,4.6c0.4,0.8,0.6,1.5,0.9,2.3c0.3,0.6-0.1,1.4-0.8,1.5C561.6,39.8,561.5,39.8,561.3,39.8z M590.9,34.2
					c-0.3,0-0.4,0-0.6-0.1c-2.2-1.2-4.3-2.2-6.6-3.1c-0.6-0.3-0.9-1-0.6-1.7c0.3-0.6,1-0.9,1.7-0.6c2.3,0.9,4.6,2,6.8,3.2
					c0.6,0.4,0.9,1.2,0.5,1.7C591.8,34,591.2,34.2,590.9,34.2z M502.2,31.4c-0.4,0-0.9-0.3-1.2-0.6c-0.4-0.6-0.1-1.4,0.5-1.8
					c2.2-1.3,4.5-2.4,6.8-3.5c0.6-0.3,1.4,0,1.7,0.6c0.3,0.6,0,1.4-0.6,1.7c-2.2,0.9-4.3,2-6.5,3.3
					C502.7,31.3,502.4,31.4,502.2,31.4z M540.8,29.9c-0.4,0-0.9-0.3-1.2-0.6c-0.4-0.6-0.1-1.4,0.5-1.7c1.3-0.8,2.7-1.3,4.2-1.9
					c-0.4-0.3-0.5-0.8-0.4-1.3c0.3-0.6,0.9-1,1.5-0.9c2.7,0.8,5,1.8,7.2,2.9c0.6,0.4,0.8,1.2,0.5,1.7c-0.4,0.6-1.2,0.8-1.7,0.5
					c-1-0.5-2-1-3.2-1.5c-0.1,0-0.1,0-0.3,0.1c-2.4,0.6-4.7,1.4-6.6,2.6C541.3,29.7,541,29.9,540.8,29.9z M577.1,28.6
					c-0.1,0-0.3,0-0.4,0c-2.3-0.6-4.7-1.2-7-1.5c-0.6-0.1-1.2-0.8-1-1.4c0.1-0.6,0.8-1.2,1.4-1c2.4,0.4,5,0.9,7.4,1.7
					c0.6,0.1,1,0.9,0.9,1.5C578.2,28.2,577.7,28.6,577.1,28.6z M562.5,26.2C562.5,26.2,562.4,26.2,562.5,26.2
					c-2.7-0.1-5.1-0.3-7.4-0.1c-0.8,0-1.3-0.5-1.3-1.2s0.5-1.3,1.2-1.3c2.3-0.1,4.9-0.1,7.5,0.1c0.6,0,1.3,0.6,1.2,1.4
					C563.6,25.6,563.1,26.2,562.5,26.2z M515.8,25.5c-0.5,0-1-0.4-1.3-0.9c-0.1-0.6,0.3-1.4,0.9-1.5c2.4-0.6,5-1.2,7.4-1.5
					c0.6-0.1,1.3,0.4,1.4,1.2c0.1,0.6-0.4,1.3-1.2,1.4c-2.3,0.3-4.7,0.8-7,1.4C516.1,25.5,516,25.5,515.8,25.5z M538,24.4h-0.1
					c-2.9-0.4-5.4-0.5-6.6-0.6c-0.3,0-0.4,0-0.6,0c-0.6,0-1.3-0.6-1.3-1.3s0.6-1.3,1.3-1.3c0.3,0,0.4,0,0.6,0
					c1.4,0.1,3.8,0.1,6.9,0.6c0.6,0.1,1.2,0.8,1,1.4C539.1,23.9,538.6,24.4,538,24.4z"/>
				<path class="st5" d="M600.4,40.1c-0.3,0-0.5-0.1-0.8-0.3c-1-0.8-2-1.4-3.1-2.2c-0.6-0.4-0.8-1.2-0.4-1.8
					c0.4-0.6,1.2-0.8,1.8-0.4c1,0.6,2,1.4,3.2,2.2c0.5,0.4,0.6,1.2,0.3,1.8C601.2,40,600.8,40.1,600.4,40.1z"/>
			</g>
		</g>
	</g>
	<g class="st7">
		<g>
			<defs>
				<path id="SVGID_1_" d="M474.2,63.5c-7,0-13.5,2.9-18.4,7.7l0,0l0,0c-1,1-1.9,2-2.7,3.1c-10.5,12.1-12.1,17.1-19.6,24.9
					c-0.4,0.4-0.8,0.8-1,1.2c-0.4,0.4-0.8,0.8-1.3,1.3c-1.9,1.7-5,3.6-9.5,3.6c-8.1,0-12.4-7.9-12.4-13.7c0-5.5,3.6-13,11.4-13
					c7.9,0,12.8,6.5,13,6.8l-0.1-0.1l2.4,2.8l9.2-11.6c-0.4-0.5-9.3-12.8-24.5-12.8c-7.5,0-14.4,3.3-19.3,9.2
					c-4.2,5.1-6.5,12-6.5,18.7c0,6.8,2.6,13.7,6.9,19c5.1,6.1,12.1,9.6,19.8,9.6c10.2,0,17.5-5.1,21.6-9.7l0,0
					c9.7-10.9,17-21.3,17-21.3l3.3-4.1l0,0c2.3-3.7,6.1-6.4,10.6-6.4c7,0,12.7,6.4,12.7,13.5s-5.8,13.2-12.7,13.2
					c-6.4,0-11.6-5-12.5-11.4l-10.4,13c4.7,7.9,13.3,13.2,22.9,13.2c15,0,27.1-12.7,27.1-28S489.1,63.5,474.2,63.5z"/>
			</defs>
			<clipPath id="SVGID_00000147217239073956187570000014087674532849025438_">
				<use xlink:href="#SVGID_1_"  style="overflow:visible;"/>
			</clipPath>
			<g style="clip-path:url(#SVGID_00000147217239073956187570000014087674532849025438_);enable-background:new    ;">
				<g>
					<g>
						<defs>
							<rect id="SVGID_00000070119581423603346010000012923270442139134630_" x="394.8" y="63" width="106.8" height="57"/>
						</defs>
						<clipPath id="SVGID_00000104705252852413251130000011335300535632249241_">
							<use xlink:href="#SVGID_00000070119581423603346010000012923270442139134630_"  style="overflow:visible;"/>
						</clipPath>
						<g style="clip-path:url(#SVGID_00000104705252852413251130000011335300535632249241_);">
							<g>
								<defs>
									<path id="SVGID_00000181052213354812440460000006992682710230090157_" d="M474.2,63.5c-7,0-13.5,2.9-18.4,7.7l0,0l0,0
										c-1,1-1.9,2-2.7,3.1c-10.5,12.1-12.1,17.1-19.6,24.9c-0.4,0.4-0.8,0.8-1,1.2c-0.4,0.4-0.8,0.8-1.3,1.3
										c-1.9,1.7-5,3.6-9.5,3.6c-8.1,0-12.4-7.9-12.4-13.7c0-5.5,3.6-13,11.4-13c7.9,0,12.8,6.5,13,6.8l-0.1-0.1l2.4,2.8l9.2-11.6
										c-0.4-0.5-9.3-12.8-24.5-12.8c-7.5,0-14.4,3.3-19.3,9.2c-4.2,5.1-6.5,12-6.5,18.7c0,6.8,2.6,13.7,6.9,19
										c5.1,6.1,12.1,9.6,19.8,9.6c10.2,0,17.5-5.1,21.6-9.7l0,0c9.7-10.9,17-21.3,17-21.3l3.3-4.1l0,0c2.3-3.7,6.1-6.4,10.6-6.4
										c7,0,12.7,6.4,12.7,13.5s-5.8,13.2-12.7,13.2c-6.4,0-11.6-5-12.5-11.4l-10.4,13c4.7,7.9,13.3,13.2,22.9,13.2
										c15,0,27.1-12.7,27.1-28S489.1,63.5,474.2,63.5z"/>
								</defs>
								<clipPath id="SVGID_00000048501387818770176870000005536442518003215787_">
									<use xlink:href="#SVGID_00000181052213354812440460000006992682710230090157_"  style="overflow:visible;"/>
								</clipPath>
								<g style="clip-path:url(#SVGID_00000048501387818770176870000005536442518003215787_);">
									<g>
										<defs>
											<rect id="SVGID_00000005978474000449463790000004503084005881010580_" x="394.8" y="63" width="106.8" height="57"/>
										</defs>
										<clipPath id="SVGID_00000144318333595346346810000014675481901495352230_">
											<use xlink:href="#SVGID_00000005978474000449463790000004503084005881010580_"  style="overflow:visible;"/>
										</clipPath>
										
											<rect x="392.1" y="60.7" style="clip-path:url(#SVGID_00000144318333595346346810000014675481901495352230_);fill:#008080;" width="111.8" height="62"/>
									</g>
								</g>
							</g>
						</g>
					</g>
				</g>
			</g>
		</g>
	</g>
</g>
</svg>
