<?xml version="1.0" encoding="UTF-8"?>
<svg width="127px" height="22px" viewBox="0 0 127 22" version="1.1" xmlns="http://www.w3.org/2000/svg" xmlns:xlink="http://www.w3.org/1999/xlink">
    <title>LOGOTYPE / DEVELOPERS</title>
    <g id="LOGOTYPE-/-DEVELOPERS" stroke="none" stroke-width="1" fill="none" fill-rule="evenodd">
        <g id="type" transform="translate(0.191566, 0.007801)" fill="#008080">
            <polygon id="Fill-4" points="51.8003227 11.6451412 53.6612317 0.460676204 56.4821035 0.460676204 58.6776496 6.42410149 60.8587555 0.460676204 63.6789995 0.460676204 65.5399085 11.6451412 62.7045964 11.6451412 61.7597017 5.20771646 59.1717574 11.6451412 58.0378837 11.6451412 55.5805295 5.20771646 54.6356348 11.6451412"></polygon>
            <polygon id="Fill-6" points="66.0474519 11.6451412 67.9083609 0.460676204 70.7292327 0.460676204 72.9247788 6.42410149 75.1058847 0.460676204 77.9261287 0.460676204 79.7870377 11.6451412 76.9517256 11.6451412 76.0068309 5.20771646 73.4188866 11.6451412 72.2850129 11.6451412 69.8276587 5.20771646 68.882764 11.6451412"></polygon>
            <path d="M83.4607005,0.460355934 L83.4607005,6.54292161 C83.4607005,6.86895636 83.4732573,7.20203704 83.4977429,7.54344474 C83.5216007,7.88485244 83.593802,8.19423315 83.7149745,8.47094633 C83.8361471,8.74765951 84.0282652,8.97312951 84.2894454,9.14543471 C84.5512535,9.31902099 84.9197938,9.40549386 85.3950665,9.40549386 C85.8697113,9.40549386 86.2351124,9.31902099 86.4925256,9.14543471 C86.7486831,8.97312951 86.9401734,8.74765951 87.0669965,8.47094633 C87.1925639,8.19423315 87.2679043,7.88485244 87.2917622,7.54344474 C87.3162478,7.20203704 87.3288045,6.86895636 87.3288045,6.54292161 L87.3288045,0.460355934 L90.1634888,0.460355934 L90.1634888,6.94261843 C90.1634888,8.68360553 89.7729741,9.95443644 88.9932005,10.7551112 C88.2127991,11.5564264 87.0136303,11.9567638 85.3950665,11.9567638 C83.7758747,11.9567638 82.5741946,11.5564264 81.7887705,10.7551112 C81.0039742,9.95443644 80.6109482,8.68360553 80.6109482,6.94261843 L80.6109482,0.460355934 L83.4607005,0.460355934 Z" id="Fill-8"></path>
            <polygon id="Fill-10" points="91.7335836 11.6451412 91.7335836 0.460676204 94.5833359 0.460676204 99.8464938 7.29907881 99.8464938 0.460676204 102.681806 0.460676204 102.681806 11.6451412 99.8464938 11.6451412 94.5833359 4.80673856 94.5833359 11.6451412"></polygon>
            <polygon id="Fill-12" points="103.770726 11.644885 106.620479 11.644885 106.620479 0.460419988 103.770726 0.460419988"></polygon>
            <polygon id="Fill-14" points="112.789731 2.92310325 112.789731 11.6453333 109.939979 11.6453333 109.939979 2.92310325 107.599402 2.92310325 107.599402 0.460227826 115.130935 0.460227826 115.130935 2.92310325"></polygon>
            <polygon id="Fill-15" points="119.38472 6.2753041 115.386026 0.460484042 118.788275 0.460484042 120.82435 3.5164993 122.84473 0.460484042 126.246979 0.460484042 122.234472 6.2753041 122.234472 11.644949 119.38472 11.644949"></polygon>
            <path d="M6.51380928,3.32344061 C6.20365778,3.06658416 5.89350628,2.87634385 5.58335478,2.75207913 C5.27257545,2.6290955 4.97246935,2.56696314 4.6817808,2.56696314 C4.31324046,2.56696314 4.01313435,2.65599817 3.78020681,2.83406822 C3.54727927,3.01213828 3.43175725,3.24465422 3.43175725,3.5309755 C3.43175725,3.72890229 3.48951826,3.89223993 3.60566811,4.02034788 C3.7224458,4.14973692 3.8750102,4.2605503 4.06398915,4.3540691 C4.25234026,4.44822845 4.46580486,4.53021754 4.70312726,4.59939584 C4.94107749,4.66857413 5.17588855,4.74287674 5.40881609,4.82166314 C6.33927058,5.13808978 7.02047377,5.56084603 7.45116997,6.08993189 C7.88312186,6.61901774 8.09846996,7.30887907 8.09846996,8.15951589 C8.09846996,8.73279899 8.00366657,9.25227674 7.81468762,9.71666808 C7.62570867,10.1817 7.34946037,10.5794752 6.98657057,10.9106342 C6.62305292,11.2424338 6.17666079,11.4992903 5.64864984,11.6824846 C5.12001105,11.8650385 4.52168235,11.9566357 3.85303591,11.9566357 C2.46677172,11.9566357 1.18284498,11.5364416 0,10.6960534 L1.22114304,8.35231836 C1.64807223,8.73792331 2.06935088,9.02488512 2.48623467,9.21256328 C2.90311847,9.40024143 3.31497956,9.49440078 3.7224458,9.49440078 C4.18767305,9.49440078 4.53423909,9.38550902 4.7615161,9.16836603 C4.98942095,8.95058251 5.10368729,8.70333416 5.10368729,8.42598044 C5.10368729,8.25815902 5.07417895,8.11275649 5.0157901,7.98849177 C4.95740126,7.8648676 4.86071435,7.75149206 4.72510155,7.64708407 C4.58948875,7.54331663 4.41243871,7.44723566 4.19520709,7.35820064 C3.9767198,7.26916561 3.71240041,7.17052248 3.40224891,7.06163072 C3.03370857,6.94313086 2.67270227,6.81182021 2.31860218,6.6683393 C1.96512993,6.52549893 1.65058357,6.33461808 1.37370744,6.09761836 C1.09745914,5.85997811 0.875204832,5.56084603 0.705060994,5.20022214 C0.535544994,4.83895771 0.450786994,4.38161231 0.450786994,3.82818595 C0.450786994,3.27411905 0.539939853,2.7725764 0.719501246,2.32227694 C0.899062639,1.87261802 1.15082529,1.48637254 1.47604488,1.16546212 C1.80063663,0.84391115 2.19805747,0.594100639 2.66830741,0.416030582 C3.13792952,0.237960525 3.66405696,0.148925497 4.24606189,0.148925497 C4.78851309,0.148925497 5.35544994,0.22579027 5.94687243,0.378879275 C6.53766708,0.532608821 7.10460393,0.757438281 7.6483108,1.0540082 L6.51380928,3.32344061 Z" id="Fill-16"></path>
            <polygon id="Fill-17" points="14.8900343 2.92310325 11.5022257 2.92310325 11.5022257 4.79219831 14.7004276 4.79219831 14.7004276 7.25443319 11.5022257 7.25443319 11.5022257 9.18245791 14.8900343 9.18245791 14.8900343 11.6453333 8.65184553 11.6453333 8.65184553 0.460868366 14.8900343 0.460868366"></polygon>
            <polygon id="Fill-18" points="19.206414 0.460676204 19.206414 9.18290629 22.6231031 9.18290629 22.6231031 11.6451412 16.3566617 11.6451412 16.3566617 0.460676204"></polygon>
            <polygon id="Fill-19" points="29.5093454 2.92310325 26.0775881 2.92310325 26.0775881 4.79219831 29.2042166 4.79219831 29.2042166 7.25443319 26.0775881 7.25443319 26.0775881 11.6453333 23.2278358 11.6453333 23.2278358 0.460868366 29.5093454 0.460868366"></polygon>
            <path d="M46.5078448,0 C45.0544021,0 43.7315494,0.594420909 42.7414504,1.55266841 C42.7408226,1.55394949 42.7401948,1.55394949 42.7395669,1.55459003 C42.7370556,1.55779273 42.7345442,1.55971435 42.7320329,1.5622765 C42.5304972,1.75892222 42.3427739,1.97030034 42.1707466,2.1951298 C40.0329614,4.65159983 39.6857676,5.66877699 38.1576122,7.24066159 C38.0860388,7.31368312 38.011954,7.38862627 37.9347301,7.46485051 C37.8524834,7.54619906 37.7683532,7.62882869 37.6785725,7.71337994 C37.2874301,8.05030386 36.6438971,8.43014394 35.7278829,8.43014394 C34.0842055,8.43014394 33.1958161,6.82815397 33.1958161,5.66493375 C33.1958161,4.5625648 33.9215957,3.02142611 35.5357647,3.02142611 C37.164374,3.02142611 38.1714246,4.33581372 38.2153732,4.39602446 L38.200933,4.3806515 L38.6893902,4.96098054 L40.5848302,2.59866986 C40.5107454,2.49234025 38.6749499,0 35.5357647,0 C33.9806124,0 32.5742574,0.664880284 31.5822749,1.87293829 C30.722766,2.91573704 30.2343088,4.30570835 30.2343088,5.66493375 C30.2343088,7.0395321 30.7522743,8.44487636 31.6557318,9.51713994 C32.7073589,10.7559439 34.1582903,11.4509295 35.7278829,11.4509295 C37.8223472,11.4509295 39.3247613,10.4030064 40.1522505,9.47166161 C40.1553897,9.46845892 40.1585289,9.46525622 40.1622959,9.46141298 C42.1644682,7.27268858 43.6574647,5.13969113 43.6606039,5.13648844 L44.3323895,4.30698943 L44.3323895,4.30762997 C44.7957332,3.54666872 45.5993646,3.02142611 46.5078448,3.02142611 C47.944336,3.02142611 49.1139964,4.30570835 49.1139964,5.77062281 C49.1139964,7.23617781 47.944336,8.43014394 46.5078448,8.43014394 C45.2069665,8.43014394 44.1195527,7.42898028 43.9443862,6.13573048 L41.8072289,8.78884622 C42.7904217,10.3857119 44.5282746,11.4509295 46.5078448,11.4509295 C49.5880133,11.4509295 52.0755037,8.89837852 52.0755037,5.77062281 C52.0755037,2.64350764 49.5880133,0 46.5078448,0" id="Fill-20"></path>
        </g>
        <path d="M45.994366,22 C46.8807297,22 47.6463547,21.8259943 48.291241,21.477983 C48.9361274,21.1299716 49.4325763,20.6292614 49.7805876,19.9758523 C50.128599,19.3224432 50.3026047,18.5411932 50.3026047,17.6321023 C50.3026047,16.7258523 50.1278888,15.946733 49.7784569,15.2947443 C49.4290251,14.6427557 48.9325763,14.1427557 48.2891104,13.7947443 C47.6456444,13.446733 46.8793092,13.2727273 45.9901047,13.2727273 L45.9901047,13.2727273 L42.7685138,13.2727273 L42.7685138,22 L45.994366,22 Z M45.9134001,20.2017045 L44.8778888,20.2017045 L44.8778888,15.0710227 L45.8835706,15.0710227 C46.3835706,15.0710227 46.8047354,15.1541193 47.1470649,15.3203125 C47.4893944,15.4865057 47.7486274,15.756392 47.9247638,16.1299716 C48.1009001,16.5035511 48.1889683,17.0042614 48.1889683,17.6321023 C48.1889683,18.2599432 48.1016104,18.7620739 47.9268944,19.1384943 C47.7521785,19.5149148 47.4950763,19.7862216 47.1555876,19.9524148 C46.816099,20.118608 46.4020365,20.2017045 45.9134001,20.2017045 L45.9134001,20.2017045 Z M57.8151026,22 L57.8151026,20.2869318 L53.8392503,20.2869318 L53.8392503,18.4928977 L57.504023,18.4928977 L57.504023,16.7755682 L53.8392503,16.7755682 L53.8392503,14.9857955 L57.8151026,14.9857955 L57.8151026,13.2727273 L51.7298753,13.2727273 L51.7298753,22 L57.8151026,22 Z M64.7114059,22 L67.6560081,13.2727273 L65.2952127,13.2727273 L63.3435081,19.6647727 L63.271065,19.6647727 L61.3193604,13.2727273 L58.958565,13.2727273 L61.9031672,22 L64.7114059,22 Z M74.882127,22 L74.882127,20.2869318 L70.9062748,20.2869318 L70.9062748,18.4928977 L74.5710475,18.4928977 L74.5710475,16.7755682 L70.9062748,16.7755682 L70.9062748,14.9857955 L74.882127,14.9857955 L74.882127,13.2727273 L68.7968998,13.2727273 L68.7968998,22 L74.882127,22 Z M82.1449076,22 L82.1449076,20.2869318 L78.5142258,20.2869318 L78.5142258,13.2727273 L76.4048508,13.2727273 L76.4048508,22 L82.1449076,22 Z M87.1653609,22.1193182 C87.9466109,22.1193182 88.6518666,21.9460227 89.2811279,21.5994318 C89.9103893,21.2528409 90.4096791,20.7457386 90.7789972,20.078125 C91.1483154,19.4105114 91.3329745,18.5965909 91.3329745,17.6363636 C91.3329745,16.6761364 91.1483154,15.8622159 90.7789972,15.1946023 C90.4096791,14.5269886 89.9103893,14.0198864 89.2811279,13.6732955 C88.6518666,13.3267045 87.9466109,13.1534091 87.1653609,13.1534091 C86.38127,13.1534091 85.6753041,13.3267045 85.0474632,13.6732955 C84.4196222,14.0198864 83.9217529,14.5269886 83.5538552,15.1946023 C83.1859575,15.8622159 83.0020086,16.6761364 83.0020086,17.6363636 C83.0020086,18.59375 83.1859575,19.4055398 83.5538552,20.071733 C83.9217529,20.7379261 84.4196222,21.2457386 85.0474632,21.5951705 C85.6753041,21.9446023 86.38127,22.1193182 87.1653609,22.1193182 Z M87.1653609,20.2698864 C86.7477472,20.2698864 86.3883722,20.1690341 86.0872359,19.9673295 C85.7860995,19.765625 85.5552757,19.46875 85.3947643,19.0767045 C85.2342529,18.6846591 85.1539972,18.2045455 85.1539972,17.6363636 C85.1539972,17.0681818 85.2342529,16.5880682 85.3947643,16.1960227 C85.5552757,15.8039773 85.7860995,15.5071023 86.0872359,15.3053977 C86.3883722,15.1036932 86.7477472,15.0028409 87.1653609,15.0028409 C87.5858154,15.0028409 87.9459007,15.1036932 88.2456166,15.3053977 C88.5453325,15.5071023 88.7754461,15.8039773 88.9359575,16.1960227 C89.0964688,16.5880682 89.1767245,17.0681818 89.1767245,17.6363636 C89.1767245,18.2045455 89.0964688,18.6846591 88.9359575,19.0767045 C88.7754461,19.46875 88.5453325,19.765625 88.2456166,19.9673295 C87.9459007,20.1690341 87.5858154,20.2698864 87.1653609,20.2698864 Z M94.868765,22 L94.868,19.29 L96.3005832,19.2897727 C96.8847451,19.2897727 97.3993048,19.1951571 97.8442621,19.005926 L98.0306968,18.9190341 C98.5164923,18.671875 98.890782,18.3231534 99.1535661,17.8728693 C99.4163502,17.4225852 99.5477423,16.8963068 99.5477423,16.2940341 C99.5477423,15.6946023 99.4184809,15.1683239 99.1599582,14.7151989 C98.9014354,14.2620739 98.5342479,13.9083807 98.0583957,13.6541193 C97.5825434,13.399858 97.0179127,13.2727273 96.3645036,13.2727273 L96.3645036,13.2727273 L92.75939,13.2727273 L92.75939,22 L94.868765,22 Z M94.868765,14.9730114 L95.9085377,14.9730114 C96.2238786,14.9730114 96.4895036,15.0269886 96.7054127,15.1349432 C96.9213218,15.2428977 97.0846741,15.3955966 97.1954695,15.5930398 C97.306265,15.790483 97.3616627,16.0241477 97.3616627,16.2940341 C97.3616627,16.5610795 97.306265,16.7947443 97.1954695,16.9950284 C97.0846741,17.1953125 96.922032,17.3508523 96.7075434,17.4616477 C96.4930548,17.5724432 96.2267195,17.6278409 95.9085377,17.6278409 L95.9085377,17.6278409 L94.868,17.628 L94.868765,14.9730114 Z M106.868478,22 L106.868478,20.2869318 L102.892625,20.2869318 L102.892625,18.4928977 L106.557398,18.4928977 L106.557398,16.7755682 L102.892625,16.7755682 L102.892625,14.9857955 L106.868478,14.9857955 L106.868478,13.2727273 L100.78325,13.2727273 L100.78325,22 L106.868478,22 Z M110.500577,22 L110.5,19.013 L111.581,19.013 L113.176713,22 L115.477849,22 L113.667,18.678 L113.859662,18.581995 C114.184047,18.4041483 114.451904,18.1748464 114.663233,17.8940892 L114.783247,17.7194602 C115.047452,17.2975852 115.179554,16.7840909 115.179554,16.1789773 C115.179554,15.5823864 115.050292,15.0660511 114.79177,14.6299716 C114.533247,14.193892 114.166059,13.8586648 113.690207,13.6242898 C113.214355,13.3899148 112.649724,13.2727273 111.996315,13.2727273 L111.996315,13.2727273 L108.391202,13.2727273 L108.391202,22 L110.500577,22 Z M110.500577,14.9730114 L111.540349,14.9730114 C111.85569,14.9730114 112.121315,15.0177557 112.337224,15.1072443 C112.553133,15.196733 112.716486,15.3302557 112.827281,15.5078125 C112.938077,15.6853693 112.993474,15.9090909 112.993474,16.1789773 C112.993474,16.4488636 112.938077,16.6697443 112.827281,16.8416193 C112.716486,17.0134943 112.553844,17.1413352 112.339355,17.225142 C112.124866,17.3089489 111.858531,17.3508523 111.540349,17.3508523 L111.540349,17.3508523 L110.5,17.351 L110.500577,14.9730114 Z M119.922163,22.1107955 C120.649436,22.1107955 121.270885,22.0056818 121.78651,21.7954545 C122.302135,21.5852273 122.697731,21.2826705 122.9733,20.8877841 C123.248868,20.4928977 123.388072,20.0198864 123.390913,19.46875 C123.388072,19.1193182 123.328413,18.8039773 123.211936,18.5227273 C123.095459,18.2414773 122.924294,17.9928977 122.698442,17.7769886 C122.472589,17.5610795 122.19418,17.375 121.863214,17.21875 C121.532248,17.0625 121.150856,16.9375 120.719038,16.84375 L120.719038,16.84375 L119.969038,16.6732955 C119.770175,16.6306818 119.591197,16.5809659 119.432106,16.5241477 C119.273016,16.4673295 119.137362,16.4012784 119.025146,16.3259943 C118.91293,16.2507102 118.827703,16.1633523 118.769464,16.0639205 C118.711226,15.9644886 118.684947,15.8494318 118.690629,15.71875 C118.69347,15.5596591 118.740345,15.4183239 118.831254,15.2947443 C118.922163,15.1711648 119.058527,15.0738636 119.240345,15.0028409 C119.422163,14.9318182 119.649436,14.8963068 119.922163,14.8963068 C120.334095,14.8963068 120.651567,14.9836648 120.874578,15.1583807 C121.097589,15.3330966 121.2233,15.5767045 121.251709,15.8892045 L121.251709,15.8892045 L123.271595,15.8892045 C123.265913,15.3465909 123.125288,14.8693182 122.84972,14.4573864 C122.574152,14.0454545 122.187078,13.725142 121.688498,13.4964489 C121.189919,13.2677557 120.602561,13.1534091 119.926425,13.1534091 C119.264493,13.1534091 118.675004,13.2670455 118.157959,13.4943182 C117.640913,13.7215909 117.236084,14.0383523 116.94347,14.4446023 C116.650856,14.8508523 116.50597,15.3238636 116.508811,15.8636364 C116.50597,16.5255682 116.721879,17.0504261 117.156538,17.4382102 C117.591197,17.8259943 118.186368,18.1065341 118.94205,18.2798295 L118.94205,18.2798295 L119.853981,18.4928977 C120.172163,18.5667614 120.434237,18.647017 120.640203,18.7336648 C120.846169,18.8203125 120.998868,18.9225852 121.0983,19.040483 C121.197731,19.1583807 121.248868,19.2997159 121.251709,19.4644886 C121.248868,19.640625 121.19347,19.796875 121.085516,19.9332386 C120.977561,20.0696023 120.823442,20.1761364 120.623158,20.2528409 C120.422873,20.3295455 120.180686,20.3678977 119.896595,20.3678977 C119.586936,20.3678977 119.314919,20.3196023 119.080544,20.2230114 C118.846169,20.1264205 118.66222,19.984375 118.528697,19.796875 C118.395175,19.609375 118.319891,19.375 118.302845,19.09375 L118.302845,19.09375 L116.282959,19.09375 C116.291481,19.7755682 116.446311,20.3394886 116.747447,20.7855114 C117.048584,21.2315341 117.470459,21.5639205 118.013072,21.7826705 C118.555686,22.0014205 119.19205,22.1107955 119.922163,22.1107955 Z" id="DEVELOPERS" fill="#222220" fill-rule="nonzero"></path>
    </g>
</svg>