<?xml version="1.0" encoding="utf-8"?>
<!-- Generator: Adobe Illustrator 26.5.0, SVG Export Plug-In . SVG Version: 6.00 Build 0)  -->
<svg version="1.1" id="Layer_2_00000065065650894315701050000016811216408004786053_"
	 xmlns="http://www.w3.org/2000/svg" xmlns:xlink="http://www.w3.org/1999/xlink" x="0px" y="0px" viewBox="0 0 700 700"
	 style="enable-background:new 0 0 700 700;" xml:space="preserve">
<style type="text/css">
	.st0{opacity:0.4;fill:#008080;enable-background:new    ;}
	.st1{fill:#6EB7B0;}
	.st2{fill:#008080;}
	.st3{fill:#FFFFFF;}
	.st4{fill:#036663;}
	.st5{fill:#130F41;}
	.st6{fill:#CCCCCC;}
	.st7{fill:#98BBFF;}
	.st8{fill:#5379F6;}
</style>
<g>
	<path class="st0" d="M362.3,139.6c-60.5-1.2-121.8-2.3-180.3,13.1S67.3,202.7,39.6,256.4c-40.1,77.5-10.1,177.3,51.4,239.2
		c61.5,61.9,147.6,92.5,232.7,111.9c59,13.4,119.9,22.4,180.1,15.4c60.1-7,119.9-31.3,160.7-76c18-19.7,32.3-43.9,34.8-70.5
		c6.4-67.4-57.1-116.5-56.5-185.3c0.2-21.9,2.8-44.3-2.8-65.5c-8-30.1-32.4-54.4-61-66.7C517.2,132.2,428.1,140.9,362.3,139.6z"/>
	<g>
		<polygon class="st1" points="357.5,165.2 388.9,197.5 420.3,165.2 401.2,165.2 401.2,128.3 376.6,128.3 376.6,165.2 		"/>
		<g>
			<path d="M386.3,208.5l-32.6-33.6h19.8v-36.8h25.6v36.8H419L386.3,208.5z M356.1,175.9l30.2,31.1l30.2-31.1h-18.4v-36.8h-23.5
				v36.8H356.1z"/>
		</g>
	</g>
	<g>
		<polygon class="st2" points="385.1,116.4 353.7,84 322.3,116.4 341.4,116.4 341.4,153.2 366,153.2 366,116.4 		"/>
		<g>
			<path d="M363.9,160.2h-25.6v-36.8h-19.8l32.6-33.6l32.6,33.6h-19.8V160.2z M339.4,159.1h23.5v-36.8h18.4l-30.2-31.1l-30.2,31.1
				h18.4V159.1z"/>
		</g>
	</g>
	<g>
		<g>
			<g>
				<polygon class="st3" points="535.7,151.5 488.5,124.9 488.5,61.1 535.7,87.7 				"/>
				<polygon class="st1" points="535.7,151.5 582.9,124.9 582.9,61.1 535.7,87.7 				"/>
				<polygon class="st2" points="582.9,61.1 535.7,34.5 488.5,61.1 535.7,87.7 				"/>
			</g>
			<g>
				<path d="M535.7,152.2l-47.8-26.9V60.7l0.3-0.2l47.5-26.8l47.8,26.9v64.6L535.7,152.2z M489.1,124.6l46.6,26.2l46.6-26.2V61.4
					l-46.6-26.2l-46.6,26.2V124.6z"/>
			</g>
			<g>
				<polygon points="535.7,88.4 488.2,61.6 488.8,60.5 535.7,86.9 582.6,60.5 583.3,61.6 				"/>
			</g>
			<g>
				<rect x="535.1" y="87.7" width="1.2" height="63.8"/>
			</g>
		</g>
		<g>
			<path d="M528.9,162.9c-1.3-0.3-2.3,1-3,2.1c-1,1.7-2.1,3.4-2.5,5.4c-0.4,1.8-0.2,3.7-0.2,5.6c0.1,3.7-0.5,7.5-2.1,10.9
				c-1.5,3.3-4,6-5.4,9.3c-2,4.6-1.9,10,0.2,14.6c0.1,0.3,0.3,0.5,0.5,0.7c0.3,0.2,0.6,0.2,0.9,0.2c5.7,0.5,11.4,1,17.1,1.5
				c5.2,0.5,10.5,0.9,15.7,1.2c3.2,0.2,6.5,0.3,9.7-0.1c0.4,0,0.8-0.1,1-0.4c0.4-0.4,0.5-0.9,0.5-1.5c0.3-4.5,1.4-8.8,2.2-13.2
				c0.7-4.4,1-9.1-0.5-13.3c-1.7-4.7-5.5-8.3-9.2-11.7c-3.2-2.9-6.5-5.8-10.2-8c-3.7-2.2-7.9-3.8-12.3-4c-1.6-0.1-3.5,0.2-4.4,1.6"
				/>
			<g>
				<polygon class="st3" points="522.6,457.2 522.2,471.2 535.5,475 535.5,459.7 				"/>
				<g>
					<path d="M536,471.1l-1.2,0c0.1-3,0.2-7.9,0.2-8.4l1.2-0.2C536.2,462.5,536.3,462.8,536,471.1z"/>
				</g>
				<g>
					<path d="M521.9,467.6c-0.1-2.9-0.3-6.2-0.4-6.6l0.4-0.1l0.7-0.4c0.1,0.2,0.2,0.4,0.5,7L521.9,467.6z"/>
				</g>
				<g>
					<g>
						<path class="st4" d="M535.7,470.7c0,0-5.7,3.9-8.4,0.2s-4.7-3.8-5.3-3.1c-0.6,0.7-15.2,11.7-18.8,14.1s1.8,5.4,8.2,5
							c4.4-0.3,9.8-1.5,13.7-2.5c4.2-1.1,10.7-2.3,10.7-2.3S537.2,474,535.7,470.7z"/>
						<path d="M510.2,487.5c-4.3,0-8.1-1.4-8.8-3.4c-0.2-0.6-0.3-1.7,1.4-2.8c3.7-2.5,18.1-13.4,18.7-14c0.3-0.4,0.8-0.5,1.4-0.5
							c1,0.1,2.6,0.7,4.8,3.7c2.3,3.2,7.5-0.3,7.6-0.4l0.6-0.4l0.3,0.7c1.6,3.4,0.3,11.5,0.2,11.8l-0.1,0.4l-0.4,0.1
							c-0.1,0-6.6,1.2-10.7,2.3c-5.7,1.4-10.3,2.3-13.9,2.5C511,487.5,510.6,487.5,510.2,487.5z M522.8,468.1c-0.2,0-0.3,0-0.4,0.1
							c-0.7,0.7-15.4,11.9-18.9,14.2c-0.7,0.5-1,0.9-0.9,1.4c0.4,1.2,3.9,2.8,8.7,2.5c3.5-0.2,8-1,13.6-2.4
							c3.5-0.9,8.8-1.9,10.3-2.2c0.2-1.6,1-7.1,0.1-10c-2.3,1.4-6.4,2.7-8.6-0.3C524.6,468.4,523.2,468.1,522.8,468.1
							C522.8,468.1,522.8,468.1,522.8,468.1z"/>
					</g>
					<g>
						<path class="st3" d="M535.8,481.6l-0.2,4.7c0,0-21,7.2-30.2,4.1c-3.9-1.3-3.4-6-3.4-6s3.2,3.6,12.5,2.2
							C521.9,485.5,535.8,481.6,535.8,481.6z"/>
						<path d="M511.1,491.7c-2.3,0-4.3-0.2-6-0.8c-3.4-1.2-4-4.8-3.8-6.6l0.1-1.4l0.9,1c0,0,3.2,3.3,11.9,2c7.4-1.1,21.2-5,21.3-5
							l0.8-0.2l-0.3,5.9l-0.4,0.1C535,487,521.2,491.7,511.1,491.7z M502.5,485.7c0.1,1.3,0.7,3.3,3,4.1c8.2,2.8,26.5-3,29.4-4
							l0.2-3.4c-3.1,0.9-14.2,3.9-20.6,4.8C507.9,488.2,504.2,486.7,502.5,485.7z"/>
					</g>
				</g>
				<g>
					<rect x="510.9" y="476.5" transform="matrix(0.5616 -0.8274 0.8274 0.5616 -172.181 633.1127)" width="1" height="5"/>
				</g>
				<g>
					<rect x="516.6" y="472.1" transform="matrix(0.5948 -0.8039 0.8039 0.5948 -171.7918 607.9344)" width="1" height="4.4"/>
				</g>
			</g>
			<g>
				<polygon class="st3" points="610.2,456.8 612,470.2 598.9,470.3 594,456.5 				"/>
				<g>
					<path d="M597.6,468.4c-2.6-7-2.5-7.2-2.4-7.4l0.6,0.2l0.6,0c0.1,0.4,1.3,3.8,2.4,6.8L597.6,468.4z"/>
				</g>
				<g>
					<path d="M610.8,466.4c-1.5-6.6-1.4-6.7-1.2-7l0.5,0.4l0.6,0.1c0,0.4,0.6,3.5,1.3,6.3L610.8,466.4z"/>
				</g>
				<g>
					<g>
						<path class="st4" d="M598,467.8c0,0,5.2,4.5,8.3,1.2c3.1-3.4,5.1-3.2,5.6-2.5c0.5,0.7,13.7,13.4,17,16.2
							c3.4,2.8-2.4,5.1-8.7,4c-4.4-0.8-9.5-2.6-13.4-4.1c-4-1.5-10.4-3.5-10.4-3.5S596,470.9,598,467.8z"/>
						<path d="M623.5,487.6c-1.1,0-2.3-0.1-3.4-0.3c-3.5-0.6-8-2-13.5-4.1c-4-1.5-10.3-3.5-10.4-3.5l-0.4-0.1l0-0.4
							c0-0.3-0.4-8.5,1.6-11.7l0.4-0.6l0.5,0.5c0,0,4.8,4.1,7.5,1.2c2.5-2.7,4.2-3.2,5.2-3.1c0.6,0,1.1,0.3,1.4,0.7
							c0.6,0.7,13.5,13.2,16.9,16.1c1.5,1.3,1.3,2.4,1,2.9C629.7,486.7,626.9,487.6,623.5,487.6z M597.1,478.7
							c1.5,0.5,6.6,2.1,10,3.4c5.4,2.1,9.8,3.4,13.2,4c4.7,0.8,8.4-0.3,8.9-1.4c0.2-0.4,0-0.9-0.7-1.5c-3.2-2.7-16.5-15.5-17.1-16.3
							c-0.1-0.1-0.2-0.2-0.4-0.2c-0.4,0-1.8,0.1-4.2,2.7c-2.5,2.7-6.4,1-8.6-0.7C596.9,471.6,597,477.1,597.1,478.7z"/>
					</g>
					<g>
						<path class="st3" d="M596.6,478.6l-0.3,4.7c0,0,20,9.6,29.5,7.6c4-0.8,4.1-5.5,4.1-5.5s-3.6,3.2-12.7,0.8
							C609.9,484.1,596.6,478.6,596.6,478.6z"/>
						<path d="M622.9,491.7c-10.1,0-26.1-7.6-26.9-7.9l-0.4-0.2l0.4-5.9l0.8,0.3c0.1,0.1,13.3,5.5,20.6,7.5
							c8.5,2.3,12.1-0.6,12.1-0.6l1-0.9l0,1.4c0,1.8-1,5.4-4.6,6.1C625,491.7,624,491.7,622.9,491.7z M596.9,482.9
							c2.8,1.3,20.3,9.2,28.7,7.4c2.3-0.5,3.1-2.4,3.4-3.7c-1.8,0.8-5.6,1.9-12,0.2c-6.3-1.7-16.9-6-19.9-7.2L596.9,482.9z"/>
					</g>
				</g>
				<g>
					<rect x="618.6" y="478.4" transform="matrix(0.8875 -0.4609 0.4609 0.8875 -150.8356 340.1398)" width="5" height="1"/>
				</g>
				<g>
					<rect x="613.7" y="473.1" transform="matrix(0.8682 -0.4962 0.4962 0.8682 -153.8341 368.0234)" width="4.4" height="1"/>
				</g>
			</g>
			<path class="st5" d="M510.4,346.5c0,9.1,0.2,18.3,0.7,27.4c1.5,29.6,3.1,57.5,7.7,86.9c0.1,0.9,0.3,1.9,1,2.5
				c0.8,0.7,1.9,0.7,2.9,0.7c7.1,0,17.6,0.2,24.6,0.2c2.2-20.7,0.9-87.2,1.6-95c1.2-13.8,0.7-30.9,3.1-44.3
				c2.8-15.5,4.8-26,6.2-41.9c0.1-1.5-36.5-5.1-39.4-4.8C512.6,300.5,510.5,323.5,510.4,346.5z"/>
			<path class="st5" d="M612.8,463.7c-8.4,0-17.9-0.6-26.3-0.6c-4.4,0-15.2-35.5-17.1-40.1c-5.9-14.4-9.9-32.3-13.8-47.4
				c-7.6-29-11.1-54.8-12.7-84.7c-0.1-1.1-2.8-2.6-2.1-3.4c0.7-0.7,1.8-0.9,2.7-1c6.5-0.7,22.1-4.2,28-1.1c5.5,2.8,7,14.8,8.7,20.9
				c4.9,17.2,10,33.3,13.2,50.9C595.3,366.6,611.4,433,612.8,463.7z"/>
			<g>
				<path d="M545.5,464.8c-3.2,0-6.9,0-10.5-0.1c-4.3-0.1-8.8-0.1-12.3-0.1c-1.2,0-2.4-0.1-3.3-0.9c-0.8-0.7-1-1.8-1.2-2.8
					c-4.5-28.9-6.1-56.5-7.7-87c-0.5-10-0.7-19-0.7-27.4c0.1-26.2,2.9-48.6,8.5-68.4l0.1-0.3l0.4,0c2.2-0.2,37.8,2.9,39.7,4.8
					c0.2,0.2,0.2,0.4,0.2,0.5l-0.1,0.8c6.4-0.6,10.6-0.3,13.1,1c4.6,2.3,6.4,10.4,7.9,16.8c0.4,1.6,0.7,3.2,1.1,4.4
					c0.8,2.9,1.7,5.8,2.5,8.6c4.1,14.2,8,27.6,10.8,42.3c0.3,1.9,1.3,6,2.5,11.7c5.1,22.8,15.6,70.3,16.7,94.9l0,0.5l-0.5,0
					c-4.2,0-8.8-0.2-13.2-0.3c-4.4-0.2-9-0.3-13.1-0.3c-3.2,0-8.2-13-15.3-34c-1-3.1-1.8-5.5-2.2-6.4c-4.7-11.6-8.1-25.1-11.4-38.1
					c-0.8-3.2-1.6-6.3-2.4-9.4c-1.8-6.9-3.4-13.6-4.8-20.3c-0.2,4.9-0.4,9.6-0.8,14c-0.3,2.8-0.3,13.3-0.3,26.6
					c0,23.3,0,55.2-1.4,68.4l0,0.5l-0.5,0C546.7,464.8,546.1,464.8,545.5,464.8z M524.5,463.6c3.2,0,6.9,0,10.5,0.1
					c4.1,0,8.4,0.1,11.8,0.1c1.3-13.4,1.3-44.8,1.3-67.8c0-13.3,0-23.8,0.3-26.7c0.5-5.3,0.7-10.9,0.9-16.9l0.2-5.8l0.9,4.4
					c1.6,8.2,3.4,16.2,5.6,24.6c0.8,3,1.6,6.2,2.4,9.4c3.3,13,6.7,26.4,11.4,38c0.4,1,1.2,3.3,2.3,6.5c3.1,9.1,11.2,33.3,14.3,33.3
					c4.2,0,8.8,0.2,13.2,0.3c4.2,0.1,8.6,0.3,12.6,0.3c-1.2-24.7-11.7-71.6-16.7-94.2c-1.3-5.7-2.2-9.8-2.5-11.7
					c-2.7-14.6-6.6-28-10.7-42.2c-0.8-2.8-1.7-5.7-2.5-8.6c-0.4-1.3-0.7-2.8-1.1-4.5c-1.4-6.3-3.3-14-7.4-16.1
					c-2.4-1.2-6.7-1.5-13.2-0.8l-0.6,0.1l0.2-1.9c-2.7-1.3-33.6-4.6-38.4-4.5c-5.5,19.6-8.2,41.8-8.3,67.7c0,8.4,0.2,17.3,0.7,27.4
					c1.5,30.4,3.2,58,7.7,86.9c0.1,0.9,0.3,1.7,0.9,2.2c0.6,0.6,1.6,0.6,2.6,0.6C523.3,463.6,523.9,463.6,524.5,463.6z"/>
			</g>
			<g>
				<path d="M550.1,354.8c-1.5-8.4-2.4-15.2-2.8-20.6l1-0.1c0.4,5.4,1.3,12.1,2.7,20.5L550.1,354.8z"/>
			</g>
			<g>
				<path d="M601.9,433.9c-4.6-22.2-10.8-45.7-18.1-68l1-0.3c7.3,22.4,13.5,45.9,18.1,68.1L601.9,433.9z"/>
			</g>
			<path class="st1" d="M575.5,213.4c0.8,2.6,0.8,5.3,0.9,8c0.1,7.9,2.4,16.7,2.6,24.6c0.1,3.7,2.7,21.1,3.4,24.1
				c3.1,14.3,4.3,26.3,4.6,42.1c0,1,0,2.2-0.7,2.9c-0.6,0.6-1.5,0.8-2.4,0.9c-20.8,2.9-41.4-7.2-62.3-6.2c-4.5,0.2-9.2,1.1-12.5,4.1
				c-2.8-11-1.6-20.5-1-31.4c0.5-10,0.3-38.8,0-43.3c-0.4-5.1-0.5-10.2,0.4-15.3c1.2-7.2,6-24,12.9-21.6c7.2,2.5,14,3.2,21.8,3
				c8.5-0.1,20.8-0.7,29.7-8.5c0,0,0.8,11.8,2.4,15.9C575.4,212.9,575.5,213.2,575.5,213.4z"/>
			<g>
				<path d="M515.8,380.5c-2.2-17.3-2.5-35.5-0.9-52.7l1,0.1c-1.6,17.1-1.3,35.2,0.9,52.5L515.8,380.5z"/>
			</g>
			<g>
				<path class="st3" d="M528.4,167.5c0,0-1.6,16.6-0.5,22.7c1.1,6.1,6.9,7.3,6.9,7.3c0.6,0.1,0.1,3.8,0.1,4.2c0,0.5-0.1,1-0.1,1.4
					c0,0.3,0.2,1,0.2,1.2c-0.3,0.7-2.4,1.1-3,1.4c-0.9,0.5-1.7,1.5-1.4,2.5c0.1,0.5,0.5,1,1,1.3c0.5,0.3,1,0.4,1.5,0.6
					c2.3,0.6,4.5,0.7,6.8,0.7c3.7,0,7.7,0.6,11.4-0.3c1-0.3,3.4-1.4,3.3-2.5c0-1-2.3-2.4-3.6-2.8c-0.6-0.2-0.1-0.4-0.1-0.9
					c-0.2-3.9,0.5-7.8,2.2-11.3c0.8-1.7,1.9-3.3,2.2-5.2c0.3-2.3,0.5-4.7,0.8-7c0.5-4.7,1.1-9.4,1.6-14
					C557.8,166.8,535.3,159.2,528.4,167.5z"/>
				<g>
					<path d="M538.6,198.2c-4.3,0-8.2-0.9-10.1-5.2c-1.6-3.7-1.4-7.9-1.2-11.9c0-0.5,0-1,0.1-1.5c0-0.9,0.1-1.8,0.1-2.7
						c0.1-1.9,0.1-3.8,0.2-5.7l1,0c0,1.9-0.1,3.8-0.2,5.7c0,0.9-0.1,1.8-0.1,2.6c0,0.5,0,1-0.1,1.5c-0.2,3.9-0.3,8,1.2,11.5
						c2,4.7,7.1,4.8,12.1,4.5l0.1,1C540.6,198.2,539.6,198.2,538.6,198.2z"/>
				</g>
				<path d="M537.2,180.5c0,0.8,0.6,1.5,1.5,1.5c0.8,0,1.5-0.6,1.5-1.5c0-0.8-0.6-1.5-1.5-1.5C537.9,179,537.3,179.7,537.2,180.5z"
					/>
				<path d="M527.8,180c0,0.8,0.6,1.5,1.5,1.5c0.8,0,1.5-0.6,1.5-1.5c0-0.8-0.6-1.5-1.5-1.5C528.5,178.6,527.8,179.2,527.8,180z"/>
				<g>
					<path d="M534.1,188.2l-0.1,0c-0.9,0-1.4,0-2.4-0.3c-1.1-0.4-2-1.2-2.3-2.2c-0.1-0.2-0.1-0.4-0.1-0.7c0.1-0.5,0.5-0.7,0.8-0.8
						c1.7-0.9,2.8-2.9,2.7-4.9l1-0.1c0.1,2.4-1.2,4.7-3.2,5.9c-0.1,0-0.2,0.1-0.3,0.2c0,0,0,0,0,0.1c0.2,0.7,0.8,1.2,1.7,1.5
						c0.8,0.3,1.2,0.3,2,0.3l0.1,0L534.1,188.2z"/>
				</g>
				<g>
					<path d="M533.2,192.3c-0.2,0-0.3,0-0.5,0l0.1-1c2.4,0.1,4.5-0.9,5.5-2.8l0.9,0.5C538,191,535.8,192.3,533.2,192.3z"/>
				</g>
				<g>
					<path d="M542.4,178c-1.8-1.1-3.8-1.8-5.9-2l0.1-1c2.2,0.2,4.4,1,6.3,2.2L542.4,178z"/>
				</g>
				<g>
					<path d="M528.8,175.9l-0.3-1c0.9-0.3,1.8-0.5,2.7-0.4l0,1C530.4,175.5,529.6,175.7,528.8,175.9z"/>
				</g>
				<g>
					<path d="M543.5,211.6c-0.9,0-1.8,0-2.7-0.1l-0.8,0c-2.2-0.1-4.7-0.2-6.8-0.9l-0.1,0c-0.9-0.3-2.1-0.7-2.7-1.5
						c-0.6-0.8-0.4-1.9,0.1-2.6c0.5-0.7,1.2-1.2,1.9-1.5c0.7-0.4,1.4-0.7,2.1-0.9c0.1-1,0-2,0-3c0-1.2-0.1-2.5,0.1-3.8l1,0.1
						c-0.1,1.2-0.1,2.4-0.1,3.6c0,1.1,0.1,2.3,0,3.4l0,0.3l-0.3,0.1c-0.8,0.3-1.6,0.6-2.3,1c-0.5,0.3-1.1,0.7-1.5,1.2
						c-0.3,0.4-0.4,1-0.1,1.5c0.3,0.5,1.5,0.9,2.2,1.1l0.1,0c2,0.6,4.4,0.7,6.5,0.8l0.8,0c2.5,0.1,4.9,0,7.8-0.1
						c1.8-0.1,4-0.5,4.9-1.5c0.3-0.3,0.4-0.7,0.4-1.1c0-0.5-2-2-3-2.1l-0.4-0.1l-0.1-0.4c-0.2-1-0.2-1.5-0.2-2.2
						c0-0.3,0-0.7-0.1-1.1l0-0.5c-0.1-1.3-0.2-2.6-0.3-4l1-0.1c0.1,1.3,0.2,2.6,0.3,4l0,0.5c0,0.5,0.1,0.8,0.1,1.2
						c0,0.6,0,1,0.2,1.7c1.2,0.4,3.4,1.8,3.5,3c0,0.7-0.2,1.3-0.7,1.9c-1.3,1.5-4.4,1.8-5.6,1.8
						C547.1,211.6,545.3,211.6,543.5,211.6z"/>
				</g>
				<g>
					<path d="M549.2,189l-0.8-0.6c0.2-0.3,0.5-0.5,0.8-0.7c0.4-0.3,0.7-0.5,0.8-0.8c0.1-0.2,0.1-0.4,0-0.6c-0.1-0.4-0.2-1-0.7-1.5
						c-0.4-0.4-1.1-0.6-1.7-0.4l-0.3-1c0.9-0.3,2,0,2.7,0.6c0.7,0.6,0.9,1.5,1,2.1c0,0.3,0.1,0.7-0.1,1.1c-0.2,0.6-0.7,1-1.1,1.3
						C549.6,188.6,549.3,188.8,549.2,189z"/>
				</g>
			</g>
			<path d="M573.8,204.9c-1,0.4-2,0.7-3,1c-2.3,0.6-3.4,0.7-5.3-0.4c-1.7-1-3.6-2.3-5.7-2c-3.3,0.5-9.4,1.1-9.4,1.1
				c-0.4-3.1-0.9-13.3-0.9-13.3c2.1-0.8,3.3-4.3,3.3-5.9c0-0.6-0.1-1.3-0.4-1.8c-0.4-0.9-1.1-1.7-2-2.1c-1.5-0.7-3.4-0.2-4.2,1.3
				c-0.1-3.8-2.7-7.4-6.3-8.7c-1.8-0.6-3.8-0.7-5.8-0.6c-1.2,0.1-2.5,0.2-3.7,0.4c-0.6,0.1-1.9,0.1-2.3,0.5
				c-0.5,0.6-0.3,2.4-0.3,3.2c-0.1,1.1-0.2,2.1-0.2,3.2c-1.9-2.7-2.9-5.9-2.8-9.2c0.2-8.4,7.1-16.2,15.9-14c2.4,0.6,4.5,1.9,7,2.1
				c2.1,0.2,5-0.6,6.9,0.7c1.9,1.3,3.1,3.7,4.8,5.2c3.8,3.3,9.1,4.3,13.3,6.7c2.5,1.4,4.7,3.4,5.9,5.9c1.2,2.6,1.3,5.6,1.5,8.5
				c0.5,5.8,4.4,10.2-1,15.1C577.7,203.2,575.8,204.2,573.8,204.9z"/>
			<g>
				<path d="M542.9,215.6c-2.4,0-4.9-0.2-7.3-0.5l0.1-1c4.9,0.6,9.8,0.6,14.7,0c1.3-0.2,2.7-0.4,3.9-1.1l0.5,0.9
					c-1.4,0.8-2.9,1-4.3,1.2C548,215.4,545.4,215.6,542.9,215.6z"/>
			</g>
			<g>
				<g>
					<path class="st3" d="M582.2,109c-0.2-1.4-0.2-2.9,0.7-4c0.9-1.1,2.4-1.6,3.8-1.3c0.3,2,0.8,3.9,1.4,5.7
						c0.3,0.9,1.1,3.7,1.8,5.3c0.1,0.3-0.2,0.5-0.4,0.3C587.4,113.6,582.3,109.8,582.2,109z"/>
					<path d="M589.6,115.8c-0.2,0-0.4-0.1-0.5-0.2c-7.4-5.4-7.5-6.2-7.5-6.5c-0.2-1.3-0.3-3.1,0.9-4.5c1.1-1.2,2.8-1.8,4.4-1.5
						l0.4,0.1l0.1,0.4c0.3,1.9,0.7,3.8,1.4,5.6c0.1,0.2,0.2,0.6,0.3,1.1c0.4,1.2,1,3,1.4,4.2c0.2,0.4,0,0.8-0.3,1
						C590,115.7,589.8,115.8,589.6,115.8z M582.8,108.9c0.3,0.5,2.2,2.2,6.1,5c-0.4-1.1-0.8-2.3-1-3.2c-0.1-0.4-0.3-0.8-0.3-1.1
						c-0.6-1.8-1-3.6-1.3-5.4c-1-0.1-2.1,0.4-2.8,1.1C582.8,106.2,582.6,107.3,582.8,108.9z"/>
				</g>
				<g>
					<path class="st3" d="M579.5,127.5c-0.3-0.6-0.6-1.2-0.9-1.9c-0.7-1.3-6.5-2.3-7.6-2.5c-0.4-0.1-0.7-0.1-1-0.4
						c-1.4-1-1-3.3,0.2-3.5c-2.8-1.9-0.7-4,0.8-4.1c-2.5-1.3-1.2-4.2,0.4-4.1c-1.4-0.6-2.7-4.5,3.7-3.7c3.3,0.4,6.5,1.3,9.4,2.9
						c2.9,1.6,5.4,4,6.9,6.9c1.7,3.4,1.9,7.4,1.6,11.1c-0.4,4-2.1,5.8-6.1,5C583.7,132.8,580.8,130.6,579.5,127.5z"/>
					<path d="M588.6,134.2c-0.6,0-1.2-0.1-1.8-0.2c-3.5-0.7-6.5-3.2-7.7-6.3c-0.2-0.6-0.5-1.1-0.9-1.8c-0.4-0.7-4-1.7-7.1-2.2
						c-0.4-0.1-0.9-0.1-1.3-0.5c-1.1-0.8-1.3-2.1-1.1-3c0.1-0.4,0.3-0.8,0.6-1.1c-1-1-1-2-0.8-2.6c0.2-0.7,0.8-1.3,1.4-1.6
						c-0.7-0.8-0.8-1.9-0.6-2.6c0.2-0.6,0.6-1.1,1-1.5c-0.4-0.6-0.7-1.4-0.5-2.2c0.2-0.9,1.3-2.4,5.5-1.8c3.8,0.5,7,1.5,9.6,3
						c3.2,1.8,5.7,4.3,7.1,7.2c1.9,3.9,1.9,8.3,1.6,11.4c-0.3,2.4-1,4-2.2,4.9C590.6,134,589.7,134.2,588.6,134.2z M571.3,111.8
						c-0.4,0-0.8,0.4-1,0.9c-0.1,0.3-0.3,1.3,1,2l2.1,1.1l-2.4,0c-0.6,0-1.3,0.5-1.5,1.1c-0.2,0.7,0.5,1.4,1.1,1.8l1.3,0.9l-1.5,0.2
						c-0.4,0.1-0.5,0.5-0.6,0.7c-0.1,0.5,0,1.3,0.6,1.7c0.2,0.1,0.4,0.2,0.8,0.2c1.7,0.3,7.2,1.3,8,2.8c0.3,0.6,0.7,1.2,1,1.9h0
						c1.1,2.7,3.8,4.9,6.8,5.5c1.7,0.3,2.9,0.2,3.7-0.4c0.9-0.7,1.5-2,1.7-4c0.3-2.9,0.3-7.1-1.5-10.7c-1.3-2.7-3.7-5-6.6-6.7
						c-2.5-1.4-5.5-2.3-9.2-2.8c-2.4-0.3-3.9,0-4.1,0.9c-0.2,0.6,0.3,1.4,0.7,1.6l3.8,1.6L571.3,111.8
						C571.4,111.8,571.3,111.8,571.3,111.8z"/>
				</g>
				<g>
					<path d="M582.4,114.4c-3.4-1.9-7.8-2.3-11.6-2.5l0.1-1.2c4,0.2,8.5,0.6,12.2,2.7L582.4,114.4z"/>
				</g>
				<g>
					<path d="M581,118.2c-2-1.2-8.1-2.1-10.5-2.1l0-1.2c2.6,0,8.9,0.9,11.2,2.3L581,118.2z"/>
				</g>
				<g>
					<path d="M580.5,122.3c-3.4-1.1-6.9-1.9-10.4-2.4l0.1-1.2c3.6,0.4,7.2,1.2,10.6,2.4L580.5,122.3z"/>
				</g>
			</g>
			<g>
				<g>
					<path class="st3" d="M490.3,114.8c0.2-1.4,0.2-2.9-0.7-4c-0.9-1.1-2.4-1.6-3.8-1.3c-0.3,2-0.8,3.9-1.4,5.7
						c-0.3,0.9-1.1,3.7-1.8,5.3c-0.1,0.3,0.2,0.5,0.4,0.3C485.1,119.4,490.2,115.6,490.3,114.8z"/>
					<path d="M482.8,121.6c-0.2,0-0.4-0.1-0.5-0.2c-0.3-0.2-0.4-0.7-0.3-1c0.5-1.1,1-3,1.4-4.2c0.1-0.5,0.3-0.8,0.3-1.1
						c0.6-1.8,1.1-3.7,1.4-5.6l0.1-0.4l0.4-0.1c1.6-0.3,3.3,0.2,4.4,1.5c1.2,1.4,1.1,3.2,0.9,4.5l0,0c-0.1,0.4-0.2,1.1-7.5,6.5
						C483.2,121.5,483,121.6,482.8,121.6z M486.3,110.1c-0.3,1.8-0.7,3.6-1.3,5.4c-0.1,0.2-0.2,0.6-0.3,1.1c-0.3,0.9-0.7,2.1-1,3.1
						c3.9-2.9,5.8-4.6,6.1-5c0.2-1.6,0.1-2.7-0.6-3.4C488.4,110.5,487.4,110,486.3,110.1z"/>
				</g>
				<g>
					<path class="st3" d="M492.9,133.3c0.3-0.6,0.6-1.2,0.9-1.9c0.7-1.3,6.5-2.3,7.6-2.5c0.4-0.1,0.7-0.1,1-0.4c1.4-1,1-3.3-0.2-3.5
						c2.8-1.9,0.7-4-0.8-4.1c2.5-1.3,1.2-4.2-0.4-4.1c1.4-0.6,2.7-4.5-3.7-3.7c-3.3,0.4-6.5,1.3-9.4,2.9c-2.9,1.6-5.4,4-6.9,6.9
						c-1.7,3.4-1.9,7.4-1.6,11.1c0.4,4,2.1,5.8,6.1,5C488.8,138.6,491.7,136.4,492.9,133.3z"/>
					<path d="M483.9,140c-1.2,0-2.1-0.3-2.9-0.8c-1.2-0.9-1.9-2.5-2.2-4.9c-0.3-3.1-0.3-7.5,1.6-11.4c1.4-2.9,3.9-5.4,7.1-7.2
						c2.7-1.5,5.8-2.4,9.6-3c4.2-0.6,5.3,0.9,5.5,1.8c0.2,0.8,0,1.6-0.5,2.2c0.5,0.3,0.9,0.8,1,1.5c0.2,0.8,0.2,1.8-0.6,2.6
						c0.6,0.3,1.2,0.9,1.4,1.6c0.2,0.6,0.2,1.5-0.8,2.6c0.3,0.3,0.5,0.6,0.6,1.1c0.2,0.9,0,2.2-1.1,3c-0.4,0.3-0.9,0.4-1.3,0.5
						c-3.1,0.5-6.8,1.5-7.1,2.2c-0.4,0.6-0.6,1.2-0.9,1.8l0,0c-1.2,3.1-4.3,5.6-7.7,6.3C485.1,139.9,484.5,140,483.9,140z
						 M499,113.8c-0.5,0-1,0-1.6,0.1c-3.7,0.5-6.7,1.4-9.2,2.8c-2.9,1.6-5.3,4-6.6,6.7c-1.8,3.6-1.8,7.8-1.5,10.7
						c0.2,2,0.8,3.4,1.7,4c0.8,0.6,2.1,0.8,3.7,0.4c3.1-0.6,5.7-2.8,6.8-5.5h0c0.3-0.7,0.6-1.3,1-1.9c0.8-1.5,6.3-2.5,8-2.8
						c0.3-0.1,0.6-0.1,0.8-0.2c0.6-0.4,0.7-1.2,0.6-1.7c0-0.1-0.2-0.6-0.6-0.7l-1.5-0.2l1.3-0.9c0.6-0.4,1.3-1.1,1.1-1.8
						c-0.2-0.6-1-1.1-1.5-1.1l-2.4,0l2.1-1.1c1.3-0.7,1.1-1.7,1-2c-0.2-0.6-0.6-1-1-0.9L497,118l3.8-1.6c0.4-0.2,0.9-0.9,0.7-1.6
						C501.4,114.2,500.5,113.8,499,113.8z"/>
				</g>
				<g>
					<path d="M490.1,120.2l-0.6-1.1c3.6-2,8.2-2.5,12.2-2.7l0.1,1.2C497.9,117.8,493.5,118.3,490.1,120.2z"/>
				</g>
				<g>
					<path d="M491.5,124l-0.6-1.1c2.3-1.4,8.6-2.3,11.2-2.3l0,1.2C499.5,121.9,493.4,122.8,491.5,124z"/>
				</g>
				<g>
					<path d="M491.9,128.1l-0.4-1.2c3.4-1.2,7-2,10.6-2.4l0.1,1.2C498.8,126.2,495.3,127,491.9,128.1z"/>
				</g>
			</g>
			<path class="st1" d="M557.2,204.1c6.1-1.2,18.4-11.1,25.3-22.2c9.7-15.7-0.6-47.2-0.2-49c5.5-1.7,12.3-6.5,17.8-8.2
				c1.5,5.8,18.2,34,9.4,63.1c-8,26.6-29.4,43.8-36.3,46.9C571.4,235.4,556,204.4,557.2,204.1z"/>
			<path class="st1" d="M510.8,192.1c-15.7-12.5-17.4-43.7-18.6-55.2l-20,2.1c0,0-7,32.8,6,58.7c10.6,21.1,21.6,30.8,30.4,35.7
				c11.5-3,13.3-22.5,23.1-28.8C525.6,204.4,517.5,197.4,510.8,192.1z"/>
			<g>
				<path class="st1" d="M576.1,317c-8.7,0-17.4-1.7-25.8-3.4c-9.4-1.9-19.1-3.8-28.7-3.3c-3.6,0.2-8.7,0.8-12.1,4l-0.6,0.6
					l-0.2-0.8c-2.4-9.4-1.8-17.8-1.3-26.7c0.1-1.6,0.2-3.3,0.3-4.9c0.5-10.2,0.3-38.9,0-43.2c-0.2-2.2-0.2-4.2-0.3-6
					c-11.2-6.6-21.1-18.5-29.5-35.3c-12.9-25.8-6.1-58.7-6-59l0.1-0.4l20.9-2.2l0.1,0.5c0.1,0.8,0.2,1.7,0.2,2.7
					c1.2,13.2,3.7,40.8,18.1,52.2l1.7,1.4c6.3,5.1,13.4,10.8,18.8,11l1.7,0.1l-0.5,0.3l-0.1,1c-0.4-0.1-0.9-0.1-1.3-0.2l-1.4-0.2
					l0.1-0.1c-5.5-1-12.1-6.3-18-11l-1.7-1.4c-14.8-11.7-17.3-39.6-18.5-52.9c-0.1-0.8-0.1-1.5-0.2-2.1l-19.1,2c-0.7,3.7-6,34,6,58
					c8.4,16.7,18.3,28.5,29.3,35l0.3,0.1l0,0.3c0,1.9,0.1,4,0.3,6.3c0.3,4.3,0.5,33.1,0,43.3c-0.1,1.7-0.2,3.3-0.3,4.9
					c-0.5,8.5-1,16.6,1.1,25.5c3.7-2.9,8.6-3.5,12.1-3.7c9.7-0.5,19.5,1.5,29,3.3c10.9,2.2,22.2,4.4,33.3,2.9
					c0.8-0.1,1.6-0.3,2.1-0.8c0.6-0.6,0.6-1.6,0.6-2.6c-0.3-16.6-1.6-28.4-4.6-42c-0.7-3-3.3-20.5-3.4-24.2
					c-0.1-3.8-0.7-7.9-1.3-11.8l-0.3-2.2l0.3-0.2c10.8-7.4,25.6-23.4,31.9-44.1c7.2-23.8-2.7-46.7-7.4-57.8c-0.8-2-1.5-3.5-1.8-4.5
					c-2.5,0.9-5.4,2.4-8.2,3.9c-2.9,1.6-6,3.2-8.7,4.1c0.1,0.6,0.4,2.2,0.8,3.8c2.2,9.7,7.2,32.4-0.7,45.1
					c-6.5,10.5-17.8,19.9-24.3,22.1c-2.1,0.5-4.2,0.8-6.5,1.1l-0.1-1c2.3-0.2,4.4-0.6,6.4-1c6.3-2.1,17.3-11.3,23.7-21.6
					c7.7-12.4,2.7-34.8,0.6-44.3c-0.7-3-0.9-4-0.8-4.5l0.1-0.3l0.3-0.1c2.7-0.9,5.9-2.5,8.9-4.1c3-1.6,6.2-3.2,8.9-4.1l0.5-0.2
					l0.1,0.5c0.3,1,1,2.7,2,4.9c4.8,11.1,14.7,34.3,7.5,58.5c-6.3,20.8-21.1,36.9-32,44.5l0.2,1.6c0.6,4,1.2,8.1,1.3,12
					c0.1,3.7,2.7,21,3.4,24c3,13.7,4.3,25.5,4.6,42.2c0,1.1,0,2.4-0.9,3.3c-0.7,0.8-1.8,1-2.7,1.1C581.3,316.9,578.7,317,576.1,317z
					"/>
			</g>
			<g>
				<path d="M576.7,233.7c-0.3-1.8-0.5-3.7-0.6-5.7c-0.2-2.9-0.4-5.8-1.3-8.4l1-0.3c0.9,2.7,1.1,5.8,1.3,8.7c0.1,2,0.3,3.8,0.6,5.5
					L576.7,233.7z"/>
			</g>
			<g>
				<path d="M508.3,232.6l-1,0c0.1-3.9,0.3-7.8,0.7-11.6l1,0.1C508.7,224.9,508.4,228.8,508.3,232.6z"/>
			</g>
		</g>
	</g>
	<g>
		<g>
			<polygon class="st6" points="376.2,470.3 329.6,444 329.6,380.9 376.2,407.1 			"/>
			<polygon class="st7" points="376.2,470.3 422.9,444 422.9,380.8 376.2,407.1 			"/>
			<polygon class="st8" points="422.9,380.8 376.2,354.6 329.6,380.9 376.2,407.1 			"/>
		</g>
		<g>
			<path d="M376.2,471L329,444.3v-63.9l0.3-0.2l47-26.5l47.3,26.6v63.9L376.2,471z M330.2,443.6l46,25.9l46-25.9v-62.4l-46-25.9
				l-46,25.9V443.6z"/>
		</g>
		<g>
			<polygon points="376.2,407.8 329.3,381.4 329.9,380.3 376.2,406.4 422.6,380.3 423.2,381.4 			"/>
		</g>
		<g>
			<rect x="375.6" y="407.2" width="1.2" height="63.1"/>
		</g>
	</g>
	<g>
		<g>
			<polygon class="st6" points="423,496.4 376.4,470.1 376.4,407 423,433.3 			"/>
			<polygon class="st7" points="423,496.4 469.7,470.1 469.7,407 423,433.3 			"/>
			<polygon class="st8" points="469.7,407 423,380.7 376.4,407 423,433.3 			"/>
		</g>
		<g>
			<path d="M423,497.1l-47.3-26.6v-63.9l0.3-0.2l47-26.5l47.3,26.6v63.9L423,497.1z M377,469.8l46,25.9l46-25.9v-62.4l-46-25.9
				l-46,25.9V469.8z"/>
		</g>
		<g>
			<polygon points="423,434 376.1,407.6 376.7,406.5 423,432.6 469.4,406.5 470,407.5 			"/>
		</g>
		<g>
			<rect x="422.4" y="433.4" width="1.2" height="63.1"/>
		</g>
	</g>
	<g>
		<g>
			<polygon class="st6" points="469.7,522.7 423,496.5 423,433.3 469.7,459.6 			"/>
			<polygon class="st1" points="469.7,522.7 516.4,496.4 516.4,433.3 469.7,459.6 			"/>
			<polygon class="st4" points="516.4,433.3 469.7,407 423,433.3 469.7,459.6 			"/>
		</g>
		<g>
			<path d="M469.7,523.4l-47.3-26.6V433l0.3-0.2l47-26.5L517,433v63.9L469.7,523.4z M423.7,496.1l46,25.9l46-25.9v-62.4l-46-25.9
				l-46,25.9V496.1z"/>
		</g>
		<g>
			<polygon points="469.7,460.3 422.7,433.9 423.3,432.8 469.7,458.9 516.1,432.8 516.7,433.9 			"/>
		</g>
		<g>
			<rect x="469.1" y="459.7" width="1.2" height="63.1"/>
		</g>
	</g>
	<g>
		<g>
			<polygon class="st6" points="376.2,407.1 329.6,380.8 329.6,317.6 376.2,343.9 			"/>
			<polygon class="st7" points="376.2,407.1 422.9,380.8 422.9,317.6 376.2,343.9 			"/>
			<polygon class="st8" points="422.9,317.6 376.2,291.4 329.6,317.6 376.2,343.9 			"/>
		</g>
		<g>
			<path d="M376.2,407.8L329,381.1v-63.9l0.3-0.2l47-26.5l47.3,26.6v63.9L376.2,407.8z M330.2,380.4l46,25.9l46-25.9V318l-46-25.9
				l-46,25.9V380.4z"/>
		</g>
		<g>
			<polygon points="376.2,344.6 329.3,318.2 329.9,317.1 376.2,343.2 422.6,317.1 423.2,318.2 			"/>
		</g>
		<g>
			<rect x="375.6" y="344" width="1.2" height="63.1"/>
		</g>
	</g>
	<g>
		<g>
			<polygon class="st6" points="423,433.2 376.4,406.9 376.4,343.8 423,370.1 			"/>
			<polygon class="st7" points="423,433.2 469.7,406.9 469.7,343.8 423,370.1 			"/>
			<polygon class="st8" points="469.7,343.8 423,317.5 376.4,343.8 423,370.1 			"/>
		</g>
		<g>
			<path d="M423,433.9l-47.3-26.6v-63.9l0.3-0.2l47-26.5l47.3,26.6v63.9L423,433.9z M377,406.6l46,25.9l46-25.9v-62.4l-46-25.9
				l-46,25.9V406.6z"/>
		</g>
		<g>
			<polygon points="423,370.8 376.1,344.3 376.7,343.3 423,369.4 469.4,343.3 470,344.3 			"/>
		</g>
		<g>
			<rect x="422.4" y="370.1" width="1.2" height="63.1"/>
		</g>
	</g>
	<g>
		<g>
			<polygon class="st3" points="528.8,451.9 482.1,425.6 482.1,362.5 528.8,388.8 			"/>
			<polygon class="st1" points="528.8,451.9 575.4,425.6 575.4,362.5 528.8,388.8 			"/>
			<polygon class="st2" points="575.4,362.5 528.8,336.2 482.1,362.5 528.8,388.8 			"/>
		</g>
		<g>
			<path class="st2" d="M528.8,452.6L481.5,426v-63.9l0.3-0.2l47-26.5l47.3,26.6V426L528.8,452.6z M482.7,425.3l46,25.9l46-25.9
				v-62.4l-46-25.9l-46,25.9V425.3z"/>
		</g>
		<g>
			<polygon points="528.8,389.5 481.8,363 482.4,361.9 528.8,388.1 575.1,361.9 575.7,363 			"/>
		</g>
		<g>
			<rect x="528.2" y="388.8" width="1.2" height="63.1"/>
		</g>
	</g>
	<g>
		<g>
			<polygon class="st3" points="376.2,344 329.6,317.7 329.6,254.6 376.2,280.9 			"/>
			<polygon class="st1" points="376.2,344 422.9,317.7 422.9,254.6 376.2,280.9 			"/>
			<polygon class="st2" points="422.9,254.6 376.2,228.3 329.6,254.6 376.2,280.9 			"/>
		</g>
		<g>
			<path d="M376.2,344.7L329,318.1v-63.9l0.3-0.2l47-26.5l47.3,26.6v63.9L376.2,344.7z M330.2,317.3l46,25.9l46-25.9v-62.4l-46-25.9
				l-46,25.9V317.3z"/>
		</g>
		<g>
			<polygon points="376.2,281.6 329.3,255.1 329.9,254 376.2,280.2 422.6,254 423.2,255.1 			"/>
		</g>
		<g>
			<rect x="375.6" y="280.9" width="1.2" height="63.1"/>
		</g>
	</g>
	<g>
		<g>
			<polygon class="st3" points="469.7,396.5 423,370.2 423,307.1 469.7,333.3 			"/>
			<polygon class="st1" points="469.7,396.5 516.4,370.2 516.4,307 469.7,333.3 			"/>
			<polygon class="st2" points="516.4,307 469.7,280.8 423,307.1 469.7,333.3 			"/>
		</g>
		<g>
			<path class="st1" d="M469.7,397.2l-47.3-26.6v-63.9l0.3-0.2l47-26.5l47.3,26.6v63.9L469.7,397.2z M423.7,369.8l46,25.9l46-25.9
				v-62.4l-46-25.9l-46,25.9V369.8z"/>
		</g>
		<g>
			<polygon points="469.7,334 422.7,307.6 423.3,306.5 469.7,332.6 516.1,306.5 516.7,307.6 			"/>
		</g>
		<g>
			<rect x="469.1" y="333.4" width="1.2" height="63.1"/>
		</g>
	</g>
	<g>
		<g>
			<polygon class="st6" points="329.6,496.6 282.9,470.3 282.9,407.2 329.6,433.5 			"/>
			<polygon class="st7" points="329.6,496.6 376.2,470.3 376.2,407.2 329.6,433.5 			"/>
			<polygon class="st8" points="376.2,407.2 329.6,380.9 282.9,407.2 329.6,433.5 			"/>
		</g>
		<g>
			<path d="M329.6,497.3l-47.3-26.6v-63.9l0.3-0.2l47-26.5l47.3,26.6v63.9L329.6,497.3z M283.5,470l46,25.9l46-25.9v-62.4l-46-25.9
				l-46,25.9V470z"/>
		</g>
		<g>
			<polygon points="329.6,434.2 282.6,407.7 283.2,406.7 329.6,432.8 375.9,406.6 376.5,407.7 			"/>
		</g>
		<g>
			<rect x="329" y="433.5" width="1.2" height="63.1"/>
		</g>
	</g>
	<g>
		<g>
			<polygon class="st6" points="376.4,522.8 329.7,496.5 329.7,433.4 376.4,459.6 			"/>
			<polygon class="st7" points="376.4,522.8 423,496.5 423,433.3 376.4,459.6 			"/>
			<polygon class="st8" points="423,433.3 376.4,407.1 329.7,433.4 376.4,459.6 			"/>
		</g>
		<g>
			<path d="M376.4,523.5l-47.3-26.6V433l0.3-0.2l47-26.5l47.3,26.6v63.9L376.4,523.5z M330.3,496.1l46,25.9l46-25.9v-62.4l-46-25.9
				l-46,25.9V496.1z"/>
		</g>
		<g>
			<polygon points="376.4,460.3 329.4,433.9 330,432.8 376.4,458.9 422.7,432.8 423.3,433.9 			"/>
		</g>
		<g>
			<rect x="375.7" y="459.7" width="1.2" height="63.1"/>
		</g>
	</g>
	<g>
		<g>
			<polygon class="st6" points="423,549.1 376.4,522.8 376.4,459.7 423,485.9 			"/>
			<polygon class="st1" points="423,549.1 469.7,522.8 469.7,459.7 423,485.9 			"/>
			<polygon class="st8" points="469.7,459.7 423,433.4 376.4,459.7 423,485.9 			"/>
		</g>
		<g>
			<path d="M423,549.8l-47.3-26.6v-63.9l0.3-0.2l47-26.5l47.3,26.6v63.9L423,549.8z M377,522.4l46,25.9l46-25.9V460l-46-25.9
				L377,460V522.4z"/>
		</g>
		<g>
			<polygon points="423,486.7 376.1,460.2 376.7,459.1 423,485.2 469.4,459.1 470,460.2 			"/>
		</g>
		<g>
			<rect x="422.4" y="486" width="1.2" height="63.1"/>
		</g>
	</g>
	<g>
		<g>
			<polygon class="st6" points="329.6,433.4 282.9,407.1 282.9,344 329.6,370.3 			"/>
			<polygon class="st7" points="329.6,433.4 376.2,407.1 376.2,344 329.6,370.3 			"/>
			<polygon class="st8" points="376.2,344 329.6,317.7 282.9,344 329.6,370.3 			"/>
		</g>
		<g>
			<path d="M329.6,434.1l-47.3-26.6v-63.9l0.3-0.2l47-26.5l47.3,26.6v63.9L329.6,434.1z M283.5,406.8l46,25.9l46-25.9v-62.4
				l-46-25.9l-46,25.9V406.8z"/>
		</g>
		<g>
			<polygon points="329.6,371 282.6,344.5 283.2,343.4 329.6,369.6 375.9,343.4 376.5,344.5 			"/>
		</g>
		<g>
			<rect x="329" y="370.3" width="1.2" height="63.1"/>
		</g>
	</g>
	<g>
		<g>
			<polygon class="st3" points="247.3,542.7 200.6,516.4 200.6,453.3 247.3,479.5 			"/>
			<polygon class="st7" points="247.3,542.7 294,516.4 294,453.3 247.3,479.5 			"/>
			<polygon class="st8" points="294,453.3 247.3,427 200.6,453.3 247.3,479.5 			"/>
		</g>
		<g>
			<path d="M247.3,543.4L200,516.7v-63.9l0.3-0.2l47-26.5l47.3,26.6v63.9L247.3,543.4z M201.2,516l46,25.9l46-25.9v-62.4l-46-25.9
				l-46,25.9V516z"/>
		</g>
		<g>
			<polygon points="247.3,480.3 200.3,453.8 200.9,452.7 247.3,478.8 293.7,452.7 294.3,453.8 			"/>
		</g>
		<g>
			<rect x="246.7" y="479.6" width="1.2" height="63.1"/>
		</g>
	</g>
	<g>
		<g>
			<polygon class="st6" points="376.4,459.6 329.7,433.3 329.7,370.2 376.4,396.4 			"/>
			<polygon class="st7" points="376.4,459.6 423,433.3 423,370.1 376.4,396.4 			"/>
			<polygon class="st8" points="423,370.1 376.4,343.9 329.7,370.2 376.4,396.4 			"/>
		</g>
		<g>
			<path d="M376.4,460.3l-47.3-26.6v-63.9l0.3-0.2l47-26.5l47.3,26.6v63.9L376.4,460.3z M330.3,432.9l46,25.9l46-25.9v-62.4
				l-46-25.9l-46,25.9V432.9z"/>
		</g>
		<g>
			<polygon points="376.4,397.1 329.4,370.7 330,369.6 376.4,395.7 422.7,369.6 423.3,370.7 			"/>
		</g>
		<g>
			<rect x="375.7" y="396.5" width="1.2" height="63.1"/>
		</g>
	</g>
	<g>
		<g>
			<polygon class="st3" points="282.8,459.7 236.2,433.4 236.2,370.3 282.8,396.6 			"/>
			<polygon class="st7" points="282.8,459.7 329.5,433.4 329.5,370.3 282.8,396.6 			"/>
			<polygon class="st8" points="329.5,370.3 282.8,344 236.2,370.3 282.8,396.6 			"/>
		</g>
		<g>
			<path d="M282.8,460.4l-47.3-26.6v-63.9l0.3-0.2l47-26.5l47.3,26.6v63.9L282.8,460.4z M236.8,433.1l46,25.9l46-25.9v-62.4
				l-46-25.9l-46,25.9V433.1z"/>
		</g>
		<g>
			<polygon points="282.8,397.3 235.9,370.8 236.5,369.8 282.8,395.9 329.2,369.8 329.8,370.8 			"/>
		</g>
		<g>
			<rect x="282.2" y="396.6" width="1.2" height="63.1"/>
		</g>
	</g>
	<g>
		<g>
			<polygon class="st3" points="423,485.9 376.4,459.6 376.4,396.5 423,422.7 			"/>
			<polygon class="st1" points="423,485.9 469.7,459.6 469.7,396.5 423,422.7 			"/>
			<polygon class="st2" points="469.7,396.5 423,370.2 376.4,396.5 423,422.7 			"/>
		</g>
		<g>
			<path d="M423,486.6L375.7,460v-63.9l0.3-0.2l47-26.5l47.3,26.6v63.9L423,486.6z M377,459.2l46,25.9l46-25.9v-62.4l-46-25.9
				l-46,25.9V459.2z"/>
		</g>
		<g>
			<polygon points="423,423.5 376.1,397 376.7,395.9 423,422 469.4,395.9 470,397 			"/>
		</g>
		<g>
			<rect x="422.4" y="422.8" width="1.2" height="63.1"/>
		</g>
	</g>
	<g>
		<g>
			<polygon class="st3" points="376.4,396.5 329.7,370.2 329.7,307.1 376.4,333.4 			"/>
			<polygon class="st1" points="376.4,396.5 423,370.2 423,307.1 376.4,333.4 			"/>
			<polygon class="st2" points="423,307.1 376.4,280.8 329.7,307.1 376.4,333.4 			"/>
		</g>
		<g>
			<path d="M376.4,397.2l-47.3-26.6v-63.9l0.3-0.2l47-26.5l47.3,26.6v63.9L376.4,397.2z M330.3,369.8l46,25.9l46-25.9v-62.4
				l-46-25.9l-46,25.9V369.8z"/>
		</g>
		<g>
			<polygon points="376.4,334.1 329.4,307.6 330,306.5 376.4,332.7 422.7,306.5 423.3,307.6 			"/>
		</g>
		<g>
			<rect x="375.7" y="333.4" width="1.2" height="63.1"/>
		</g>
	</g>
	<g>
		<g>
			<polygon class="st3" points="282.7,396.5 236,370.2 236,307.1 282.7,333.4 			"/>
			<polygon class="st1" points="282.7,396.5 329.3,370.2 329.3,307.1 282.7,333.4 			"/>
			<polygon class="st2" points="329.3,307.1 282.7,280.8 236,307.1 282.7,333.4 			"/>
		</g>
		<g>
			<path d="M282.7,397.2l-47.3-26.6v-63.9l0.3-0.2l47-26.5l47.3,26.6v63.9L282.7,397.2z M236.6,369.8l46,25.9l46-25.9v-62.4
				l-46-25.9l-46,25.9V369.8z"/>
		</g>
		<g>
			<polygon points="282.7,334.1 235.7,307.6 236.3,306.5 282.7,332.7 329,306.5 329.7,307.6 			"/>
		</g>
		<g>
			<rect x="282.1" y="333.4" width="1.2" height="63.1"/>
		</g>
	</g>
	<g>
		<g>
			<polygon class="st3" points="329.6,549.1 283,522.8 283,459.7 329.6,485.9 			"/>
			<polygon class="st1" points="329.6,549.1 376.3,522.8 376.3,459.7 329.6,485.9 			"/>
			<polygon class="st8" points="376.3,459.7 329.6,433.4 283,459.7 329.6,485.9 			"/>
		</g>
		<g>
			<path d="M329.6,549.8l-47.3-26.6v-63.9l0.3-0.2l47-26.5l47.3,26.6v63.9L329.6,549.8z M283.6,522.4l46,25.9l46-25.9V460l-46-25.9
				l-46,25.9V522.4z"/>
		</g>
		<g>
			<polygon points="329.6,486.7 282.7,460.2 283.3,459.1 329.6,485.2 376,459.1 376.6,460.2 			"/>
		</g>
		<g>
			<rect x="329" y="486" width="1.2" height="63.1"/>
		</g>
	</g>
	<g>
		<g>
			<polygon class="st3" points="422.5,602.8 375.8,576.5 375.8,513.4 422.5,539.6 			"/>
			<polygon class="st1" points="422.5,602.8 469.2,576.5 469.2,513.4 422.5,539.6 			"/>
			<polygon class="st2" points="469.2,513.4 422.5,487.1 375.8,513.4 422.5,539.6 			"/>
		</g>
		<g>
			<path d="M422.5,603.5l-47.3-26.6V513l0.3-0.2l47-26.5l47.3,26.6v63.9L422.5,603.5z M376.5,576.1l46,25.9l46-25.9v-62.4l-46-25.9
				l-46,25.9V576.1z"/>
		</g>
		<g>
			<polygon points="422.5,540.3 375.5,513.9 376.1,512.8 422.5,538.9 468.9,512.8 469.5,513.9 			"/>
		</g>
		<g>
			<rect x="421.9" y="539.7" width="1.2" height="63.1"/>
		</g>
	</g>
	<g>
		<g>
			<polygon class="st3" points="329.6,485.9 283,459.6 283,396.5 329.6,422.7 			"/>
			<polygon class="st7" points="329.6,485.9 376.3,459.6 376.3,396.5 329.6,422.7 			"/>
			<polygon class="st2" points="376.3,396.5 329.6,370.2 283,396.5 329.6,422.7 			"/>
		</g>
		<g>
			<path d="M329.6,486.6l-47.3-26.6v-63.9l0.3-0.2l47-26.5l47.3,26.6v63.9L329.6,486.6z M283.6,459.2l46,25.9l46-25.9v-62.4
				l-46-25.9l-46,25.9V459.2z"/>
		</g>
		<g>
			<polygon points="329.6,423.5 282.7,397 283.3,395.9 329.6,422 376,395.9 376.6,397 			"/>
		</g>
		<g>
			<rect x="329" y="422.8" width="1.2" height="63.1"/>
		</g>
	</g>
	<g>
		<g>
			<polygon class="st3" points="375.9,512.2 329.2,485.9 329.2,422.8 375.9,449.1 			"/>
			<polygon class="st1" points="375.8,512.2 422.5,485.9 422.5,422.8 375.8,449.1 			"/>
			<polygon class="st2" points="422.5,422.8 375.8,396.5 329.2,422.8 375.9,449.1 			"/>
		</g>
		<g>
			<path d="M375.8,512.9l-47.3-26.6v-63.9l0.3-0.2l47-26.5l47.3,26.6v63.9L375.8,512.9z M329.8,485.6l46,25.9l46-25.9v-62.4
				l-46-25.9l-46,25.9V485.6z"/>
		</g>
		<g>
			<polygon points="375.9,449.8 328.9,423.3 329.5,422.3 375.9,448.4 422.2,422.3 422.8,423.3 			"/>
		</g>
		<g>
			<rect x="375.2" y="449.1" width="1.2" height="63.1"/>
		</g>
	</g>
	<g>
		<g>
			<path class="st3" d="M178.1,215.9c0.6-2.7,1.7-7.6,2.4-10.3c0.3-1.3,0.6-2.6,1.4-3.7c0.8-1.1,2-1.9,3.2-2.6
				c2.6-1.6,7.1-4.3,9.8-5.7c2.1,3.7,0.5,5.1-1.6,6.8c-1.3,1.1-2.7,1.8-4.4,2.1c0.1,4.2,0.1,11.6,0.2,15.8L178.1,215.9z"/>
			<path d="M189.7,219.1l-12.4-2.7l0.1-0.6c0.3-1.4,0.8-3.3,1.2-5.3c0.4-1.9,0.9-3.7,1.2-5.1c0.3-1.3,0.6-2.8,1.5-4
				c0.9-1.2,2.1-2,3.4-2.8c0.8-0.4,1.7-1,2.6-1.6c2.4-1.5,5.2-3.1,7.2-4.2l0.5-0.3l0.3,0.5c2.4,4.2,0.3,5.9-1.7,7.6
				c-1.3,1.1-2.7,1.8-4.2,2.2c0,2,0.1,4.7,0.1,7.3c0,2.9,0,5.8,0.1,7.9L189.7,219.1z M178.9,215.5l9.6,2.1c0-2-0.1-4.6-0.1-7.2
				c0-2.9,0-5.8-0.1-7.9l0-0.5l0.5-0.1c1.4-0.2,2.8-0.9,4.1-2c1.9-1.6,3.2-2.6,1.7-5.5c-1.9,1-4.3,2.5-6.6,3.8
				c-1,0.6-1.9,1.1-2.7,1.6c-1.2,0.7-2.3,1.4-3,2.4c-0.7,1-1,2.3-1.3,3.5c-0.3,1.3-0.7,3.2-1.2,5.1
				C179.6,212.5,179.2,214.1,178.9,215.5z"/>
		</g>
		<g>
			<path class="st2" d="M127,257.3c1,0,3.4,3.4,4,4.4c1.7,2.7,3.3,5.4,4.9,8.2c2,3.6,7.9,11.9,7.2,15.9c0.2,0.1,0.5,0.1,0.7,0
				c13.7-6.2,24.7-15,34.2-26.3c7.5-8.9,15-28.7,16.2-39.6c0,0-12.8-3.4-19.1-4.6c-4,8.2-13.8,24.9-21.4,31.1
				C146.2,252.4,136.7,257.5,127,257.3z"/>
			<path d="M143.4,286.4c-0.2,0-0.4,0-0.6-0.1l-0.4-0.2l0.1-0.5c0.5-3-3.1-8.8-5.4-12.7c-0.7-1.1-1.3-2-1.7-2.8
				c-1.5-2.8-3.2-5.5-4.9-8.2c-1.1-1.8-3-4-3.5-4.1l0-1.2c0,0,0,0,0,0c10.5,0.2,20.1-5.8,26.3-10.8c7.2-5.9,16.8-22.1,21.2-30.9
				l0.2-0.4l0.5,0.1c6.3,1.2,19.1,4.6,19.2,4.6l0.5,0.1l-0.1,0.5c-1.2,10.7-8.8,30.9-16.4,39.9c-10,11.9-21.3,20.6-34.4,26.5
				C143.8,286.4,143.6,286.4,143.4,286.4z M128.9,257.9c1.2,1.3,2.4,3.1,2.6,3.4c1.7,2.7,3.3,5.4,4.9,8.2c0.4,0.7,1,1.7,1.7,2.8
				c2.4,4,5.7,9.3,5.7,12.8c12.9-5.9,23.9-14.4,33.8-26.1c7.3-8.7,14.7-28.1,16-38.7c-2.4-0.6-12.5-3.3-18.1-4.4
				c-4.5,9-14,24.9-21.3,30.9C148.1,251.7,139,257.4,128.9,257.9z"/>
		</g>
		<g>
			<path class="st3" d="M174.9,508.9c0.2,0.7,4.6,13.4,4.6,13.4l-12.1,2.6l-6.6-13.7L174.9,508.9z"/>
			<path d="M167.1,525.7l-7.2-14.8l15.4-2.7l0.2,0.5c0.2,0.7,4.6,13.3,4.6,13.4l0.2,0.7L167.1,525.7z M161.7,511.8l6,12.5l11-2.4
				c-0.8-2.4-3.5-10.2-4.2-12.3L161.7,511.8z"/>
		</g>
		<g>
			<path class="st3" d="M79.3,510.2c-0.1,0.7-2.8,13.7-2.8,13.7l-10.4-2.5l1.4-14.7L79.3,510.2z"/>
			<path d="M77,524.7l-11.5-2.8l1.6-16l13,3.9l-0.1,0.6c-0.1,0.7-2.8,13.7-2.8,13.7L77,524.7z M66.8,520.9l9.2,2.2
				c0.5-2.3,2.1-10.3,2.6-12.5l-10.5-3.1L66.8,520.9z"/>
		</g>
		<g>
			<g>
				<path class="st4" d="M178.6,517.4c6,1.5,17.8,5.4,23.1,9.5c2.6,2,3.1,5.4,2.8,8.7c-12.6,0-25.1-0.1-37.7-0.1
					c-0.6,0-1.2,0-1.6-0.3c-0.5-0.4-0.7-1-0.9-1.6c-0.9-3.6-2.1-15.6,1.4-15.1c1.9,0.2,2.3,3.4,8,3.5C175.5,522,178,520,178.6,517.4
					z"/>
				<path d="M205,536.2l-38.2-0.1c-0.6,0-1.3,0-2-0.5c-0.7-0.5-0.9-1.2-1.1-2c-0.7-2.8-1.9-12.7,0.3-15.2c0.5-0.5,1.1-0.8,1.7-0.7
					c0.9,0.1,1.5,0.6,2.1,1.2c1.1,1,2.4,2.2,5.9,2.3c1.5,0,3.7-1.8,4.3-4l0.1-0.6l0.6,0.1c6.1,1.5,17.9,5.4,23.3,9.6
					c2.4,1.9,3.4,5,3,9.3L205,536.2z M165.5,519c-0.2,0-0.4,0.1-0.5,0.3c-1.7,1.9-0.9,10.9-0.1,14.1c0.1,0.5,0.3,1,0.6,1.2
					c0.3,0.2,0.7,0.2,1.3,0.2l37.1,0.1c0.3-3.5-0.6-6.1-2.6-7.6c-4.8-3.7-15.7-7.5-22.3-9.2c-0.9,2.6-3.4,4.4-5.3,4.4c0,0,0,0-0.1,0
					c-3.9-0.1-5.5-1.5-6.7-2.6c-0.5-0.5-0.9-0.9-1.4-0.9C165.6,519,165.5,519,165.5,519z"/>
			</g>
			<g>
				<path class="st3" d="M163.7,530.2c0.2,1.4,0.4,2.6,0.6,3.4c0.2,0.6,0.4,1.2,0.9,1.6c0.5,0.3,1.1,0.3,1.6,0.3
					c12.6,0,25.1,0.1,37.7,0.1c0.2-1.9,0.1-3.8-0.5-5.5H163.7z"/>
				<path d="M204.9,536.1l-38.1-0.1c-0.6,0-1.3,0-1.9-0.4c-0.6-0.4-0.9-1.2-1.1-1.9c-0.2-0.8-0.4-2.1-0.6-3.5l-0.1-0.6h41.2l0.1,0.3
					c0.6,1.6,0.7,3.5,0.5,5.7L204.9,536.1z M164.3,530.7c0.2,1.1,0.3,2.1,0.5,2.8c0.1,0.5,0.3,1,0.7,1.3c0.3,0.2,0.8,0.2,1.3,0.2
					l37.2,0.1c0.1-1.7,0-3.1-0.4-4.4H164.3z"/>
			</g>
		</g>
		<g>
			<g>
				<path class="st4" d="M66.7,518.5c0,0,4.1,2.7,7.9,0.7c4.1-2.1,5.9-3.4,7.6,0.5c2.8,6.2,6.3,9.4,10,13.8c0.4,0.5,0.8,1.1,1,1.8
					c0.3,1.2-0.4,2.5-1.3,3.2c-1,0.7-2.2,1-3.5,1c-3.7,0.1-7.6-1.3-10.9-3c-3.3-1.7-9.4-4.5-11.4-7.8
					C64.5,526.1,65.4,520.9,66.7,518.5z"/>
				<path d="M88,540c-3.2,0-6.8-1-10.7-3.1c-0.4-0.2-0.9-0.5-1.4-0.7c-3.6-1.8-8.4-4.2-10.3-7.3c-1.8-2.8-0.8-8.2,0.6-10.8l0.3-0.6
					l0.6,0.4c0,0,3.8,2.4,7.3,0.6l0.8-0.4c2.3-1.2,3.9-2,5.3-1.5c1,0.3,1.7,1.2,2.4,2.8c2.2,4.8,4.8,7.8,7.6,11
					c0.8,0.9,1.5,1.7,2.3,2.7c0.6,0.7,0.9,1.4,1.1,2c0.3,1.4-0.3,2.9-1.6,3.8c-1,0.7-2.2,1.1-3.8,1.1C88.3,540,88.1,540,88,540z
					 M67,519.3c-1.1,2.4-1.7,6.8-0.4,9c1.7,2.7,6.5,5.2,9.8,6.8c0.5,0.3,1,0.5,1.4,0.7c3.9,2,7.5,3,10.6,2.9c1.3,0,2.4-0.3,3.1-0.9
					c0.9-0.6,1.3-1.7,1.1-2.5c-0.1-0.5-0.4-1-0.9-1.5c-0.8-0.9-1.5-1.8-2.3-2.7c-2.8-3.3-5.5-6.3-7.8-11.3c-0.6-1.2-1.1-1.9-1.7-2.1
					c-0.9-0.3-2.4,0.4-4.3,1.5l-0.8,0.4C71.7,521.4,68.3,520,67,519.3z"/>
			</g>
			<g>
				<path class="st3" d="M65.1,527.7c-0.2,1.3-0.4,2.6-0.6,4c-0.1,0.6-0.2,1.1,0,1.7c0.3,1,16.5,14.9,27.7,8.5
					c0.5-1.5,1.2-2.2,0.9-4.8c-6.6,6.2-14.9-0.5-19.6-2.6C66.4,531.3,65.3,528.1,65.1,527.7z"/>
				<path d="M85.6,544.2c-2.5,0-5.1-0.5-8-1.6c-7.3-2.8-13.4-8.2-13.7-9c-0.2-0.7-0.1-1.4,0-2l1-5.9l0.9,1.9c1.3,2.9,5.1,5,8.1,6.4
					c0.9,0.4,1.8,0.9,2.9,1.5c4.6,2.5,10.9,5.9,16,1.2l0.9-0.9l0.1,1.3c0.2,2.2-0.2,3.1-0.6,4.2c-0.1,0.3-0.2,0.6-0.3,0.9l-0.1,0.2
					l-0.2,0.1C90.4,543.6,88.1,544.2,85.6,544.2z M65.4,529.5l-0.4,2.3c-0.1,0.5-0.2,1,0,1.4c0.5,0.9,15.9,14.2,26.6,8.3
					c0.1-0.3,0.2-0.5,0.3-0.8c0.3-0.7,0.5-1.3,0.6-2.4c-5.5,4.1-11.8,0.7-16.5-1.8c-1-0.6-2-1.1-2.8-1.4
					C70.6,533.8,67.3,532,65.4,529.5z"/>
			</g>
		</g>
		<path class="st1" d="M87.4,377.6c-3.7,26.1-15.2,49.9-18.5,76.1c-2.5,20.1-4.7,38-2.2,58.1l12.8,1.7c2.5-2.8,5.4-8.6,6.8-12.4
			c2.6-7,5-14,7.3-21.1c2.2-6.7,4.3-13.5,6.6-20.1c5.6-15.8,12.8-30.9,16.8-47.4c2.5-10.2,4.2-21.2,5.5-31.7
			c1.4-11.9,1.9-23.9,1.6-35.9c-5.4-2.1-11.3-1.1-16.9-1.1c-6,0-12,0.1-18,0.1C89.8,354.8,89,366.9,87.4,377.6z"/>
		<path class="st1" d="M148.5,345.8c0.4,0,4.3,22,4.7,23.6c2,9.2,4,18.4,5.8,27.6c3.6,18.3,6.3,36.9,9.4,55.2
			c3.2,19.7,5.8,39.5,7.7,59.4c-3.2,1.5-9.8,3.3-13,4.8c-1.1,0.5-27-36.4-32.3-77.3c-1.5-11.7-9-23.4-13.6-33.7
			c-7.8-17.8-11.6-32.4-9.8-53.2c0.1-1.3,0.3-2.7,0.8-3.8c1.5-2.9,4.6-2.7,7.1-2.4c3.2,0.3,6.4,0.2,9.7,0.1
			C132.8,345.7,140.6,345.6,148.5,345.8z"/>
		<g>
			<path d="M163,517c-0.1,0-0.2,0-0.3-0.1c-2.2-1.2-27.2-37-32.4-77.7c-1.1-8.7-5.3-17.3-9.4-25.6c-0.8-1.6-1.5-3.2-2.3-4.7
				c-0.1,0.5-0.3,1-0.4,1.4c-0.2,0.8-0.5,1.5-0.6,2.2c-2.7,11-6.8,21.4-10.8,31.6c-2,5.2-4.1,10.5-6,15.9c-1.6,4.7-3.2,9.5-4.7,14.2
				c-0.6,2-1.3,4-1.9,6c-2.3,7.1-4.8,14.1-7.3,21.1c-1.5,4.1-4.4,9.8-6.8,12.6l-0.2,0.2l-13.4-1.7l0-0.4
				c-2.5-20.6-0.2-38.9,2.2-58.2c1.7-13.4,5.6-26.4,9.4-39c3.6-12,7.3-24.4,9.1-37.1c1.7-11.8,2.3-23.8,1.7-33.6l0-0.5l18.5-0.1
				c1.3,0,2.6-0.1,3.9-0.1c4.4-0.2,9-0.4,13.2,1.2l0.3,0.1l0,0.3c0,0.2,0,0.4,0,0.7l0.4,0c7.8-0.4,15.7-0.4,23.5-0.3
				c0.6,0,0.7,0,4.2,18.9c0.5,2.6,0.9,4.6,1,5.1c2.4,11,4.2,19.6,5.8,27.6c2.7,13.4,4.9,27.3,7,40.6c0.8,4.9,1.6,9.7,2.4,14.6
				c3.2,19.6,5.8,39.6,7.7,59.4l0,0.4l-0.3,0.2c-1.6,0.8-4.2,1.6-6.6,2.4c-2.4,0.8-4.9,1.6-6.5,2.4C163.2,516.9,163.1,517,163,517z
				 M118.2,405.8l0.6,1.4c0.9,2,1.9,3.9,2.9,6c4.1,8.4,8.4,17.1,9.5,25.9c5.1,39.3,28.9,74.5,31.8,76.8c1.6-0.8,4-1.6,6.4-2.3
				c2.2-0.8,4.6-1.5,6.1-2.2c-1.9-19.7-4.5-39.6-7.7-59c-0.8-4.9-1.6-9.7-2.4-14.6c-2.1-13.4-4.3-27.2-7-40.6
				c-1.6-8.1-3.4-16.6-5.8-27.6c-0.1-0.5-0.5-2.4-1-5.1c-1.1-5.8-3-16.2-3.6-18.1c-7.7-0.2-15.5-0.1-23.1,0.3l-1.5,0.1l0-1
				c0-0.1,0-0.2,0-0.3c-3.9-1.4-8.3-1.2-12.4-1.1c-1.3,0.1-2.7,0.1-4,0.1l-17.4,0.1c0.8,12.5-0.5,24.9-1.7,33.2
				c-1.8,12.8-5.5,25.2-9.2,37.2c-3.8,12.5-7.7,25.5-9.4,38.8c-2.4,19.2-4.7,37.3-2.3,57.6l12.1,1.6c2.3-2.7,5.1-8.2,6.5-12
				c2.5-6.9,5-14,7.3-21c0.6-2,1.3-4,1.9-6c1.5-4.7,3-9.5,4.7-14.2c1.9-5.4,4-10.7,6-15.9c4-10.1,8.1-20.6,10.8-31.5
				c0.2-0.8,0.4-1.5,0.7-2.3c0.3-0.9,0.6-1.9,0.8-2.8L118.2,405.8z"/>
		</g>
		<g>
			<path class="st2" d="M91.5,273.1c1.6-6.6,4.2-13.6,9.8-17.5c2.8-1.9,6-2.9,9.2-3.8c6.9-1.9,13.8,0.5,19.6,4.5
				c1.9,1.3,3.3,3.2,4.8,4.9c6.2,7.1,10.5,15.9,12.3,25.2c1.6,8.5,1,17.2,0.9,25.8c-0.2,7.8-0.7,16.4,0.7,24.1
				c0.9,4.9,3.3,9.5,4.4,14.4c0.6,2.5,1.2,5.3,0.7,7.8c-0.8,3.9-2.9,4-6.5,4.8c-17.1,4.1-34.7,6.1-52.4,6.2c-2.1,0-4.4-0.1-6.2-1.2
				c-4-2.4-2.5-14.3-2.6-18.6c-0.3-8.3-0.5-16.7-0.4-25c0.2-16.5,1.4-33.2,5.1-49.3C91.2,274.7,91.3,273.9,91.5,273.1z"/>
			<path d="M95,370.2c-2.3,0-4.6-0.1-6.5-1.3c-3.4-2.1-3.2-9.9-3-15.5c0.1-1.4,0.1-2.7,0.1-3.5c-0.3-9.5-0.4-17.5-0.4-25.1
				c0.2-19.6,1.9-35.3,5.1-49.5c0.2-0.8,0.4-1.6,0.6-2.3c1.5-6.1,4-13.7,10.1-17.9c2.8-2,6.2-3,9.4-3.9c6.3-1.7,13.3-0.1,20.1,4.6
				c1.6,1.1,2.8,2.5,3.9,3.9c0.3,0.4,0.6,0.7,0.9,1.1c6.4,7.3,10.7,16.1,12.4,25.5c1.4,7.3,1.2,14.9,1,22.2c0,1.3-0.1,2.5-0.1,3.8
				c0,1.4-0.1,2.8-0.1,4.2c-0.2,6.6-0.4,13.5,0.7,19.8c0.5,2.7,1.4,5.3,2.3,7.8c0.8,2.1,1.6,4.3,2.1,6.6c0.7,2.8,1.2,5.5,0.7,8.1
				c-0.8,3.9-2.9,4.4-6,5.1c-0.3,0.1-0.6,0.1-1,0.2C130.3,368.1,112.7,370.2,95,370.2C95,370.2,95,370.2,95,370.2z M115.5,251.8
				c-1.5,0-3.1,0.2-4.7,0.6c-3.1,0.8-6.4,1.8-9.1,3.7c-5.7,3.9-8.1,11.2-9.6,17.1l0,0c-0.2,0.8-0.4,1.5-0.6,2.3
				c-3.2,14-4.8,29.7-5.1,49.2c-0.1,7.5,0,15.5,0.4,25c0,0.9,0,2.2-0.1,3.6c-0.2,4.7-0.5,12.7,2.4,14.4c1.6,1,3.7,1.1,5.8,1.1
				c0,0,0.1,0,0.1,0c17.5,0,35.1-2.1,52.2-6.1c0.3-0.1,0.7-0.2,1-0.2c3-0.7,4.4-1,5-4.1c0.5-2.3-0.1-4.9-0.7-7.6
				c-0.5-2.2-1.3-4.3-2.1-6.4c-0.9-2.6-1.9-5.3-2.4-8c-1.2-6.4-1-13.4-0.8-20.1c0-1.4,0.1-2.8,0.1-4.2c0-1.3,0.1-2.5,0.1-3.8
				c0.2-7.2,0.4-14.7-1-21.9c-1.7-9.1-5.9-17.7-12.1-24.9c-0.3-0.4-0.6-0.7-0.9-1.1c-1.2-1.4-2.3-2.7-3.7-3.7
				C126.3,254.4,121.1,251.8,115.5,251.8z"/>
		</g>
		<path class="st3" d="M139.1,214.5c0.1,0.3,0.2,7.4,1.2,10.7c1.1,3.4,2.5,3.7,2.6,5.2c0.1,1.5-3.4,11.5-3.4,11.5s-1,3.2-5.3,3.5
			c0,0-3.8,0.1-5-0.1c0,0-1.7-0.7-1.5,2c0.1,1.3,0,2.6-0.1,3.8c-0.1,1.1-0.2,2.1-0.2,3.2c0,0.7,0.1,1.3,0.4,1.9c0.4,0.9,1.8,2,1.8,3
			c0,3-6.6,0.1-8.1-0.5c-3.3-1.4-6.7-2.6-10.2-3.7c-0.7-0.2-1.4-0.4-1.9-0.9c-0.1-0.1-0.2-0.1-0.2-0.3c0-0.1,0-0.2,0.1-0.2
			c1-1.9,2-4,2.4-6.1c0.4-2,0.8-4,1.2-6c0.5-2.8,1.1-5.7,1.6-8.5c0,0-9.1-9.2-0.3-14.5C123.2,213.2,135.2,207.7,139.1,214.5z"/>
		<g>
			<path d="M132,246.2c-2.3,0-4.9-0.4-7.9-1.3l0.3-1c3.8,1.1,7.1,1.4,9.8,1.1c2.4-0.3,3.8-1.2,4.5-2.8c1.4-3.5,2-5.9,2.7-9.4
				c0.1-0.2,0.2-0.5,0.5-1c0.2-0.3,0.5-1,0.6-1.2c-0.1-0.3-0.4-0.7-0.6-1.1l-0.1-0.2c-1.3-1.8-2.2-4-2.3-6.2c-0.1-0.7-0.2-1.4-0.3-2
				c-0.1-0.9-0.3-1.8-0.3-2.7l1,0c0,0.8,0.2,1.7,0.3,2.6c0.1,0.7,0.2,1.4,0.3,2.1c0.2,2,0.9,4.1,2.1,5.7l0.1,0.2
				c0.3,0.4,0.7,0.9,0.8,1.5c0.1,0.4-0.2,1-0.7,1.8c-0.1,0.3-0.4,0.6-0.4,0.8c-0.7,3.5-1.3,6-2.8,9.6c-1.1,2.6-3.5,3.3-5.3,3.5
				C133.6,246.1,132.8,246.2,132,246.2z"/>
		</g>
		<g>
			<path d="M127.6,261c-2.1,0-4.7-1.2-5.9-1.9c-3.7-2-7.9-3.2-12.1-3.6c-0.6-0.1-0.9-0.3-1.1-0.6c-0.3-0.7,0.3-1.5,0.8-2.2
				c0.2-0.3,0.4-0.6,0.4-0.7c0.4-0.9,0.3-2.2,0.2-3.5c0-0.6-0.1-1.2,0-1.7l0.3-8.2l1,0l-0.3,8.2c0,0.5,0,1,0,1.6
				c0.1,1.3,0.1,2.7-0.3,3.9c-0.1,0.3-0.3,0.6-0.6,0.9c-0.2,0.3-0.7,1-0.7,1.2c0,0,0.1,0,0.2,0c4.3,0.4,8.7,1.7,12.5,3.7
				c2.3,1.2,5.2,2.2,6.6,1.5c0.3-0.1,0.3-0.3,0.3-0.3c0.1-0.5-0.7-1.4-1-1.6c-0.1-0.1-0.2-0.2-0.2-0.2c-0.5-0.7-1.1-1.6-1.1-2.7
				c0.1-1.3,0.1-2.3,0.2-3.3c0.1-2.1,0.2-3.8,0.3-6.6l1,0c-0.1,2.7-0.2,4.5-0.3,6.6c-0.1,1-0.1,2-0.2,3.3c0,0.7,0.5,1.5,0.9,2
				c0,0,0.1,0.1,0.1,0.1c0.5,0.5,1.4,1.5,1.2,2.5c-0.1,0.3-0.3,0.8-0.9,1.1C128.8,260.9,128.2,261,127.6,261z"/>
		</g>
		<g>
			<path d="M121.1,238.5c-1.4,0-2.8-0.6-3.9-1.7c-1-1-1.7-2.3-2.4-4.2c-0.3-1-0.7-2.1-0.6-3.3c0.1-2.3,1.9-4.4,4.2-4.9
				c2.3-0.5,4.8,0.7,5.9,2.7l-0.9,0.5c-0.9-1.6-2.9-2.6-4.7-2.2c-1.8,0.4-3.3,2.1-3.4,4c0,1,0.3,2,0.6,2.9c0.6,1.8,1.3,2.9,2.2,3.8
				c1.1,1.1,2.5,1.6,3.7,1.4l0.2,1C121.7,238.5,121.4,238.5,121.1,238.5z"/>
		</g>
		<g>
			<path d="M121.1,234.6c-1.1-0.3-2.1-1.2-2.5-2.3c-0.4-1.1-0.3-2.4,0.3-3.4c0.4-0.6,1-1,1.6-1.1c0.4-0.1,0.8,0.1,1.1,0.4l-0.7,0.7
				c0,0-0.1-0.1-0.3-0.1c-0.3,0-0.7,0.3-0.9,0.6c-0.4,0.7-0.5,1.7-0.2,2.5c0.3,0.8,1,1.4,1.9,1.6L121.1,234.6z"/>
		</g>
		<g>
			<path d="M140.1,239.6c-1.2,0-3.5-0.8-4.5-2.1l0.8-0.6c1,1.2,3.4,1.8,3.9,1.7l0.3,1C140.4,239.6,140.3,239.6,140.1,239.6z"/>
		</g>
		<ellipse cx="133.8" cy="227.3" rx="1.4" ry="1.6"/>
		<g>
			<path d="M130.8,224.1l-0.8-0.7c1.6-1.9,4.1-2.8,6.6-2.4l-0.2,1C134.3,221.7,132.2,222.5,130.8,224.1z"/>
		</g>
		<path d="M116.2,226.3c1-1.2,2.5-1.6,4-1.4c1,0.1,3,1.7,3.8,1c0.4-0.3,0.5-0.8,0.7-1.2c0.6-2.3,1.3-7.2,1-9.6
			c2.8,0.9,13.5-0.9,14.6,8c0.1,0.9,6-6.3,0.9-13.4c-2-2.8-4.7-3.1-8-2.8c-0.3,0-0.7,0.1-1,0c-0.3-0.1-0.5-0.3-0.8-0.4
			c-1-0.6-2.2-0.8-3.4-0.9c-3.7-0.4-7.4-0.1-10.9,1.1c-5.2,1.8-9.6,6-10.6,11.6c-0.6,3.7,1.7,7.3-0.7,10.8c-0.9,1.3-2,2.3-3,3.5
			c-1.2,1.6-1.9,3.7-1.9,5.7c0,1.1,0.1,2.2-0.2,3.2c-0.6,1.8-2.4,2.8-3.9,3.9c-2.3,1.7-4,4.2-4.7,6.9c-0.2,1-0.3,2.1-0.7,3
			c-1.2,3.2-4.4,4.7-6.4,7.3c-5.1,6.6-4.2,7.5-5.2,11.4c-2.3,9.1-0.6,18.3,7.5,23.6c0.7-11.8,5.7-33.9,17.5-39.8
			c3.9-1.9,9.1-2.4,12.6-4.9c4.4-3.2,5.7-10.1,4.1-15.3c-2.7-0.6-3.7-1-5-3.4C115.3,231.8,114.4,228.4,116.2,226.3z"/>
		<g>
			<path d="M118.2,410.1l-1-0.3c6.9-24.5,8.6-29.7,8.6-29.8l1,0.3C126.8,380.5,125.2,385.7,118.2,410.1z"/>
		</g>
		<g>
			<path d="M155.4,249.3l-0.6-0.8c2.7-2.1,5.1-4.5,7.1-7.2c1.3-1.7,2.4-3.5,3.5-5.2c1.3-2.1,2.7-4.3,4.4-6.3l0.8,0.7
				c-1.6,1.9-3,4.1-4.3,6.2c-1.1,1.8-2.3,3.6-3.6,5.3C160.6,244.7,158.1,247.2,155.4,249.3z"/>
		</g>
		<g>
			<path d="M79.7,275.7c-1.3-2.2-0.1-8,1.6-10.3c0.6-0.9,1.4-1.7,2.2-2.5c0.4-0.3,0.7-0.7,1.1-1.1c1.5-1.6,2.6-3.5,3.2-5.6
				c0.3-0.9,0.3-1.8,0.3-2.7c0.1-1.2,0.1-2.4,0.6-3.6c0.8-1.8,2.3-3,3.7-4.2c1.6-1.3,3.1-2.5,3.6-4.3c0.2-1,0.2-2,0.1-3
				c-0.1-0.9-0.2-1.7-0.1-2.6c0.3-2.6,2.1-4.6,3.8-6.6c1.4-1.6,2.9-3.2,3.4-5.1c0.4-1.2,0.4-2.4,0.4-3.7c0-0.9,0.1-1.7,0.2-2.6
				c0.7-4.6,5.4-9.8,12.2-10.5l0.1,1c-6.2,0.6-10.6,5.4-11.2,9.6c-0.1,0.8-0.1,1.7-0.2,2.5c0,1.3-0.1,2.7-0.5,4
				c-0.7,2.1-2.2,3.8-3.7,5.5c-1.7,1.9-3.3,3.7-3.6,6c-0.1,0.8,0,1.6,0.1,2.4c0.1,1.1,0.2,2.3-0.1,3.4c-0.6,2.1-2.3,3.5-3.9,4.8
				c-1.4,1.1-2.8,2.2-3.4,3.8c-0.4,1-0.5,2.1-0.6,3.3c0,1-0.1,2-0.4,2.9c-0.7,2.3-1.8,4.3-3.4,6c-0.4,0.4-0.7,0.7-1.1,1.1
				c-0.8,0.7-1.5,1.4-2,2.3c-1,1.6-2.5,7.6-1.5,9.3L79.7,275.7z"/>
		</g>
		<g>
			<g>
				<polygon class="st3" points="236.2,292.8 189,266.2 189,202.3 236.2,228.9 				"/>
				<polygon class="st1" points="236.2,292.7 283.5,266.2 283.5,202.3 236.2,228.9 				"/>
				<polygon class="st2" points="283.5,202.3 236.2,175.7 189,202.3 236.2,228.9 				"/>
			</g>
			<g>
				<path d="M236.2,293.5l-47.8-26.9v-64.6l0.3-0.2l47.5-26.8l47.8,26.9v64.6L236.2,293.5z M189.6,265.8l46.6,26.2l46.6-26.2v-63.1
					l-46.6-26.2l-46.6,26.2V265.8z"/>
			</g>
			<g>
				<polygon points="236.2,229.6 188.7,202.8 189.3,201.7 236.2,228.2 283.2,201.7 283.8,202.8 				"/>
			</g>
			<g>
				<rect x="235.6" y="228.9" width="1.2" height="63.8"/>
			</g>
		</g>
		<g>
			<g>
				<path class="st3" d="M184,264.6c0.6-0.2,1.1-0.5,1.7-0.7c2-1,3.8-2.3,5.4-3.9c1.1-1.2,6.4-4.9,7.6-2.5c1.1,2.2-3,5.8-4.2,7.3
					c-1.2,1.5-1.7,2.3-0.9,4c0,0,4.5,2.8,9.3,5.1c0.9,0.4,6.5,3.2,5.6,3.6c-1.8,0.8-4.4,0.5-5.4,0.4c-5.1-0.6-9.2-0.8-13.6-0.1
					c-2.3,0.4-4.2,0.4-6.5,0.9c-2.4,0.5-4.7,0.9-7.1,1.3c-0.3,0-0.6,0.1-0.9-0.1c-0.4-0.3-0.4-1.2-0.6-1.6c-0.3-0.7-0.5-1.4-0.8-2
					c-0.1-0.2-0.2-0.5-0.2-0.7c0-0.2,0.1-0.5,0.1-0.7c1.2-4.1,4.6-7.4,8.5-9.2C182.5,265.2,183.3,264.9,184,264.6z"/>
				<path d="M175.3,280.6c-0.3,0-0.7-0.1-0.9-0.3c-0.4-0.4-0.5-0.9-0.6-1.4c0-0.2-0.1-0.3-0.1-0.5l-0.8-2c-0.1-0.3-0.2-0.6-0.2-0.9
					c0-0.3,0.1-0.7,0.2-0.9c1.2-4,4.4-7.5,8.9-9.6c0.6-0.3,1.2-0.5,1.8-0.8l0.3-0.1c0.6-0.2,1.1-0.5,1.7-0.7c2-0.9,3.7-2.2,5.2-3.8
					c0.9-1,4.7-3.8,7.1-3.5c0.7,0.1,1.2,0.5,1.5,1.1c1.1,2.1-1.6,5-3.4,6.9c-0.4,0.4-0.7,0.7-0.9,1c-1.1,1.3-1.4,1.9-0.9,3.2
					c0.9,0.5,4.9,2.9,9,5c6.1,3,6.1,3.5,6.1,4c0,0.3-0.2,0.5-0.5,0.7c-1.3,0.6-3.3,0.8-5.7,0.5c-5.2-0.6-9.2-0.8-13.5-0.1
					c-1.1,0.2-2.1,0.3-3,0.4c-1.2,0.1-2.3,0.2-3.5,0.5c-2.4,0.5-4.8,0.9-7.2,1.3C175.6,280.6,175.5,280.6,175.3,280.6z M184.2,265.2
					l-0.3,0.1c-0.6,0.2-1.2,0.5-1.8,0.7c-4.1,1.9-7.1,5.1-8.2,8.8c-0.1,0.2-0.1,0.4-0.1,0.5c0,0.2,0.1,0.3,0.2,0.5l0.8,2
					c0.1,0.2,0.1,0.4,0.2,0.6c0.1,0.3,0.2,0.7,0.3,0.8c0,0,0.1,0,0.3,0c2.4-0.4,4.8-0.8,7.1-1.3c1.3-0.3,2.5-0.4,3.6-0.5
					c0.9-0.1,1.9-0.2,2.9-0.4c4.4-0.7,8.5-0.5,13.8,0.1c2.1,0.2,3.5,0.1,4.4-0.1c-0.6-0.4-1.9-1.2-4.9-2.7c-4.8-2.4-9.3-5.2-9.4-5.2
					l-0.2-0.1l-0.1-0.2c-0.9-2.1-0.2-3.2,1-4.7c0.2-0.3,0.6-0.7,1-1.1c1.3-1.5,3.9-4.2,3.2-5.5c-0.1-0.2-0.3-0.4-0.6-0.4
					c-1.6-0.2-5,2.1-6,3.1c-1.6,1.7-3.5,3-5.6,4C185.3,264.7,184.8,264.9,184.2,265.2L184.2,265.2z"/>
			</g>
		</g>
		<g>
			<g>
				<path class="st2" d="M129.9,279.2c1.2,2.2,2.2,4.6,3.4,6.8c2.3,4.6,6.1,11.9,12.2,12c2.5,0.1,6.3-2.3,8.1-3.8
					c2.4-1.9,4.3-4.3,6-6.7c3.7-4.9,7.3-9.9,11-14.8c0.3-0.4,0.6-0.8,1-1c0.5-0.3,1.1-0.2,1.7-0.1c7.8,1.2,16.4,5.9,21.6,11.5
					c0.3-0.1,0.4-0.3,0.2,0c-3.7,6.8-7.8,13.5-12.3,19.9c-2.1,3-4.2,6.4-6.8,8.9c-2.4,2.3-4.7,5-7.4,7.1c-2.6,2-5.9,3.9-8.7,5.7
					c-8.4,5.2-19.3,5.2-27.8,0.3c-5.9-3.4-10.8-8.2-15-13.4c-6.4-7.7-11.7-16.3-15.8-25.4c-1.6-3.7-3.1-7.7-2.7-11.7
					c0.4-3.7,2.6-6.3,5.5-8"/>
				<path d="M145.7,329.2c-4.8,0-9.7-1.2-13.9-3.7c-5.2-3-10-7.3-15.2-13.5c-6.5-7.8-11.8-16.4-15.9-25.6c-1.7-3.8-3.2-7.9-2.7-12.1
					c0.4-3.6,2.5-6.6,5.8-8.4l0.6,1.1c-3,1.6-4.8,4.3-5.2,7.5c-0.4,3.9,1,7.8,2.6,11.4c4,9.1,9.3,17.6,15.7,25.3
					c5.1,6.2,9.8,10.4,14.9,13.3c8.4,4.8,19,4.7,27.2-0.3l1.4-0.8c2.5-1.5,5.1-3.1,7.3-4.8c1.6-1.3,3.2-2.9,4.7-4.4
					c0.9-0.9,1.7-1.8,2.6-2.6c2.1-1.9,3.8-4.5,5.5-6.9c0.4-0.6,0.9-1.3,1.3-1.9c4.4-6.2,8.4-12.7,12-19.3
					c-5.2-5.5-13.7-10-21.1-11.1c-0.5-0.1-1-0.1-1.3,0c-0.3,0.1-0.6,0.5-0.8,0.8l-11,14.8c-1.8,2.4-3.7,4.8-6.1,6.8
					c-1.7,1.4-5.6,3.9-8.4,3.9c0,0-0.1,0-0.1,0c-6.7-0.1-10.8-8.4-12.8-12.4c-0.4-0.7-0.7-1.5-1.1-2.2c-0.7-1.5-1.5-3.1-2.3-4.6
					l1.1-0.6c0.8,1.5,1.6,3.1,2.3,4.6c0.4,0.7,0.7,1.5,1.1,2.2c1.8,3.8,5.7,11.6,11.7,11.7c2.3,0,5.9-2.2,7.7-3.7
					c2.3-1.9,4.2-4.3,5.9-6.6l11-14.8c0.3-0.4,0.7-0.9,1.2-1.2c0.7-0.3,1.4-0.2,2.1-0.1c7.6,1.2,16.2,5.8,21.6,11.3l0.2-0.2l0.7,0.7
					l-0.3,0.6c-3.7,6.8-7.9,13.5-12.4,19.9c-0.4,0.6-0.9,1.2-1.3,1.9c-1.7,2.5-3.5,5.1-5.6,7.1c-0.9,0.8-1.8,1.7-2.6,2.6
					c-1.5,1.6-3.1,3.2-4.8,4.5c-2.2,1.7-4.9,3.3-7.4,4.9l-1.3,0.8C155.8,327.9,150.8,329.2,145.7,329.2z"/>
			</g>
			<g>
				<path class="st8" d="M126.4,273.4c0.2,0.2,0.3,0.4,0.5,0.6c1.2,1.6,2.1,3.4,3.1,5.1"/>
				<path d="M129.3,279.5c-1.1-2-2-3.6-3-5.1c-0.1-0.2-0.3-0.4-0.5-0.6l1-0.7c0.2,0.2,0.3,0.4,0.5,0.7c1,1.5,2,3.1,3.1,5.2
					L129.3,279.5z"/>
			</g>
			<g>
				<path d="M145.5,325.9c-4.6,0-9.4-1.5-13.4-4.4l0.6-0.8c5,3.6,11.3,5,16.9,3.7l0.2,1C148.4,325.8,146.9,325.9,145.5,325.9z"/>
			</g>
			<g>
				<path d="M155.3,323.5l-0.5-0.9c2.6-1.3,5-3,7.2-4.5l0.6,0.9C160.4,320.4,157.9,322.1,155.3,323.5z"/>
			</g>
		</g>
	</g>
	<g>
		<polygon class="st3" points="258.6,636.4 259,648.6 273.7,647.7 272,635.5 		"/>
		<polygon class="st3" points="202.9,634.9 201.9,645 214.8,645.8 216.4,636.4 		"/>
		<g>
			<g>
				<path class="st4" d="M272.9,642.8c6,1.5,17.6,5.4,22.9,9.4c2.6,2,3.1,5.4,2.7,8.7c-12.4,0-24.9-0.1-37.3-0.1
					c-0.6,0-1.2,0-1.6-0.3c-0.5-0.4-0.7-1-0.8-1.6c-0.9-3.6-2.1-15.4,1.4-15c1.9,0.2,2.3,3.3,7.9,3.5
					C269.8,647.3,272.3,645.3,272.9,642.8z"/>
				<path class="st4" d="M299.1,661.4l-37.9-0.1c-0.6,0-1.3,0-2-0.5c-0.6-0.5-0.9-1.2-1.1-1.9c-0.6-2.3-2-12.4,0.3-15.1
					c0.5-0.5,1.1-0.8,1.7-0.7c0.9,0.1,1.5,0.6,2.1,1.2c1,1,2.4,2.2,5.8,2.2c0,0,0,0,0,0c1.5,0,3.7-1.8,4.2-4l0.1-0.6l0.6,0.1
					c6.1,1.5,17.7,5.4,23.1,9.5c2.4,1.9,3.4,5,3,9.2L299.1,661.4z M259.9,644.4c-0.2,0-0.4,0.1-0.5,0.3c-1.7,1.9-0.9,10.8-0.1,14
					c0.1,0.5,0.3,1,0.6,1.2c0.3,0.2,0.7,0.2,1.2,0.2l36.8,0.1c0.3-3.5-0.6-6-2.5-7.5c-4.8-3.7-15.6-7.5-22.1-9.1
					c-0.9,2.6-3.5,4.4-5.3,4.3c-3.9-0.1-5.5-1.5-6.6-2.6C260.9,644.8,260.5,644.4,259.9,644.4C260,644.4,260,644.4,259.9,644.4z"/>
			</g>
			<g>
				<path class="st3" d="M258.1,655.4c0.2,1.4,0.4,2.6,0.6,3.4c0.1,0.6,0.3,1.2,0.8,1.6c0.5,0.3,1.1,0.3,1.6,0.3
					c12.4,0,24.9,0.1,37.3,0.1c0.2-1.9,0.1-3.7-0.5-5.4H258.1z"/>
				<path d="M299,661.3l-37.8-0.1c-0.6,0-1.3,0-1.9-0.4c-0.6-0.4-0.9-1.2-1.1-1.9c-0.2-0.8-0.4-2.1-0.6-3.4l-0.1-0.6h40.9l0.1,0.3
					c0.6,1.6,0.7,3.5,0.5,5.6L299,661.3z M258.7,655.9c0.2,1.1,0.3,2.1,0.5,2.7c0.1,0.5,0.3,1,0.6,1.3c0.3,0.2,0.8,0.2,1.3,0.2
					l36.9,0.1c0.1-1.6,0-3.1-0.4-4.4H258.7z"/>
			</g>
		</g>
		<g>
			<g>
				<path class="st3" d="M215.8,655.4l-0.2,7.3c0,0-3,3-11.1,2.2c-8-0.9-9.4-3.3-9.4-3.3l-0.2-6.2L215.8,655.4z"/>
				<path d="M207.2,665.5c-0.9,0-1.8,0-2.8-0.2c-8.1-0.9-9.6-3.3-9.8-3.6l-0.1-0.1l-0.3-6.9l22,0.1l-0.3,8l-0.1,0.1
					C215.8,663.1,213.4,665.5,207.2,665.5z M195.6,661.3c0.3,0.4,2.2,2.3,8.9,3c6.7,0.7,9.8-1.4,10.5-1.9l0.2-6.5l-19.9-0.1
					L195.6,661.3z"/>
			</g>
			<g>
				<path class="st4" d="M215.7,643.4c0,0,0.3,12.5,0.2,13.8c-0.1,1.2-5.7,2.4-11.1,2.1c-5.4-0.3-7.8-1.5-9.5-3.3
					c-1.7-1.8,4.1-10.4,6.8-13.1C202.2,642.8,207.6,645.5,215.7,643.4z"/>
				<path d="M206.3,659.9c-0.5,0-1.1,0-1.5,0c-4.9-0.3-7.8-1.3-9.9-3.5c-2.3-2.4,4.8-11.9,6.8-14l0.3-0.3l0.4,0.2
					c0.1,0,5.3,2.6,13.1,0.6l0.8-0.2l0,0.8c0,0.5,0.3,12.6,0.2,13.8C216.4,659.1,210.5,659.9,206.3,659.9z M202.3,643.5
					c-3.1,3.3-7.6,10.8-6.5,12c1.4,1.4,3.4,2.8,9.1,3.1c5.4,0.3,10.1-0.9,10.4-1.6c0.1-0.9-0.1-9-0.2-12.9
					C208.5,645.7,203.7,644.1,202.3,643.5z"/>
			</g>
		</g>
		<g>
			<path d="M202.8,643.3l-1.2-0.1c0.3-5.9,0.4-6.1,0.4-6.2l1.2,0.4l-0.6-0.2l0.6,0.1C203.2,637.8,203,641.2,202.8,643.3z"/>
		</g>
		<g>
			<rect x="212.3" y="639.9" transform="matrix(0.1318 -0.9913 0.9913 0.1318 -447.8141 769.8137)" width="6.6" height="1.2"/>
		</g>
		<g>
			<path d="M258.1,644.2c-0.2-5.2-0.2-5.4-0.1-5.5l1.2,0.4l-0.6-0.2l0.6,0.1c0,0.3,0.1,3.2,0.2,5.2L258.1,644.2z"/>
		</g>
		<g>
			<path d="M272.3,642.9c-0.8-5.4-0.7-5.6-0.5-5.9l1,0.7l-0.5-0.3l0.6,0.1c0,0.4,0.3,2.9,0.6,5.2L272.3,642.9z"/>
		</g>
		<path class="st5" d="M201.2,638.8c-6.4-20.5-4.6-42.8-0.6-63.6c4.3-22,9.1-42.6,9-65.3c-0.1-12.6,0.6-25.5-0.5-37.9
			c-0.1-1.6-0.2-11.6,0-13.3c0-0.3,20-1.2,21.8-1.3c7.3-0.6,14.6-0.2,22,0c-1.2,5.5-0.7,11.3-0.5,16.9c0.6,18-1.7,35.9-5.7,53.4
			c-2.1,9.2-4.8,17.9-6.9,27.1c-3.2,13.8-8,26.8-9.7,40.8c-1.7,13.6-3.4,27.5-8.1,40.5c-0.3,0.7-1,2.1-1.6,2.6
			C219.7,639.3,207.1,639.7,201.2,638.8z"/>
		<path class="st5" d="M251.1,587.8c0.2-8,1.7-14.9,1.8-22.8c0.1-9-0.6-18-2.2-26.9c-3.1-17.7-9.4-34.6-13.1-52.2
			c-1.3-6.3-2.3-12.7-3-19.1c-0.6-6-0.7-7.9,5.8-8.2c11.8-0.6,26.4,0.7,37.8-2.6c-0.9,0.3,4.2,44.5,4.5,48.4
			c1.2,15.2,1.4,30.8,1.3,46.1c-0.3,29.7-5,59-10.8,88.3c-3.9,2.2-14,3.2-18.4,2.1C254.9,640.8,250.4,621.7,251.1,587.8z"/>
		<path class="st3" d="M275.1,381c-4.5-2.9-10.5-4.6-15.2-6c-7.4-2.2-15.1-3.1-22.8-2.9c-10,0.2-22.1,2-30.8,8.4
			c-1.6,1.2-3.5,5.9-2.9,8.3c0.4,1.7,0.2,3.8,0.3,5.6c0.2,4,0.3,7.9,0.4,11.9c0.2,8.7,0.3,17.5,0.4,26.2c0.2,11.6,1.7,22.5,2.4,34
			c0.3,5,0.3,14.1,0.2,18.2c0,0.4,73.5,1.2,73.2-2.9c-0.2-2.5-1.3-8.1-1.4-10.6c-0.6-9.4-1.7-15.1-2.3-24.5
			c-0.4-6.5-0.8-13-1.2-19.5c-0.3-4.1-0.5-8.3-0.8-12.4c-0.2-2.5-0.4-2.7,1.7-4c1.7-1,3.4-1.8,5-2.9c2.5-1.8,4.2-4.5,5.3-7.4
			c1.3-3.4-5.4-13.4-7.6-16.1C278,383.2,276.6,382,275.1,381z"/>
		<path class="st3" d="M262.6,375.9c6.8,3.2,14,5.8,19,11.8c4.7,5.6,7.5,12.6,10,19.5c4.6,13.2,8.2,27,9,41.1
			c0.1,1.7,0.1,3.5-0.4,5.1c-1.3,4.4-8.1,6.3-11.8,7.4c-5.3,1.6-10.9,2.1-16.4,1.3c-0.5-0.1-1-0.2-1.3-0.5c-0.4-0.4-0.6-1-0.7-1.5
			c-3.1-12.2-2.7-25.2-5.6-37.4c-1.6-11-4.3-23.3-3.1-34.4C261.3,387.5,261.9,375.6,262.6,375.9z"/>
		<path class="st3" d="M236.3,372.3c-17.9,1.1-30,4.3-41.2,19.1c-7.8,10.3-13.3,24.4-14.6,35.7c-1.4,11.7-1.4,39.3,12.9,40.8
			c6.1,0.6,12.2-1.2,17.6-4.2c0.9-0.5,2.3-1.2,2.7-2.1c0.4-0.7,2.6-11.5,3.1-13.8c-7.3-6.3-10.6-15.2-8.5-24.6
			c1.8-8.2,7.5-18.5,14.7-23.2c7.8-5.1,15.4-9.5,20.3-17.9c0.9-1.5,1.6-3,1.6-4.6c0.1-1.6-0.7-3.3-2.2-4.3
			C241,372.1,238.5,372.1,236.3,372.3z"/>
		<g>
			<path d="M228.9,485.8c-10.9,0-21.7-0.1-22.2-0.4l-0.3-0.2l0-0.4c0.2-4.2,0.1-13.2-0.2-18.2l0,0c-4.5,1.7-8.8,2.3-12.9,1.9
				c-3.1-0.3-5.7-1.8-7.8-4.4c-6.9-8.6-6.8-27.3-5.6-37c1.4-12,7.2-26.1,14.7-36.1c4.3-5.7,8.9-9.9,14.1-12.8
				c7.1-4.2,16.6-6.4,28.3-6.7c9.1-0.2,31.8,0.9,45,15.8c4.8,5.4,7.5,12.4,10.1,19.8c5.5,15.7,8.3,28.8,9,41.2l0,0
				c0.1,1.7,0.1,3.6-0.4,5.3c-1.4,4.6-7.9,6.5-11.8,7.7l-0.4,0.1c-3.2,1-6.5,1.5-9.8,1.7c0.2,2.3,0.5,5,0.7,8.2
				c0.1,1.2,0.4,3.3,0.7,5.3c0.3,2,0.6,4.1,0.7,5.4c0,0.3-0.1,0.7-0.7,1.1c-3.1,1.9-22.7,2.5-38.6,2.7
				C237.9,485.7,233.4,485.8,228.9,485.8z M207.7,484.3c3,0.2,19.2,0.4,35.7,0.2c31.2-0.4,35.7-2,36.3-2.6c-0.1-1.2-0.4-3.2-0.7-5.1
				c-0.3-2-0.6-4.1-0.7-5.4c-0.2-3.5-0.5-6.4-0.8-8.8l-0.1-0.7l0.7,0c3.4-0.1,6.8-0.6,10.1-1.6l0.4-0.1c3.7-1.1,9.8-3,11-6.9
				c0.5-1.5,0.4-3.3,0.3-4.9l0,0c-0.7-12.3-3.5-25.3-8.9-40.9c-2.5-7.2-5.2-14.1-9.8-19.3c-12.9-14.5-35.1-15.6-44.1-15.4
				c-11.5,0.3-20.8,2.5-27.7,6.5c-5.1,2.9-9.6,6.9-13.8,12.5c-7.4,9.8-13.1,23.7-14.5,35.4c-1,8.9-1.3,27.8,5.4,36.1
				c1.9,2.4,4.2,3.7,7,4c4.2,0.4,8.6-0.3,13.1-2.1l0.8-0.3l0.1,1.7C207.8,471.3,207.8,479.8,207.7,484.3z"/>
		</g>
		<path class="st3" d="M258.1,341.4l-2.4,23.6c0,0-2,4.3-4.3,4.4c0,0,1.2,5.6-0.4,7c-1.5,1.4-6,4.4-10.8,2.8
			c-4.8-1.6-7.1-4.3-6.7-7.4l0-12.6c0,0-4.7-4.7-5.7-8.3c-1-3.7,2.3-9.6,5.7-9.7C237,341,251.4,338.1,258.1,341.4z"/>
		<g>
			<path d="M247.9,370.8c-2.3,0-5-0.6-8-1.8l0.4-1.2c5.3,2,9.3,2.2,12,0.6c2.7-1.6,3.1-4.6,3.1-4.6c0.6-5.7,2.1-20.8,2.1-21.3l1.2,0
				c0,0.4-1.8,17.9-2.1,21.4c0,0.2-0.5,3.6-3.7,5.5C251.6,370.4,249.9,370.8,247.9,370.8z"/>
		</g>
		<path d="M230.9,347.9c1.3-1.2,4-0.9,5.8,0.9c0.9-3.7,0.7-5.6,8.2-5.8c2.7-0.1,14.4-0.5,12.9,4.5c1.6-0.4,2.8-1.6,3.9-2.9
			c0.8-0.9,2-2,2.4-3.2c0.4-1.4-0.2-3.1-1.1-4.1c-1.1-1.4-2.9-2.2-4.6-2.4c-0.9-0.1-1.8-0.1-2.6-0.3c-2.1-0.4-3.7-3.1-5.5-4.3
			c-2.6-1.7-5.9-2.4-9-1.8c-3.1,0.6-5.9,2.5-7.7,5.1c-0.7,1-0.6,1.9-1.9,2.3c-0.8,0.3-1.6,0.3-2.3,0.7c-2.3,1.2-2.7,5.9-2.7,8.2
			c-0.1,3.4,1.8,14.1,7.3,13C231.4,355.3,227.7,351,230.9,347.9z"/>
		<g>
			<path d="M242.2,379.6c-0.1,0-0.1,0-0.2,0c-3,0-5.3-0.8-6.9-2.4c-1.9-2-1.9-4.4-1.9-4.5l-0.5-14.9l1,0l0.5,14.9c0,0,0,1.5,0.9,3
				c1.3,1.9,3.6,2.9,6.8,3c0.1,0,0.1,0,0.2,0c3.8,0,6.5-0.9,7.9-2.5c1.3-1.6,1-3.3,1-3.3l0-0.1l0.1-3.8l1,0l-0.1,3.7
				c0.1,0.4,0.3,2.3-1.2,4.1C249.3,378.6,246.4,379.6,242.2,379.6z"/>
		</g>
		<g>
			<path class="st3" d="M248.2,526.2l-0.5-2.4c1.1-3.3,1.9-10.8,1.9-12.6l1.2,0C250.8,513.1,249.3,522.7,248.2,526.2z"/>
		</g>
		<g>
			<path d="M273.4,419.8c-0.2-2.6-1.2-15.4-1.2-15.7h1.2h-0.6l0.6,0c0,0.4,0.9,11.4,1.2,15.7L273.4,419.8z"/>
		</g>
		<g>
			<path class="st3" d="M201.4,616.7c-1.6-18.4,0-36.9,4.5-54.8l1.2,0.3c-4.5,17.8-6,36.1-4.5,54.4L201.4,616.7z"/>
		</g>
		<g>
			<path d="M241.2,383.4c-5.2,0-10.8-1.6-11.5-6.4l1.2-0.2c0.8,5.8,10.5,5.4,11.7,5.3l0.1,1.2C242.2,383.4,241.7,383.4,241.2,383.4z
				"/>
		</g>
		<g>
			<g>
				<path d="M249.7,359.2l-0.9-0.9c0.5-0.5,1.1-0.6,1.7-0.7c0.4-0.1,0.8-0.1,1-0.3c0.2-0.2,0.2-0.5,0.1-0.9c-0.1-0.3-0.3-0.6-0.5-1
					l-0.2-0.2c-1-1.6-1.4-3.2-1.2-4.7l1.2,0.2c-0.2,1.5,0.5,3,1,3.9l0.1,0.2c0.2,0.4,0.5,0.8,0.6,1.3c0.2,0.8,0.1,1.6-0.4,2.1
					c-0.5,0.5-1.1,0.6-1.7,0.7C250.3,358.9,249.9,359,249.7,359.2z"/>
			</g>
			<g>
				<path d="M247.6,363.9c-1,0-1.9-0.3-2.7-0.8c-1.3-0.8-2.1-2.3-2.2-3.8l1.2-0.1c0.1,1.1,0.7,2.2,1.6,2.8c0.9,0.6,2.2,0.8,3.2,0.4
					l0.4,1.2C248.7,363.8,248.1,363.9,247.6,363.9z"/>
			</g>
			<g>
				<path d="M240.8,348.2l-0.7-1c2.1-1.5,5.1-1.6,7.2-0.2l-0.7,1.1C244.9,346.9,242.4,347,240.8,348.2z"/>
			</g>
			<path d="M244.8,352.1c0.5-0.9,0.2-2.2-1.1-2c-0.7,0.1-1.2,0.9-1.2,1.6c0,0.4,0.3,0.8,0.7,1C243.9,353,244.5,352.6,244.8,352.1z"
				/>
			<path d="M254.5,352.9c0.8,0.1,1.4-0.8,1.4-1.5c0-0.3-0.1-0.6-0.4-0.8c-0.5-0.3-1.4,0-1.6,0.5c-0.3,0.5-0.2,1.1,0.2,1.5
				C254.2,352.8,254.3,352.9,254.5,352.9z"/>
			<g>
				<path d="M255.6,349.1c-0.2-0.4-1.9-0.9-2.3-0.9l0-1.2c0.4,0,2.8,0.5,3.4,1.5L255.6,349.1z"/>
			</g>
		</g>
		<g>
			<path d="M233.4,355.2c-1.4-0.8-2.2-2.6-1.7-4.2c0.2-0.8,0.7-1.4,1.3-1.6c0.3-0.1,0.6-0.1,1,0c0.7,0.1,1.2,0.5,1.6,1.1l-1.1,0.6
				c-0.2-0.3-0.4-0.5-0.7-0.5c-0.1,0-0.3,0-0.3,0c-0.2,0.1-0.4,0.4-0.5,0.7c-0.3,1,0.2,2.3,1.2,2.8L233.4,355.2z"/>
		</g>
		<g>
			<path d="M213.9,459l-1.1-0.6c2.1-3.8,3.4-8,3.6-12.3c0-0.2,0-0.3,0-0.5c-0.3,0-0.7,0-1.1,0.1c-2.6,0.2-7.1,0.6-8.7-1.9
				c-2.2-3.4-1-10.2,0.4-16.4c0.7-3.2,1.9-6.4,3-9.5c2.3-6.2,4.4-12.1,3.4-18.3l1.2-0.2c1,6.5-1.2,12.8-3.4,18.9
				c-1.1,3-2.2,6.2-2.9,9.3c-0.8,3.6-2.7,12.1-0.5,15.5c1.2,1.9,5.4,1.6,7.6,1.4c1.5-0.1,2-0.2,2.3,0.3c0.2,0.4,0.2,0.9,0.2,1.4
				C217.4,450.7,216.1,455.1,213.9,459z"/>
		</g>
		<g>
			<path d="M185.4,451.6c-3.7-10.3-1.8-30.6,2.4-38.3l1.1,0.6c-4,7.3-5.9,27.4-2.3,37.3L185.4,451.6z"/>
		</g>
		<g>
			<g>
				<polygon class="st3" points="245.9,509.7 198.7,483.1 198.7,419.2 245.9,445.8 				"/>
				<polygon class="st1" points="245.9,509.7 293.2,483.1 293.2,419.2 245.9,445.8 				"/>
				<polygon class="st2" points="293.2,419.2 245.9,392.6 198.7,419.2 245.9,445.8 				"/>
			</g>
			<g>
				<path d="M245.9,510.4l-47.8-26.9v-64.6l0.3-0.2l47.5-26.8l47.8,26.9v64.6L245.9,510.4z M199.3,482.8l46.6,26.2l46.6-26.2v-63.1
					l-46.6-26.2l-46.6,26.2V482.8z"/>
			</g>
			<g>
				<polygon points="245.9,446.6 198.4,419.8 199,418.7 245.9,445.1 292.9,418.7 293.5,419.8 				"/>
			</g>
			<g>
				<rect x="245.3" y="445.9" width="1.2" height="63.8"/>
			</g>
		</g>
		<g>
			<g>
				<path class="st3" d="M294,444.2c-0.3-1.4-0.3-3.3,0.5-4.4s2.4-1.7,3.8-1.5c0.4,1.9,1,3.8,1.8,5.7c1.3,3.4,0.9,5.5,0.9,5.5
					C299.6,447.1,294.2,445,294,444.2z"/>
				<path d="M301.2,451.3l-0.8-1.4c-0.8-1.3-3-2.6-4.6-3.6c-1.6-0.9-2.3-1.4-2.4-1.9l0,0c-0.2-0.7-0.6-3.3,0.6-4.9
					c1-1.3,2.7-2,4.3-1.8l0.4,0.1l0.1,0.4c0.4,1.7,0.9,3.5,1.7,5.6c1.4,3.5,1,5.8,0.9,5.9L301.2,451.3z M294.6,444
					c0.2,0.2,1.1,0.8,1.8,1.2c1.3,0.8,2.8,1.7,3.9,2.7c-0.1-0.9-0.3-2.1-0.9-3.7c-0.8-1.9-1.3-3.7-1.7-5.3c-1.1,0-2.1,0.5-2.8,1.3
					C294.3,441.1,294.3,442.7,294.6,444z M294.6,444L294.6,444L294.6,444z"/>
			</g>
			<g>
				<path class="st3" d="M294.4,463c-0.6-0.1-1.1-0.6-1.8-1c-0.7-0.4-1.6-0.6-2.4-0.8c-1.6-0.4-3.2-0.6-4.8-0.8
					c-0.4,0-0.8-0.1-1.1-0.3c-1.5-1-1.3-3.3,0-3.6c-2.9-1.8-1-4,0.5-4.1c-2.6-1.2-1.5-4.2,0.1-4.1c-1.5-0.5-3-4.4,3.5-3.9
					c3.7,0.3,10.2,0.8,12,4.7c0.3,0.7,0.4,1.4,0.4,2.2c0.2,3.5-0.9,7-3.1,9.7c-0.6,0.8-1.4,1.6-2.4,1.9
					C295.1,463,294.7,463,294.4,463z"/>
				<path d="M294.8,463.6c-0.2,0-0.3,0-0.5,0l0,0c-0.6-0.1-1-0.4-1.4-0.7c-0.2-0.1-0.3-0.2-0.5-0.4c-0.6-0.4-1.4-0.5-2.1-0.7l-0.2,0
					c-1.4-0.3-3-0.6-4.8-0.8c-0.4,0-0.9-0.1-1.3-0.4c-1.1-0.7-1.4-2-1.3-3c0.1-0.4,0.3-0.8,0.5-1.1c-1.1-1-1.1-2-1-2.5
					c0.2-0.7,0.7-1.3,1.3-1.7c-0.8-0.8-0.9-1.8-0.8-2.6c0.1-0.6,0.5-1.2,1-1.5c-0.5-0.6-0.8-1.4-0.6-2.2c0.2-0.9,1.2-2.5,5.4-2.2
					c3.4,0.2,10.5,0.8,12.5,5.1c0.4,0.8,0.5,1.7,0.5,2.4c0.2,3.6-1,7.3-3.2,10.2c-0.6,0.7-1.4,1.7-2.7,2.1
					C295.4,463.6,295.1,463.6,294.8,463.6z M285,448.9c-0.4,0-0.8,0.4-1,1c-0.1,0.3-0.2,1.3,1.1,1.9l2.2,1l-2.4,0.2
					c-0.6,0-1.3,0.6-1.5,1.2c-0.2,0.8,0.5,1.4,1.2,1.8l1.3,0.8l-1.5,0.3c-0.4,0.1-0.5,0.6-0.5,0.7c-0.1,0.6,0.1,1.3,0.7,1.7
					c0.2,0.1,0.5,0.2,0.8,0.2c1.8,0.2,3.4,0.5,4.9,0.8l0.2,0c0.8,0.2,1.7,0.4,2.5,0.9c0.2,0.1,0.4,0.3,0.6,0.4
					c0.4,0.2,0.6,0.4,0.9,0.5l0,0c0.2,0,0.5,0,0.8-0.1c0.9-0.3,1.6-1.1,2.1-1.7c2-2.6,3.1-6,3-9.3c0-0.6-0.1-1.3-0.4-2
					c-1.7-3.6-8.3-4.1-11.4-4.4c-2.4-0.2-3.9,0.3-4.1,1.2c-0.1,0.7,0.4,1.4,0.8,1.6l3.9,1.3L285,448.9
					C285,448.9,285,448.9,285,448.9z"/>
			</g>
			<g>
				<path d="M296.2,450.8c-3.6-1.7-8-1.9-11.9-1.8l0-1.2c4-0.1,8.6,0.1,12.4,1.9L296.2,450.8z"/>
			</g>
			<g>
				<path d="M295.1,454.7c-2.1-1.1-8.3-1.6-10.7-1.5l-0.1-1.2c2.6-0.1,9,0.4,11.4,1.6L295.1,454.7z"/>
			</g>
			<g>
				<path d="M294.9,458.9c-3.5-0.9-7-1.5-10.6-1.7l0.1-1.2c3.7,0.2,7.3,0.8,10.9,1.8L294.9,458.9z"/>
			</g>
		</g>
		<g>
			<g>
				<path class="st3" d="M199,449c0.3-1.4,0.3-3.3-0.5-4.4c-0.9-1.1-2.4-1.7-3.8-1.5c-0.4,1.9-1,3.8-1.8,5.7
					c-1.3,3.4-0.9,5.5-0.9,5.5C193.5,451.9,198.9,449.8,199,449z"/>
				<path d="M191.8,456.1l-0.3-1.6c0-0.1-0.4-2.3,0.9-5.9c0.8-2.1,1.4-3.9,1.7-5.6l0.1-0.4l0.4-0.1c1.6-0.2,3.3,0.5,4.3,1.8
					c1.2,1.6,0.8,4.2,0.6,4.9v0c-0.1,0.6-0.8,1-2.4,1.9c-1.6,1-3.9,2.3-4.6,3.6L191.8,456.1z M195.2,443.7c-0.4,1.6-0.9,3.4-1.7,5.3
					c-0.6,1.5-0.8,2.8-0.9,3.7c1.1-1,2.6-1.9,3.9-2.7c0.7-0.4,1.6-0.9,1.8-1.2c0.3-1.2,0.3-2.9-0.4-3.8
					C197.4,444.2,196.3,443.7,195.2,443.7z"/>
			</g>
			<g>
				<path class="st3" d="M198.6,467.8c0.6-0.1,1.1-0.6,1.8-1c0.7-0.4,1.6-0.6,2.4-0.8c1.6-0.4,3.2-0.6,4.8-0.8
					c0.4,0,0.8-0.1,1.1-0.3c1.5-1,1.3-3.3,0-3.6c2.9-1.8,1-4-0.5-4.1c2.6-1.2,1.5-4.2-0.1-4.1c1.5-0.5,3-4.4-3.5-3.9
					c-3.7,0.3-10.2,0.8-12,4.7c-0.3,0.7-0.4,1.4-0.4,2.2c-0.2,3.5,0.9,7,3.1,9.7c0.6,0.8,1.4,1.6,2.4,1.9
					C198,467.8,198.3,467.8,198.6,467.8z"/>
				<path d="M198.2,468.4c-0.3,0-0.6,0-0.9-0.1c-1.2-0.4-2.1-1.4-2.7-2.1c-2.2-2.8-3.4-6.5-3.2-10.2c0-0.7,0.1-1.6,0.5-2.4
					c2-4.3,9.1-4.8,12.5-5.1c4.3-0.3,5.2,1.2,5.4,2.2c0.2,0.8-0.1,1.6-0.6,2.2c0.5,0.3,0.8,0.9,1,1.5c0.2,0.8,0,1.8-0.8,2.6
					c0.6,0.4,1.1,1,1.3,1.7c0.1,0.6,0.1,1.6-1,2.5c0.3,0.3,0.4,0.7,0.5,1.1c0.2,1-0.1,2.3-1.3,3c-0.5,0.3-1,0.3-1.3,0.4
					c-1.8,0.2-3.3,0.4-4.8,0.8l-0.2,0c-0.7,0.2-1.5,0.4-2.1,0.7c-0.2,0.1-0.4,0.2-0.5,0.4c-0.4,0.3-0.8,0.6-1.4,0.7l0,0
					C198.6,468.4,198.4,468.4,198.2,468.4z M205.5,449.7c-0.3,0-0.6,0-1,0c-3.2,0.2-9.8,0.7-11.4,4.4c-0.3,0.6-0.4,1.4-0.4,2
					c-0.2,3.3,0.9,6.7,3,9.3c0.5,0.6,1.2,1.4,2.1,1.7c0.3,0.1,0.5,0.1,0.8,0.1c0.3-0.1,0.6-0.3,0.9-0.5c0.2-0.1,0.4-0.3,0.6-0.4
					c0.8-0.5,1.7-0.7,2.5-0.9l0.2,0c1.5-0.4,3.1-0.6,4.9-0.8c0.3,0,0.6-0.1,0.8-0.2c0.6-0.4,0.8-1.2,0.7-1.7c0-0.1-0.1-0.6-0.5-0.7
					l-1.5-0.3l1.3-0.8c0.6-0.4,1.4-1,1.2-1.8c-0.2-0.7-0.9-1.2-1.5-1.2l-2.4-0.2l2.2-1c1.3-0.6,1.2-1.6,1.1-1.9c-0.1-0.6-0.6-1-1-1
					l-4.1,0.1l3.9-1.3c0.4-0.1,1-0.9,0.8-1.6C208.5,450.2,207.3,449.7,205.5,449.7z"/>
			</g>
			<g>
				<path d="M196.8,455.6l-0.5-1.1c3.8-1.8,8.4-2,12.4-1.9l0,1.2C204.8,453.8,200.4,453.9,196.8,455.6z"/>
			</g>
			<g>
				<path d="M197.9,459.5l-0.6-1.1c2.4-1.2,8.8-1.8,11.4-1.6l-0.1,1.2C206.2,457.9,200,458.5,197.9,459.5z"/>
			</g>
			<g>
				<path d="M198.1,463.7l-0.3-1.2c3.5-1,7.2-1.6,10.9-1.8l0.1,1.2C205.2,462.2,201.6,462.8,198.1,463.7z"/>
			</g>
		</g>
	</g>
	<g>
		<g>
			<path d="M18.1,415c-2.1-3.5-4-7.2-5.7-11.1l1.1-0.5c1.7,3.8,3.6,7.5,5.6,11L18.1,415z M7.9,392.3c-1.3-3.8-2.4-7.9-3.4-12
				l1.2-0.3c1,4.1,2.1,8.1,3.4,11.9L7.9,392.3z M2.2,368c-0.6-4-1.1-8.2-1.5-12.4l1.2-0.1c0.4,4.2,0.8,8.3,1.5,12.3L2.2,368z
				 M0,343.2c0-1.3,0-2.5,0-3.8c0-2.9,0.1-5.8,0.2-8.7l1.2,0.1c-0.1,2.9-0.2,5.8-0.2,8.6c0,1.3,0,2.5,0,3.8L0,343.2z M2.3,318.4
				l-1.2-0.1c0.4-4.1,1-8.3,1.6-12.4l1.2,0.2C3.3,310.2,2.7,314.3,2.3,318.4z M6.3,294l-1.2-0.3c0.9-4.1,2-8.1,3.1-12.1l1.2,0.4
				C8.3,285.9,7.2,289.9,6.3,294z M13.3,270.2l-1.2-0.4c1.4-4,2.9-7.9,4.4-11.6l1.1,0.5C16.2,262.3,14.7,266.2,13.3,270.2z
				 M22.7,247.3l-1.1-0.5c1.8-3.8,3.7-7.5,5.7-11.1l1.1,0.6C26.4,239.9,24.5,243.6,22.7,247.3z M34.8,225.8l-1-0.7
				c2.3-3.5,4.7-6.9,7.2-10.2l1,0.8C39.5,218.9,37.1,222.3,34.8,225.8z M49.9,206.1l-0.9-0.8c2.7-3.1,5.6-6.1,8.6-9l0.9,0.9
				C55.4,200.1,52.6,203.1,49.9,206.1z M67.6,188.9l-0.8-0.9c3.1-2.6,6.4-5.2,9.8-7.7l0.7,1C73.9,183.7,70.7,186.3,67.6,188.9z
				 M87.4,174.1l-0.7-1c3.4-2.2,6.9-4.4,10.6-6.6l0.6,1.1C94.3,169.7,90.8,171.9,87.4,174.1z"/>
		</g>
		<polygon points="26.7,418.2 19.3,423.4 27.5,427.1 		"/>
	</g>
	<g>
		<g>
			<path class="st3" d="M556.7,585.8l-0.4-1.2c61.9-22.2,104.4-61.5,126-116.6l1.2,0.5C661.6,524,619,563.4,556.7,585.8z"/>
		</g>
		<g>
			<path class="st3" d="M494.6,601l-0.2-1.2c11.6-1.7,23-3.9,33.9-6.7l0.3,1.2C517.7,597.1,506.2,599.3,494.6,601z"/>
		</g>
		<polygon class="st3" points="687.2,458 680.1,463.5 688.4,466.9 		"/>
	</g>
	<g>
		<path d="M478.7,98.1l-1.2-0.4l0.6,0.2l-0.6-0.1c0.2-1.2,0.1-25.7,0-41.9l0-0.4l37.2-21l0.6,1.1l-36.6,20.7
			C478.9,66.3,479.1,97.2,478.7,98.1z"/>
	</g>
	<g>
		<path d="M291.8,239.6c-0.3-1-0.1-31.8,0-41.9l-36.6-20.7l0.6-1.1l37.2,21l0,0.4c-0.1,16.2-0.2,40.7,0,41.9L291.8,239.6z"/>
	</g>
	<g>
		<path d="M422.6,614.7l-0.3-0.2c-13.9-8.2-35.1-20.6-36.2-21l0.3-1.2c1,0.2,27.6,15.8,36.2,21l36.2-21.3l0.6,1.1L422.6,614.7z"/>
	</g>
	<g>
		<path d="M285,120.2c-2.6,0-5.2-1.1-7.1-3.1c-3.6-3.9-3.3-10,0.6-13.6c3.9-3.6,10-3.3,13.6,0.6l0,0c1.7,1.9,2.6,4.4,2.5,6.9
			c-0.1,2.6-1.2,4.9-3.1,6.7C289.6,119.4,287.3,120.2,285,120.2z M285,102.3c-2,0-4,0.7-5.6,2.2c-3.4,3.1-3.7,8.4-0.6,11.8
			c3.1,3.4,8.4,3.7,11.8,0.6c1.7-1.5,2.6-3.6,2.7-5.8c0.1-2.2-0.7-4.4-2.2-6l0,0C289.6,103.2,287.3,102.3,285,102.3z"/>
	</g>
	<g>
		<path d="M549.3,568.7c-0.1,0-0.2,0-0.3,0c-1.5-0.1-2.9-0.7-4-1.9c-2.1-2.3-2-6,0.4-8.1c1.1-1,2.6-1.6,4.1-1.5
			c1.5,0.1,2.9,0.7,4,1.9c1,1.1,1.6,2.6,1.5,4.1c-0.1,1.5-0.7,2.9-1.9,4C552.1,568.1,550.7,568.7,549.3,568.7z M549.3,558.5
			c-1.1,0-2.2,0.4-3,1.2c-1.8,1.7-2,4.5-0.3,6.3c0.8,0.9,1.9,1.4,3.1,1.5c1.2,0.1,2.3-0.4,3.2-1.2c0.9-0.8,1.4-1.9,1.5-3.1
			c0.1-1.2-0.4-2.3-1.2-3.2l0,0c-0.8-0.9-1.9-1.4-3.1-1.5C549.4,558.5,549.4,558.5,549.3,558.5z"/>
	</g>
	<g>
		<g>
			
				<rect x="672.8" y="332.3" transform="matrix(4.713678e-02 -0.9989 0.9989 4.713678e-02 320.1631 1001.5152)" width="24.4" height="1.2"/>
		</g>
		<g>
			
				<rect x="680.5" y="308.1" transform="matrix(4.713305e-02 -0.9989 0.9989 4.713305e-02 345.4753 979.5458)" width="11.3" height="1.2"/>
		</g>
	</g>
	<g>
		<g>
			
				<rect x="658.1" y="317.4" transform="matrix(4.721196e-02 -0.9989 0.9989 4.721196e-02 320.9742 972.5393)" width="24.4" height="1.2"/>
		</g>
		<g>
			
				<rect x="656.8" y="283.9" transform="matrix(3.663414e-02 -0.9993 0.9993 3.663414e-02 362.7466 945.3752)" width="29.8" height="1.2"/>
		</g>
	</g>
	<g>
		<g>
			
				<rect x="53.1" y="355" transform="matrix(4.721196e-02 -0.9989 0.9989 4.721196e-02 -301.1581 395.4485)" width="7.1" height="1.2"/>
		</g>
		<g>
			
				<rect x="49.5" y="357.9" transform="matrix(4.689606e-02 -0.9989 0.9989 4.689606e-02 -313.2675 394.6335)" width="1.2" height="7.1"/>
		</g>
		<g>
			
				<rect x="52.5" y="367.4" transform="matrix(4.713678e-02 -0.9989 0.9989 4.713678e-02 -314.2044 406.6669)" width="7.1" height="1.2"/>
		</g>
		<g>
			
				<rect x="62" y="358.6" transform="matrix(4.689606e-02 -0.9989 0.9989 4.689606e-02 -302.0735 407.6837)" width="1.2" height="7.1"/>
		</g>
	</g>
	<g>
		<g>
			
				<rect x="527.2" y="549.8" transform="matrix(4.721569e-02 -0.9989 0.9989 4.721569e-02 -45.3418 1053.2352)" width="4.5" height="1.2"/>
		</g>
		<g>
			
				<rect x="524.6" y="551.9" transform="matrix(4.696869e-02 -0.9989 0.9989 4.696869e-02 -52.9178 1052.7875)" width="1.2" height="4.5"/>
		</g>
		<g>
			
				<rect x="526.7" y="557.7" transform="matrix(4.721569e-02 -0.9989 0.9989 4.721569e-02 -53.6314 1060.3438)" width="4.5" height="1.2"/>
		</g>
		<g>
			
				<rect x="532.5" y="552.3" transform="matrix(4.697885e-02 -0.9989 0.9989 4.697885e-02 -45.8124 1061.0714)" width="1.2" height="4.5"/>
		</g>
	</g>
</g>
</svg>
